<?xml version="1.0" encoding="UTF-8" standalone="no"?>
<!DOCTYPE svg PUBLIC "-//W3C//DTD SVG 1.1//EN"
 "http://www.w3.org/Graphics/SVG/1.1/DTD/svg11.dtd">
<!-- Generated by graphviz version 2.40.1 (20161225.0304)
 -->
<!-- Title: %3 Pages: 1 -->
<svg width="980pt" height="207pt"
 viewBox="0.00 0.00 979.50 206.89" xmlns="http://www.w3.org/2000/svg" xmlns:xlink="http://www.w3.org/1999/xlink">
<g id="graph0" class="graph" transform="scale(1 1) rotate(0) translate(4 202.8944)">
<title>%3</title>
<polygon fill="#ffffff" stroke="transparent" points="-4,4 -4,-202.8944 975.5,-202.8944 975.5,4 -4,4"/>
<!-- A -->
<g id="node1" class="node">
<title>A</title>
<polygon fill="#d3d3d3" stroke="#000000" points="24,-198.8944 0,-198.8944 0,-180.8944 24,-180.8944 24,-198.8944"/>
<text text-anchor="middle" x="12" y="-187.6944" font-family="Times,serif" font-size="9.00" fill="#000000">&#45;1</text>
</g>
<!-- 54 -->
<g id="node25" class="node">
<title>54</title>
<ellipse fill="#ffffff" stroke="#000000" cx="463" cy="-122.267" rx="22.7556" ry="22.7556"/>
<text text-anchor="middle" x="463" y="-125.067" font-family="Times,serif" font-size="9.00" fill="#000000">54</text>
<text text-anchor="middle" x="463" y="-115.067" font-family="Times,serif" font-size="9.00" fill="#000000">tanh</text>
</g>
<!-- A&#45;&gt;54 -->
<g id="edge1" class="edge">
<title>A&#45;&gt;54</title>
<path fill="none" stroke="#ff0000" stroke-width=".2399" d="M24.2376,-183.9966C27.0637,-182.8192 30.0948,-181.6991 33,-180.8944 177.3446,-140.9149 356.8077,-127.6736 429.8048,-123.7521"/>
<polygon fill="#ff0000" stroke="#ff0000" stroke-width=".2399" points="430.3783,-127.2274 440.1858,-123.2196 430.0196,-120.2366 430.3783,-127.2274"/>
</g>
<!-- B -->
<g id="node2" class="node">
<title>B</title>
<polygon fill="#d3d3d3" stroke="#000000" points="66,-198.8944 42,-198.8944 42,-180.8944 66,-180.8944 66,-198.8944"/>
<text text-anchor="middle" x="54" y="-187.6944" font-family="Times,serif" font-size="9.00" fill="#000000">&#45;2</text>
</g>
<!-- B&#45;&gt;54 -->
<g id="edge2" class="edge">
<title>B&#45;&gt;54</title>
<path fill="none" stroke="#ff0000" stroke-width=".2601" d="M66.2463,-184.0277C69.072,-182.8487 72.1007,-181.7201 75,-180.8944 203.4297,-144.3211 362.6579,-129.3835 430.2275,-124.3912"/>
<polygon fill="#ff0000" stroke="#ff0000" stroke-width=".2601" points="430.5413,-127.8778 440.2663,-123.6736 430.0421,-120.8956 430.5413,-127.8778"/>
</g>
<!-- &#45;3 -->
<g id="node3" class="node">
<title>&#45;3</title>
<polygon fill="#d3d3d3" stroke="#000000" points="108,-198.8944 84,-198.8944 84,-180.8944 108,-180.8944 108,-198.8944"/>
<text text-anchor="middle" x="96" y="-187.6944" font-family="Times,serif" font-size="9.00" fill="#000000">&#45;3</text>
</g>
<!-- &#45;3&#45;&gt;54 -->
<g id="edge3" class="edge">
<title>&#45;3&#45;&gt;54</title>
<path fill="none" stroke="#00ff00" stroke-width=".1233" d="M108.2574,-184.0661C111.0826,-182.8851 114.1082,-181.746 117,-180.8944 229.4303,-147.7877 368.2673,-131.3315 430.3376,-125.1964"/>
<polygon fill="#00ff00" stroke="#00ff00" stroke-width=".1233" points="430.7015,-128.6776 440.3194,-124.234 430.0296,-121.71 430.7015,-128.6776"/>
</g>
<!-- &#45;4 -->
<g id="node4" class="node">
<title>&#45;4</title>
<polygon fill="#d3d3d3" stroke="#000000" points="150,-198.8944 126,-198.8944 126,-180.8944 150,-180.8944 150,-198.8944"/>
<text text-anchor="middle" x="138" y="-187.6944" font-family="Times,serif" font-size="9.00" fill="#000000">&#45;4</text>
</g>
<!-- &#45;4&#45;&gt;54 -->
<g id="edge4" class="edge">
<title>&#45;4&#45;&gt;54</title>
<path fill="none" stroke="#ff0000" stroke-width=".437" d="M150.272,-184.1146C153.0964,-182.9311 156.118,-181.7787 159,-180.8944 255.5494,-151.271 374.1329,-133.5503 430.3975,-126.2179"/>
<polygon fill="#ff0000" stroke="#ff0000" stroke-width=".437" points="431.0017,-129.6692 440.477,-124.9292 430.1139,-122.7258 431.0017,-129.6692"/>
</g>
<!-- &#45;5 -->
<g id="node5" class="node">
<title>&#45;5</title>
<polygon fill="#d3d3d3" stroke="#000000" points="192,-198.8944 168,-198.8944 168,-180.8944 192,-180.8944 192,-198.8944"/>
<text text-anchor="middle" x="180" y="-187.6944" font-family="Times,serif" font-size="9.00" fill="#000000">&#45;5</text>
</g>
<!-- &#45;5&#45;&gt;54 -->
<g id="edge5" class="edge">
<title>&#45;5&#45;&gt;54</title>
<path fill="none" stroke="#ff0000" stroke-width=".1033" d="M192.2919,-184.1778C195.1153,-182.991 198.1314,-181.8213 201,-180.8944 281.9526,-154.7383 380.6508,-136.0777 430.6418,-127.5201"/>
<polygon fill="#ff0000" stroke="#ff0000" stroke-width=".1033" points="431.2682,-130.964 440.5461,-125.8483 430.103,-124.0616 431.2682,-130.964"/>
</g>
<!-- &#45;6 -->
<g id="node6" class="node">
<title>&#45;6</title>
<polygon fill="#d3d3d3" stroke="#000000" points="234,-198.8944 210,-198.8944 210,-180.8944 234,-180.8944 234,-198.8944"/>
<text text-anchor="middle" x="222" y="-187.6944" font-family="Times,serif" font-size="9.00" fill="#000000">&#45;6</text>
</g>
<!-- &#45;6&#45;&gt;54 -->
<g id="edge6" class="edge">
<title>&#45;6&#45;&gt;54</title>
<path fill="none" stroke="#00ff00" stroke-width=".1422" d="M234.3205,-184.2632C237.1423,-183.072 240.1507,-181.8789 243,-180.8944 308.5776,-158.2371 387.6548,-139.088 430.89,-129.2879"/>
<polygon fill="#00ff00" stroke="#00ff00" stroke-width=".1422" points="431.8353,-132.6629 440.8259,-127.0577 430.3022,-125.8328 431.8353,-132.6629"/>
</g>
<!-- &#45;7 -->
<g id="node7" class="node">
<title>&#45;7</title>
<polygon fill="#d3d3d3" stroke="#000000" points="276,-198.8944 252,-198.8944 252,-180.8944 276,-180.8944 276,-198.8944"/>
<text text-anchor="middle" x="264" y="-187.6944" font-family="Times,serif" font-size="9.00" fill="#000000">&#45;7</text>
</g>
<!-- &#45;7&#45;&gt;54 -->
<g id="edge7" class="edge">
<title>&#45;7&#45;&gt;54</title>
<path fill="none" stroke="#ff0000" stroke-width=".1598" d="M276.3644,-184.3846C279.184,-183.1871 282.1803,-181.9607 285,-180.8944 335.5496,-161.7788 395.439,-142.7873 431.267,-131.8065"/>
<polygon fill="#ff0000" stroke="#ff0000" stroke-width=".1598" points="432.5966,-135.0603 441.1415,-128.7964 430.5555,-128.3645 432.5966,-135.0603"/>
</g>
<!-- &#45;8 -->
<g id="node8" class="node">
<title>&#45;8</title>
<polygon fill="#d3d3d3" stroke="#000000" points="318,-198.8944 294,-198.8944 294,-180.8944 318,-180.8944 318,-198.8944"/>
<text text-anchor="middle" x="306" y="-187.6944" font-family="Times,serif" font-size="9.00" fill="#000000">&#45;8</text>
</g>
<!-- &#45;8&#45;&gt;54 -->
<g id="edge8" class="edge">
<title>&#45;8&#45;&gt;54</title>
<path fill="none" stroke="#00ff00" stroke-width=".1247" d="M318.0588,-184.7001C342.4087,-174.2115 398.0874,-150.228 432.9123,-135.2273"/>
<polygon fill="#00ff00" stroke="#00ff00" stroke-width=".1247" points="434.3387,-138.4238 442.1383,-131.2532 431.5695,-131.9948 434.3387,-138.4238"/>
</g>
<!-- &#45;9 -->
<g id="node9" class="node">
<title>&#45;9</title>
<polygon fill="#d3d3d3" stroke="#000000" points="360,-198.8944 336,-198.8944 336,-180.8944 360,-180.8944 360,-198.8944"/>
<text text-anchor="middle" x="348" y="-187.6944" font-family="Times,serif" font-size="9.00" fill="#000000">&#45;9</text>
</g>
<!-- &#45;9&#45;&gt;54 -->
<g id="edge9" class="edge">
<title>&#45;9&#45;&gt;54</title>
<path fill="none" stroke="#ff0000" stroke-width=".353" d="M360.307,-182.6571C377.8787,-172.3238 410.6617,-153.0453 434.4722,-139.0432"/>
<polygon fill="#ff0000" stroke="#ff0000" stroke-width=".353" points="436.2622,-142.051 443.108,-133.9648 432.7138,-136.017 436.2622,-142.051"/>
</g>
<!-- &#45;10 -->
<g id="node10" class="node">
<title>&#45;10</title>
<polygon fill="#d3d3d3" stroke="#000000" points="407.5,-198.8944 378.5,-198.8944 378.5,-180.8944 407.5,-180.8944 407.5,-198.8944"/>
<text text-anchor="middle" x="393" y="-187.6944" font-family="Times,serif" font-size="9.00" fill="#000000">&#45;10</text>
</g>
<!-- &#45;10&#45;&gt;54 -->
<g id="edge10" class="edge">
<title>&#45;10&#45;&gt;54</title>
<path fill="none" stroke="#00ff00" stroke-width=".3064" d="M402.4405,-180.7739C411.7736,-171.7572 426.4383,-157.5895 438.9991,-145.4545"/>
<polygon fill="#00ff00" stroke="#00ff00" stroke-width=".3064" points="441.7216,-147.6909 446.4816,-138.2255 436.8578,-142.6565 441.7216,-147.6909"/>
</g>
<!-- &#45;11 -->
<g id="node11" class="node">
<title>&#45;11</title>
<polygon fill="#d3d3d3" stroke="#000000" points="454.5,-198.8944 425.5,-198.8944 425.5,-180.8944 454.5,-180.8944 454.5,-198.8944"/>
<text text-anchor="middle" x="440" y="-187.6944" font-family="Times,serif" font-size="9.00" fill="#000000">&#45;11</text>
</g>
<!-- &#45;11&#45;&gt;54 -->
<g id="edge11" class="edge">
<title>&#45;11&#45;&gt;54</title>
<path fill="none" stroke="#ff0000" stroke-width=".1963" d="M443.1019,-180.7739C445.5113,-173.6894 449.0022,-163.4251 452.3895,-153.4652"/>
<polygon fill="#ff0000" stroke="#ff0000" stroke-width=".1963" points="455.7921,-154.3303 455.6985,-143.7359 449.1649,-152.0764 455.7921,-154.3303"/>
</g>
<!-- &#45;12 -->
<g id="node12" class="node">
<title>&#45;12</title>
<polygon fill="#d3d3d3" stroke="#000000" points="501.5,-198.8944 472.5,-198.8944 472.5,-180.8944 501.5,-180.8944 501.5,-198.8944"/>
<text text-anchor="middle" x="487" y="-187.6944" font-family="Times,serif" font-size="9.00" fill="#000000">&#45;12</text>
</g>
<!-- &#45;12&#45;&gt;54 -->
<g id="edge12" class="edge">
<title>&#45;12&#45;&gt;54</title>
<path fill="none" stroke="#00ff00" stroke-width=".1437" d="M483.7633,-180.7739C481.2491,-173.6894 477.6064,-163.4251 474.0718,-153.4652"/>
<polygon fill="#00ff00" stroke="#00ff00" stroke-width=".1437" points="477.262,-151.9894 470.619,-143.7359 470.6651,-154.3306 477.262,-151.9894"/>
</g>
<!-- &#45;13 -->
<g id="node13" class="node">
<title>&#45;13</title>
<polygon fill="#d3d3d3" stroke="#000000" points="548.5,-198.8944 519.5,-198.8944 519.5,-180.8944 548.5,-180.8944 548.5,-198.8944"/>
<text text-anchor="middle" x="534" y="-187.6944" font-family="Times,serif" font-size="9.00" fill="#000000">&#45;13</text>
</g>
<!-- &#45;13&#45;&gt;54 -->
<g id="edge13" class="edge">
<title>&#45;13&#45;&gt;54</title>
<path fill="none" stroke="#00ff00" stroke-width=".1884" d="M524.4246,-180.7739C514.8056,-171.6118 499.6031,-157.1315 486.7294,-144.8693"/>
<polygon fill="#00ff00" stroke="#00ff00" stroke-width=".1884" points="489.1334,-142.3254 479.4785,-137.9627 484.3055,-147.3941 489.1334,-142.3254"/>
</g>
<!-- &#45;14 -->
<g id="node14" class="node">
<title>&#45;14</title>
<polygon fill="#d3d3d3" stroke="#000000" points="595.5,-198.8944 566.5,-198.8944 566.5,-180.8944 595.5,-180.8944 595.5,-198.8944"/>
<text text-anchor="middle" x="581" y="-187.6944" font-family="Times,serif" font-size="9.00" fill="#000000">&#45;14</text>
</g>
<!-- &#45;14&#45;&gt;54 -->
<g id="edge14" class="edge">
<title>&#45;14&#45;&gt;54</title>
<path fill="none" stroke="#ff0000" stroke-width=".1164" d="M566.0552,-181.3294C547.4408,-170.6612 515.2334,-152.2027 491.7681,-138.7544"/>
<polygon fill="#ff0000" stroke="#ff0000" stroke-width=".1164" points="493.3543,-135.6295 482.9378,-133.6937 489.8736,-141.7028 493.3543,-135.6295"/>
</g>
<!-- &#45;15 -->
<g id="node15" class="node">
<title>&#45;15</title>
<polygon fill="#d3d3d3" stroke="#000000" points="642.5,-198.8944 613.5,-198.8944 613.5,-180.8944 642.5,-180.8944 642.5,-198.8944"/>
<text text-anchor="middle" x="628" y="-187.6944" font-family="Times,serif" font-size="9.00" fill="#000000">&#45;15</text>
</g>
<!-- &#45;15&#45;&gt;54 -->
<g id="edge15" class="edge">
<title>&#45;15&#45;&gt;54</title>
<path fill="none" stroke="#ff0000" stroke-width=".1466" d="M613.3574,-183.893C586.5389,-172.9011 529.0254,-149.3284 493.4159,-134.7334"/>
<polygon fill="#ff0000" stroke="#ff0000" stroke-width=".1466" points="494.5772,-131.4268 483.9968,-130.8728 491.9224,-137.9039 494.5772,-131.4268"/>
</g>
<!-- &#45;16 -->
<g id="node16" class="node">
<title>&#45;16</title>
<polygon fill="#d3d3d3" stroke="#000000" points="689.5,-198.8944 660.5,-198.8944 660.5,-180.8944 689.5,-180.8944 689.5,-198.8944"/>
<text text-anchor="middle" x="675" y="-187.6944" font-family="Times,serif" font-size="9.00" fill="#000000">&#45;16</text>
</g>
<!-- &#45;16&#45;&gt;54 -->
<g id="edge16" class="edge">
<title>&#45;16&#45;&gt;54</title>
<path fill="none" stroke="#00ff00" stroke-width=".265" d="M660.4586,-184.0215C657.6646,-182.945 654.7519,-181.8582 652,-180.8944 597.3191,-161.7431 532.661,-142.3815 494.9011,-131.3979"/>
<polygon fill="#00ff00" stroke="#00ff00" stroke-width=".265" points="495.5737,-127.9489 484.9948,-128.5292 493.6266,-134.6727 495.5737,-127.9489"/>
</g>
<!-- &#45;17 -->
<g id="node17" class="node">
<title>&#45;17</title>
<polygon fill="#d3d3d3" stroke="#000000" points="736.5,-198.8944 707.5,-198.8944 707.5,-180.8944 736.5,-180.8944 736.5,-198.8944"/>
<text text-anchor="middle" x="722" y="-187.6944" font-family="Times,serif" font-size="9.00" fill="#000000">&#45;17</text>
</g>
<!-- &#45;17&#45;&gt;54 -->
<g id="edge17" class="edge">
<title>&#45;17&#45;&gt;54</title>
<path fill="none" stroke="#ff0000" stroke-width=".2787" d="M707.0064,-183.7056C704.3599,-182.7058 701.6149,-181.727 699,-180.8944 627.3442,-158.0801 541.148,-138.6304 495.3372,-128.9085"/>
<polygon fill="#ff0000" stroke="#ff0000" stroke-width=".2787" points="495.8993,-125.4502 485.393,-126.8167 494.4583,-132.3003 495.8993,-125.4502"/>
</g>
<!-- &#45;18 -->
<g id="node18" class="node">
<title>&#45;18</title>
<polygon fill="#d3d3d3" stroke="#000000" points="783.5,-198.8944 754.5,-198.8944 754.5,-180.8944 783.5,-180.8944 783.5,-198.8944"/>
<text text-anchor="middle" x="769" y="-187.6944" font-family="Times,serif" font-size="9.00" fill="#000000">&#45;18</text>
</g>
<!-- &#45;18&#45;&gt;54 -->
<g id="edge18" class="edge">
<title>&#45;18&#45;&gt;54</title>
<path fill="none" stroke="#ff0000" stroke-width=".2075" d="M754.0331,-183.6188C751.3836,-182.6286 748.6307,-181.6756 746,-180.8944 657.1261,-154.5058 549.1182,-135.6685 495.8943,-127.2288"/>
<polygon fill="#ff0000" stroke="#ff0000" stroke-width=".2075" points="496.1191,-123.7215 485.6982,-125.6335 495.0369,-130.6373 496.1191,-123.7215"/>
</g>
<!-- &#45;19 -->
<g id="node19" class="node">
<title>&#45;19</title>
<polygon fill="#d3d3d3" stroke="#000000" points="830.5,-198.8944 801.5,-198.8944 801.5,-180.8944 830.5,-180.8944 830.5,-198.8944"/>
<text text-anchor="middle" x="816" y="-187.6944" font-family="Times,serif" font-size="9.00" fill="#000000">&#45;19</text>
</g>
<!-- &#45;19&#45;&gt;54 -->
<g id="edge19" class="edge">
<title>&#45;19&#45;&gt;54</title>
<path fill="none" stroke="#00ff00" stroke-width=".1192" d="M801.0514,-183.5556C798.3999,-182.5724 795.6416,-181.6381 793,-180.8944 686.2648,-150.8477 555.5821,-133.0481 495.7439,-125.9113"/>
<polygon fill="#00ff00" stroke="#00ff00" stroke-width=".1192" points="496.0917,-122.4282 485.7523,-124.7408 495.2771,-129.3806 496.0917,-122.4282"/>
</g>
<!-- &#45;20 -->
<g id="node20" class="node">
<title>&#45;20</title>
<polygon fill="#d3d3d3" stroke="#000000" points="877.5,-198.8944 848.5,-198.8944 848.5,-180.8944 877.5,-180.8944 877.5,-198.8944"/>
<text text-anchor="middle" x="863" y="-187.6944" font-family="Times,serif" font-size="9.00" fill="#000000">&#45;20</text>
</g>
<!-- &#45;20&#45;&gt;54 -->
<g id="edge20" class="edge">
<title>&#45;20&#45;&gt;54</title>
<path fill="none" stroke="#00ff00" stroke-width=".3935" d="M848.0647,-183.5075C845.4116,-182.5296 842.6494,-181.6096 840,-180.8944 715.5138,-147.2939 562.3609,-130.8942 496.1172,-124.9644"/>
<polygon fill="#00ff00" stroke="#00ff00" stroke-width=".3935" points="496.1485,-121.4539 485.8818,-124.0702 495.5392,-128.4273 496.1485,-121.4539"/>
</g>
<!-- &#45;21 -->
<g id="node21" class="node">
<title>&#45;21</title>
<polygon fill="#d3d3d3" stroke="#000000" points="924.5,-198.8944 895.5,-198.8944 895.5,-180.8944 924.5,-180.8944 924.5,-198.8944"/>
<text text-anchor="middle" x="910" y="-187.6944" font-family="Times,serif" font-size="9.00" fill="#000000">&#45;21</text>
</g>
<!-- &#45;21&#45;&gt;54 -->
<g id="edge21" class="edge">
<title>&#45;21&#45;&gt;54</title>
<path fill="none" stroke="#ff0000" stroke-width=".1028" d="M895.0747,-183.4697C892.4206,-182.4961 889.6554,-181.5872 887,-180.8944 744.3988,-143.6923 568.2816,-128.9456 496.1573,-124.1889"/>
<polygon fill="#ff0000" stroke="#ff0000" stroke-width=".1028" points="496.0933,-120.6778 485.8906,-123.5336 495.6474,-127.6636 496.0933,-120.6778"/>
</g>
<!-- &#45;22 -->
<g id="node22" class="node">
<title>&#45;22</title>
<polygon fill="#d3d3d3" stroke="#000000" points="971.5,-198.8944 942.5,-198.8944 942.5,-180.8944 971.5,-180.8944 971.5,-198.8944"/>
<text text-anchor="middle" x="957" y="-187.6944" font-family="Times,serif" font-size="9.00" fill="#000000">&#45;22</text>
</g>
<!-- &#45;22&#45;&gt;54 -->
<g id="edge22" class="edge">
<title>&#45;22&#45;&gt;54</title>
<path fill="none" stroke="#ff0000" stroke-width=".1604" d="M942.0825,-183.4393C939.4275,-182.469 936.66,-181.5692 934,-180.8944 773.0398,-140.0666 573.6271,-127.1877 496.0437,-123.5553"/>
<polygon fill="#ff0000" stroke="#ff0000" stroke-width=".1604" points="496.0681,-120.0529 485.9216,-123.1021 495.755,-127.0459 496.0681,-120.0529"/>
</g>
<!-- A XOR B -->
<g id="node23" class="node">
<title>A XOR B</title>
<ellipse fill="#add8e6" stroke="#000000" cx="422" cy="-31.8198" rx="31.6406" ry="31.6406"/>
<text text-anchor="middle" x="422" y="-34.6198" font-family="Times,serif" font-size="9.00" fill="#000000">0</text>
<text text-anchor="middle" x="422" y="-24.6198" font-family="Times,serif" font-size="9.00" fill="#000000">sigmoid</text>
</g>
<!-- 1 -->
<g id="node24" class="node">
<title>1</title>
<ellipse fill="#add8e6" stroke="#000000" cx="504" cy="-31.8198" rx="31.6406" ry="31.6406"/>
<text text-anchor="middle" x="504" y="-34.6198" font-family="Times,serif" font-size="9.00" fill="#000000">1</text>
<text text-anchor="middle" x="504" y="-24.6198" font-family="Times,serif" font-size="9.00" fill="#000000">sigmoid</text>
</g>
<!-- 54&#45;&gt;A XOR B -->
<g id="edge23" class="edge">
<title>54&#45;&gt;A XOR B</title>
<path fill="none" stroke="#00ff00" stroke-width=".2771" d="M453.4907,-101.2893C449.2826,-92.0059 444.1971,-80.7874 439.3521,-70.099"/>
<polygon fill="#00ff00" stroke="#00ff00" stroke-width=".2771" points="442.5007,-68.5674 435.1842,-60.9046 436.1251,-71.4575 442.5007,-68.5674"/>
</g>
<!-- 54&#45;&gt;1 -->
<g id="edge24" class="edge">
<title>54&#45;&gt;1</title>
<path fill="none" stroke="#00ff00" stroke-width=".5023" d="M472.5093,-101.2893C476.7174,-92.0059 481.8029,-80.7874 486.6479,-70.099"/>
<polygon fill="#00ff00" stroke="#00ff00" stroke-width=".5023" points="489.8749,-71.4575 490.8158,-60.9046 483.4993,-68.5674 489.8749,-71.4575"/>
</g>
</g>
</svg>
