<?xml version="1.0" encoding="UTF-8" standalone="no"?>
<!DOCTYPE svg PUBLIC "-//W3C//DTD SVG 1.1//EN"
 "http://www.w3.org/Graphics/SVG/1.1/DTD/svg11.dtd">
<!-- Generated by graphviz version 2.40.1 (20161225.0304)
 -->
<!-- Title: %3 Pages: 1 -->
<svg width="1333pt" height="225pt"
 viewBox="0.00 0.00 1333.11 225.28" xmlns="http://www.w3.org/2000/svg" xmlns:xlink="http://www.w3.org/1999/xlink">
<g id="graph0" class="graph" transform="scale(1 1) rotate(0) translate(4 221.2792)">
<title>%3</title>
<polygon fill="#ffffff" stroke="transparent" points="-4,4 -4,-221.2792 1329.1114,-221.2792 1329.1114,4 -4,4"/>
<!-- A -->
<g id="node1" class="node">
<title>A</title>
<polygon fill="#d3d3d3" stroke="#000000" points="967.2916,-217.2792 943.2916,-217.2792 943.2916,-199.2792 967.2916,-199.2792 967.2916,-217.2792"/>
<text text-anchor="middle" x="955.2916" y="-206.0792" font-family="Times,serif" font-size="9.00" fill="#000000">&#45;1</text>
</g>
<!-- A XOR B -->
<g id="node23" class="node">
<title>A XOR B</title>
<ellipse fill="#add8e6" stroke="#000000" cx="694.2916" cy="-31.8198" rx="31.6406" ry="31.6406"/>
<text text-anchor="middle" x="694.2916" y="-34.6198" font-family="Times,serif" font-size="9.00" fill="#000000">0</text>
<text text-anchor="middle" x="694.2916" y="-24.6198" font-family="Times,serif" font-size="9.00" fill="#000000">sigmoid</text>
</g>
<!-- A&#45;&gt;A XOR B -->
<g id="edge1" class="edge">
<title>A&#45;&gt;A XOR B</title>
<path fill="none" stroke="#00ff00" stroke-width=".4024" stroke-dasharray="1,5" d="M956.6497,-199.0347C959.1276,-178.3726 961.9814,-128.0388 936.2916,-99.6396 909.5901,-70.122 798.0338,-48.2312 736.1328,-38.0885"/>
<polygon fill="#00ff00" stroke="#00ff00" stroke-width=".4024" points="736.3428,-34.5775 725.9142,-36.447 735.2325,-41.4888 736.3428,-34.5775"/>
</g>
<!-- 1 -->
<g id="node24" class="node">
<title>1</title>
<ellipse fill="#add8e6" stroke="#000000" cx="453.2916" cy="-31.8198" rx="31.6406" ry="31.6406"/>
<text text-anchor="middle" x="453.2916" y="-34.6198" font-family="Times,serif" font-size="9.00" fill="#000000">1</text>
<text text-anchor="middle" x="453.2916" y="-24.6198" font-family="Times,serif" font-size="9.00" fill="#000000">sigmoid</text>
</g>
<!-- A&#45;&gt;1 -->
<g id="edge2" class="edge">
<title>A&#45;&gt;1</title>
<path fill="none" stroke="#00ff00" stroke-width=".1509" d="M943.1726,-208.1719C835.6364,-207.1623 47.9364,-198.5714 14.2916,-163.2792 -5.2249,-142.8071 -4.1184,-121.1122 14.2916,-99.6396 40.0427,-69.6048 306.5769,-44.1446 411.3382,-35.2233"/>
<polygon fill="#00ff00" stroke="#00ff00" stroke-width=".1509" points="411.8724,-38.6907 421.5431,-34.3631 411.2844,-31.7155 411.8724,-38.6907"/>
</g>
<!-- 666 -->
<g id="node26" class="node">
<title>666</title>
<ellipse fill="#ffffff" stroke="#000000" cx="1015.2916" cy="-131.4594" rx="31.6406" ry="31.6406"/>
<text text-anchor="middle" x="1015.2916" y="-134.2594" font-family="Times,serif" font-size="9.00" fill="#000000">666</text>
<text text-anchor="middle" x="1015.2916" y="-124.2594" font-family="Times,serif" font-size="9.00" fill="#000000">sigmoid</text>
</g>
<!-- A&#45;&gt;666 -->
<g id="edge48" class="edge">
<title>A&#45;&gt;666</title>
<path fill="none" stroke="#00ff00" stroke-width=".5147" d="M962.41,-199.1653C969.0816,-190.6235 979.4702,-177.3227 989.2796,-164.7633"/>
<polygon fill="#00ff00" stroke="#00ff00" stroke-width=".5147" points="992.2002,-166.71 995.5973,-156.6746 986.6835,-162.4012 992.2002,-166.71"/>
</g>
<!-- B -->
<g id="node2" class="node">
<title>B</title>
<polygon fill="#d3d3d3" stroke="#000000" points="580.2916,-140.4594 556.2916,-140.4594 556.2916,-122.4594 580.2916,-122.4594 580.2916,-140.4594"/>
<text text-anchor="middle" x="568.2916" y="-129.2594" font-family="Times,serif" font-size="9.00" fill="#000000">&#45;2</text>
</g>
<!-- B&#45;&gt;A XOR B -->
<g id="edge3" class="edge">
<title>B&#45;&gt;A XOR B</title>
<path fill="none" stroke="#ff0000" stroke-width=".1528" d="M572.9441,-122.3679C576.7209,-115.5756 582.5189,-106.3459 589.2916,-99.6396 609.1261,-79.9997 635.5363,-62.9747 656.9071,-50.8949"/>
<polygon fill="#ff0000" stroke="#ff0000" stroke-width=".1528" points="658.6608,-53.9247 665.7236,-46.0274 655.2776,-47.7966 658.6608,-53.9247"/>
</g>
<!-- B&#45;&gt;1 -->
<g id="edge4" class="edge">
<title>B&#45;&gt;1</title>
<path fill="none" stroke="#00ff00" stroke-width=".3557" stroke-dasharray="1,5" d="M563.0501,-122.2113C558.9905,-115.5109 552.9498,-106.4675 546.2916,-99.6396 529.3866,-82.3038 507.6492,-66.1848 489.4413,-54.0145"/>
<polygon fill="#00ff00" stroke="#00ff00" stroke-width=".3557" points="491.1061,-50.921 480.8231,-48.3692 487.2704,-56.7766 491.1061,-50.921"/>
</g>
<!-- &#45;3 -->
<g id="node3" class="node">
<title>&#45;3</title>
<polygon fill="#d3d3d3" stroke="#000000" points="622.2916,-140.4594 598.2916,-140.4594 598.2916,-122.4594 622.2916,-122.4594 622.2916,-140.4594"/>
<text text-anchor="middle" x="610.2916" y="-129.2594" font-family="Times,serif" font-size="9.00" fill="#000000">&#45;3</text>
</g>
<!-- &#45;3&#45;&gt;A XOR B -->
<g id="edge5" class="edge">
<title>&#45;3&#45;&gt;A XOR B</title>
<path fill="none" stroke="#00ff00" stroke-width=".4515" d="M615.793,-122.2685C619.8229,-115.7594 625.5667,-106.926 631.2916,-99.6396 641.4723,-86.6821 653.6048,-73.224 664.4922,-61.7452"/>
<polygon fill="#00ff00" stroke="#00ff00" stroke-width=".4515" points="667.0343,-64.1511 671.4339,-54.5129 661.9841,-59.3038 667.0343,-64.1511"/>
</g>
<!-- &#45;3&#45;&gt;1 -->
<g id="edge6" class="edge">
<title>&#45;3&#45;&gt;1</title>
<path fill="none" stroke="#00ff00" stroke-width=".4459" d="M605.9982,-122.433C602.3379,-115.4964 596.5247,-106.048 589.2916,-99.6396 561.1698,-74.7241 522.2523,-56.5425 493.2511,-45.3126"/>
<polygon fill="#00ff00" stroke="#00ff00" stroke-width=".4459" points="494.4181,-42.0122 483.826,-41.771 491.9558,-48.5649 494.4181,-42.0122"/>
</g>
<!-- &#45;4 -->
<g id="node4" class="node">
<title>&#45;4</title>
<polygon fill="#d3d3d3" stroke="#000000" points="1087.2916,-217.2792 1063.2916,-217.2792 1063.2916,-199.2792 1087.2916,-199.2792 1087.2916,-217.2792"/>
<text text-anchor="middle" x="1075.2916" y="-206.0792" font-family="Times,serif" font-size="9.00" fill="#000000">&#45;4</text>
</g>
<!-- &#45;4&#45;&gt;A XOR B -->
<g id="edge7" class="edge">
<title>&#45;4&#45;&gt;A XOR B</title>
<path fill="none" stroke="#ff0000" stroke-width=".2566" d="M1076.783,-199.1813C1079.6272,-178.3764 1083.3408,-127.017 1056.2916,-99.6396 1012.0731,-54.8845 821.9216,-38.8609 736.33,-33.843"/>
<polygon fill="#ff0000" stroke="#ff0000" stroke-width=".2566" points="736.3652,-30.3395 726.1841,-33.2713 735.9713,-37.3284 736.3652,-30.3395"/>
</g>
<!-- &#45;4&#45;&gt;1 -->
<g id="edge8" class="edge">
<title>&#45;4&#45;&gt;1</title>
<path fill="none" stroke="#ff0000" stroke-width=".1886" d="M1063.1146,-206.9678C1044.4503,-205.004 1007.6359,-201.3132 976.2916,-199.2792 925.0271,-195.9526 87.9032,-200.3053 52.2916,-163.2792 32.6848,-142.8936 34.0352,-121.2429 52.2916,-99.6396 75.3768,-72.3223 313.1178,-45.7625 411.2647,-35.8735"/>
<polygon fill="#ff0000" stroke="#ff0000" stroke-width=".1886" points="411.8173,-39.3358 421.4201,-34.8596 411.1219,-32.3704 411.8173,-39.3358"/>
</g>
<!-- 42 -->
<g id="node25" class="node">
<title>42</title>
<ellipse fill="#ffffff" stroke="#000000" cx="1135.2916" cy="-131.4594" rx="31.6406" ry="31.6406"/>
<text text-anchor="middle" x="1135.2916" y="-134.2594" font-family="Times,serif" font-size="9.00" fill="#000000">42</text>
<text text-anchor="middle" x="1135.2916" y="-124.2594" font-family="Times,serif" font-size="9.00" fill="#000000">sigmoid</text>
</g>
<!-- &#45;4&#45;&gt;42 -->
<g id="edge47" class="edge">
<title>&#45;4&#45;&gt;42</title>
<path fill="none" stroke="#00ff00" stroke-width=".3717" d="M1082.41,-199.1653C1089.0816,-190.6235 1099.4702,-177.3227 1109.2796,-164.7633"/>
<polygon fill="#00ff00" stroke="#00ff00" stroke-width=".3717" points="1112.2002,-166.71 1115.5973,-156.6746 1106.6835,-162.4012 1112.2002,-166.71"/>
</g>
<!-- &#45;5 -->
<g id="node5" class="node">
<title>&#45;5</title>
<polygon fill="#d3d3d3" stroke="#000000" points="664.2916,-140.4594 640.2916,-140.4594 640.2916,-122.4594 664.2916,-122.4594 664.2916,-140.4594"/>
<text text-anchor="middle" x="652.2916" y="-129.2594" font-family="Times,serif" font-size="9.00" fill="#000000">&#45;5</text>
</g>
<!-- &#45;5&#45;&gt;A XOR B -->
<g id="edge9" class="edge">
<title>&#45;5&#45;&gt;A XOR B</title>
<path fill="none" stroke="#ff0000" stroke-width=".292" d="M656.1676,-122.2642C661.1014,-110.5594 669.9371,-89.5978 677.8607,-70.7999"/>
<polygon fill="#ff0000" stroke="#ff0000" stroke-width=".292" points="681.1164,-72.0869 681.7755,-61.5126 674.6661,-69.3679 681.1164,-72.0869"/>
</g>
<!-- &#45;5&#45;&gt;1 -->
<g id="edge10" class="edge">
<title>&#45;5&#45;&gt;1</title>
<path fill="none" stroke="#ff0000" stroke-width=".3289" d="M648.1682,-122.2313C644.6016,-115.1835 638.8316,-105.6839 631.2916,-99.6396 590.907,-67.2658 533.369,-49.1273 494.7475,-39.9186"/>
<polygon fill="#ff0000" stroke="#ff0000" stroke-width=".3289" points="495.4012,-36.4778 484.8725,-37.6601 493.8404,-43.3016 495.4012,-36.4778"/>
</g>
<!-- &#45;6 -->
<g id="node6" class="node">
<title>&#45;6</title>
<polygon fill="#d3d3d3" stroke="#000000" points="706.2916,-140.4594 682.2916,-140.4594 682.2916,-122.4594 706.2916,-122.4594 706.2916,-140.4594"/>
<text text-anchor="middle" x="694.2916" y="-129.2594" font-family="Times,serif" font-size="9.00" fill="#000000">&#45;6</text>
</g>
<!-- &#45;6&#45;&gt;A XOR B -->
<g id="edge11" class="edge">
<title>&#45;6&#45;&gt;A XOR B</title>
<path fill="none" stroke="#00ff00" stroke-width=".1101" d="M694.2916,-122.2642C694.2916,-111.1778 694.2916,-91.7869 694.2916,-73.7958"/>
<polygon fill="#00ff00" stroke="#00ff00" stroke-width=".1101" points="697.7917,-73.7232 694.2916,-63.7232 690.7917,-73.7233 697.7917,-73.7232"/>
</g>
<!-- &#45;6&#45;&gt;1 -->
<g id="edge12" class="edge">
<title>&#45;6&#45;&gt;1</title>
<path fill="none" stroke="#00ff00" stroke-width=".3631" stroke-dasharray="1,5" d="M690.4177,-122.3852C686.924,-115.2322 681.1299,-105.5151 673.2916,-99.6396 619.9224,-59.6347 542.647,-42.9668 495.3114,-36.21"/>
<polygon fill="#00ff00" stroke="#00ff00" stroke-width=".3631" points="495.4851,-32.702 485.1085,-34.8412 494.5543,-39.6399 495.4851,-32.702"/>
</g>
<!-- &#45;7 -->
<g id="node7" class="node">
<title>&#45;7</title>
<polygon fill="#d3d3d3" stroke="#000000" points="748.2916,-140.4594 724.2916,-140.4594 724.2916,-122.4594 748.2916,-122.4594 748.2916,-140.4594"/>
<text text-anchor="middle" x="736.2916" y="-129.2594" font-family="Times,serif" font-size="9.00" fill="#000000">&#45;7</text>
</g>
<!-- &#45;7&#45;&gt;A XOR B -->
<g id="edge13" class="edge">
<title>&#45;7&#45;&gt;A XOR B</title>
<path fill="none" stroke="#00ff00" stroke-width=".1682" d="M732.4156,-122.2642C727.4818,-110.5594 718.6461,-89.5978 710.7225,-70.7999"/>
<polygon fill="#00ff00" stroke="#00ff00" stroke-width=".1682" points="713.9171,-69.3679 706.8077,-61.5126 707.4668,-72.0869 713.9171,-69.3679"/>
</g>
<!-- &#45;7&#45;&gt;1 -->
<g id="edge14" class="edge">
<title>&#45;7&#45;&gt;1</title>
<path fill="none" stroke="#ff0000" stroke-width=".2028" stroke-dasharray="1,5" d="M732.4883,-122.2887C729.0356,-115.0796 723.2622,-105.3344 715.2916,-99.6396 680.0007,-74.4254 559.3445,-50.3058 494.8061,-38.8161"/>
<polygon fill="#ff0000" stroke="#ff0000" stroke-width=".2028" points="495.4068,-35.3681 484.9516,-37.0823 494.1938,-42.2622 495.4068,-35.3681"/>
</g>
<!-- &#45;8 -->
<g id="node8" class="node">
<title>&#45;8</title>
<polygon fill="#d3d3d3" stroke="#000000" points="790.2916,-140.4594 766.2916,-140.4594 766.2916,-122.4594 790.2916,-122.4594 790.2916,-140.4594"/>
<text text-anchor="middle" x="778.2916" y="-129.2594" font-family="Times,serif" font-size="9.00" fill="#000000">&#45;8</text>
</g>
<!-- &#45;8&#45;&gt;A XOR B -->
<g id="edge15" class="edge">
<title>&#45;8&#45;&gt;A XOR B</title>
<path fill="none" stroke="#ff0000" stroke-width=".3172" d="M772.7902,-122.2685C768.7604,-115.7594 763.0165,-106.926 757.2916,-99.6396 747.1109,-86.6821 734.9784,-73.224 724.091,-61.7452"/>
<polygon fill="#ff0000" stroke="#ff0000" stroke-width=".3172" points="726.5991,-59.3038 717.1493,-54.5129 721.5489,-64.1511 726.5991,-59.3038"/>
</g>
<!-- &#45;8&#45;&gt;1 -->
<g id="edge16" class="edge">
<title>&#45;8&#45;&gt;1</title>
<path fill="none" stroke="#00ff00" stroke-width=".1586" stroke-dasharray="1,5" d="M774.5391,-122.2163C771.1158,-114.9653 765.3573,-105.1989 757.2916,-99.6396 715.0139,-70.4999 568.1648,-47.2713 495.1603,-37.2199"/>
<polygon fill="#00ff00" stroke="#00ff00" stroke-width=".1586" points="495.3262,-33.7103 484.9462,-35.8333 494.3845,-40.6467 495.3262,-33.7103"/>
</g>
<!-- &#45;9 -->
<g id="node9" class="node">
<title>&#45;9</title>
<polygon fill="#d3d3d3" stroke="#000000" points="832.2916,-140.4594 808.2916,-140.4594 808.2916,-122.4594 832.2916,-122.4594 832.2916,-140.4594"/>
<text text-anchor="middle" x="820.2916" y="-129.2594" font-family="Times,serif" font-size="9.00" fill="#000000">&#45;9</text>
</g>
<!-- &#45;9&#45;&gt;A XOR B -->
<g id="edge17" class="edge">
<title>&#45;9&#45;&gt;A XOR B</title>
<path fill="none" stroke="#ff0000" stroke-width=".3288" stroke-dasharray="1,5" d="M815.6391,-122.3679C811.8623,-115.5756 806.0643,-106.3459 799.2916,-99.6396 779.4571,-79.9997 753.0469,-62.9747 731.6761,-50.8949"/>
<polygon fill="#ff0000" stroke="#ff0000" stroke-width=".3288" points="733.3057,-47.7966 722.8596,-46.0274 729.9224,-53.9247 733.3057,-47.7966"/>
</g>
<!-- &#45;9&#45;&gt;1 -->
<g id="edge18" class="edge">
<title>&#45;9&#45;&gt;1</title>
<path fill="none" stroke="#00ff00" stroke-width=".4527" d="M816.7138,-122.4541C813.331,-115.1418 807.5387,-105.1675 799.2916,-99.6396 774.1589,-82.7936 581.4677,-51.5159 495.0251,-38.1463"/>
<polygon fill="#00ff00" stroke="#00ff00" stroke-width=".4527" points="495.4447,-34.6697 485.0285,-36.6068 494.3792,-41.5882 495.4447,-34.6697"/>
</g>
<!-- &#45;10 -->
<g id="node10" class="node">
<title>&#45;10</title>
<polygon fill="#d3d3d3" stroke="#000000" points="879.7916,-140.4594 850.7916,-140.4594 850.7916,-122.4594 879.7916,-122.4594 879.7916,-140.4594"/>
<text text-anchor="middle" x="865.2916" y="-129.2594" font-family="Times,serif" font-size="9.00" fill="#000000">&#45;10</text>
</g>
<!-- &#45;10&#45;&gt;A XOR B -->
<g id="edge19" class="edge">
<title>&#45;10&#45;&gt;A XOR B</title>
<path fill="none" stroke="#00ff00" stroke-width=".4333" stroke-dasharray="1,5" d="M860.1627,-122.395C855.857,-115.4376 849.157,-105.9795 841.2916,-99.6396 809.3041,-73.856 765.9168,-55.4048 734.5784,-44.3192"/>
<polygon fill="#00ff00" stroke="#00ff00" stroke-width=".4333" points="735.4513,-40.9184 724.8566,-40.9788 733.1766,-47.5385 735.4513,-40.9184"/>
</g>
<!-- &#45;10&#45;&gt;1 -->
<g id="edge20" class="edge">
<title>&#45;10&#45;&gt;1</title>
<path fill="none" stroke="#00ff00" stroke-width=".1394" d="M860.9094,-122.3958C856.8643,-115.048 850.1465,-105.0542 841.2916,-99.6396 833.8786,-95.1067 593.5315,-55.0002 494.9,-38.6812"/>
<polygon fill="#00ff00" stroke="#00ff00" stroke-width=".1394" points="495.4145,-35.2188 484.9775,-37.0407 494.2726,-42.1251 495.4145,-35.2188"/>
</g>
<!-- &#45;11 -->
<g id="node11" class="node">
<title>&#45;11</title>
<polygon fill="#d3d3d3" stroke="#000000" points="926.7916,-140.4594 897.7916,-140.4594 897.7916,-122.4594 926.7916,-122.4594 926.7916,-140.4594"/>
<text text-anchor="middle" x="912.2916" y="-129.2594" font-family="Times,serif" font-size="9.00" fill="#000000">&#45;11</text>
</g>
<!-- &#45;11&#45;&gt;A XOR B -->
<g id="edge21" class="edge">
<title>&#45;11&#45;&gt;A XOR B</title>
<path fill="none" stroke="#00ff00" stroke-width=".3282" d="M907.6234,-122.1745C903.6332,-115.0953 897.275,-105.5813 889.2916,-99.6396 842.9383,-65.141 777.6377,-47.1976 735.6339,-38.6394"/>
<polygon fill="#00ff00" stroke="#00ff00" stroke-width=".3282" points="736.2279,-35.1894 725.7428,-36.7099 734.8876,-42.0599 736.2279,-35.1894"/>
</g>
<!-- &#45;11&#45;&gt;1 -->
<g id="edge22" class="edge">
<title>&#45;11&#45;&gt;1</title>
<path fill="none" stroke="#ff0000" stroke-width=".1356" d="M908.2157,-122.3513C904.4147,-114.9764 898.0181,-104.9676 889.2916,-99.6396 798.7343,-44.3491 758.1287,-79.9752 653.2916,-63.6396 598.4839,-55.0995 535.2704,-45.0005 494.8273,-38.5075"/>
<polygon fill="#ff0000" stroke="#ff0000" stroke-width=".1356" points="495.2326,-35.0278 484.804,-36.8973 494.1222,-41.9392 495.2326,-35.0278"/>
</g>
<!-- &#45;12 -->
<g id="node12" class="node">
<title>&#45;12</title>
<polygon fill="#d3d3d3" stroke="#000000" points="161.7916,-140.4594 132.7916,-140.4594 132.7916,-122.4594 161.7916,-122.4594 161.7916,-140.4594"/>
<text text-anchor="middle" x="147.2916" y="-129.2594" font-family="Times,serif" font-size="9.00" fill="#000000">&#45;12</text>
</g>
<!-- &#45;12&#45;&gt;A XOR B -->
<g id="edge23" class="edge">
<title>&#45;12&#45;&gt;A XOR B</title>
<path fill="none" stroke="#ff0000" stroke-width=".3135" d="M151.3127,-122.2594C155.0802,-114.8283 161.4584,-104.7889 170.2916,-99.6396 232.8769,-63.1556 422.5,-73.3335 494.2916,-63.6396 549.2618,-56.2171 612.4376,-45.8582 652.8276,-39.0012"/>
<polygon fill="#ff0000" stroke="#ff0000" stroke-width=".3135" points="653.5676,-42.4256 662.837,-37.2943 652.3909,-35.5252 653.5676,-42.4256"/>
</g>
<!-- &#45;12&#45;&gt;1 -->
<g id="edge24" class="edge">
<title>&#45;12&#45;&gt;1</title>
<path fill="none" stroke="#ff0000" stroke-width=".2853" d="M151.6426,-122.2451C155.5318,-115.0108 161.9093,-105.2528 170.2916,-99.6396 209.6227,-73.3016 342.9967,-49.185 411.6709,-38.1487"/>
<polygon fill="#ff0000" stroke="#ff0000" stroke-width=".2853" points="412.3867,-41.579 421.714,-36.5539 411.2888,-34.6656 412.3867,-41.579"/>
</g>
<!-- &#45;13 -->
<g id="node13" class="node">
<title>&#45;13</title>
<polygon fill="#d3d3d3" stroke="#000000" points="1149.7916,-217.2792 1120.7916,-217.2792 1120.7916,-199.2792 1149.7916,-199.2792 1149.7916,-217.2792"/>
<text text-anchor="middle" x="1135.2916" y="-206.0792" font-family="Times,serif" font-size="9.00" fill="#000000">&#45;13</text>
</g>
<!-- &#45;13&#45;&gt;A XOR B -->
<g id="edge25" class="edge">
<title>&#45;13&#45;&gt;A XOR B</title>
<path fill="none" stroke="#ff0000" stroke-width=".1541" stroke-dasharray="1,5" d="M1147.614,-199.1267C1157.4745,-190.9714 1170.5668,-178.0628 1176.2916,-163.2792 1186.5054,-136.9035 1194.846,-120.9875 1176.2916,-99.6396 1147.5271,-66.5445 848.5705,-42.5336 736.4519,-34.6312"/>
<polygon fill="#ff0000" stroke="#ff0000" stroke-width=".1541" points="736.4194,-31.1206 726.2003,-33.917 735.9328,-38.1036 736.4194,-31.1206"/>
</g>
<!-- &#45;13&#45;&gt;1 -->
<g id="edge26" class="edge">
<title>&#45;13&#45;&gt;1</title>
<path fill="none" stroke="#ff0000" stroke-width=".4648" stroke-dasharray="1,5" d="M1120.5977,-204.1887C1113.3418,-202.3486 1104.4206,-200.3526 1096.2916,-199.2792 1040.8482,-191.9583 129.1228,-203.5248 90.2916,-163.2792 -6.9647,-62.4803 296.4532,-38.6481 411.2027,-33.2938"/>
<polygon fill="#ff0000" stroke="#ff0000" stroke-width=".4648" points="411.5441,-36.7823 421.3801,-32.8446 411.2354,-29.7891 411.5441,-36.7823"/>
</g>
<!-- &#45;13&#45;&gt;42 -->
<g id="edge45" class="edge">
<title>&#45;13&#45;&gt;42</title>
<path fill="none" stroke="#00ff00" stroke-width=".5988" d="M1135.2916,-199.1653C1135.2916,-192.6169 1135.2916,-183.2715 1135.2916,-173.6075"/>
<polygon fill="#00ff00" stroke="#00ff00" stroke-width=".5988" points="1138.7917,-173.525 1135.2916,-163.5251 1131.7917,-173.5251 1138.7917,-173.525"/>
</g>
<!-- &#45;14 -->
<g id="node14" class="node">
<title>&#45;14</title>
<polygon fill="#d3d3d3" stroke="#000000" points="208.7916,-140.4594 179.7916,-140.4594 179.7916,-122.4594 208.7916,-122.4594 208.7916,-140.4594"/>
<text text-anchor="middle" x="194.2916" y="-129.2594" font-family="Times,serif" font-size="9.00" fill="#000000">&#45;14</text>
</g>
<!-- &#45;14&#45;&gt;A XOR B -->
<g id="edge27" class="edge">
<title>&#45;14&#45;&gt;A XOR B</title>
<path fill="none" stroke="#ff0000" stroke-width=".1334" d="M198.3375,-122.3015C202.1202,-114.8961 208.5067,-104.8707 217.2916,-99.6396 323.9591,-36.1228 371.4213,-81.3945 494.2916,-63.6396 549.1904,-55.7066 612.3828,-45.4664 652.7961,-38.7757"/>
<polygon fill="#ff0000" stroke="#ff0000" stroke-width=".1334" points="653.5199,-42.2035 662.8116,-37.113 652.3734,-35.298 653.5199,-42.2035"/>
</g>
<!-- &#45;14&#45;&gt;1 -->
<g id="edge28" class="edge">
<title>&#45;14&#45;&gt;1</title>
<path fill="none" stroke="#ff0000" stroke-width=".2946" d="M198.7106,-122.3442C202.6392,-115.1674 209.0366,-105.4384 217.2916,-99.6396 276.5642,-58.003 361.121,-41.7602 411.2869,-35.5444"/>
<polygon fill="#ff0000" stroke="#ff0000" stroke-width=".2946" points="411.9187,-38.9946 421.4483,-34.3647 411.1113,-32.0413 411.9187,-38.9946"/>
</g>
<!-- &#45;15 -->
<g id="node15" class="node">
<title>&#45;15</title>
<polygon fill="#d3d3d3" stroke="#000000" points="255.7916,-140.4594 226.7916,-140.4594 226.7916,-122.4594 255.7916,-122.4594 255.7916,-140.4594"/>
<text text-anchor="middle" x="241.2916" y="-129.2594" font-family="Times,serif" font-size="9.00" fill="#000000">&#45;15</text>
</g>
<!-- &#45;15&#45;&gt;A XOR B -->
<g id="edge29" class="edge">
<title>&#45;15&#45;&gt;A XOR B</title>
<path fill="none" stroke="#ff0000" stroke-width=".2418" d="M245.3729,-122.3601C249.1771,-114.9904 255.5755,-104.9846 264.2916,-99.6396 352.4947,-45.5509 392.0896,-79.7681 494.2916,-63.6396 549.0826,-54.993 612.3,-44.9188 652.7485,-38.4605"/>
<polygon fill="#ff0000" stroke="#ff0000" stroke-width=".2418" points="653.4504,-41.8928 662.7733,-36.8594 652.3464,-34.9804 653.4504,-41.8928"/>
</g>
<!-- &#45;15&#45;&gt;1 -->
<g id="edge30" class="edge">
<title>&#45;15&#45;&gt;1</title>
<path fill="none" stroke="#00ff00" stroke-width=".4404" d="M245.976,-122.1961C249.9751,-115.1289 256.3374,-105.6204 264.2916,-99.6396 308.7292,-66.2266 371.1519,-48.1236 411.904,-39.2228"/>
<polygon fill="#00ff00" stroke="#00ff00" stroke-width=".4404" points="412.7042,-42.6312 421.7736,-37.1544 411.2683,-35.78 412.7042,-42.6312"/>
</g>
<!-- &#45;16 -->
<g id="node16" class="node">
<title>&#45;16</title>
<polygon fill="#d3d3d3" stroke="#000000" points="1247.7916,-217.2792 1218.7916,-217.2792 1218.7916,-199.2792 1247.7916,-199.2792 1247.7916,-217.2792"/>
<text text-anchor="middle" x="1233.2916" y="-206.0792" font-family="Times,serif" font-size="9.00" fill="#000000">&#45;16</text>
</g>
<!-- &#45;16&#45;&gt;A XOR B -->
<g id="edge31" class="edge">
<title>&#45;16&#45;&gt;A XOR B</title>
<path fill="none" stroke="#ff0000" stroke-width=".1821" stroke-dasharray="1,5" d="M1233.1068,-199.2232C1232.1441,-178.0465 1226.5637,-125.1583 1195.2916,-99.6396 1159.8872,-70.7488 850.5538,-43.9829 736.3869,-35.0029"/>
<polygon fill="#ff0000" stroke="#ff0000" stroke-width=".1821" points="736.5214,-31.5028 726.2794,-34.2143 735.9768,-38.4816 736.5214,-31.5028"/>
</g>
<!-- &#45;16&#45;&gt;1 -->
<g id="edge32" class="edge">
<title>&#45;16&#45;&gt;1</title>
<path fill="none" stroke="#ff0000" stroke-width=".3338" d="M1218.5868,-206.1112C1203.681,-204.0031 1179.9359,-200.8903 1159.2916,-199.2792 1101.8759,-194.7986 163.3007,-204.7028 123.2916,-163.2792 34.7684,-71.6265 304.1104,-42.2854 411.312,-34.3761"/>
<polygon fill="#ff0000" stroke="#ff0000" stroke-width=".3338" points="411.7356,-37.855 421.4628,-33.6558 411.2401,-30.8725 411.7356,-37.855"/>
</g>
<!-- 925 -->
<g id="node27" class="node">
<title>925</title>
<ellipse fill="#ffffff" stroke="#000000" cx="1293.2916" cy="-131.4594" rx="31.6406" ry="31.6406"/>
<text text-anchor="middle" x="1293.2916" y="-134.2594" font-family="Times,serif" font-size="9.00" fill="#000000">925</text>
<text text-anchor="middle" x="1293.2916" y="-124.2594" font-family="Times,serif" font-size="9.00" fill="#000000">sigmoid</text>
</g>
<!-- &#45;16&#45;&gt;925 -->
<g id="edge50" class="edge">
<title>&#45;16&#45;&gt;925</title>
<path fill="none" stroke="#00ff00" stroke-width=".3" d="M1240.41,-199.1653C1247.0816,-190.6235 1257.4702,-177.3227 1267.2796,-164.7633"/>
<polygon fill="#00ff00" stroke="#00ff00" stroke-width=".3" points="1270.2002,-166.71 1273.5973,-156.6746 1264.6835,-162.4012 1270.2002,-166.71"/>
</g>
<!-- &#45;17 -->
<g id="node17" class="node">
<title>&#45;17</title>
<polygon fill="#d3d3d3" stroke="#000000" points="302.7916,-140.4594 273.7916,-140.4594 273.7916,-122.4594 302.7916,-122.4594 302.7916,-140.4594"/>
<text text-anchor="middle" x="288.2916" y="-129.2594" font-family="Times,serif" font-size="9.00" fill="#000000">&#45;17</text>
</g>
<!-- &#45;17&#45;&gt;A XOR B -->
<g id="edge33" class="edge">
<title>&#45;17&#45;&gt;A XOR B</title>
<path fill="none" stroke="#00ff00" stroke-width=".1605" d="M292.4006,-122.4047C296.2218,-115.0623 302.6294,-105.0715 311.2916,-99.6396 325.764,-90.5644 556.7065,-53.4544 652.822,-38.3058"/>
<polygon fill="#00ff00" stroke="#00ff00" stroke-width=".1605" points="653.4401,-41.7517 662.7745,-36.7398 652.352,-34.8368 653.4401,-41.7517"/>
</g>
<!-- &#45;17&#45;&gt;1 -->
<g id="edge34" class="edge">
<title>&#45;17&#45;&gt;1</title>
<path fill="none" stroke="#00ff00" stroke-width=".1696" d="M293.149,-122.4144C297.2434,-115.4676 303.6496,-106.0145 311.2916,-99.6396 341.5433,-74.4039 382.7688,-56.0796 413.0072,-44.8875"/>
<polygon fill="#00ff00" stroke="#00ff00" stroke-width=".1696" points="414.5816,-48.0409 422.8091,-41.3656 412.2146,-41.4533 414.5816,-48.0409"/>
</g>
<!-- &#45;18 -->
<g id="node18" class="node">
<title>&#45;18</title>
<polygon fill="#d3d3d3" stroke="#000000" points="349.7916,-140.4594 320.7916,-140.4594 320.7916,-122.4594 349.7916,-122.4594 349.7916,-140.4594"/>
<text text-anchor="middle" x="335.2916" y="-129.2594" font-family="Times,serif" font-size="9.00" fill="#000000">&#45;18</text>
</g>
<!-- &#45;18&#45;&gt;A XOR B -->
<g id="edge35" class="edge">
<title>&#45;18&#45;&gt;A XOR B</title>
<path fill="none" stroke="#00ff00" stroke-width=".1593" d="M339.4343,-122.4578C343.276,-115.1478 349.6949,-105.1746 358.2916,-99.6396 382.9081,-83.7901 568.2302,-52.2316 652.6366,-38.4816"/>
<polygon fill="#00ff00" stroke="#00ff00" stroke-width=".1593" points="653.3421,-41.913 662.6524,-36.8565 652.2209,-35.0033 653.3421,-41.913"/>
</g>
<!-- &#45;18&#45;&gt;1 -->
<g id="edge36" class="edge">
<title>&#45;18&#45;&gt;1</title>
<path fill="none" stroke="#00ff00" stroke-width=".468" d="M340.8288,-122.209C345.1015,-115.5075 351.4273,-106.4636 358.2916,-99.6396 375.9089,-82.1258 398.4374,-65.834 417.1341,-53.6098"/>
<polygon fill="#00ff00" stroke="#00ff00" stroke-width=".468" points="419.1664,-56.4644 425.694,-48.1193 415.387,-50.5723 419.1664,-56.4644"/>
</g>
<!-- &#45;19 -->
<g id="node19" class="node">
<title>&#45;19</title>
<polygon fill="#d3d3d3" stroke="#000000" points="396.7916,-140.4594 367.7916,-140.4594 367.7916,-122.4594 396.7916,-122.4594 396.7916,-140.4594"/>
<text text-anchor="middle" x="382.2916" y="-129.2594" font-family="Times,serif" font-size="9.00" fill="#000000">&#45;19</text>
</g>
<!-- &#45;19&#45;&gt;A XOR B -->
<g id="edge37" class="edge">
<title>&#45;19&#45;&gt;A XOR B</title>
<path fill="none" stroke="#ff0000" stroke-width=".2074" d="M386.6356,-122.2346C390.5207,-114.9942 396.8961,-105.233 405.2916,-99.6396 445.5769,-72.7998 582.36,-48.831 652.3251,-37.9725"/>
<polygon fill="#ff0000" stroke="#ff0000" stroke-width=".2074" points="653.1954,-41.38 662.5496,-36.4052 652.1348,-34.4608 653.1954,-41.38"/>
</g>
<!-- &#45;19&#45;&gt;1 -->
<g id="edge38" class="edge">
<title>&#45;19&#45;&gt;1</title>
<path fill="none" stroke="#ff0000" stroke-width=".2288" stroke-dasharray="1,5" d="M388.8438,-122.2642C397.8553,-109.6177 414.567,-86.1649 428.7145,-66.3107"/>
<polygon fill="#ff0000" stroke="#ff0000" stroke-width=".2288" points="431.638,-68.2392 434.5908,-58.0641 425.9372,-64.1769 431.638,-68.2392"/>
</g>
<!-- &#45;20 -->
<g id="node20" class="node">
<title>&#45;20</title>
<polygon fill="#d3d3d3" stroke="#000000" points="443.7916,-140.4594 414.7916,-140.4594 414.7916,-122.4594 443.7916,-122.4594 443.7916,-140.4594"/>
<text text-anchor="middle" x="429.2916" y="-129.2594" font-family="Times,serif" font-size="9.00" fill="#000000">&#45;20</text>
</g>
<!-- &#45;20&#45;&gt;A XOR B -->
<g id="edge39" class="edge">
<title>&#45;20&#45;&gt;A XOR B</title>
<path fill="none" stroke="#ff0000" stroke-width=".1231" d="M433.7004,-122.3297C437.6231,-115.1444 444.0176,-105.4112 452.2916,-99.6396 513.5597,-56.9022 601.1145,-40.9952 652.3942,-35.1462"/>
<polygon fill="#ff0000" stroke="#ff0000" stroke-width=".1231" points="652.8825,-38.6141 662.4557,-34.0751 652.1414,-31.6535 652.8825,-38.6141"/>
</g>
<!-- &#45;20&#45;&gt;1 -->
<g id="edge40" class="edge">
<title>&#45;20&#45;&gt;1</title>
<path fill="none" stroke="#ff0000" stroke-width=".11" d="M431.5064,-122.2642C434.2284,-110.9636 439.0286,-91.0346 443.4317,-72.7548"/>
<polygon fill="#ff0000" stroke="#ff0000" stroke-width=".11" points="446.8821,-73.3759 445.8212,-62.8343 440.0767,-71.7366 446.8821,-73.3759"/>
</g>
<!-- &#45;21 -->
<g id="node21" class="node">
<title>&#45;21</title>
<polygon fill="#d3d3d3" stroke="#000000" points="490.7916,-140.4594 461.7916,-140.4594 461.7916,-122.4594 490.7916,-122.4594 490.7916,-140.4594"/>
<text text-anchor="middle" x="476.2916" y="-129.2594" font-family="Times,serif" font-size="9.00" fill="#000000">&#45;21</text>
</g>
<!-- &#45;21&#45;&gt;A XOR B -->
<g id="edge41" class="edge">
<title>&#45;21&#45;&gt;A XOR B</title>
<path fill="none" stroke="#00ff00" stroke-width=".1503" stroke-dasharray="1,5" d="M480.9598,-122.1745C484.95,-115.0953 491.3082,-105.5813 499.2916,-99.6396 545.6449,-65.141 610.9455,-47.1976 652.9493,-38.6394"/>
<polygon fill="#00ff00" stroke="#00ff00" stroke-width=".1503" points="653.6956,-42.0599 662.8404,-36.7099 652.3553,-35.1894 653.6956,-42.0599"/>
</g>
<!-- &#45;21&#45;&gt;1 -->
<g id="edge42" class="edge">
<title>&#45;21&#45;&gt;1</title>
<path fill="none" stroke="#ff0000" stroke-width=".2767" d="M474.169,-122.2642C471.5605,-110.9636 466.9603,-91.0346 462.7407,-72.7548"/>
<polygon fill="#ff0000" stroke="#ff0000" stroke-width=".2767" points="466.1103,-71.7908 460.4507,-62.8343 459.2897,-73.3653 466.1103,-71.7908"/>
</g>
<!-- &#45;22 -->
<g id="node22" class="node">
<title>&#45;22</title>
<polygon fill="#d3d3d3" stroke="#000000" points="537.7916,-140.4594 508.7916,-140.4594 508.7916,-122.4594 537.7916,-122.4594 537.7916,-140.4594"/>
<text text-anchor="middle" x="523.2916" y="-129.2594" font-family="Times,serif" font-size="9.00" fill="#000000">&#45;22</text>
</g>
<!-- &#45;22&#45;&gt;A XOR B -->
<g id="edge43" class="edge">
<title>&#45;22&#45;&gt;A XOR B</title>
<path fill="none" stroke="#00ff00" stroke-width=".113" d="M528.4205,-122.395C532.7262,-115.4376 539.4262,-105.9795 547.2916,-99.6396 579.2791,-73.856 622.6664,-55.4048 654.0048,-44.3192"/>
<polygon fill="#00ff00" stroke="#00ff00" stroke-width=".113" points="655.4066,-47.5385 663.7266,-40.9788 653.1319,-40.9184 655.4066,-47.5385"/>
</g>
<!-- &#45;22&#45;&gt;1 -->
<g id="edge44" class="edge">
<title>&#45;22&#45;&gt;1</title>
<path fill="none" stroke="#00ff00" stroke-width=".1536" d="M516.8316,-122.2642C507.9471,-109.6177 491.4708,-86.1649 477.5226,-66.3107"/>
<polygon fill="#00ff00" stroke="#00ff00" stroke-width=".1536" points="480.3415,-64.2347 471.729,-58.0641 474.6137,-68.2587 480.3415,-64.2347"/>
</g>
<!-- 42&#45;&gt;A XOR B -->
<g id="edge46" class="edge">
<title>42&#45;&gt;A XOR B</title>
<path fill="none" stroke="#00ff00" stroke-width=".1003" d="M1110.1589,-111.1831C1103.6731,-106.7843 1096.4838,-102.5758 1089.2916,-99.6396 967.722,-50.0089 810.7323,-36.6961 736.6102,-33.1266"/>
<polygon fill="#00ff00" stroke="#00ff00" stroke-width=".1003" points="736.4353,-29.6154 726.2896,-32.6675 736.1241,-36.6085 736.4353,-29.6154"/>
</g>
<!-- 666&#45;&gt;A XOR B -->
<g id="edge49" class="edge">
<title>666&#45;&gt;A XOR B</title>
<path fill="none" stroke="#00ff00" stroke-width=".2544" d="M990.003,-111.5463C983.5219,-107.1364 976.3739,-102.8319 969.2916,-99.6396 890.9567,-64.3304 791.4366,-45.6258 736.1487,-37.3088"/>
<polygon fill="#00ff00" stroke="#00ff00" stroke-width=".2544" points="736.4288,-33.8127 726.0276,-35.8286 735.4158,-40.739 736.4288,-33.8127"/>
</g>
<!-- 925&#45;&gt;A XOR B -->
<g id="edge51" class="edge">
<title>925&#45;&gt;A XOR B</title>
<path fill="none" stroke="#00ff00" stroke-width=".2012" d="M1268.2559,-110.9372C1261.7671,-106.5458 1254.5522,-102.4024 1247.2916,-99.6396 1153.5835,-63.9826 848.9907,-41.6005 736.5218,-34.3768"/>
<polygon fill="#00ff00" stroke="#00ff00" stroke-width=".2012" points="736.4526,-30.8654 726.251,-33.7251 736.0093,-37.8514 736.4526,-30.8654"/>
</g>
</g>
</svg>
