<?xml version="1.0" encoding="UTF-8" standalone="no"?>
<!DOCTYPE svg PUBLIC "-//W3C//DTD SVG 1.1//EN"
 "http://www.w3.org/Graphics/SVG/1.1/DTD/svg11.dtd">
<!-- Generated by graphviz version 2.38.0 (20140413.2041)
 -->
<!-- Title: %3 Pages: 1 -->
<svg width="93pt" height="222pt"
 viewBox="0.00 0.00 93.11 222.45" xmlns="http://www.w3.org/2000/svg" xmlns:xlink="http://www.w3.org/1999/xlink">
<g id="graph0" class="graph" transform="scale(1 1) rotate(0) translate(4 218.451)">
<title>%3</title>
<polygon fill="white" stroke="none" points="-4,4 -4,-218.451 89.1127,-218.451 89.1127,4 -4,4"/>
<!-- A -->
<g id="node1" class="node"><title>A</title>
<polygon fill="lightgray" stroke="black" points="43.1127,-214.451 19.1127,-214.451 19.1127,-196.451 43.1127,-196.451 43.1127,-214.451"/>
<text text-anchor="middle" x="31.1127" y="-203.251" font-family="Times New Roman,serif" font-size="9.00">&#45;1</text>
</g>
<!-- 126 -->
<g id="node4" class="node"><title>126</title>
<ellipse fill="white" stroke="black" cx="31.1127" cy="-129.338" rx="31.2258" ry="31.2258"/>
<text text-anchor="middle" x="31.1127" y="-132.138" font-family="Times New Roman,serif" font-size="9.00">126</text>
<text text-anchor="middle" x="31.1127" y="-122.138" font-family="Times New Roman,serif" font-size="9.00">sigmoid</text>
</g>
<!-- A&#45;&gt;126 -->
<g id="edge1" class="edge"><title>A&#45;&gt;126</title>
<path fill="none" stroke="green" stroke-width="0.228525" d="M31.1127,-196.236C31.1127,-189.859 31.1127,-180.499 31.1127,-170.824"/>
<polygon fill="green" stroke="green" stroke-width="0.228525" points="34.6128,-170.74 31.1127,-160.74 27.6128,-170.74 34.6128,-170.74"/>
</g>
<!-- B -->
<g id="node2" class="node"><title>B</title>
<polygon fill="lightgray" stroke="black" points="85.1127,-214.451 61.1127,-214.451 61.1127,-196.451 85.1127,-196.451 85.1127,-214.451"/>
<text text-anchor="middle" x="73.1127" y="-203.251" font-family="Times New Roman,serif" font-size="9.00">&#45;2</text>
</g>
<!-- A XOR B -->
<g id="node3" class="node"><title>A XOR B</title>
<ellipse fill="lightblue" stroke="black" cx="31.1127" cy="-31.1127" rx="31.2258" ry="31.2258"/>
<text text-anchor="middle" x="31.1127" y="-33.9127" font-family="Times New Roman,serif" font-size="9.00">0</text>
<text text-anchor="middle" x="31.1127" y="-23.9127" font-family="Times New Roman,serif" font-size="9.00">sigmoid</text>
</g>
<!-- 126&#45;&gt;A XOR B -->
<g id="edge2" class="edge"><title>126&#45;&gt;A XOR B</title>
<path fill="none" stroke="green" stroke-width="0.175431" d="M31.1127,-98.1558C31.1127,-90.0838 31.1127,-81.226 31.1127,-72.6924"/>
<polygon fill="green" stroke="green" stroke-width="0.175431" points="34.6128,-72.5187 31.1127,-62.5188 27.6128,-72.5188 34.6128,-72.5187"/>
</g>
</g>
</svg>
