<?xml version="1.0" encoding="utf-8" standalone="no"?>
<!DOCTYPE svg PUBLIC "-//W3C//DTD SVG 1.1//EN"
  "http://www.w3.org/Graphics/SVG/1.1/DTD/svg11.dtd">
<!-- Created with matplotlib (https://matplotlib.org/) -->
<svg height="345.6pt" version="1.1" viewBox="0 0 460.8 345.6" width="460.8pt" xmlns="http://www.w3.org/2000/svg" xmlns:xlink="http://www.w3.org/1999/xlink">
 <defs>
  <style type="text/css">
*{stroke-linecap:butt;stroke-linejoin:round;}
  </style>
 </defs>
 <g id="figure_1">
  <g id="patch_1">
   <path d="M 0 345.6 
L 460.8 345.6 
L 460.8 0 
L 0 0 
z
" style="fill:#ffffff;"/>
  </g>
  <g id="axes_1">
   <g id="patch_2">
    <path d="M 57.6 307.584 
L 414.72 307.584 
L 414.72 41.472 
L 57.6 41.472 
z
" style="fill:#ffffff;"/>
   </g>
   <g id="matplotlib.axis_1">
    <g id="xtick_1">
     <g id="line2d_1">
      <path clip-path="url(#p58d05220ea)" d="M 73.832727 307.584 
L 73.832727 41.472 
" style="fill:none;stroke:#b0b0b0;stroke-linecap:square;stroke-width:0.8;"/>
     </g>
     <g id="line2d_2">
      <defs>
       <path d="M 0 0 
L 0 3.5 
" id="mf5b12584de" style="stroke:#000000;stroke-width:0.8;"/>
      </defs>
      <g>
       <use style="stroke:#000000;stroke-width:0.8;" x="73.832727" xlink:href="#mf5b12584de" y="307.584"/>
      </g>
     </g>
     <g id="text_1">
      <!-- 0 -->
      <defs>
       <path d="M 31.78125 66.40625 
Q 24.171875 66.40625 20.328125 58.90625 
Q 16.5 51.421875 16.5 36.375 
Q 16.5 21.390625 20.328125 13.890625 
Q 24.171875 6.390625 31.78125 6.390625 
Q 39.453125 6.390625 43.28125 13.890625 
Q 47.125 21.390625 47.125 36.375 
Q 47.125 51.421875 43.28125 58.90625 
Q 39.453125 66.40625 31.78125 66.40625 
z
M 31.78125 74.21875 
Q 44.046875 74.21875 50.515625 64.515625 
Q 56.984375 54.828125 56.984375 36.375 
Q 56.984375 17.96875 50.515625 8.265625 
Q 44.046875 -1.421875 31.78125 -1.421875 
Q 19.53125 -1.421875 13.0625 8.265625 
Q 6.59375 17.96875 6.59375 36.375 
Q 6.59375 54.828125 13.0625 64.515625 
Q 19.53125 74.21875 31.78125 74.21875 
z
" id="DejaVuSans-48"/>
      </defs>
      <g transform="translate(70.651477 322.182437)scale(0.1 -0.1)">
       <use xlink:href="#DejaVuSans-48"/>
      </g>
     </g>
    </g>
    <g id="xtick_2">
     <g id="line2d_3">
      <path clip-path="url(#p58d05220ea)" d="M 142.253074 307.584 
L 142.253074 41.472 
" style="fill:none;stroke:#b0b0b0;stroke-linecap:square;stroke-width:0.8;"/>
     </g>
     <g id="line2d_4">
      <g>
       <use style="stroke:#000000;stroke-width:0.8;" x="142.253074" xlink:href="#mf5b12584de" y="307.584"/>
      </g>
     </g>
     <g id="text_2">
      <!-- 200 -->
      <defs>
       <path d="M 19.1875 8.296875 
L 53.609375 8.296875 
L 53.609375 0 
L 7.328125 0 
L 7.328125 8.296875 
Q 12.9375 14.109375 22.625 23.890625 
Q 32.328125 33.6875 34.8125 36.53125 
Q 39.546875 41.84375 41.421875 45.53125 
Q 43.3125 49.21875 43.3125 52.78125 
Q 43.3125 58.59375 39.234375 62.25 
Q 35.15625 65.921875 28.609375 65.921875 
Q 23.96875 65.921875 18.8125 64.3125 
Q 13.671875 62.703125 7.8125 59.421875 
L 7.8125 69.390625 
Q 13.765625 71.78125 18.9375 73 
Q 24.125 74.21875 28.421875 74.21875 
Q 39.75 74.21875 46.484375 68.546875 
Q 53.21875 62.890625 53.21875 53.421875 
Q 53.21875 48.921875 51.53125 44.890625 
Q 49.859375 40.875 45.40625 35.40625 
Q 44.1875 33.984375 37.640625 27.21875 
Q 31.109375 20.453125 19.1875 8.296875 
z
" id="DejaVuSans-50"/>
      </defs>
      <g transform="translate(132.709324 322.182437)scale(0.1 -0.1)">
       <use xlink:href="#DejaVuSans-50"/>
       <use x="63.623047" xlink:href="#DejaVuSans-48"/>
       <use x="127.246094" xlink:href="#DejaVuSans-48"/>
      </g>
     </g>
    </g>
    <g id="xtick_3">
     <g id="line2d_5">
      <path clip-path="url(#p58d05220ea)" d="M 210.673421 307.584 
L 210.673421 41.472 
" style="fill:none;stroke:#b0b0b0;stroke-linecap:square;stroke-width:0.8;"/>
     </g>
     <g id="line2d_6">
      <g>
       <use style="stroke:#000000;stroke-width:0.8;" x="210.673421" xlink:href="#mf5b12584de" y="307.584"/>
      </g>
     </g>
     <g id="text_3">
      <!-- 400 -->
      <defs>
       <path d="M 37.796875 64.3125 
L 12.890625 25.390625 
L 37.796875 25.390625 
z
M 35.203125 72.90625 
L 47.609375 72.90625 
L 47.609375 25.390625 
L 58.015625 25.390625 
L 58.015625 17.1875 
L 47.609375 17.1875 
L 47.609375 0 
L 37.796875 0 
L 37.796875 17.1875 
L 4.890625 17.1875 
L 4.890625 26.703125 
z
" id="DejaVuSans-52"/>
      </defs>
      <g transform="translate(201.129671 322.182437)scale(0.1 -0.1)">
       <use xlink:href="#DejaVuSans-52"/>
       <use x="63.623047" xlink:href="#DejaVuSans-48"/>
       <use x="127.246094" xlink:href="#DejaVuSans-48"/>
      </g>
     </g>
    </g>
    <g id="xtick_4">
     <g id="line2d_7">
      <path clip-path="url(#p58d05220ea)" d="M 279.093768 307.584 
L 279.093768 41.472 
" style="fill:none;stroke:#b0b0b0;stroke-linecap:square;stroke-width:0.8;"/>
     </g>
     <g id="line2d_8">
      <g>
       <use style="stroke:#000000;stroke-width:0.8;" x="279.093768" xlink:href="#mf5b12584de" y="307.584"/>
      </g>
     </g>
     <g id="text_4">
      <!-- 600 -->
      <defs>
       <path d="M 33.015625 40.375 
Q 26.375 40.375 22.484375 35.828125 
Q 18.609375 31.296875 18.609375 23.390625 
Q 18.609375 15.53125 22.484375 10.953125 
Q 26.375 6.390625 33.015625 6.390625 
Q 39.65625 6.390625 43.53125 10.953125 
Q 47.40625 15.53125 47.40625 23.390625 
Q 47.40625 31.296875 43.53125 35.828125 
Q 39.65625 40.375 33.015625 40.375 
z
M 52.59375 71.296875 
L 52.59375 62.3125 
Q 48.875 64.0625 45.09375 64.984375 
Q 41.3125 65.921875 37.59375 65.921875 
Q 27.828125 65.921875 22.671875 59.328125 
Q 17.53125 52.734375 16.796875 39.40625 
Q 19.671875 43.65625 24.015625 45.921875 
Q 28.375 48.1875 33.59375 48.1875 
Q 44.578125 48.1875 50.953125 41.515625 
Q 57.328125 34.859375 57.328125 23.390625 
Q 57.328125 12.15625 50.6875 5.359375 
Q 44.046875 -1.421875 33.015625 -1.421875 
Q 20.359375 -1.421875 13.671875 8.265625 
Q 6.984375 17.96875 6.984375 36.375 
Q 6.984375 53.65625 15.1875 63.9375 
Q 23.390625 74.21875 37.203125 74.21875 
Q 40.921875 74.21875 44.703125 73.484375 
Q 48.484375 72.75 52.59375 71.296875 
z
" id="DejaVuSans-54"/>
      </defs>
      <g transform="translate(269.550018 322.182437)scale(0.1 -0.1)">
       <use xlink:href="#DejaVuSans-54"/>
       <use x="63.623047" xlink:href="#DejaVuSans-48"/>
       <use x="127.246094" xlink:href="#DejaVuSans-48"/>
      </g>
     </g>
    </g>
    <g id="xtick_5">
     <g id="line2d_9">
      <path clip-path="url(#p58d05220ea)" d="M 347.514114 307.584 
L 347.514114 41.472 
" style="fill:none;stroke:#b0b0b0;stroke-linecap:square;stroke-width:0.8;"/>
     </g>
     <g id="line2d_10">
      <g>
       <use style="stroke:#000000;stroke-width:0.8;" x="347.514114" xlink:href="#mf5b12584de" y="307.584"/>
      </g>
     </g>
     <g id="text_5">
      <!-- 800 -->
      <defs>
       <path d="M 31.78125 34.625 
Q 24.75 34.625 20.71875 30.859375 
Q 16.703125 27.09375 16.703125 20.515625 
Q 16.703125 13.921875 20.71875 10.15625 
Q 24.75 6.390625 31.78125 6.390625 
Q 38.8125 6.390625 42.859375 10.171875 
Q 46.921875 13.96875 46.921875 20.515625 
Q 46.921875 27.09375 42.890625 30.859375 
Q 38.875 34.625 31.78125 34.625 
z
M 21.921875 38.8125 
Q 15.578125 40.375 12.03125 44.71875 
Q 8.5 49.078125 8.5 55.328125 
Q 8.5 64.0625 14.71875 69.140625 
Q 20.953125 74.21875 31.78125 74.21875 
Q 42.671875 74.21875 48.875 69.140625 
Q 55.078125 64.0625 55.078125 55.328125 
Q 55.078125 49.078125 51.53125 44.71875 
Q 48 40.375 41.703125 38.8125 
Q 48.828125 37.15625 52.796875 32.3125 
Q 56.78125 27.484375 56.78125 20.515625 
Q 56.78125 9.90625 50.3125 4.234375 
Q 43.84375 -1.421875 31.78125 -1.421875 
Q 19.734375 -1.421875 13.25 4.234375 
Q 6.78125 9.90625 6.78125 20.515625 
Q 6.78125 27.484375 10.78125 32.3125 
Q 14.796875 37.15625 21.921875 38.8125 
z
M 18.3125 54.390625 
Q 18.3125 48.734375 21.84375 45.5625 
Q 25.390625 42.390625 31.78125 42.390625 
Q 38.140625 42.390625 41.71875 45.5625 
Q 45.3125 48.734375 45.3125 54.390625 
Q 45.3125 60.0625 41.71875 63.234375 
Q 38.140625 66.40625 31.78125 66.40625 
Q 25.390625 66.40625 21.84375 63.234375 
Q 18.3125 60.0625 18.3125 54.390625 
z
" id="DejaVuSans-56"/>
      </defs>
      <g transform="translate(337.970364 322.182437)scale(0.1 -0.1)">
       <use xlink:href="#DejaVuSans-56"/>
       <use x="63.623047" xlink:href="#DejaVuSans-48"/>
       <use x="127.246094" xlink:href="#DejaVuSans-48"/>
      </g>
     </g>
    </g>
    <g id="text_6">
     <!-- Generations -->
     <defs>
      <path d="M 59.515625 10.40625 
L 59.515625 29.984375 
L 43.40625 29.984375 
L 43.40625 38.09375 
L 69.28125 38.09375 
L 69.28125 6.78125 
Q 63.578125 2.734375 56.6875 0.65625 
Q 49.8125 -1.421875 42 -1.421875 
Q 24.90625 -1.421875 15.25 8.5625 
Q 5.609375 18.5625 5.609375 36.375 
Q 5.609375 54.25 15.25 64.234375 
Q 24.90625 74.21875 42 74.21875 
Q 49.125 74.21875 55.546875 72.453125 
Q 61.96875 70.703125 67.390625 67.28125 
L 67.390625 56.78125 
Q 61.921875 61.421875 55.765625 63.765625 
Q 49.609375 66.109375 42.828125 66.109375 
Q 29.4375 66.109375 22.71875 58.640625 
Q 16.015625 51.171875 16.015625 36.375 
Q 16.015625 21.625 22.71875 14.15625 
Q 29.4375 6.6875 42.828125 6.6875 
Q 48.046875 6.6875 52.140625 7.59375 
Q 56.25 8.5 59.515625 10.40625 
z
" id="DejaVuSans-71"/>
      <path d="M 56.203125 29.59375 
L 56.203125 25.203125 
L 14.890625 25.203125 
Q 15.484375 15.921875 20.484375 11.0625 
Q 25.484375 6.203125 34.421875 6.203125 
Q 39.59375 6.203125 44.453125 7.46875 
Q 49.3125 8.734375 54.109375 11.28125 
L 54.109375 2.78125 
Q 49.265625 0.734375 44.1875 -0.34375 
Q 39.109375 -1.421875 33.890625 -1.421875 
Q 20.796875 -1.421875 13.15625 6.1875 
Q 5.515625 13.8125 5.515625 26.8125 
Q 5.515625 40.234375 12.765625 48.109375 
Q 20.015625 56 32.328125 56 
Q 43.359375 56 49.78125 48.890625 
Q 56.203125 41.796875 56.203125 29.59375 
z
M 47.21875 32.234375 
Q 47.125 39.59375 43.09375 43.984375 
Q 39.0625 48.390625 32.421875 48.390625 
Q 24.90625 48.390625 20.390625 44.140625 
Q 15.875 39.890625 15.1875 32.171875 
z
" id="DejaVuSans-101"/>
      <path d="M 54.890625 33.015625 
L 54.890625 0 
L 45.90625 0 
L 45.90625 32.71875 
Q 45.90625 40.484375 42.875 44.328125 
Q 39.84375 48.1875 33.796875 48.1875 
Q 26.515625 48.1875 22.3125 43.546875 
Q 18.109375 38.921875 18.109375 30.90625 
L 18.109375 0 
L 9.078125 0 
L 9.078125 54.6875 
L 18.109375 54.6875 
L 18.109375 46.1875 
Q 21.34375 51.125 25.703125 53.5625 
Q 30.078125 56 35.796875 56 
Q 45.21875 56 50.046875 50.171875 
Q 54.890625 44.34375 54.890625 33.015625 
z
" id="DejaVuSans-110"/>
      <path d="M 41.109375 46.296875 
Q 39.59375 47.171875 37.8125 47.578125 
Q 36.03125 48 33.890625 48 
Q 26.265625 48 22.1875 43.046875 
Q 18.109375 38.09375 18.109375 28.8125 
L 18.109375 0 
L 9.078125 0 
L 9.078125 54.6875 
L 18.109375 54.6875 
L 18.109375 46.1875 
Q 20.953125 51.171875 25.484375 53.578125 
Q 30.03125 56 36.53125 56 
Q 37.453125 56 38.578125 55.875 
Q 39.703125 55.765625 41.0625 55.515625 
z
" id="DejaVuSans-114"/>
      <path d="M 34.28125 27.484375 
Q 23.390625 27.484375 19.1875 25 
Q 14.984375 22.515625 14.984375 16.5 
Q 14.984375 11.71875 18.140625 8.90625 
Q 21.296875 6.109375 26.703125 6.109375 
Q 34.1875 6.109375 38.703125 11.40625 
Q 43.21875 16.703125 43.21875 25.484375 
L 43.21875 27.484375 
z
M 52.203125 31.203125 
L 52.203125 0 
L 43.21875 0 
L 43.21875 8.296875 
Q 40.140625 3.328125 35.546875 0.953125 
Q 30.953125 -1.421875 24.3125 -1.421875 
Q 15.921875 -1.421875 10.953125 3.296875 
Q 6 8.015625 6 15.921875 
Q 6 25.140625 12.171875 29.828125 
Q 18.359375 34.515625 30.609375 34.515625 
L 43.21875 34.515625 
L 43.21875 35.40625 
Q 43.21875 41.609375 39.140625 45 
Q 35.0625 48.390625 27.6875 48.390625 
Q 23 48.390625 18.546875 47.265625 
Q 14.109375 46.140625 10.015625 43.890625 
L 10.015625 52.203125 
Q 14.9375 54.109375 19.578125 55.046875 
Q 24.21875 56 28.609375 56 
Q 40.484375 56 46.34375 49.84375 
Q 52.203125 43.703125 52.203125 31.203125 
z
" id="DejaVuSans-97"/>
      <path d="M 18.3125 70.21875 
L 18.3125 54.6875 
L 36.8125 54.6875 
L 36.8125 47.703125 
L 18.3125 47.703125 
L 18.3125 18.015625 
Q 18.3125 11.328125 20.140625 9.421875 
Q 21.96875 7.515625 27.59375 7.515625 
L 36.8125 7.515625 
L 36.8125 0 
L 27.59375 0 
Q 17.1875 0 13.234375 3.875 
Q 9.28125 7.765625 9.28125 18.015625 
L 9.28125 47.703125 
L 2.6875 47.703125 
L 2.6875 54.6875 
L 9.28125 54.6875 
L 9.28125 70.21875 
z
" id="DejaVuSans-116"/>
      <path d="M 9.421875 54.6875 
L 18.40625 54.6875 
L 18.40625 0 
L 9.421875 0 
z
M 9.421875 75.984375 
L 18.40625 75.984375 
L 18.40625 64.59375 
L 9.421875 64.59375 
z
" id="DejaVuSans-105"/>
      <path d="M 30.609375 48.390625 
Q 23.390625 48.390625 19.1875 42.75 
Q 14.984375 37.109375 14.984375 27.296875 
Q 14.984375 17.484375 19.15625 11.84375 
Q 23.34375 6.203125 30.609375 6.203125 
Q 37.796875 6.203125 41.984375 11.859375 
Q 46.1875 17.53125 46.1875 27.296875 
Q 46.1875 37.015625 41.984375 42.703125 
Q 37.796875 48.390625 30.609375 48.390625 
z
M 30.609375 56 
Q 42.328125 56 49.015625 48.375 
Q 55.71875 40.765625 55.71875 27.296875 
Q 55.71875 13.875 49.015625 6.21875 
Q 42.328125 -1.421875 30.609375 -1.421875 
Q 18.84375 -1.421875 12.171875 6.21875 
Q 5.515625 13.875 5.515625 27.296875 
Q 5.515625 40.765625 12.171875 48.375 
Q 18.84375 56 30.609375 56 
z
" id="DejaVuSans-111"/>
      <path d="M 44.28125 53.078125 
L 44.28125 44.578125 
Q 40.484375 46.53125 36.375 47.5 
Q 32.28125 48.484375 27.875 48.484375 
Q 21.1875 48.484375 17.84375 46.4375 
Q 14.5 44.390625 14.5 40.28125 
Q 14.5 37.15625 16.890625 35.375 
Q 19.28125 33.59375 26.515625 31.984375 
L 29.59375 31.296875 
Q 39.15625 29.25 43.1875 25.515625 
Q 47.21875 21.78125 47.21875 15.09375 
Q 47.21875 7.46875 41.1875 3.015625 
Q 35.15625 -1.421875 24.609375 -1.421875 
Q 20.21875 -1.421875 15.453125 -0.5625 
Q 10.6875 0.296875 5.421875 2 
L 5.421875 11.28125 
Q 10.40625 8.6875 15.234375 7.390625 
Q 20.0625 6.109375 24.8125 6.109375 
Q 31.15625 6.109375 34.5625 8.28125 
Q 37.984375 10.453125 37.984375 14.40625 
Q 37.984375 18.0625 35.515625 20.015625 
Q 33.0625 21.96875 24.703125 23.78125 
L 21.578125 24.515625 
Q 13.234375 26.265625 9.515625 29.90625 
Q 5.8125 33.546875 5.8125 39.890625 
Q 5.8125 47.609375 11.28125 51.796875 
Q 16.75 56 26.8125 56 
Q 31.78125 56 36.171875 55.265625 
Q 40.578125 54.546875 44.28125 53.078125 
z
" id="DejaVuSans-115"/>
     </defs>
     <g transform="translate(205.662344 335.860562)scale(0.1 -0.1)">
      <use xlink:href="#DejaVuSans-71"/>
      <use x="77.490234" xlink:href="#DejaVuSans-101"/>
      <use x="139.013672" xlink:href="#DejaVuSans-110"/>
      <use x="202.392578" xlink:href="#DejaVuSans-101"/>
      <use x="263.916016" xlink:href="#DejaVuSans-114"/>
      <use x="305.029297" xlink:href="#DejaVuSans-97"/>
      <use x="366.308594" xlink:href="#DejaVuSans-116"/>
      <use x="405.517578" xlink:href="#DejaVuSans-105"/>
      <use x="433.300781" xlink:href="#DejaVuSans-111"/>
      <use x="494.482422" xlink:href="#DejaVuSans-110"/>
      <use x="557.861328" xlink:href="#DejaVuSans-115"/>
     </g>
    </g>
   </g>
   <g id="matplotlib.axis_2">
    <g id="ytick_1">
     <g id="line2d_11">
      <path clip-path="url(#p58d05220ea)" d="M 57.6 277.988007 
L 414.72 277.988007 
" style="fill:none;stroke:#b0b0b0;stroke-linecap:square;stroke-width:0.8;"/>
     </g>
     <g id="line2d_12">
      <defs>
       <path d="M 0 0 
L -3.5 0 
" id="m180294223d" style="stroke:#000000;stroke-width:0.8;"/>
      </defs>
      <g>
       <use style="stroke:#000000;stroke-width:0.8;" x="57.6" xlink:href="#m180294223d" y="277.988007"/>
      </g>
     </g>
     <g id="text_7">
      <!-- −16000 -->
      <defs>
       <path d="M 10.59375 35.5 
L 73.1875 35.5 
L 73.1875 27.203125 
L 10.59375 27.203125 
z
" id="DejaVuSans-8722"/>
       <path d="M 12.40625 8.296875 
L 28.515625 8.296875 
L 28.515625 63.921875 
L 10.984375 60.40625 
L 10.984375 69.390625 
L 28.421875 72.90625 
L 38.28125 72.90625 
L 38.28125 8.296875 
L 54.390625 8.296875 
L 54.390625 0 
L 12.40625 0 
z
" id="DejaVuSans-49"/>
      </defs>
      <g transform="translate(10.407812 281.787226)scale(0.1 -0.1)">
       <use xlink:href="#DejaVuSans-8722"/>
       <use x="83.789062" xlink:href="#DejaVuSans-49"/>
       <use x="147.412109" xlink:href="#DejaVuSans-54"/>
       <use x="211.035156" xlink:href="#DejaVuSans-48"/>
       <use x="274.658203" xlink:href="#DejaVuSans-48"/>
       <use x="338.28125" xlink:href="#DejaVuSans-48"/>
      </g>
     </g>
    </g>
    <g id="ytick_2">
     <g id="line2d_13">
      <path clip-path="url(#p58d05220ea)" d="M 57.6 242.409152 
L 414.72 242.409152 
" style="fill:none;stroke:#b0b0b0;stroke-linecap:square;stroke-width:0.8;"/>
     </g>
     <g id="line2d_14">
      <g>
       <use style="stroke:#000000;stroke-width:0.8;" x="57.6" xlink:href="#m180294223d" y="242.409152"/>
      </g>
     </g>
     <g id="text_8">
      <!-- −14000 -->
      <g transform="translate(10.407812 246.208371)scale(0.1 -0.1)">
       <use xlink:href="#DejaVuSans-8722"/>
       <use x="83.789062" xlink:href="#DejaVuSans-49"/>
       <use x="147.412109" xlink:href="#DejaVuSans-52"/>
       <use x="211.035156" xlink:href="#DejaVuSans-48"/>
       <use x="274.658203" xlink:href="#DejaVuSans-48"/>
       <use x="338.28125" xlink:href="#DejaVuSans-48"/>
      </g>
     </g>
    </g>
    <g id="ytick_3">
     <g id="line2d_15">
      <path clip-path="url(#p58d05220ea)" d="M 57.6 206.830296 
L 414.72 206.830296 
" style="fill:none;stroke:#b0b0b0;stroke-linecap:square;stroke-width:0.8;"/>
     </g>
     <g id="line2d_16">
      <g>
       <use style="stroke:#000000;stroke-width:0.8;" x="57.6" xlink:href="#m180294223d" y="206.830296"/>
      </g>
     </g>
     <g id="text_9">
      <!-- −12000 -->
      <g transform="translate(10.407812 210.629515)scale(0.1 -0.1)">
       <use xlink:href="#DejaVuSans-8722"/>
       <use x="83.789062" xlink:href="#DejaVuSans-49"/>
       <use x="147.412109" xlink:href="#DejaVuSans-50"/>
       <use x="211.035156" xlink:href="#DejaVuSans-48"/>
       <use x="274.658203" xlink:href="#DejaVuSans-48"/>
       <use x="338.28125" xlink:href="#DejaVuSans-48"/>
      </g>
     </g>
    </g>
    <g id="ytick_4">
     <g id="line2d_17">
      <path clip-path="url(#p58d05220ea)" d="M 57.6 171.251441 
L 414.72 171.251441 
" style="fill:none;stroke:#b0b0b0;stroke-linecap:square;stroke-width:0.8;"/>
     </g>
     <g id="line2d_18">
      <g>
       <use style="stroke:#000000;stroke-width:0.8;" x="57.6" xlink:href="#m180294223d" y="171.251441"/>
      </g>
     </g>
     <g id="text_10">
      <!-- −10000 -->
      <g transform="translate(10.407812 175.050659)scale(0.1 -0.1)">
       <use xlink:href="#DejaVuSans-8722"/>
       <use x="83.789062" xlink:href="#DejaVuSans-49"/>
       <use x="147.412109" xlink:href="#DejaVuSans-48"/>
       <use x="211.035156" xlink:href="#DejaVuSans-48"/>
       <use x="274.658203" xlink:href="#DejaVuSans-48"/>
       <use x="338.28125" xlink:href="#DejaVuSans-48"/>
      </g>
     </g>
    </g>
    <g id="ytick_5">
     <g id="line2d_19">
      <path clip-path="url(#p58d05220ea)" d="M 57.6 135.672585 
L 414.72 135.672585 
" style="fill:none;stroke:#b0b0b0;stroke-linecap:square;stroke-width:0.8;"/>
     </g>
     <g id="line2d_20">
      <g>
       <use style="stroke:#000000;stroke-width:0.8;" x="57.6" xlink:href="#m180294223d" y="135.672585"/>
      </g>
     </g>
     <g id="text_11">
      <!-- −8000 -->
      <g transform="translate(16.770313 139.471804)scale(0.1 -0.1)">
       <use xlink:href="#DejaVuSans-8722"/>
       <use x="83.789062" xlink:href="#DejaVuSans-56"/>
       <use x="147.412109" xlink:href="#DejaVuSans-48"/>
       <use x="211.035156" xlink:href="#DejaVuSans-48"/>
       <use x="274.658203" xlink:href="#DejaVuSans-48"/>
      </g>
     </g>
    </g>
    <g id="ytick_6">
     <g id="line2d_21">
      <path clip-path="url(#p58d05220ea)" d="M 57.6 100.093729 
L 414.72 100.093729 
" style="fill:none;stroke:#b0b0b0;stroke-linecap:square;stroke-width:0.8;"/>
     </g>
     <g id="line2d_22">
      <g>
       <use style="stroke:#000000;stroke-width:0.8;" x="57.6" xlink:href="#m180294223d" y="100.093729"/>
      </g>
     </g>
     <g id="text_12">
      <!-- −6000 -->
      <g transform="translate(16.770313 103.892948)scale(0.1 -0.1)">
       <use xlink:href="#DejaVuSans-8722"/>
       <use x="83.789062" xlink:href="#DejaVuSans-54"/>
       <use x="147.412109" xlink:href="#DejaVuSans-48"/>
       <use x="211.035156" xlink:href="#DejaVuSans-48"/>
       <use x="274.658203" xlink:href="#DejaVuSans-48"/>
      </g>
     </g>
    </g>
    <g id="ytick_7">
     <g id="line2d_23">
      <path clip-path="url(#p58d05220ea)" d="M 57.6 64.514874 
L 414.72 64.514874 
" style="fill:none;stroke:#b0b0b0;stroke-linecap:square;stroke-width:0.8;"/>
     </g>
     <g id="line2d_24">
      <g>
       <use style="stroke:#000000;stroke-width:0.8;" x="57.6" xlink:href="#m180294223d" y="64.514874"/>
      </g>
     </g>
     <g id="text_13">
      <!-- −4000 -->
      <g transform="translate(16.770313 68.314092)scale(0.1 -0.1)">
       <use xlink:href="#DejaVuSans-8722"/>
       <use x="83.789062" xlink:href="#DejaVuSans-52"/>
       <use x="147.412109" xlink:href="#DejaVuSans-48"/>
       <use x="211.035156" xlink:href="#DejaVuSans-48"/>
       <use x="274.658203" xlink:href="#DejaVuSans-48"/>
      </g>
     </g>
    </g>
    <g id="text_14">
     <!-- Fitness -->
     <defs>
      <path d="M 9.8125 72.90625 
L 51.703125 72.90625 
L 51.703125 64.59375 
L 19.671875 64.59375 
L 19.671875 43.109375 
L 48.578125 43.109375 
L 48.578125 34.8125 
L 19.671875 34.8125 
L 19.671875 0 
L 9.8125 0 
z
" id="DejaVuSans-70"/>
     </defs>
     <g transform="translate(4.328125 192.202219)rotate(-90)scale(0.1 -0.1)">
      <use xlink:href="#DejaVuSans-70"/>
      <use x="57.410156" xlink:href="#DejaVuSans-105"/>
      <use x="85.193359" xlink:href="#DejaVuSans-116"/>
      <use x="124.402344" xlink:href="#DejaVuSans-110"/>
      <use x="187.78125" xlink:href="#DejaVuSans-101"/>
      <use x="249.304688" xlink:href="#DejaVuSans-115"/>
      <use x="301.404297" xlink:href="#DejaVuSans-115"/>
     </g>
    </g>
   </g>
   <g id="line2d_25">
    <path clip-path="url(#p58d05220ea)" d="M 73.832727 295.488 
L 74.174829 144.376574 
L 74.516931 122.888649 
L 75.201134 129.552056 
L 75.543236 125.848637 
L 75.885338 123.482913 
L 76.227439 132.210946 
L 76.569541 123.442756 
L 76.911643 124.841193 
L 77.253745 123.377958 
L 77.595846 127.142828 
L 77.937948 120.183407 
L 78.28005 123.403888 
L 78.622152 121.208297 
L 78.964253 114.729456 
L 80.33266 105.869251 
L 80.674762 104.555885 
L 81.016864 104.312696 
L 81.701067 102.902492 
L 82.043169 105.291309 
L 82.385271 101.97109 
L 82.727372 103.323663 
L 83.069474 101.794554 
L 83.411576 101.265892 
L 83.753678 101.938063 
L 84.095779 102.05137 
L 84.437881 100.784667 
L 84.779983 101.168004 
L 85.122084 103.589359 
L 85.464186 102.671804 
L 85.806288 102.95541 
L 86.14839 102.400272 
L 86.490491 99.26015 
L 86.832593 106.246366 
L 87.174695 101.467598 
L 87.516797 100.154842 
L 87.858898 101.933793 
L 88.201 99.273495 
L 88.543102 102.790198 
L 88.885204 99.900952 
L 89.227305 98.428453 
L 89.911509 103.424611 
L 90.25361 100.325532 
L 90.937814 103.762247 
L 91.279916 100.684135 
L 91.622017 100.963964 
L 91.964119 100.879508 
L 92.306221 98.670262 
L 92.648323 100.859302 
L 92.990424 98.672316 
L 93.332526 105.034525 
L 93.674628 97.461521 
L 94.01673 98.485346 
L 94.358831 101.796113 
L 94.700933 97.323247 
L 95.043035 96.434756 
L 95.385137 98.106534 
L 95.727238 97.02517 
L 96.06934 98.981061 
L 96.411442 99.320565 
L 96.753543 100.391264 
L 97.095645 97.488232 
L 97.437747 98.454658 
L 97.779849 100.328911 
L 98.12195 98.511186 
L 98.464052 99.872539 
L 98.806154 96.492788 
L 99.148256 97.07392 
L 99.490357 94.824266 
L 99.832459 99.890709 
L 100.174561 96.224093 
L 100.516663 96.980217 
L 100.858764 101.03911 
L 101.200866 99.626271 
L 101.542968 95.04119 
L 101.885069 98.648037 
L 102.227171 99.514153 
L 102.911375 95.628406 
L 103.253476 98.872558 
L 103.595578 96.72245 
L 103.93768 97.179422 
L 104.279782 95.335201 
L 104.621883 97.373704 
L 104.963985 97.337903 
L 105.648189 100.069508 
L 106.332392 94.40067 
L 106.674494 97.673943 
L 107.016595 99.603669 
L 107.358697 97.884917 
L 107.700799 98.072063 
L 108.042901 95.703887 
L 108.385002 97.915904 
L 108.727104 97.561337 
L 109.069206 96.183617 
L 109.411308 98.362124 
L 109.753409 103.961312 
L 110.095511 97.218891 
L 110.437613 96.199653 
L 110.779715 93.827882 
L 111.121816 96.397958 
L 111.463918 94.834412 
L 111.80602 96.961686 
L 112.148121 93.227182 
L 112.490223 93.746623 
L 112.832325 98.338826 
L 113.174427 95.805885 
L 113.516528 95.327821 
L 113.85863 93.000947 
L 114.200732 94.68646 
L 114.542834 102.443893 
L 114.884935 94.907019 
L 115.227037 94.638023 
L 115.569139 95.259718 
L 115.911241 96.949728 
L 116.253342 93.645997 
L 116.595444 101.810354 
L 116.937546 101.391443 
L 117.279647 102.575874 
L 117.621749 102.00644 
L 117.963851 96.043728 
L 118.305953 95.166088 
L 118.648054 100.915769 
L 118.990156 97.929831 
L 119.332258 101.077119 
L 119.67436 93.666398 
L 120.016461 97.409215 
L 120.358563 96.274583 
L 120.700665 96.039609 
L 121.042767 99.452708 
L 121.384868 100.311842 
L 121.72697 101.536548 
L 122.069072 96.590352 
L 122.411173 97.294868 
L 122.753275 99.497626 
L 123.095377 91.472118 
L 123.437479 93.826438 
L 123.77958 98.399225 
L 124.121682 95.374388 
L 124.463784 93.974456 
L 124.805886 94.767306 
L 125.147987 96.640678 
L 125.490089 93.525874 
L 126.174293 100.453976 
L 126.516394 96.329066 
L 126.858496 96.481287 
L 127.200598 95.614924 
L 127.542699 97.783862 
L 127.884801 94.273029 
L 128.226903 97.003664 
L 128.569005 95.793306 
L 128.911106 96.550711 
L 129.253208 97.922834 
L 129.59531 95.956493 
L 129.937412 98.860237 
L 130.621615 94.145435 
L 130.963717 97.733143 
L 131.305819 95.740234 
L 131.990022 93.743046 
L 132.674226 97.793161 
L 133.016327 92.59258 
L 133.358429 97.516175 
L 133.700531 93.356711 
L 134.042632 91.999129 
L 134.384734 94.697541 
L 134.726836 92.776693 
L 135.068938 99.537594 
L 135.411039 92.614976 
L 135.753141 96.983077 
L 136.095243 91.98956 
L 136.437345 99.441097 
L 136.779446 100.372294 
L 137.121548 92.186894 
L 137.46365 95.121209 
L 137.805752 101.530746 
L 138.147853 95.112518 
L 138.489955 92.292349 
L 138.832057 94.969228 
L 139.174158 93.083171 
L 139.51626 97.902627 
L 139.858362 91.238508 
L 140.200464 93.852574 
L 140.542565 92.200614 
L 140.884667 95.442998 
L 141.226769 92.268636 
L 141.568871 98.557382 
L 141.910972 94.759682 
L 142.253074 94.980284 
L 142.595176 91.428239 
L 142.937278 93.461887 
L 143.279379 93.129003 
L 143.621481 95.326674 
L 143.963583 96.347677 
L 144.305684 92.373993 
L 144.647786 90.945634 
L 144.989888 95.718174 
L 145.33199 92.875488 
L 145.674091 96.17156 
L 146.016193 94.984028 
L 146.358295 91.088095 
L 146.700397 94.018176 
L 147.042498 91.580855 
L 147.3846 94.214853 
L 147.726702 94.058148 
L 148.068804 92.354525 
L 148.410905 92.411619 
L 148.753007 93.033578 
L 149.095109 94.379518 
L 149.43721 98.371717 
L 149.779312 95.268061 
L 150.121414 95.515483 
L 150.463516 95.290383 
L 150.805617 89.119913 
L 151.147719 98.821859 
L 151.489821 94.756347 
L 151.831923 98.244495 
L 152.174024 97.00633 
L 152.516126 93.717002 
L 152.858228 95.86602 
L 153.20033 95.246287 
L 153.542431 93.633704 
L 153.884533 94.528324 
L 154.226635 94.549581 
L 154.910838 90.928046 
L 155.25294 95.075617 
L 155.595042 94.377416 
L 155.937143 91.020321 
L 156.279245 94.631847 
L 156.621347 92.891493 
L 156.963449 89.841536 
L 157.30555 94.503457 
L 157.647652 93.56259 
L 157.989754 87.893505 
L 158.331856 94.322971 
L 158.673957 91.190435 
L 159.016059 89.613486 
L 159.358161 93.715965 
L 160.042364 98.020605 
L 160.384466 92.9818 
L 160.726568 94.230785 
L 161.410771 91.167468 
L 161.752873 91.995591 
L 162.094975 93.675688 
L 162.437076 96.457542 
L 162.779178 90.074338 
L 163.12128 91.500865 
L 163.463382 96.11615 
L 163.805483 93.142513 
L 164.147585 96.587622 
L 164.489687 90.444531 
L 164.831788 94.500441 
L 165.17389 91.773207 
L 165.515992 97.331563 
L 165.858094 95.401094 
L 166.200195 88.337205 
L 166.542297 91.196283 
L 166.884399 90.400553 
L 167.226501 99.317999 
L 167.910704 93.108271 
L 168.252806 91.438039 
L 168.594908 94.550401 
L 168.937009 91.466015 
L 169.279111 91.982715 
L 169.621213 92.903393 
L 169.963314 97.012702 
L 170.305416 88.749562 
L 170.647518 91.298042 
L 170.98962 89.278505 
L 171.331721 97.060716 
L 171.673823 92.267945 
L 172.015925 90.776033 
L 172.358027 95.622878 
L 172.700128 91.201141 
L 173.04223 95.260476 
L 173.384332 101.637749 
L 173.726434 99.887243 
L 174.068535 94.361893 
L 174.410637 95.311473 
L 174.752739 95.282759 
L 175.094841 93.232907 
L 175.436942 91.88528 
L 175.779044 91.133203 
L 176.121146 89.648757 
L 176.463247 101.940227 
L 176.805349 93.584381 
L 177.147451 95.725855 
L 177.489553 96.856552 
L 177.831654 99.878435 
L 178.173756 93.025858 
L 178.515858 95.206156 
L 179.200061 89.272758 
L 179.542163 92.94849 
L 179.884265 94.752325 
L 180.226367 92.613032 
L 180.568468 89.138897 
L 180.91057 93.750293 
L 181.252672 96.647297 
L 181.594773 98.367098 
L 181.936875 95.549686 
L 182.278977 89.400616 
L 182.621079 94.112205 
L 182.96318 94.138677 
L 183.305282 97.242279 
L 183.647384 96.345643 
L 183.989486 97.811415 
L 184.331587 89.751013 
L 184.673689 94.299711 
L 185.015791 92.236059 
L 185.357893 102.078596 
L 185.699994 95.406336 
L 186.042096 94.711158 
L 186.384198 90.944954 
L 186.726299 91.70345 
L 187.068401 91.154812 
L 187.410503 92.522268 
L 187.752605 96.034588 
L 188.094706 94.192121 
L 188.436808 96.624874 
L 188.77891 91.440124 
L 189.121012 93.311644 
L 189.463113 92.245657 
L 189.805215 92.693608 
L 190.147317 90.967241 
L 190.489419 93.171724 
L 190.83152 92.388849 
L 191.173622 92.245236 
L 191.515724 95.858043 
L 191.857825 94.421509 
L 192.199927 94.396002 
L 192.542029 87.993331 
L 192.884131 90.9437 
L 193.226232 91.93805 
L 193.568334 91.235595 
L 193.910436 91.05252 
L 194.252538 94.696911 
L 194.594639 90.410719 
L 194.936741 96.336105 
L 195.278843 91.729689 
L 195.620945 90.641437 
L 195.963046 90.960142 
L 196.305148 93.804527 
L 196.64725 92.108157 
L 196.989351 91.789715 
L 197.331453 93.31141 
L 197.673555 90.551889 
L 198.015657 95.498563 
L 198.357758 89.9562 
L 198.69986 93.856192 
L 199.384064 86.331241 
L 200.068267 89.332969 
L 200.410369 92.146395 
L 200.752471 85.380289 
L 201.094572 88.201696 
L 201.436674 92.114467 
L 201.778776 87.322943 
L 202.120877 88.298343 
L 202.462979 86.319245 
L 202.805081 90.389194 
L 203.147183 88.689314 
L 203.489284 88.01577 
L 203.831386 85.049291 
L 204.173488 89.316968 
L 204.51559 91.113577 
L 204.857691 89.334296 
L 205.199793 90.839909 
L 205.541895 87.414742 
L 205.883997 94.987997 
L 206.5682 86.708761 
L 207.252403 85.378477 
L 207.594505 87.08941 
L 207.936607 87.840276 
L 208.278709 87.503182 
L 208.62081 91.285879 
L 208.962912 87.304957 
L 209.305014 89.136537 
L 209.647116 84.736971 
L 209.989217 85.791797 
L 210.331319 87.76024 
L 210.673421 90.62732 
L 211.015523 87.147488 
L 211.357624 87.234038 
L 211.699726 92.154035 
L 212.383929 87.023735 
L 212.726031 89.556017 
L 213.068133 87.841782 
L 213.410235 89.288143 
L 213.752336 86.774659 
L 214.094438 89.925373 
L 214.43654 91.995621 
L 214.778642 86.170957 
L 215.120743 90.637512 
L 215.462845 85.856612 
L 215.804947 87.274729 
L 216.147049 89.70633 
L 216.48915 89.703633 
L 216.831252 88.796977 
L 217.173354 90.581597 
L 217.515456 90.3027 
L 217.857557 89.491342 
L 218.199659 87.948635 
L 218.541761 87.928234 
L 218.883862 88.964537 
L 219.225964 90.441585 
L 219.568066 86.354538 
L 219.910168 87.916058 
L 220.252269 87.406418 
L 220.594371 88.44038 
L 220.936473 86.649466 
L 221.278575 87.453258 
L 221.620676 89.733613 
L 221.962778 87.057843 
L 222.30488 88.97879 
L 222.646982 90.174952 
L 222.989083 87.54177 
L 223.331185 93.139658 
L 223.673287 89.78556 
L 224.015388 88.423325 
L 224.35749 83.699801 
L 224.699592 88.051251 
L 225.383795 91.73048 
L 225.725897 89.773513 
L 226.067999 85.217509 
L 226.752202 94.17734 
L 227.094304 91.058082 
L 227.436406 89.661269 
L 227.778508 91.133214 
L 228.120609 84.557628 
L 228.462711 90.701162 
L 228.804813 92.505289 
L 229.146914 87.48422 
L 229.489016 91.282076 
L 229.831118 89.181255 
L 230.17322 88.926854 
L 230.857423 87.1586 
L 231.199525 89.50272 
L 231.541627 89.881995 
L 231.883728 87.582682 
L 232.22583 86.285987 
L 232.567932 86.497926 
L 232.910034 90.002276 
L 233.252135 87.247925 
L 233.594237 88.567657 
L 233.936339 83.933383 
L 234.27844 85.487533 
L 234.620542 85.949805 
L 234.962644 87.860274 
L 235.304746 84.747196 
L 235.646847 84.472488 
L 235.988949 85.594438 
L 236.331051 88.116955 
L 237.015254 89.940242 
L 237.357356 84.40815 
L 237.699458 89.285924 
L 238.04156 91.492292 
L 238.383661 86.385644 
L 238.725763 87.840061 
L 239.067865 89.954972 
L 239.409966 89.18797 
L 239.752068 87.398249 
L 240.09417 87.266244 
L 240.436272 90.139862 
L 240.778373 85.230225 
L 241.120475 87.272341 
L 241.462577 90.545819 
L 241.804679 84.445218 
L 242.14678 90.70311 
L 242.488882 84.625736 
L 242.830984 86.613033 
L 243.173086 91.485922 
L 243.515187 87.470132 
L 243.857289 88.237154 
L 244.199391 85.314801 
L 244.541492 84.376348 
L 244.883594 88.356517 
L 245.225696 87.152157 
L 245.567798 88.266394 
L 245.909899 87.641044 
L 246.252001 87.876212 
L 246.594103 95.16753 
L 247.278306 87.23871 
L 247.620408 89.175554 
L 247.96251 86.582746 
L 248.304612 89.004045 
L 248.646713 92.917468 
L 248.988815 85.528845 
L 249.330917 88.373073 
L 249.673018 83.778195 
L 250.01512 89.582113 
L 250.357222 86.305005 
L 250.699324 90.189409 
L 251.041425 85.894926 
L 251.383527 84.747097 
L 251.725629 86.86703 
L 252.067731 92.026196 
L 252.409832 94.255101 
L 252.751934 87.224496 
L 253.094036 85.646791 
L 253.778239 89.006885 
L 254.120341 87.927758 
L 254.462443 91.261565 
L 254.804544 89.456545 
L 255.146646 82.455954 
L 255.488748 88.019625 
L 255.83085 88.702837 
L 256.172951 85.727215 
L 256.515053 89.544913 
L 256.857155 87.763191 
L 257.199257 84.119427 
L 257.541358 87.013956 
L 258.225562 88.679419 
L 258.909765 87.428736 
L 259.251867 84.774096 
L 259.593969 86.68892 
L 259.936071 84.892857 
L 260.278172 86.057332 
L 260.620274 91.60541 
L 260.962376 89.423625 
L 261.304477 91.300862 
L 261.646579 85.535159 
L 261.988681 85.506887 
L 262.330783 88.022515 
L 262.672884 86.022174 
L 263.014986 87.117121 
L 263.357088 91.243848 
L 263.69919 92.316294 
L 264.383393 88.339001 
L 264.725495 87.824761 
L 265.067597 90.504901 
L 265.409698 87.580935 
L 265.7518 89.72309 
L 266.093902 86.916826 
L 266.436003 86.596714 
L 266.778105 84.816373 
L 267.120207 85.747645 
L 267.462309 87.50299 
L 267.80441 86.435806 
L 268.146512 86.395594 
L 268.488614 89.48929 
L 268.830716 94.063693 
L 269.172817 86.12707 
L 269.514919 84.010248 
L 269.857021 86.286471 
L 270.199123 83.724619 
L 270.541224 88.072314 
L 270.883326 87.106741 
L 271.225428 90.810267 
L 271.567529 88.307503 
L 271.909631 86.852867 
L 272.593835 88.412847 
L 272.935936 85.006081 
L 273.278038 86.116732 
L 273.62014 88.430108 
L 273.962242 87.885785 
L 274.304343 83.80758 
L 274.646445 87.022969 
L 275.330649 90.774662 
L 275.67275 86.270633 
L 276.014852 83.724733 
L 276.356954 87.343296 
L 276.699055 86.444921 
L 277.041157 90.400467 
L 277.383259 86.467287 
L 277.725361 87.207773 
L 278.067462 85.513912 
L 278.409564 101.13599 
L 278.751666 86.30772 
L 279.093768 85.403368 
L 279.435869 88.834083 
L 279.777971 86.92437 
L 280.120073 88.219555 
L 280.462175 86.963648 
L 280.804276 86.404713 
L 281.146378 87.163869 
L 281.48848 89.950541 
L 282.172683 85.911691 
L 282.514785 88.860886 
L 282.856887 87.246861 
L 283.198988 88.424258 
L 283.54109 86.979213 
L 283.883192 90.155606 
L 284.225294 89.607766 
L 284.909497 83.779588 
L 285.251599 85.817684 
L 285.593701 85.87124 
L 285.935802 84.154776 
L 286.277904 92.332757 
L 286.620006 85.356151 
L 286.962107 87.710074 
L 287.304209 92.899617 
L 287.646311 87.04112 
L 287.988413 90.1847 
L 288.330514 91.129294 
L 288.672616 85.465772 
L 289.014718 85.437562 
L 289.35682 93.890044 
L 289.698921 88.817442 
L 290.041023 87.528862 
L 290.383125 87.325092 
L 290.725227 83.843483 
L 291.067328 87.032776 
L 291.40943 84.623771 
L 291.751532 86.181979 
L 292.093633 86.601415 
L 292.435735 86.049541 
L 292.777837 85.128043 
L 293.119939 86.56265 
L 293.46204 89.587373 
L 293.804142 90.488918 
L 294.146244 89.799853 
L 294.488346 86.133659 
L 294.830447 90.443352 
L 295.514651 83.283599 
L 295.856753 85.397396 
L 296.198854 93.240669 
L 296.540956 88.410512 
L 296.883058 88.521016 
L 297.225159 84.115841 
L 297.567261 82.539779 
L 298.251465 90.095659 
L 298.593566 88.494073 
L 298.935668 87.566749 
L 299.27777 88.785637 
L 299.619872 89.378414 
L 299.961973 89.451 
L 300.304075 85.617765 
L 300.646177 86.629822 
L 300.988279 89.049751 
L 301.33038 83.857045 
L 301.672482 88.628604 
L 302.014584 85.553548 
L 302.356686 89.507788 
L 302.698787 88.600861 
L 303.040889 86.633273 
L 303.382991 90.536986 
L 303.725092 90.381084 
L 304.409296 85.08135 
L 304.751398 89.530856 
L 305.093499 89.065795 
L 305.435601 82.95508 
L 305.777703 84.265817 
L 306.119805 88.73867 
L 307.14611 86.502 
L 307.488212 86.144883 
L 307.830313 82.530534 
L 308.172415 86.717837 
L 308.514517 87.425948 
L 308.856618 90.151666 
L 309.540822 84.70394 
L 309.882924 85.601858 
L 310.225025 86.903359 
L 310.567127 84.840409 
L 310.909229 85.735158 
L 311.251331 83.410738 
L 311.593432 89.831379 
L 311.935534 90.782459 
L 312.277636 88.297294 
L 312.619738 91.096944 
L 313.303941 83.119466 
L 313.646043 86.805895 
L 313.988144 87.167235 
L 314.330246 85.991909 
L 314.672348 85.219104 
L 315.01445 88.602079 
L 315.356551 86.924263 
L 315.698653 84.223774 
L 316.040755 86.340892 
L 316.382857 84.82158 
L 316.724958 85.416745 
L 317.06706 86.63898 
L 317.409162 87.312206 
L 317.751264 84.84585 
L 318.093365 85.355329 
L 318.435467 84.362212 
L 318.777569 86.832541 
L 319.11967 84.090277 
L 319.461772 93.857611 
L 319.803874 85.466087 
L 320.145976 82.368428 
L 320.488077 88.572522 
L 320.830179 84.218529 
L 321.172281 84.887301 
L 321.514383 89.436862 
L 321.856484 86.345587 
L 322.198586 84.488191 
L 322.540688 91.296662 
L 322.88279 86.076882 
L 323.224891 89.106493 
L 323.566993 87.58048 
L 323.909095 92.381861 
L 324.251196 92.225086 
L 324.593298 84.946863 
L 324.9354 83.352654 
L 325.277502 85.068421 
L 325.619603 87.512827 
L 325.961705 87.873526 
L 326.303807 85.091747 
L 326.645909 84.338857 
L 326.98801 85.651423 
L 327.330112 92.004639 
L 327.672214 83.431424 
L 328.014316 93.115361 
L 328.356417 92.094145 
L 328.698519 85.789207 
L 329.040621 86.630052 
L 329.382722 92.398359 
L 329.724824 85.801435 
L 330.409028 88.723 
L 330.751129 85.695478 
L 331.093231 80.446159 
L 331.435333 91.257309 
L 332.119536 86.620347 
L 332.461638 87.524944 
L 332.80374 85.33554 
L 333.145842 87.631159 
L 333.487943 87.41161 
L 333.830045 85.514695 
L 334.172147 85.23266 
L 334.514248 87.218363 
L 334.85635 85.535416 
L 335.198452 87.563358 
L 335.540554 84.175663 
L 335.882655 88.375329 
L 336.224757 84.768753 
L 336.566859 84.393433 
L 336.908961 86.274215 
L 337.251062 86.947875 
L 337.593164 86.307056 
L 337.935266 86.791548 
L 338.619469 82.790789 
L 338.961571 84.493986 
L 339.303673 88.081802 
L 339.645774 84.561993 
L 339.987876 86.850074 
L 340.329978 82.517558 
L 340.67208 83.73026 
L 341.014181 88.40382 
L 341.356283 89.246716 
L 341.698385 87.910029 
L 342.040487 83.701096 
L 342.382588 88.679912 
L 342.72469 89.762834 
L 343.066792 89.117244 
L 343.408894 84.942876 
L 343.750995 83.9858 
L 344.093097 87.955986 
L 344.777301 85.466726 
L 345.119402 87.294116 
L 345.461504 80.470575 
L 345.803606 84.964145 
L 346.145707 84.579254 
L 346.487809 85.260057 
L 346.829911 82.312292 
L 347.172013 83.413658 
L 347.514114 82.506127 
L 347.856216 85.633062 
L 348.198318 85.79464 
L 348.54042 85.167731 
L 349.224623 83.300975 
L 349.566725 91.252649 
L 349.908827 83.538624 
L 350.250928 83.381742 
L 350.59303 87.153594 
L 350.935132 85.642109 
L 351.619335 85.220645 
L 351.961437 87.099274 
L 352.303539 84.236911 
L 352.64564 85.343716 
L 352.987742 84.433118 
L 353.329844 85.714028 
L 353.671946 89.186191 
L 354.014047 85.688073 
L 354.356149 89.695381 
L 354.698251 84.267734 
L 355.382454 88.851114 
L 355.724556 86.113066 
L 356.066658 86.601576 
L 356.408759 89.870292 
L 356.750861 84.444882 
L 357.092963 83.68404 
L 357.435065 84.229612 
L 357.777166 86.332212 
L 358.119268 85.990555 
L 358.46137 90.555756 
L 358.803472 91.70625 
L 359.145573 85.858372 
L 359.829777 87.921316 
L 360.171879 83.420331 
L 360.51398 87.4357 
L 360.856082 86.117158 
L 361.198184 91.419308 
L 361.540285 85.662233 
L 361.882387 83.358959 
L 362.224489 86.770055 
L 362.566591 88.751828 
L 362.908692 89.289331 
L 363.250794 85.260196 
L 363.592896 92.659833 
L 363.934998 86.218608 
L 364.277099 87.928499 
L 364.619201 87.542651 
L 364.961303 85.1967 
L 365.303405 83.737502 
L 365.645506 89.992953 
L 365.987608 83.656303 
L 366.32971 83.871275 
L 366.671811 86.513621 
L 367.013913 87.75323 
L 367.356015 87.751467 
L 367.698117 83.72665 
L 368.040218 86.486149 
L 368.38232 81.927341 
L 369.066524 88.278738 
L 369.408625 89.22332 
L 369.750727 84.286909 
L 370.092829 86.744335 
L 370.434931 82.964884 
L 370.777032 87.499622 
L 371.119134 83.550777 
L 371.461236 87.410756 
L 371.803337 88.075117 
L 372.145439 86.795878 
L 372.487541 88.48156 
L 372.829643 84.41369 
L 373.171744 89.901218 
L 373.513846 88.754225 
L 373.855948 84.489379 
L 374.19805 83.311339 
L 374.540151 82.547042 
L 375.224355 94.357643 
L 375.566457 85.422054 
L 375.908558 86.296645 
L 376.25066 83.64313 
L 376.592762 85.007658 
L 376.934863 83.915959 
L 377.276965 85.924154 
L 377.619067 86.940509 
L 377.961169 85.140791 
L 378.30327 84.762109 
L 378.645372 93.231865 
L 378.987474 83.07578 
L 379.329576 87.583735 
L 379.671677 85.015252 
L 380.013779 85.581351 
L 380.355881 83.022271 
L 380.697983 86.332557 
L 381.040084 103.049401 
L 381.382186 81.438988 
L 381.724288 88.984309 
L 382.06639 85.399102 
L 382.408491 88.19365 
L 382.750593 88.305681 
L 383.092695 83.67515 
L 383.434796 85.855529 
L 383.776898 83.259362 
L 384.119 86.411342 
L 384.461102 82.241427 
L 384.803203 81.182645 
L 385.145305 88.455385 
L 385.487407 87.903166 
L 385.829509 81.966289 
L 386.17161 83.506313 
L 386.513712 88.542999 
L 386.855814 85.727486 
L 387.197916 86.379056 
L 387.540017 83.930307 
L 387.882119 84.804293 
L 388.224221 87.206403 
L 388.566322 85.105096 
L 388.908424 88.534452 
L 389.250526 86.660572 
L 389.592628 82.829559 
L 389.934729 87.747686 
L 390.276831 87.455158 
L 390.618933 85.38988 
L 390.961035 85.801697 
L 391.303136 85.250241 
L 391.645238 85.54317 
L 391.98734 81.918318 
L 392.329442 89.738434 
L 392.671543 88.456301 
L 393.013645 86.687249 
L 393.355747 82.880522 
L 393.697848 86.07679 
L 394.03995 88.104555 
L 394.382052 85.193842 
L 394.724154 90.900074 
L 395.066255 83.64175 
L 395.750459 88.705528 
L 396.092561 80.487047 
L 396.434662 83.799425 
L 397.118866 86.778788 
L 397.460968 90.996585 
L 398.145171 80.94085 
L 398.487273 88.247014 
L 398.487273 88.247014 
" style="fill:none;stroke:#0000ff;stroke-linecap:square;stroke-width:1.5;"/>
   </g>
   <g id="line2d_26">
    <path clip-path="url(#p58d05220ea)" d="M 73.832727 90.841085 
L 74.174829 85.089599 
L 74.516931 85.089599 
L 74.859032 83.815215 
L 75.201134 79.581395 
L 75.543236 79.581395 
L 75.885338 79.44891 
L 76.911643 79.44891 
L 77.253745 79.278475 
L 78.28005 79.278475 
L 78.622152 78.996207 
L 79.306355 78.996207 
L 79.648457 77.277354 
L 81.016864 77.277354 
L 81.358965 76.556507 
L 81.701067 73.126419 
L 86.832593 73.126419 
L 87.174695 70.948269 
L 95.727238 70.948269 
L 96.06934 70.236376 
L 115.569139 70.236376 
L 115.911241 67.999415 
L 117.963851 67.999415 
L 118.305953 66.526053 
L 133.358429 66.526053 
L 133.700531 66.043771 
L 137.805752 66.043771 
L 138.147853 64.913482 
L 148.410905 64.885143 
L 148.753007 62.560499 
L 151.831923 62.560499 
L 152.174024 61.093114 
L 173.726434 61.015862 
L 174.068535 60.957455 
L 174.410637 60.428427 
L 175.779044 60.428427 
L 176.121146 58.216623 
L 212.383929 58.216623 
L 212.726031 57.618931 
L 234.620542 57.618931 
L 234.962644 56.952044 
L 279.777971 56.952044 
L 280.120073 56.644427 
L 287.646311 56.644427 
L 287.988413 55.960982 
L 311.593432 55.960982 
L 311.935534 53.568 
L 398.487273 53.568 
L 398.487273 53.568 
" style="fill:none;stroke:#ff0000;stroke-linecap:square;stroke-width:1.5;"/>
   </g>
   <g id="patch_3">
    <path d="M 57.6 307.584 
L 57.6 41.472 
" style="fill:none;stroke:#000000;stroke-linecap:square;stroke-linejoin:miter;stroke-width:0.8;"/>
   </g>
   <g id="patch_4">
    <path d="M 414.72 307.584 
L 414.72 41.472 
" style="fill:none;stroke:#000000;stroke-linecap:square;stroke-linejoin:miter;stroke-width:0.8;"/>
   </g>
   <g id="patch_5">
    <path d="M 57.6 307.584 
L 414.72 307.584 
" style="fill:none;stroke:#000000;stroke-linecap:square;stroke-linejoin:miter;stroke-width:0.8;"/>
   </g>
   <g id="patch_6">
    <path d="M 57.6 41.472 
L 414.72 41.472 
" style="fill:none;stroke:#000000;stroke-linecap:square;stroke-linejoin:miter;stroke-width:0.8;"/>
   </g>
   <g id="text_15">
    <!-- Population's average and best fitness -->
    <defs>
     <path d="M 19.671875 64.796875 
L 19.671875 37.40625 
L 32.078125 37.40625 
Q 38.96875 37.40625 42.71875 40.96875 
Q 46.484375 44.53125 46.484375 51.125 
Q 46.484375 57.671875 42.71875 61.234375 
Q 38.96875 64.796875 32.078125 64.796875 
z
M 9.8125 72.90625 
L 32.078125 72.90625 
Q 44.34375 72.90625 50.609375 67.359375 
Q 56.890625 61.8125 56.890625 51.125 
Q 56.890625 40.328125 50.609375 34.8125 
Q 44.34375 29.296875 32.078125 29.296875 
L 19.671875 29.296875 
L 19.671875 0 
L 9.8125 0 
z
" id="DejaVuSans-80"/>
     <path d="M 18.109375 8.203125 
L 18.109375 -20.796875 
L 9.078125 -20.796875 
L 9.078125 54.6875 
L 18.109375 54.6875 
L 18.109375 46.390625 
Q 20.953125 51.265625 25.265625 53.625 
Q 29.59375 56 35.59375 56 
Q 45.5625 56 51.78125 48.09375 
Q 58.015625 40.1875 58.015625 27.296875 
Q 58.015625 14.40625 51.78125 6.484375 
Q 45.5625 -1.421875 35.59375 -1.421875 
Q 29.59375 -1.421875 25.265625 0.953125 
Q 20.953125 3.328125 18.109375 8.203125 
z
M 48.6875 27.296875 
Q 48.6875 37.203125 44.609375 42.84375 
Q 40.53125 48.484375 33.40625 48.484375 
Q 26.265625 48.484375 22.1875 42.84375 
Q 18.109375 37.203125 18.109375 27.296875 
Q 18.109375 17.390625 22.1875 11.75 
Q 26.265625 6.109375 33.40625 6.109375 
Q 40.53125 6.109375 44.609375 11.75 
Q 48.6875 17.390625 48.6875 27.296875 
z
" id="DejaVuSans-112"/>
     <path d="M 8.5 21.578125 
L 8.5 54.6875 
L 17.484375 54.6875 
L 17.484375 21.921875 
Q 17.484375 14.15625 20.5 10.265625 
Q 23.53125 6.390625 29.59375 6.390625 
Q 36.859375 6.390625 41.078125 11.03125 
Q 45.3125 15.671875 45.3125 23.6875 
L 45.3125 54.6875 
L 54.296875 54.6875 
L 54.296875 0 
L 45.3125 0 
L 45.3125 8.40625 
Q 42.046875 3.421875 37.71875 1 
Q 33.40625 -1.421875 27.6875 -1.421875 
Q 18.265625 -1.421875 13.375 4.4375 
Q 8.5 10.296875 8.5 21.578125 
z
M 31.109375 56 
z
" id="DejaVuSans-117"/>
     <path d="M 9.421875 75.984375 
L 18.40625 75.984375 
L 18.40625 0 
L 9.421875 0 
z
" id="DejaVuSans-108"/>
     <path d="M 17.921875 72.90625 
L 17.921875 45.796875 
L 9.625 45.796875 
L 9.625 72.90625 
z
" id="DejaVuSans-39"/>
     <path id="DejaVuSans-32"/>
     <path d="M 2.984375 54.6875 
L 12.5 54.6875 
L 29.59375 8.796875 
L 46.6875 54.6875 
L 56.203125 54.6875 
L 35.6875 0 
L 23.484375 0 
z
" id="DejaVuSans-118"/>
     <path d="M 45.40625 27.984375 
Q 45.40625 37.75 41.375 43.109375 
Q 37.359375 48.484375 30.078125 48.484375 
Q 22.859375 48.484375 18.828125 43.109375 
Q 14.796875 37.75 14.796875 27.984375 
Q 14.796875 18.265625 18.828125 12.890625 
Q 22.859375 7.515625 30.078125 7.515625 
Q 37.359375 7.515625 41.375 12.890625 
Q 45.40625 18.265625 45.40625 27.984375 
z
M 54.390625 6.78125 
Q 54.390625 -7.171875 48.1875 -13.984375 
Q 42 -20.796875 29.203125 -20.796875 
Q 24.46875 -20.796875 20.265625 -20.09375 
Q 16.0625 -19.390625 12.109375 -17.921875 
L 12.109375 -9.1875 
Q 16.0625 -11.328125 19.921875 -12.34375 
Q 23.78125 -13.375 27.78125 -13.375 
Q 36.625 -13.375 41.015625 -8.765625 
Q 45.40625 -4.15625 45.40625 5.171875 
L 45.40625 9.625 
Q 42.625 4.78125 38.28125 2.390625 
Q 33.9375 0 27.875 0 
Q 17.828125 0 11.671875 7.65625 
Q 5.515625 15.328125 5.515625 27.984375 
Q 5.515625 40.671875 11.671875 48.328125 
Q 17.828125 56 27.875 56 
Q 33.9375 56 38.28125 53.609375 
Q 42.625 51.21875 45.40625 46.390625 
L 45.40625 54.6875 
L 54.390625 54.6875 
z
" id="DejaVuSans-103"/>
     <path d="M 45.40625 46.390625 
L 45.40625 75.984375 
L 54.390625 75.984375 
L 54.390625 0 
L 45.40625 0 
L 45.40625 8.203125 
Q 42.578125 3.328125 38.25 0.953125 
Q 33.9375 -1.421875 27.875 -1.421875 
Q 17.96875 -1.421875 11.734375 6.484375 
Q 5.515625 14.40625 5.515625 27.296875 
Q 5.515625 40.1875 11.734375 48.09375 
Q 17.96875 56 27.875 56 
Q 33.9375 56 38.25 53.625 
Q 42.578125 51.265625 45.40625 46.390625 
z
M 14.796875 27.296875 
Q 14.796875 17.390625 18.875 11.75 
Q 22.953125 6.109375 30.078125 6.109375 
Q 37.203125 6.109375 41.296875 11.75 
Q 45.40625 17.390625 45.40625 27.296875 
Q 45.40625 37.203125 41.296875 42.84375 
Q 37.203125 48.484375 30.078125 48.484375 
Q 22.953125 48.484375 18.875 42.84375 
Q 14.796875 37.203125 14.796875 27.296875 
z
" id="DejaVuSans-100"/>
     <path d="M 48.6875 27.296875 
Q 48.6875 37.203125 44.609375 42.84375 
Q 40.53125 48.484375 33.40625 48.484375 
Q 26.265625 48.484375 22.1875 42.84375 
Q 18.109375 37.203125 18.109375 27.296875 
Q 18.109375 17.390625 22.1875 11.75 
Q 26.265625 6.109375 33.40625 6.109375 
Q 40.53125 6.109375 44.609375 11.75 
Q 48.6875 17.390625 48.6875 27.296875 
z
M 18.109375 46.390625 
Q 20.953125 51.265625 25.265625 53.625 
Q 29.59375 56 35.59375 56 
Q 45.5625 56 51.78125 48.09375 
Q 58.015625 40.1875 58.015625 27.296875 
Q 58.015625 14.40625 51.78125 6.484375 
Q 45.5625 -1.421875 35.59375 -1.421875 
Q 29.59375 -1.421875 25.265625 0.953125 
Q 20.953125 3.328125 18.109375 8.203125 
L 18.109375 0 
L 9.078125 0 
L 9.078125 75.984375 
L 18.109375 75.984375 
z
" id="DejaVuSans-98"/>
     <path d="M 37.109375 75.984375 
L 37.109375 68.5 
L 28.515625 68.5 
Q 23.6875 68.5 21.796875 66.546875 
Q 19.921875 64.59375 19.921875 59.515625 
L 19.921875 54.6875 
L 34.71875 54.6875 
L 34.71875 47.703125 
L 19.921875 47.703125 
L 19.921875 0 
L 10.890625 0 
L 10.890625 47.703125 
L 2.296875 47.703125 
L 2.296875 54.6875 
L 10.890625 54.6875 
L 10.890625 58.5 
Q 10.890625 67.625 15.140625 71.796875 
Q 19.390625 75.984375 28.609375 75.984375 
z
" id="DejaVuSans-102"/>
    </defs>
    <g transform="translate(123.315 35.472)scale(0.12 -0.12)">
     <use xlink:href="#DejaVuSans-80"/>
     <use x="60.255859" xlink:href="#DejaVuSans-111"/>
     <use x="121.4375" xlink:href="#DejaVuSans-112"/>
     <use x="184.914062" xlink:href="#DejaVuSans-117"/>
     <use x="248.292969" xlink:href="#DejaVuSans-108"/>
     <use x="276.076172" xlink:href="#DejaVuSans-97"/>
     <use x="337.355469" xlink:href="#DejaVuSans-116"/>
     <use x="376.564453" xlink:href="#DejaVuSans-105"/>
     <use x="404.347656" xlink:href="#DejaVuSans-111"/>
     <use x="465.529297" xlink:href="#DejaVuSans-110"/>
     <use x="528.908203" xlink:href="#DejaVuSans-39"/>
     <use x="556.398438" xlink:href="#DejaVuSans-115"/>
     <use x="608.498047" xlink:href="#DejaVuSans-32"/>
     <use x="640.285156" xlink:href="#DejaVuSans-97"/>
     <use x="701.564453" xlink:href="#DejaVuSans-118"/>
     <use x="760.744141" xlink:href="#DejaVuSans-101"/>
     <use x="822.267578" xlink:href="#DejaVuSans-114"/>
     <use x="863.380859" xlink:href="#DejaVuSans-97"/>
     <use x="924.660156" xlink:href="#DejaVuSans-103"/>
     <use x="988.136719" xlink:href="#DejaVuSans-101"/>
     <use x="1049.660156" xlink:href="#DejaVuSans-32"/>
     <use x="1081.447266" xlink:href="#DejaVuSans-97"/>
     <use x="1142.726562" xlink:href="#DejaVuSans-110"/>
     <use x="1206.105469" xlink:href="#DejaVuSans-100"/>
     <use x="1269.582031" xlink:href="#DejaVuSans-32"/>
     <use x="1301.369141" xlink:href="#DejaVuSans-98"/>
     <use x="1364.845703" xlink:href="#DejaVuSans-101"/>
     <use x="1426.369141" xlink:href="#DejaVuSans-115"/>
     <use x="1478.46875" xlink:href="#DejaVuSans-116"/>
     <use x="1517.677734" xlink:href="#DejaVuSans-32"/>
     <use x="1549.464844" xlink:href="#DejaVuSans-102"/>
     <use x="1584.669922" xlink:href="#DejaVuSans-105"/>
     <use x="1612.453125" xlink:href="#DejaVuSans-116"/>
     <use x="1651.662109" xlink:href="#DejaVuSans-110"/>
     <use x="1715.041016" xlink:href="#DejaVuSans-101"/>
     <use x="1776.564453" xlink:href="#DejaVuSans-115"/>
     <use x="1828.664062" xlink:href="#DejaVuSans-115"/>
    </g>
   </g>
   <g id="legend_1">
    <g id="patch_7">
     <path d="M 334.779375 302.584 
L 407.72 302.584 
Q 409.72 302.584 409.72 300.584 
L 409.72 272.22775 
Q 409.72 270.22775 407.72 270.22775 
L 334.779375 270.22775 
Q 332.779375 270.22775 332.779375 272.22775 
L 332.779375 300.584 
Q 332.779375 302.584 334.779375 302.584 
z
" style="fill:#ffffff;opacity:0.8;stroke:#cccccc;stroke-linejoin:miter;"/>
    </g>
    <g id="line2d_27">
     <path d="M 336.779375 278.326187 
L 356.779375 278.326187 
" style="fill:none;stroke:#0000ff;stroke-linecap:square;stroke-width:1.5;"/>
    </g>
    <g id="line2d_28"/>
    <g id="text_16">
     <!-- average -->
     <g transform="translate(364.779375 281.826187)scale(0.1 -0.1)">
      <use xlink:href="#DejaVuSans-97"/>
      <use x="61.279297" xlink:href="#DejaVuSans-118"/>
      <use x="120.458984" xlink:href="#DejaVuSans-101"/>
      <use x="181.982422" xlink:href="#DejaVuSans-114"/>
      <use x="223.095703" xlink:href="#DejaVuSans-97"/>
      <use x="284.375" xlink:href="#DejaVuSans-103"/>
      <use x="347.851562" xlink:href="#DejaVuSans-101"/>
     </g>
    </g>
    <g id="line2d_29">
     <path d="M 336.779375 293.004312 
L 356.779375 293.004312 
" style="fill:none;stroke:#ff0000;stroke-linecap:square;stroke-width:1.5;"/>
    </g>
    <g id="line2d_30"/>
    <g id="text_17">
     <!-- best -->
     <g transform="translate(364.779375 296.504312)scale(0.1 -0.1)">
      <use xlink:href="#DejaVuSans-98"/>
      <use x="63.476562" xlink:href="#DejaVuSans-101"/>
      <use x="125" xlink:href="#DejaVuSans-115"/>
      <use x="177.099609" xlink:href="#DejaVuSans-116"/>
     </g>
    </g>
   </g>
  </g>
 </g>
 <defs>
  <clipPath id="p58d05220ea">
   <rect height="266.112" width="357.12" x="57.6" y="41.472"/>
  </clipPath>
 </defs>
</svg>
