<?xml version="1.0" encoding="UTF-8" standalone="no"?>
<!DOCTYPE svg PUBLIC "-//W3C//DTD SVG 1.1//EN"
 "http://www.w3.org/Graphics/SVG/1.1/DTD/svg11.dtd">
<!-- Generated by graphviz version 2.40.1 (20161225.0304)
 -->
<!-- Title: %3 Pages: 1 -->
<svg width="2935pt" height="386pt"
 viewBox="0.00 0.00 2934.92 386.37" xmlns="http://www.w3.org/2000/svg" xmlns:xlink="http://www.w3.org/1999/xlink">
<g id="graph0" class="graph" transform="scale(1 1) rotate(0) translate(4 382.3747)">
<title>%3</title>
<polygon fill="#ffffff" stroke="transparent" points="-4,4 -4,-382.3747 2930.9173,-382.3747 2930.9173,4 -4,4"/>
<!-- A -->
<g id="node1" class="node">
<title>A</title>
<polygon fill="#d3d3d3" stroke="#000000" points="1807.5,-302.262 1783.5,-302.262 1783.5,-284.262 1807.5,-284.262 1807.5,-302.262"/>
<text text-anchor="middle" x="1795.5" y="-291.062" font-family="Times,serif" font-size="9.00" fill="#000000">&#45;1</text>
</g>
<!-- A XOR B -->
<g id="node31" class="node">
<title>A XOR B</title>
<ellipse fill="#add8e6" stroke="#000000" cx="1377.5" cy="-21.2132" rx="21.4286" ry="21.4286"/>
<text text-anchor="middle" x="1377.5" y="-24.0132" font-family="Times,serif" font-size="9.00" fill="#000000">0</text>
<text text-anchor="middle" x="1377.5" y="-14.0132" font-family="Times,serif" font-size="9.00" fill="#000000">relu</text>
</g>
<!-- A&#45;&gt;A XOR B -->
<g id="edge60" class="edge">
<title>A&#45;&gt;A XOR B</title>
<path fill="none" stroke="#00ff00" stroke-width=".3411" d="M1791.8925,-284.0367C1782.3164,-260.6795 1754.0446,-198.603 1711.5,-163.9239 1677.4662,-136.1822 1659.0338,-147.0284 1619.5,-127.9239 1580.1388,-108.9028 1574.0823,-96.9832 1534.5,-78.4264 1491.718,-58.3696 1439.8234,-40.6753 1407.7288,-30.4559"/>
<polygon fill="#00ff00" stroke="#00ff00" stroke-width=".3411" points="1408.6303,-27.0704 1398.0408,-27.407 1406.5289,-33.7476 1408.6303,-27.0704"/>
</g>
<!-- 1 -->
<g id="node32" class="node">
<title>1</title>
<ellipse fill="#add8e6" stroke="#000000" cx="2190.5" cy="-21.2132" rx="21.4286" ry="21.4286"/>
<text text-anchor="middle" x="2190.5" y="-24.0132" font-family="Times,serif" font-size="9.00" fill="#000000">1</text>
<text text-anchor="middle" x="2190.5" y="-14.0132" font-family="Times,serif" font-size="9.00" fill="#000000">relu</text>
</g>
<!-- A&#45;&gt;1 -->
<g id="edge95" class="edge">
<title>A&#45;&gt;1</title>
<path fill="none" stroke="#ff0000" stroke-width=".5584" d="M1800.1668,-284.0119C1804.0149,-277.1816 1810.0439,-268.0785 1817.5,-262.1493 1850.5744,-235.8479 1868.5352,-246.6257 1905.5,-226.1493 2008.5961,-169.0398 2118.5694,-81.2641 2166.1961,-41.7446"/>
<polygon fill="#ff0000" stroke="#ff0000" stroke-width=".5584" points="2168.6473,-44.2578 2174.0855,-35.1651 2164.164,-38.8819 2168.6473,-44.2578"/>
</g>
<!-- 958 -->
<g id="node41" class="node">
<title>958</title>
<ellipse fill="#ffffff" stroke="#000000" cx="881.5" cy="-103.1751" rx="21.4286" ry="21.4286"/>
<text text-anchor="middle" x="881.5" y="-105.9751" font-family="Times,serif" font-size="9.00" fill="#000000">958</text>
<text text-anchor="middle" x="881.5" y="-95.9751" font-family="Times,serif" font-size="9.00" fill="#000000">relu</text>
</g>
<!-- A&#45;&gt;958 -->
<g id="edge80" class="edge">
<title>A&#45;&gt;958</title>
<path fill="none" stroke="#ff0000" stroke-width=".1496" d="M1792.0193,-284.2169C1788.6958,-276.9207 1782.9359,-267.0879 1774.5,-262.1493 1690.4099,-212.921 1431.2277,-252.7891 1337.5,-226.1493 1278.9512,-209.5082 1273.1662,-183.4047 1215.5,-163.9239 1107.7803,-127.534 972.738,-111.4913 912.7252,-105.7945"/>
<polygon fill="#ff0000" stroke="#ff0000" stroke-width=".1496" points="913.0273,-102.3076 902.749,-104.8781 912.3869,-109.2783 913.0273,-102.3076"/>
</g>
<!-- 959 -->
<g id="node42" class="node">
<title>959</title>
<ellipse fill="#ffffff" stroke="#000000" cx="1681.5" cy="-195.0366" rx="21.4286" ry="21.4286"/>
<text text-anchor="middle" x="1681.5" y="-197.8366" font-family="Times,serif" font-size="9.00" fill="#000000">959</text>
<text text-anchor="middle" x="1681.5" y="-187.8366" font-family="Times,serif" font-size="9.00" fill="#000000">relu</text>
</g>
<!-- A&#45;&gt;959 -->
<g id="edge98" class="edge">
<title>A&#45;&gt;959</title>
<path fill="none" stroke="#ff0000" stroke-width=".1319" d="M1790.6822,-284.0653C1786.8993,-277.4373 1781.1673,-268.5664 1774.5,-262.1493 1752.6405,-241.1099 1740.8157,-244.2943 1716.5,-226.1493 1712.5538,-223.2045 1708.5159,-219.9118 1704.6506,-216.6006"/>
<polygon fill="#ff0000" stroke="#ff0000" stroke-width=".1319" points="1706.856,-213.8788 1697.0434,-209.8833 1702.2226,-219.1259 1706.856,-213.8788"/>
</g>
<!-- B -->
<g id="node2" class="node">
<title>B</title>
<polygon fill="#d3d3d3" stroke="#000000" points="2468.5,-302.262 2444.5,-302.262 2444.5,-284.262 2468.5,-284.262 2468.5,-302.262"/>
<text text-anchor="middle" x="2456.5" y="-291.062" font-family="Times,serif" font-size="9.00" fill="#000000">&#45;2</text>
</g>
<!-- B&#45;&gt;A XOR B -->
<g id="edge93" class="edge">
<title>B&#45;&gt;A XOR B</title>
<path fill="none" stroke="#ff0000" stroke-width=".2884" d="M2449.8914,-283.8328C2424.3111,-248.2729 2327.4388,-122.099 2211.5,-78.4264 2135.306,-49.7252 1551.8564,-27.3797 1408.9953,-22.301"/>
<polygon fill="#ff0000" stroke="#ff0000" stroke-width=".2884" points="1408.8608,-18.7942 1398.7436,-21.9395 1408.614,-25.7899 1408.8608,-18.7942"/>
</g>
<!-- B&#45;&gt;1 -->
<g id="edge24" class="edge">
<title>B&#45;&gt;1</title>
<path fill="none" stroke="#ff0000" stroke-width=".7386" d="M2460.2341,-284.2031C2472.864,-251.9578 2510.4359,-141.3351 2459.5,-78.4264 2429.9008,-41.8697 2286.5173,-27.6938 2222.032,-23.1027"/>
<polygon fill="#ff0000" stroke="#ff0000" stroke-width=".7386" points="2222.2435,-19.6091 2212.0291,-22.4229 2221.7687,-26.593 2222.2435,-19.6091"/>
</g>
<!-- B&#45;&gt;959 -->
<g id="edge86" class="edge">
<title>B&#45;&gt;959</title>
<path fill="none" stroke="#00ff00" stroke-width=".1436" d="M2445.1424,-284.0788C2435.2989,-276.6984 2420.3401,-266.8194 2405.5,-262.1493 2282.3186,-223.3846 1953.4201,-243.8356 1825.5,-226.1493 1786.0117,-220.6896 1741.2301,-210.3454 1712.2376,-203.0881"/>
<polygon fill="#00ff00" stroke="#00ff00" stroke-width=".1436" points="1712.8633,-199.636 1702.3096,-200.5687 1711.1415,-206.4209 1712.8633,-199.636"/>
</g>
<!-- &#45;3 -->
<g id="node3" class="node">
<title>&#45;3</title>
<polygon fill="#d3d3d3" stroke="#000000" points="179.5,-302.262 155.5,-302.262 155.5,-284.262 179.5,-284.262 179.5,-302.262"/>
<text text-anchor="middle" x="167.5" y="-291.062" font-family="Times,serif" font-size="9.00" fill="#000000">&#45;3</text>
</g>
<!-- &#45;3&#45;&gt;A XOR B -->
<g id="edge77" class="edge">
<title>&#45;3&#45;&gt;A XOR B</title>
<path fill="none" stroke="#00ff00" stroke-width=".2029" d="M155.2456,-288.7617C134.1613,-280.2662 91.6383,-259.6518 74.5,-226.1493 66.3121,-210.1434 76.5119,-81.3718 79.5,-78.4264 126.0344,-32.5558 1151.9982,-22.849 1346.0023,-21.4214"/>
<polygon fill="#00ff00" stroke="#00ff00" stroke-width=".2029" points="1346.1266,-24.9207 1356.1012,-21.3491 1346.0764,-17.9208 1346.1266,-24.9207"/>
</g>
<!-- &#45;3&#45;&gt;1 -->
<g id="edge25" class="edge">
<title>&#45;3&#45;&gt;1</title>
<path fill="none" stroke="#ff0000" stroke-width=".4848" d="M161.9851,-284.0605C149.1246,-261.2836 120.2371,-201.41 147.5,-163.9239 220.0414,-64.1804 290.0011,-99.6169 411.5,-78.4264 456.3088,-70.6113 1924.312,-28.7536 2159.0005,-22.1038"/>
<polygon fill="#ff0000" stroke="#ff0000" stroke-width=".4848" points="2159.3364,-25.5957 2169.2333,-21.814 2159.1382,-18.5985 2159.3364,-25.5957"/>
</g>
<!-- 387394 -->
<g id="node33" class="node">
<title>387394</title>
<ellipse fill="#ffffff" stroke="#000000" cx="689.5" cy="-195.0366" rx="31.2258" ry="31.2258"/>
<text text-anchor="middle" x="689.5" y="-197.8366" font-family="Times,serif" font-size="9.00" fill="#000000">387394</text>
<text text-anchor="middle" x="689.5" y="-187.8366" font-family="Times,serif" font-size="9.00" fill="#000000">relu</text>
</g>
<!-- &#45;3&#45;&gt;387394 -->
<g id="edge115" class="edge">
<title>&#45;3&#45;&gt;387394</title>
<path fill="none" stroke="#00ff00" stroke-width=".312" d="M179.6348,-290.9786C243.2531,-279.0074 539.5262,-223.2573 648.8433,-202.687"/>
<polygon fill="#00ff00" stroke="#00ff00" stroke-width=".312" points="649.6444,-206.0978 658.8246,-200.8088 648.3498,-199.2185 649.6444,-206.0978"/>
</g>
<!-- &#45;3&#45;&gt;958 -->
<g id="edge16" class="edge">
<title>&#45;3&#45;&gt;958</title>
<path fill="none" stroke="#00ff00" stroke-width=".3499" d="M176.4301,-284.0274C188.5039,-271.3769 210.4813,-247.7594 227.5,-226.1493 248.2987,-199.7393 241.5398,-180.9937 270.5,-163.9239 320.7598,-134.2996 731.8636,-110.9178 849.9141,-104.7652"/>
<polygon fill="#00ff00" stroke="#00ff00" stroke-width=".3499" points="850.2873,-108.2507 860.0935,-104.2397 849.9263,-101.26 850.2873,-108.2507"/>
</g>
<!-- &#45;4 -->
<g id="node4" class="node">
<title>&#45;4</title>
<polygon fill="#d3d3d3" stroke="#000000" points="1487.5,-302.262 1463.5,-302.262 1463.5,-284.262 1487.5,-284.262 1487.5,-302.262"/>
<text text-anchor="middle" x="1475.5" y="-291.062" font-family="Times,serif" font-size="9.00" fill="#000000">&#45;4</text>
</g>
<!-- &#45;4&#45;&gt;A XOR B -->
<g id="edge49" class="edge">
<title>&#45;4&#45;&gt;A XOR B</title>
<path fill="none" stroke="#ff0000" stroke-width=".5444" d="M1472.71,-284.1586C1463.5081,-254.343 1432.9648,-157.0285 1402.5,-78.4264 1398.8752,-69.0742 1394.6046,-59.008 1390.6287,-49.9658"/>
<polygon fill="#ff0000" stroke="#ff0000" stroke-width=".5444" points="1393.7402,-48.3492 1386.4745,-40.6382 1387.3457,-51.1971 1393.7402,-48.3492"/>
</g>
<!-- &#45;4&#45;&gt;1 -->
<g id="edge41" class="edge">
<title>&#45;4&#45;&gt;1</title>
<path fill="none" stroke="#ff0000" stroke-width=".3768" d="M1480.6577,-284.104C1484.6756,-277.4952 1490.7009,-268.6315 1497.5,-262.1493 1556.257,-206.1307 1577.1538,-196.5292 1651.5,-163.9239 1835.3432,-83.2975 2075.0385,-39.6478 2159.4534,-25.9761"/>
<polygon fill="#ff0000" stroke="#ff0000" stroke-width=".3768" points="2160.0928,-29.4184 2169.416,-24.3858 2158.9893,-22.5059 2160.0928,-29.4184"/>
</g>
<!-- &#45;4&#45;&gt;958 -->
<g id="edge5" class="edge">
<title>&#45;4&#45;&gt;958</title>
<path fill="none" stroke="#ff0000" stroke-width=".2015" d="M1468.1925,-283.9721C1461.9352,-276.7359 1452.2514,-267.1127 1441.5,-262.1493 1323.9817,-207.896 1268.9627,-282.633 1152.5,-226.1493 1117.0896,-208.9754 1123.4225,-183.8765 1089.5,-163.9239 1032.2546,-130.2531 955.0471,-114.132 912.6328,-107.3682"/>
<polygon fill="#ff0000" stroke="#ff0000" stroke-width=".2015" points="913.0454,-103.8908 902.6325,-105.8452 911.9915,-110.811 913.0454,-103.8908"/>
</g>
<!-- &#45;4&#45;&gt;959 -->
<g id="edge13" class="edge">
<title>&#45;4&#45;&gt;959</title>
<path fill="none" stroke="#00ff00" stroke-width=".1668" d="M1479.8863,-284.1365C1483.6594,-277.1889 1489.7211,-267.8744 1497.5,-262.1493 1539.2698,-231.4075 1559.9297,-244.3345 1608.5,-226.1493 1623.3464,-220.5906 1639.5953,-213.743 1652.9862,-207.8882"/>
<polygon fill="#00ff00" stroke="#00ff00" stroke-width=".1668" points="1654.4365,-211.074 1662.1709,-203.8332 1651.6092,-204.6703 1654.4365,-211.074"/>
</g>
<!-- &#45;5 -->
<g id="node5" class="node">
<title>&#45;5</title>
<polygon fill="#d3d3d3" stroke="#000000" points="2030.5,-302.262 2006.5,-302.262 2006.5,-284.262 2030.5,-284.262 2030.5,-302.262"/>
<text text-anchor="middle" x="2018.5" y="-291.062" font-family="Times,serif" font-size="9.00" fill="#000000">&#45;5</text>
</g>
<!-- &#45;5&#45;&gt;A XOR B -->
<g id="edge19" class="edge">
<title>&#45;5&#45;&gt;A XOR B</title>
<path fill="none" stroke="#ff0000" stroke-width=".2008" stroke-dasharray="1,5" d="M2015.5111,-283.7945C2003.6479,-248.0962 1956.0632,-121.4876 1865.5,-78.4264 1783.9035,-39.6288 1503.1984,-25.8644 1408.7747,-22.2699"/>
<polygon fill="#ff0000" stroke="#ff0000" stroke-width=".2008" points="1408.8318,-18.7698 1398.7096,-21.8988 1408.5738,-25.765 1408.8318,-18.7698"/>
</g>
<!-- &#45;5&#45;&gt;1 -->
<g id="edge76" class="edge">
<title>&#45;5&#45;&gt;1</title>
<path fill="none" stroke="#ff0000" stroke-width=".4045" d="M2030.6811,-291.524C2073.5381,-285.1371 2216.2003,-261.4836 2242.5,-226.1493 2281.7007,-173.4821 2266.1713,-139.6653 2242.5,-78.4264 2236.8924,-63.9192 2225.7074,-50.8232 2215.143,-40.833"/>
<polygon fill="#ff0000" stroke="#ff0000" stroke-width=".4045" points="2217.4363,-38.1884 2207.6488,-34.1318 2212.7703,-43.4066 2217.4363,-38.1884"/>
</g>
<!-- &#45;5&#45;&gt;959 -->
<g id="edge92" class="edge">
<title>&#45;5&#45;&gt;959</title>
<path fill="none" stroke="#00ff00" stroke-width=".3136" d="M2014.7152,-284.1943C2011.2732,-277.0871 2005.5052,-267.5289 1997.5,-262.1493 1932.6766,-218.5869 1901.8923,-242.3963 1825.5,-226.1493 1786.5081,-217.8565 1741.6185,-208.129 1712.4655,-201.7875"/>
<polygon fill="#00ff00" stroke="#00ff00" stroke-width=".3136" points="1712.9927,-198.3204 1702.4771,-199.6134 1711.5038,-205.1602 1712.9927,-198.3204"/>
</g>
<!-- &#45;6 -->
<g id="node6" class="node">
<title>&#45;6</title>
<polygon fill="#d3d3d3" stroke="#000000" points="1243.5,-302.262 1219.5,-302.262 1219.5,-284.262 1243.5,-284.262 1243.5,-302.262"/>
<text text-anchor="middle" x="1231.5" y="-291.062" font-family="Times,serif" font-size="9.00" fill="#000000">&#45;6</text>
</g>
<!-- &#45;6&#45;&gt;A XOR B -->
<g id="edge30" class="edge">
<title>&#45;6&#45;&gt;A XOR B</title>
<path fill="none" stroke="#00ff00" stroke-width=".3503" d="M1228.7744,-284.0092C1219.952,-252.0352 1195.3277,-144.5523 1241.5,-78.4264 1265.3474,-44.2733 1313.7751,-30.4238 1345.9326,-24.8644"/>
<polygon fill="#00ff00" stroke="#00ff00" stroke-width=".3503" points="1346.8097,-28.2704 1356.1554,-23.2795 1345.7372,-21.353 1346.8097,-28.2704"/>
</g>
<!-- &#45;6&#45;&gt;1 -->
<g id="edge34" class="edge">
<title>&#45;6&#45;&gt;1</title>
<path fill="none" stroke="#ff0000" stroke-width=".2587" d="M1243.5781,-288.7715C1275.4487,-276.802 1361.0431,-243.8416 1385.5,-226.1493 1456.8378,-174.5429 1438.7297,-117.7653 1517.5,-78.4264 1575.4122,-49.5043 2034.1328,-27.9093 2159.136,-22.5194"/>
<polygon fill="#ff0000" stroke="#ff0000" stroke-width=".2587" points="2159.3558,-26.0133 2169.1973,-22.0897 2159.057,-19.0197 2159.3558,-26.0133"/>
</g>
<!-- &#45;6&#45;&gt;958 -->
<g id="edge14" class="edge">
<title>&#45;6&#45;&gt;958</title>
<path fill="none" stroke="#00ff00" stroke-width=".3056" d="M1219.3356,-290.7867C1169.6961,-280.611 984.0726,-241.8029 962.5,-226.1493 936.0832,-206.9806 941.4519,-191.1822 923.5,-163.9239 915.8968,-152.3791 907.2485,-139.7838 899.7839,-129.0705"/>
<polygon fill="#00ff00" stroke="#00ff00" stroke-width=".3056" points="902.4421,-126.7646 893.8409,-120.5783 896.707,-130.7782 902.4421,-126.7646"/>
</g>
<!-- &#45;6&#45;&gt;959 -->
<g id="edge42" class="edge">
<title>&#45;6&#45;&gt;959</title>
<path fill="none" stroke="#ff0000" stroke-width=".1644" d="M1243.5531,-288.3211C1260.3322,-281.6003 1291.7936,-269.5665 1319.5,-262.1493 1440.0285,-229.8828 1587.2286,-207.8019 1650.3436,-199.1343"/>
<polygon fill="#ff0000" stroke="#ff0000" stroke-width=".1644" points="1650.9933,-202.5783 1660.4318,-197.7653 1650.0519,-195.6419 1650.9933,-202.5783"/>
</g>
<!-- &#45;7 -->
<g id="node7" class="node">
<title>&#45;7</title>
<polygon fill="#d3d3d3" stroke="#000000" points="2278.5,-302.262 2254.5,-302.262 2254.5,-284.262 2278.5,-284.262 2278.5,-302.262"/>
<text text-anchor="middle" x="2266.5" y="-291.062" font-family="Times,serif" font-size="9.00" fill="#000000">&#45;7</text>
</g>
<!-- &#45;7&#45;&gt;A XOR B -->
<g id="edge66" class="edge">
<title>&#45;7&#45;&gt;A XOR B</title>
<path fill="none" stroke="#00ff00" stroke-width=".3866" d="M2260.9306,-284.1469C2239.3204,-249.7218 2157.0083,-127.1111 2052.5,-78.4264 1993.6488,-51.0109 1534.1211,-28.3234 1408.9138,-22.6048"/>
<polygon fill="#00ff00" stroke="#00ff00" stroke-width=".3866" points="1408.9843,-19.1045 1398.8362,-22.1483 1408.6675,-26.0974 1408.9843,-19.1045"/>
</g>
<!-- &#45;7&#45;&gt;1 -->
<g id="edge75" class="edge">
<title>&#45;7&#45;&gt;1</title>
<path fill="none" stroke="#00ff00" stroke-width=".3392" d="M2278.7575,-284.846C2320.4765,-255.1945 2451.2863,-153.3299 2394.5,-78.4264 2373.6063,-50.8667 2273.3364,-32.9248 2221.5755,-25.3414"/>
<polygon fill="#00ff00" stroke="#00ff00" stroke-width=".3392" points="2222.0037,-21.8671 2211.61,-23.9218 2221.0164,-28.7972 2222.0037,-21.8671"/>
</g>
<!-- &#45;7&#45;&gt;959 -->
<g id="edge84" class="edge">
<title>&#45;7&#45;&gt;959</title>
<path fill="none" stroke="#ff0000" stroke-width=".344" d="M2254.1774,-291.6708C2202.0525,-284.8805 1994.589,-257.2515 1825.5,-226.1493 1786.2938,-218.9377 1741.4508,-208.9748 1712.3671,-202.2838"/>
<polygon fill="#ff0000" stroke="#ff0000" stroke-width=".344" points="1712.9365,-198.8232 1702.4048,-199.9779 1711.3579,-205.6429 1712.9365,-198.8232"/>
</g>
<!-- &#45;8 -->
<g id="node8" class="node">
<title>&#45;8</title>
<polygon fill="#d3d3d3" stroke="#000000" points="1845.5,-378.3747 1821.5,-378.3747 1821.5,-360.3747 1845.5,-360.3747 1845.5,-378.3747"/>
<text text-anchor="middle" x="1833.5" y="-367.1747" font-family="Times,serif" font-size="9.00" fill="#000000">&#45;8</text>
</g>
<!-- &#45;8&#45;&gt;1 -->
<g id="edge52" class="edge">
<title>&#45;8&#45;&gt;1</title>
<path fill="none" stroke="#ff0000" stroke-width=".3674" d="M1845.5472,-369.2384C1957.7124,-367.9221 2816.2376,-356.8026 2858.5,-324.3747 2945.2687,-257.797 2950.4152,-148.5665 2866.5,-78.4264 2816.5577,-36.6824 2348.8136,-24.3702 2222.0541,-21.7868"/>
<polygon fill="#ff0000" stroke="#ff0000" stroke-width=".3674" points="2221.9256,-18.2837 2211.8584,-21.5853 2221.7872,-25.2823 2221.9256,-18.2837"/>
</g>
<!-- 31050 -->
<g id="node37" class="node">
<title>31050</title>
<ellipse fill="#ffffff" stroke="#000000" cx="1737.5" cy="-293.262" rx="27.6545" ry="27.6545"/>
<text text-anchor="middle" x="1737.5" y="-296.062" font-family="Times,serif" font-size="9.00" fill="#000000">31050</text>
<text text-anchor="middle" x="1737.5" y="-286.062" font-family="Times,serif" font-size="9.00" fill="#000000">relu</text>
</g>
<!-- &#45;8&#45;&gt;31050 -->
<g id="edge103" class="edge">
<title>&#45;8&#45;&gt;31050</title>
<path fill="none" stroke="#ff0000" stroke-width=".2033" d="M1821.1651,-360.2345C1809.1368,-351.2589 1790.3858,-337.1 1774.5,-324.3747 1771.798,-322.2102 1769.0061,-319.9355 1766.2234,-317.6422"/>
<polygon fill="#ff0000" stroke="#ff0000" stroke-width=".2033" points="1768.4138,-314.9116 1758.4879,-311.2064 1763.9367,-320.2927 1768.4138,-314.9116"/>
</g>
<!-- 168811 -->
<g id="node38" class="node">
<title>168811</title>
<ellipse fill="#ffffff" stroke="#000000" cx="1865.5" cy="-195.0366" rx="31.2258" ry="31.2258"/>
<text text-anchor="middle" x="1865.5" y="-197.8366" font-family="Times,serif" font-size="9.00" fill="#000000">168811</text>
<text text-anchor="middle" x="1865.5" y="-187.8366" font-family="Times,serif" font-size="9.00" fill="#000000">relu</text>
</g>
<!-- &#45;8&#45;&gt;168811 -->
<g id="edge117" class="edge">
<title>&#45;8&#45;&gt;168811</title>
<path fill="none" stroke="#00ff00" stroke-width=".2486" d="M1845.7173,-366.4445C1863.8492,-361.3635 1897.2694,-349.0137 1911.5,-324.3747 1925.3317,-300.4263 1919.6843,-288.5663 1911.5,-262.1493 1907.5748,-249.4796 1900.3404,-237.0751 1892.7525,-226.4458"/>
<polygon fill="#00ff00" stroke="#00ff00" stroke-width=".2486" points="1895.4564,-224.218 1886.6478,-218.3307 1889.8624,-228.4261 1895.4564,-224.218"/>
</g>
<!-- &#45;8&#45;&gt;959 -->
<g id="edge65" class="edge">
<title>&#45;8&#45;&gt;959</title>
<path fill="none" stroke="#ff0000" stroke-width=".1255" stroke-dasharray="1,5" d="M1821.238,-366.9223C1791.4263,-360.7068 1716.4261,-343.4681 1700.5,-324.3747 1677.8126,-297.1754 1675.7255,-255.0719 1677.5534,-226.3442"/>
<polygon fill="#ff0000" stroke="#ff0000" stroke-width=".1255" points="1681.0688,-226.3039 1678.4109,-216.0479 1674.093,-225.7229 1681.0688,-226.3039"/>
</g>
<!-- &#45;9 -->
<g id="node9" class="node">
<title>&#45;9</title>
<polygon fill="#d3d3d3" stroke="#000000" points="2396.5,-302.262 2372.5,-302.262 2372.5,-284.262 2396.5,-284.262 2396.5,-302.262"/>
<text text-anchor="middle" x="2384.5" y="-291.062" font-family="Times,serif" font-size="9.00" fill="#000000">&#45;9</text>
</g>
<!-- &#45;9&#45;&gt;A XOR B -->
<g id="edge85" class="edge">
<title>&#45;9&#45;&gt;A XOR B</title>
<path fill="none" stroke="#00ff00" stroke-width=".111" d="M2378.8995,-284.1738C2356.4465,-248.761 2268.7229,-119.9305 2156.5,-78.4264 2085.5276,-52.1782 1546.1187,-28.2078 1409.0823,-22.4971"/>
<polygon fill="#00ff00" stroke="#00ff00" stroke-width=".111" points="1408.9878,-18.9903 1398.8516,-22.0737 1408.6982,-25.9843 1408.9878,-18.9903"/>
</g>
<!-- &#45;9&#45;&gt;1 -->
<g id="edge12" class="edge">
<title>&#45;9&#45;&gt;1</title>
<path fill="none" stroke="#ff0000" stroke-width=".179" d="M2391.7591,-283.9237C2415.9035,-251.6704 2489.1319,-143.385 2437.5,-78.4264 2410.8873,-44.9447 2282.3454,-29.3266 2221.9607,-23.745"/>
<polygon fill="#ff0000" stroke="#ff0000" stroke-width=".179" points="2222.1287,-20.2462 2211.8579,-22.8465 2221.5085,-27.2187 2222.1287,-20.2462"/>
</g>
<!-- &#45;9&#45;&gt;959 -->
<g id="edge56" class="edge">
<title>&#45;9&#45;&gt;959</title>
<path fill="none" stroke="#ff0000" stroke-width=".3136" d="M2381.0387,-284.1834C2377.727,-276.8669 2371.9736,-267.0228 2363.5,-262.1493 2259.6312,-202.4098 1944.1539,-242.8463 1825.5,-226.1493 1786.025,-220.5943 1741.2405,-210.2709 1712.2437,-203.0443"/>
<polygon fill="#ff0000" stroke="#ff0000" stroke-width=".3136" points="1712.8668,-199.5918 1702.3141,-200.5366 1711.1527,-206.3788 1712.8668,-199.5918"/>
</g>
<!-- &#45;10 -->
<g id="node10" class="node">
<title>&#45;10</title>
<polygon fill="#d3d3d3" stroke="#000000" points="1988,-302.262 1959,-302.262 1959,-284.262 1988,-284.262 1988,-302.262"/>
<text text-anchor="middle" x="1973.5" y="-291.062" font-family="Times,serif" font-size="9.00" fill="#000000">&#45;10</text>
</g>
<!-- &#45;10&#45;&gt;A XOR B -->
<g id="edge90" class="edge">
<title>&#45;10&#45;&gt;A XOR B</title>
<path fill="none" stroke="#ff0000" stroke-width=".1265" d="M1971.8358,-283.936C1967.4409,-261.3833 1953.7943,-202.8834 1924.5,-163.9239 1886.4383,-113.3044 1869.1387,-102.3541 1810.5,-78.4264 1737.2069,-48.519 1495.441,-29.3384 1408.7663,-23.2813"/>
<polygon fill="#ff0000" stroke="#ff0000" stroke-width=".1265" points="1408.9706,-19.7872 1398.7538,-22.5921 1408.4898,-26.7707 1408.9706,-19.7872"/>
</g>
<!-- &#45;10&#45;&gt;1 -->
<g id="edge82" class="edge">
<title>&#45;10&#45;&gt;1</title>
<path fill="none" stroke="#ff0000" stroke-width=".1318" d="M1978.0949,-284.1073C1982.1849,-276.9495 1988.8558,-267.3658 1997.5,-262.1493 2077.4508,-213.9012 2144.3922,-297.6129 2204.5,-226.1493 2246.3472,-176.3962 2221.4955,-93.5795 2203.718,-50.0187"/>
<polygon fill="#ff0000" stroke="#ff0000" stroke-width=".1318" points="2206.8477,-48.4334 2199.7273,-40.588 2200.4011,-51.1613 2206.8477,-48.4334"/>
</g>
<!-- &#45;10&#45;&gt;959 -->
<g id="edge50" class="edge">
<title>&#45;10&#45;&gt;959</title>
<path fill="none" stroke="#ff0000" stroke-width=".4602" d="M1958.5637,-284.8033C1946.2187,-278.0495 1928.0885,-268.6695 1911.5,-262.1493 1841.9714,-234.8206 1756.7953,-212.805 1712.1492,-202.0987"/>
<polygon fill="#ff0000" stroke="#ff0000" stroke-width=".4602" points="1712.7596,-198.6465 1702.2219,-199.7449 1711.1446,-205.4576 1712.7596,-198.6465"/>
</g>
<!-- &#45;11 -->
<g id="node11" class="node">
<title>&#45;11</title>
<polygon fill="#d3d3d3" stroke="#000000" points="465,-302.262 436,-302.262 436,-284.262 465,-284.262 465,-302.262"/>
<text text-anchor="middle" x="450.5" y="-291.062" font-family="Times,serif" font-size="9.00" fill="#000000">&#45;11</text>
</g>
<!-- &#45;11&#45;&gt;A XOR B -->
<g id="edge20" class="edge">
<title>&#45;11&#45;&gt;A XOR B</title>
<path fill="none" stroke="#00ff00" stroke-width=".7365" d="M435.8271,-284.9097C422.5723,-277.7438 402.3153,-267.7183 383.5,-262.1493 328.8356,-245.9696 166.8758,-269.196 129.5,-226.1493 84.6691,-174.5164 115.1582,-115.678 172.5,-78.4264 223.1375,-45.5303 1160.7406,-25.4673 1345.895,-21.8172"/>
<polygon fill="#00ff00" stroke="#00ff00" stroke-width=".7365" points="1346.1216,-25.3135 1356.0512,-21.6186 1345.9847,-18.3149 1346.1216,-25.3135"/>
</g>
<!-- 151334 -->
<g id="node34" class="node">
<title>151334</title>
<ellipse fill="#ffffff" stroke="#000000" cx="419.5" cy="-195.0366" rx="31.2258" ry="31.2258"/>
<text text-anchor="middle" x="419.5" y="-197.8366" font-family="Times,serif" font-size="9.00" fill="#000000">151334</text>
<text text-anchor="middle" x="419.5" y="-187.8366" font-family="Times,serif" font-size="9.00" fill="#000000">relu</text>
</g>
<!-- &#45;11&#45;&gt;151334 -->
<g id="edge111" class="edge">
<title>&#45;11&#45;&gt;151334</title>
<path fill="none" stroke="#00ff00" stroke-width=".3659" d="M447.6392,-284.1972C444.0562,-272.8445 437.6853,-252.6579 431.9107,-234.3607"/>
<polygon fill="#00ff00" stroke="#00ff00" stroke-width=".3659" points="435.2221,-233.2236 428.8746,-224.7406 428.5466,-235.3304 435.2221,-233.2236"/>
</g>
<!-- &#45;11&#45;&gt;958 -->
<g id="edge74" class="edge">
<title>&#45;11&#45;&gt;958</title>
<path fill="none" stroke="#00ff00" stroke-width=".232" d="M457.6364,-283.9688C476.6645,-259.8967 531.3483,-195.2162 592.5,-163.9239 678.7196,-119.8039 795.0596,-107.7187 850.1192,-104.4145"/>
<polygon fill="#00ff00" stroke="#00ff00" stroke-width=".232" points="850.4909,-107.8996 860.287,-103.8639 850.1123,-100.9099 850.4909,-107.8996"/>
</g>
<!-- &#45;11&#45;&gt;959 -->
<g id="edge51" class="edge">
<title>&#45;11&#45;&gt;959</title>
<path fill="none" stroke="#00ff00" stroke-width=".1855" d="M465.0231,-286.456C481.8144,-278.9573 510.4857,-267.2807 536.5,-262.1493 721.7664,-225.6051 1197.1744,-240.026 1385.5,-226.1493 1482.3646,-219.0118 1596.5647,-205.5821 1650.4206,-198.9483"/>
<polygon fill="#00ff00" stroke="#00ff00" stroke-width=".1855" points="1650.8706,-202.4194 1660.3642,-197.716 1650.0096,-195.4725 1650.8706,-202.4194"/>
</g>
<!-- &#45;12 -->
<g id="node12" class="node">
<title>&#45;12</title>
<polygon fill="#d3d3d3" stroke="#000000" points="575,-302.262 546,-302.262 546,-284.262 575,-284.262 575,-302.262"/>
<text text-anchor="middle" x="560.5" y="-291.062" font-family="Times,serif" font-size="9.00" fill="#000000">&#45;12</text>
</g>
<!-- &#45;12&#45;&gt;A XOR B -->
<g id="edge4" class="edge">
<title>&#45;12&#45;&gt;A XOR B</title>
<path fill="none" stroke="#00ff00" stroke-width=".566" d="M545.7304,-286.7787C528.6727,-279.5761 499.6029,-268.1707 473.5,-262.1493 326.0494,-228.1354 69.5291,-293.6126 147.5,-163.9239 189.2461,-94.4878 230.4338,-100.1008 308.5,-78.4264 410.6835,-50.0561 1180.3835,-26.796 1346.118,-22.0848"/>
<polygon fill="#00ff00" stroke="#00ff00" stroke-width=".566" points="1346.2506,-25.5826 1356.1477,-21.8015 1346.0528,-18.5854 1346.2506,-25.5826"/>
</g>
<!-- &#45;12&#45;&gt;1 -->
<g id="edge10" class="edge">
<title>&#45;12&#45;&gt;1</title>
<path fill="none" stroke="#00ff00" stroke-width=".3918" d="M545.805,-287.938C502.9036,-272.3791 380.7621,-227.9633 379.5,-226.1493 363.7054,-203.4475 362.8482,-186.0046 379.5,-163.9239 462.7207,-53.5713 542.0103,-100.1964 678.5,-78.4264 829.423,-54.3543 1955.4412,-26.768 2159.0028,-21.9494"/>
<polygon fill="#00ff00" stroke="#00ff00" stroke-width=".3918" points="2159.3754,-25.4417 2169.29,-21.7068 2159.2102,-18.4437 2159.3754,-25.4417"/>
</g>
<!-- &#45;12&#45;&gt;958 -->
<g id="edge23" class="edge">
<title>&#45;12&#45;&gt;958</title>
<path fill="none" stroke="#00ff00" stroke-width=".3984" d="M564.0998,-284.0799C573.9192,-260.2757 603.5445,-196.1865 649.5,-163.9239 681.9936,-141.1121 794.8254,-118.5747 850.2658,-108.5626"/>
<polygon fill="#00ff00" stroke="#00ff00" stroke-width=".3984" points="851.0023,-111.9866 860.233,-106.7861 849.774,-105.0952 851.0023,-111.9866"/>
</g>
<!-- &#45;12&#45;&gt;959 -->
<g id="edge18" class="edge">
<title>&#45;12&#45;&gt;959</title>
<path fill="none" stroke="#00ff00" stroke-width=".1823" d="M575.0135,-285.3568C589.5771,-277.8642 612.8893,-267.0489 634.5,-262.1493 797.4451,-225.2063 1218.9057,-238.8873 1385.5,-226.1493 1482.3445,-218.7444 1596.554,-205.4399 1650.4164,-198.8916"/>
<polygon fill="#00ff00" stroke="#00ff00" stroke-width=".1823" points="1650.8598,-202.3636 1660.3612,-197.6758 1650.0103,-195.4153 1650.8598,-202.3636"/>
</g>
<!-- &#45;13 -->
<g id="node13" class="node">
<title>&#45;13</title>
<polygon fill="#d3d3d3" stroke="#000000" points="1376,-204.0366 1347,-204.0366 1347,-186.0366 1376,-186.0366 1376,-204.0366"/>
<text text-anchor="middle" x="1361.5" y="-192.8366" font-family="Times,serif" font-size="9.00" fill="#000000">&#45;13</text>
</g>
<!-- &#45;13&#45;&gt;A XOR B -->
<g id="edge40" class="edge">
<title>&#45;13&#45;&gt;A XOR B</title>
<path fill="none" stroke="#ff0000" stroke-width=".1978" d="M1360.9699,-185.9145C1359.9745,-166.1994 1358.3599,-118.1862 1363.5,-78.4264 1364.6497,-69.5336 1366.6543,-60.0202 1368.7933,-51.3548"/>
<polygon fill="#ff0000" stroke="#ff0000" stroke-width=".1978" points="1372.1848,-52.2196 1371.3229,-41.6599 1365.4116,-50.4523 1372.1848,-52.2196"/>
</g>
<!-- &#45;13&#45;&gt;1 -->
<g id="edge58" class="edge">
<title>&#45;13&#45;&gt;1</title>
<path fill="none" stroke="#ff0000" stroke-width=".4105" d="M1367.1535,-185.9276C1381.9535,-163.0116 1424.3891,-103.0448 1477.5,-78.4264 1539.9644,-49.4725 2029.261,-27.7482 2159.0093,-22.4557"/>
<polygon fill="#ff0000" stroke="#ff0000" stroke-width=".4105" points="2159.2316,-25.9496 2169.082,-22.0485 2158.9488,-18.9553 2159.2316,-25.9496"/>
</g>
<!-- &#45;13&#45;&gt;958 -->
<g id="edge78" class="edge">
<title>&#45;13&#45;&gt;958</title>
<path fill="none" stroke="#ff0000" stroke-width=".1907" d="M1355.554,-185.7767C1350.3833,-178.5578 1342.2075,-168.9434 1332.5,-163.9239 1258.8242,-125.8283 1002.6206,-109.3579 912.8594,-104.6662"/>
<polygon fill="#ff0000" stroke="#ff0000" stroke-width=".1907" points="912.9267,-101.1652 902.7615,-104.1518 912.5705,-108.1562 912.9267,-101.1652"/>
</g>
<!-- &#45;14 -->
<g id="node14" class="node">
<title>&#45;14</title>
<polygon fill="#d3d3d3" stroke="#000000" points="2849,-302.262 2820,-302.262 2820,-284.262 2849,-284.262 2849,-302.262"/>
<text text-anchor="middle" x="2834.5" y="-291.062" font-family="Times,serif" font-size="9.00" fill="#000000">&#45;14</text>
</g>
<!-- &#45;14&#45;&gt;1 -->
<g id="edge3" class="edge">
<title>&#45;14&#45;&gt;1</title>
<path fill="none" stroke="#ff0000" stroke-width=".2743" stroke-dasharray="1,5" d="M2841.6804,-283.9167C2850.7101,-271.5163 2865.7293,-248.5691 2871.5,-226.1493 2888.455,-160.2774 2887.2083,-117.4541 2831.5,-78.4264 2781.2028,-43.1897 2344.4898,-26.2774 2222.2033,-22.205"/>
<polygon fill="#ff0000" stroke="#ff0000" stroke-width=".2743" points="2222.1188,-18.7005 2212.0096,-21.8712 2221.8896,-25.6967 2222.1188,-18.7005"/>
</g>
<!-- 57160 -->
<g id="node36" class="node">
<title>57160</title>
<ellipse fill="#ffffff" stroke="#000000" cx="2834.5" cy="-195.0366" rx="27.6545" ry="27.6545"/>
<text text-anchor="middle" x="2834.5" y="-197.8366" font-family="Times,serif" font-size="9.00" fill="#000000">57160</text>
<text text-anchor="middle" x="2834.5" y="-187.8366" font-family="Times,serif" font-size="9.00" fill="#000000">relu</text>
</g>
<!-- &#45;14&#45;&gt;57160 -->
<g id="edge105" class="edge">
<title>&#45;14&#45;&gt;57160</title>
<path fill="none" stroke="#ff0000" stroke-width=".2173" d="M2834.5,-284.1972C2834.5,-272.5762 2834.5,-251.699 2834.5,-233.0669"/>
<polygon fill="#ff0000" stroke="#ff0000" stroke-width=".2173" points="2838.0001,-233.0197 2834.5,-223.0197 2831.0001,-233.0198 2838.0001,-233.0197"/>
</g>
<!-- &#45;14&#45;&gt;959 -->
<g id="edge43" class="edge">
<title>&#45;14&#45;&gt;959</title>
<path fill="none" stroke="#ff0000" stroke-width=".4947" d="M2819.7455,-288.7736C2795.6749,-281.6752 2746.3394,-268.0588 2703.5,-262.1493 2316.6136,-208.7801 2212.9105,-275.5711 1825.5,-226.1493 1785.9565,-221.1047 1741.1869,-210.6702 1712.2123,-203.2786"/>
<polygon fill="#ff0000" stroke="#ff0000" stroke-width=".4947" points="1712.8492,-199.8282 1702.291,-200.7087 1711.0939,-206.6045 1712.8492,-199.8282"/>
</g>
<!-- &#45;15 -->
<g id="node15" class="node">
<title>&#45;15</title>
<polygon fill="#d3d3d3" stroke="#000000" points="673,-302.262 644,-302.262 644,-284.262 673,-284.262 673,-302.262"/>
<text text-anchor="middle" x="658.5" y="-291.062" font-family="Times,serif" font-size="9.00" fill="#000000">&#45;15</text>
</g>
<!-- &#45;15&#45;&gt;A XOR B -->
<g id="edge96" class="edge">
<title>&#45;15&#45;&gt;A XOR B</title>
<path fill="none" stroke="#ff0000" stroke-width=".2208" d="M643.7726,-287.1771C605.2995,-271.2488 504.5976,-229.3351 502.5,-226.1493 466.3956,-171.3131 457.6153,-126.3418 502.5,-78.4264 531.9425,-46.9959 1193.1881,-26.4228 1346.1271,-22.0746"/>
<polygon fill="#ff0000" stroke="#ff0000" stroke-width=".2208" points="1346.3472,-25.5699 1356.2446,-21.7897 1346.15,-18.5727 1346.3472,-25.5699"/>
</g>
<!-- &#45;15&#45;&gt;1 -->
<g id="edge64" class="edge">
<title>&#45;15&#45;&gt;1</title>
<path fill="none" stroke="#00ff00" stroke-width=".1939" d="M654.3973,-284.1585C644.9111,-261.605 624.1364,-202.2011 649.5,-163.9239 703.3494,-82.6576 756.3945,-99.8484 851.5,-78.4264 982.7349,-48.8665 1969.5723,-26.0236 2159.0791,-21.8847"/>
<polygon fill="#00ff00" stroke="#00ff00" stroke-width=".1939" points="2159.2805,-25.3812 2169.2021,-21.6649 2159.1285,-18.3829 2159.2805,-25.3812"/>
</g>
<!-- &#45;15&#45;&gt;958 -->
<g id="edge27" class="edge">
<title>&#45;15&#45;&gt;958</title>
<path fill="none" stroke="#00ff00" stroke-width=".2362" d="M668.9933,-284.1034C693.3691,-262.8527 755.7631,-208.5975 808.5,-163.9239 824.5906,-150.2935 842.8244,-135.1196 857.0437,-123.3466"/>
<polygon fill="#00ff00" stroke="#00ff00" stroke-width=".2362" points="859.4295,-125.9154 864.9053,-116.8453 854.9685,-120.521 859.4295,-125.9154"/>
</g>
<!-- &#45;15&#45;&gt;959 -->
<g id="edge11" class="edge">
<title>&#45;15&#45;&gt;959</title>
<path fill="none" stroke="#ff0000" stroke-width=".1104" d="M673.0506,-287.7302C692.9267,-280.448 729.8327,-267.8983 762.5,-262.1493 1035.653,-214.0778 1109.0636,-248.6519 1385.5,-226.1493 1482.307,-218.269 1596.534,-205.1872 1650.4084,-198.7909"/>
<polygon fill="#ff0000" stroke="#ff0000" stroke-width=".1104" points="1650.8405,-202.2642 1660.3555,-197.6043 1650.0113,-195.3135 1650.8405,-202.2642"/>
</g>
<!-- &#45;16 -->
<g id="node16" class="node">
<title>&#45;16</title>
<polygon fill="#d3d3d3" stroke="#000000" points="1855,-302.262 1826,-302.262 1826,-284.262 1855,-284.262 1855,-302.262"/>
<text text-anchor="middle" x="1840.5" y="-291.062" font-family="Times,serif" font-size="9.00" fill="#000000">&#45;16</text>
</g>
<!-- &#45;16&#45;&gt;A XOR B -->
<g id="edge83" class="edge">
<title>&#45;16&#45;&gt;A XOR B</title>
<path fill="none" stroke="#ff0000" stroke-width=".609" d="M1846.7918,-284.1766C1851.3995,-277.7656 1857.9645,-269.1135 1864.5,-262.1493 1881.0941,-244.4664 1895.4987,-248.2405 1905.5,-226.1493 1916.9061,-200.9552 1920.8763,-186.911 1905.5,-163.9239 1848.6461,-78.9289 1513.7282,-35.9365 1408.8702,-24.4325"/>
<polygon fill="#ff0000" stroke="#ff0000" stroke-width=".609" points="1408.9419,-20.9201 1398.6246,-23.329 1408.1923,-27.8799 1408.9419,-20.9201"/>
</g>
<!-- &#45;16&#45;&gt;1 -->
<g id="edge33" class="edge">
<title>&#45;16&#45;&gt;1</title>
<path fill="none" stroke="#00ff00" stroke-width=".2007" d="M1845.0752,-284.0744C1849.1538,-276.8975 1855.8189,-267.3042 1864.5,-262.1493 1951.9542,-210.2181 2008.7604,-286.678 2090.5,-226.1493 2148.2046,-183.4187 2174.3386,-98.3683 2184.6717,-52.4126"/>
<polygon fill="#00ff00" stroke="#00ff00" stroke-width=".2007" points="2188.1392,-52.9342 2186.8062,-42.4235 2181.2937,-51.4714 2188.1392,-52.9342"/>
</g>
<!-- &#45;16&#45;&gt;958 -->
<g id="edge72" class="edge">
<title>&#45;16&#45;&gt;958</title>
<path fill="none" stroke="#ff0000" stroke-width=".3969" d="M1834.9687,-284.1156C1819.3215,-259.2258 1771.9303,-190.3735 1711.5,-163.9239 1637.3256,-131.4586 1056.6714,-109.2709 913.3818,-104.2539"/>
<polygon fill="#ff0000" stroke="#ff0000" stroke-width=".3969" points="913.2054,-100.7458 903.0901,-103.8969 912.9627,-107.7416 913.2054,-100.7458"/>
</g>
<!-- &#45;16&#45;&gt;959 -->
<g id="edge17" class="edge">
<title>&#45;16&#45;&gt;959</title>
<path fill="none" stroke="#00ff00" stroke-width=".1626" d="M1835.4734,-284.214C1831.224,-277.3091 1824.5499,-268.0143 1816.5,-262.1493 1778.3217,-234.3333 1757.1095,-250.2777 1716.5,-226.1493 1712.267,-223.6342 1708.078,-220.5679 1704.1491,-217.3518"/>
<polygon fill="#00ff00" stroke="#00ff00" stroke-width=".1626" points="1706.3476,-214.6248 1696.5189,-210.6689 1701.7355,-219.8906 1706.3476,-214.6248"/>
</g>
<!-- &#45;17 -->
<g id="node17" class="node">
<title>&#45;17</title>
<polygon fill="#d3d3d3" stroke="#000000" points="375,-302.262 346,-302.262 346,-284.262 375,-284.262 375,-302.262"/>
<text text-anchor="middle" x="360.5" y="-291.062" font-family="Times,serif" font-size="9.00" fill="#000000">&#45;17</text>
</g>
<!-- &#45;17&#45;&gt;A XOR B -->
<g id="edge22" class="edge">
<title>&#45;17&#45;&gt;A XOR B</title>
<path fill="none" stroke="#ff0000" stroke-width=".5734" d="M345.907,-290.5069C293.8807,-280.5429 119.7624,-245.9287 104.5,-226.1493 64.2115,-173.9374 69.2228,-122.2556 118.5,-78.4264 165.786,-36.3683 1156.1065,-23.5988 1346.1262,-21.5319"/>
<polygon fill="#ff0000" stroke="#ff0000" stroke-width=".5734" points="1346.313,-25.0302 1356.275,-21.4235 1346.2381,-18.0306 1346.313,-25.0302"/>
</g>
<!-- &#45;17&#45;&gt;958 -->
<g id="edge54" class="edge">
<title>&#45;17&#45;&gt;958</title>
<path fill="none" stroke="#ff0000" stroke-width=".1086" d="M358.5601,-284.1226C354.1202,-260.4216 346.0231,-196.5601 379.5,-163.9239 413.3088,-130.9641 744.8224,-110.4988 849.7955,-104.8051"/>
<polygon fill="#ff0000" stroke="#ff0000" stroke-width=".1086" points="850.2669,-108.285 860.0659,-104.2563 849.8933,-101.295 850.2669,-108.285"/>
</g>
<!-- &#45;17&#45;&gt;959 -->
<g id="edge46" class="edge">
<title>&#45;17&#45;&gt;959</title>
<path fill="none" stroke="#ff0000" stroke-width=".2346" d="M375.0651,-284.2866C388.0326,-276.8215 407.7925,-266.7078 426.5,-262.1493 633.6985,-211.6604 1172.778,-241.3044 1385.5,-226.1493 1482.3816,-219.2471 1596.5737,-205.7071 1650.4242,-198.9981"/>
<polygon fill="#ff0000" stroke="#ff0000" stroke-width=".2346" points="1650.88,-202.4685 1660.3668,-197.7514 1650.009,-195.5229 1650.88,-202.4685"/>
</g>
<!-- &#45;18 -->
<g id="node18" class="node">
<title>&#45;18</title>
<polygon fill="#d3d3d3" stroke="#000000" points="2694,-302.262 2665,-302.262 2665,-284.262 2694,-284.262 2694,-302.262"/>
<text text-anchor="middle" x="2679.5" y="-291.062" font-family="Times,serif" font-size="9.00" fill="#000000">&#45;18</text>
</g>
<!-- &#45;18&#45;&gt;1 -->
<g id="edge7" class="edge">
<title>&#45;18&#45;&gt;1</title>
<path fill="none" stroke="#00ff00" stroke-width=".3059" d="M2686.7654,-284.1416C2711.7117,-251.6887 2789.3336,-140.452 2733.5,-78.4264 2699.0912,-40.2016 2332.7819,-25.669 2222.0361,-22.1299"/>
<polygon fill="#00ff00" stroke="#00ff00" stroke-width=".3059" points="2221.9487,-18.6255 2211.8445,-21.8124 2221.7307,-25.6221 2221.9487,-18.6255"/>
</g>
<!-- &#45;18&#45;&gt;959 -->
<g id="edge70" class="edge">
<title>&#45;18&#45;&gt;959</title>
<path fill="none" stroke="#ff0000" stroke-width=".3984" d="M2664.8516,-286.3401C2648.2204,-278.8542 2620.072,-267.3019 2594.5,-262.1493 2259.089,-194.5657 2164.7745,-270.4308 1825.5,-226.1493 1785.9713,-220.9901 1741.1985,-210.5805 1712.2191,-203.226"/>
<polygon fill="#ff0000" stroke="#ff0000" stroke-width=".3984" points="1712.853,-199.7751 1702.296,-200.6701 1711.1069,-206.5538 1712.853,-199.7751"/>
</g>
<!-- &#45;19 -->
<g id="node19" class="node">
<title>&#45;19</title>
<polygon fill="#d3d3d3" stroke="#000000" points="988,-302.262 959,-302.262 959,-284.262 988,-284.262 988,-302.262"/>
<text text-anchor="middle" x="973.5" y="-291.062" font-family="Times,serif" font-size="9.00" fill="#000000">&#45;19</text>
</g>
<!-- &#45;19&#45;&gt;958 -->
<g id="edge2" class="edge">
<title>&#45;19&#45;&gt;958</title>
<path fill="none" stroke="#ff0000" stroke-width=".1944" d="M959.0061,-284.2555C936.4295,-269.8919 894.6041,-241.8234 886.5,-226.1493 871.7509,-197.6231 872.5963,-160.2064 875.8093,-134.1701"/>
<polygon fill="#ff0000" stroke="#ff0000" stroke-width=".1944" points="879.2971,-134.5023 877.2375,-124.1096 872.3666,-133.5183 879.2971,-134.5023"/>
</g>
<!-- &#45;19&#45;&gt;959 -->
<g id="edge79" class="edge">
<title>&#45;19&#45;&gt;959</title>
<path fill="none" stroke="#ff0000" stroke-width=".158" d="M985.9135,-284.2398C996.6297,-276.9577 1012.8169,-267.1325 1028.5,-262.1493 1180.4837,-213.8577 1226.8675,-242.4845 1385.5,-226.1493 1482.1163,-216.2002 1596.4327,-204.0877 1650.368,-198.3526"/>
<polygon fill="#ff0000" stroke="#ff0000" stroke-width=".158" points="1650.7532,-201.8315 1660.3268,-197.2931 1650.0127,-194.8707 1650.7532,-201.8315"/>
</g>
<!-- &#45;20 -->
<g id="node20" class="node">
<title>&#45;20</title>
<polygon fill="#d3d3d3" stroke="#000000" points="29,-302.262 0,-302.262 0,-284.262 29,-284.262 29,-302.262"/>
<text text-anchor="middle" x="14.5" y="-291.062" font-family="Times,serif" font-size="9.00" fill="#000000">&#45;20</text>
</g>
<!-- &#45;20&#45;&gt;A XOR B -->
<g id="edge35" class="edge">
<title>&#45;20&#45;&gt;A XOR B</title>
<path fill="none" stroke="#ff0000" stroke-width=".2614" d="M13.5158,-283.9579C10.4908,-249.8974 5.1517,-131.2469 70.5,-78.4264 121.6689,-37.067 1151.2517,-23.7039 1345.9001,-21.5429"/>
<polygon fill="#ff0000" stroke="#ff0000" stroke-width=".2614" points="1346.0712,-25.0413 1356.0323,-21.4322 1345.9946,-18.0417 1346.0712,-25.0413"/>
</g>
<!-- &#45;20&#45;&gt;1 -->
<g id="edge63" class="edge">
<title>&#45;20&#45;&gt;1</title>
<path fill="none" stroke="#00ff00" stroke-width=".1145" d="M16.2484,-283.9362C20.8445,-261.3839 34.9984,-202.8849 64.5,-163.9239 102.7321,-113.433 118.708,-99.3055 178.5,-78.4264 184.6078,-76.2936 1903.4164,-29.0855 2158.9043,-22.0792"/>
<polygon fill="#00ff00" stroke="#00ff00" stroke-width=".1145" points="2159.0981,-25.5753 2168.9983,-21.8024 2158.9061,-18.5779 2159.0981,-25.5753"/>
</g>
<!-- 710070 -->
<g id="node40" class="node">
<title>710070</title>
<ellipse fill="#ffffff" stroke="#000000" cx="187.5" cy="-195.0366" rx="31.2258" ry="31.2258"/>
<text text-anchor="middle" x="187.5" y="-197.8366" font-family="Times,serif" font-size="9.00" fill="#000000">710070</text>
<text text-anchor="middle" x="187.5" y="-187.8366" font-family="Times,serif" font-size="9.00" fill="#000000">relu</text>
</g>
<!-- &#45;20&#45;&gt;710070 -->
<g id="edge118" class="edge">
<title>&#45;20&#45;&gt;710070</title>
<path fill="none" stroke="#00ff00" stroke-width=".2953" d="M29.2499,-284.8873C55.9912,-269.7042 113.2023,-237.2211 151.0057,-215.7572"/>
<polygon fill="#00ff00" stroke="#00ff00" stroke-width=".2953" points="153.2002,-218.5361 160.1682,-210.5549 149.744,-212.4488 153.2002,-218.5361"/>
</g>
<!-- &#45;20&#45;&gt;958 -->
<g id="edge36" class="edge">
<title>&#45;20&#45;&gt;958</title>
<path fill="none" stroke="#ff0000" stroke-width=".1165" stroke-dasharray="1,5" d="M20.3427,-284.2522C36.8326,-259.7117 86.5224,-191.669 147.5,-163.9239 212.167,-134.5001 717.7819,-110.3784 849.9668,-104.53"/>
<polygon fill="#ff0000" stroke="#ff0000" stroke-width=".1165" points="850.3745,-108.0155 860.2114,-104.0803 850.0675,-101.0223 850.3745,-108.0155"/>
</g>
<!-- &#45;20&#45;&gt;959 -->
<g id="edge28" class="edge">
<title>&#45;20&#45;&gt;959</title>
<path fill="none" stroke="#00ff00" stroke-width=".1073" d="M29.3621,-288.7155C53.6092,-281.5357 103.3114,-267.8072 146.5,-262.1493 692.7318,-190.5906 835.8328,-262.9696 1385.5,-226.1493 1482.41,-219.6576 1596.5888,-205.9253 1650.4302,-199.0851"/>
<polygon fill="#00ff00" stroke="#00ff00" stroke-width=".1073" points="1650.8961,-202.5541 1660.371,-197.8131 1650.0076,-195.6107 1650.8961,-202.5541"/>
</g>
<!-- &#45;21 -->
<g id="node21" class="node">
<title>&#45;21</title>
<polygon fill="#d3d3d3" stroke="#000000" points="1902,-302.262 1873,-302.262 1873,-284.262 1902,-284.262 1902,-302.262"/>
<text text-anchor="middle" x="1887.5" y="-291.062" font-family="Times,serif" font-size="9.00" fill="#000000">&#45;21</text>
</g>
<!-- &#45;21&#45;&gt;1 -->
<g id="edge48" class="edge">
<title>&#45;21&#45;&gt;1</title>
<path fill="none" stroke="#00ff00" stroke-width=".4225" d="M1902.0017,-284.5651C1914.449,-277.4814 1933.0852,-267.7649 1950.5,-262.1493 2043.1275,-232.2806 2099.3728,-296.6187 2166.5,-226.1493 2211.1041,-179.3244 2204.7348,-96.6281 2197.1024,-51.9377"/>
<polygon fill="#00ff00" stroke="#00ff00" stroke-width=".4225" points="2200.5187,-51.1625 2195.2681,-41.9603 2193.634,-52.4283 2200.5187,-51.1625"/>
</g>
<!-- &#45;21&#45;&gt;958 -->
<g id="edge73" class="edge">
<title>&#45;21&#45;&gt;958</title>
<path fill="none" stroke="#ff0000" stroke-width=".4958" d="M1881.4796,-284.1995C1877.0682,-277.7994 1870.7782,-269.1508 1864.5,-262.1493 1848.7519,-244.5867 1842.4952,-242.508 1825.5,-226.1493 1797.3726,-199.0754 1799.019,-180.1273 1763.5,-163.9239 1684.8248,-128.033 1061.1592,-108.2552 912.998,-104.0351"/>
<polygon fill="#ff0000" stroke="#ff0000" stroke-width=".4958" points="912.8787,-100.5304 902.7841,-103.7475 912.6816,-107.5277 912.8787,-100.5304"/>
</g>
<!-- &#45;21&#45;&gt;959 -->
<g id="edge88" class="edge">
<title>&#45;21&#45;&gt;959</title>
<path fill="none" stroke="#00ff00" stroke-width=".2345" d="M1882.7576,-284.2219C1878.7265,-277.3213 1872.3495,-268.0285 1864.5,-262.1493 1839.7492,-243.611 1757.0667,-217.3363 1711.7848,-203.8201"/>
<polygon fill="#00ff00" stroke="#00ff00" stroke-width=".2345" points="1712.5111,-200.3851 1701.929,-200.9036 1710.5248,-207.0974 1712.5111,-200.3851"/>
</g>
<!-- &#45;22 -->
<g id="node22" class="node">
<title>&#45;22</title>
<polygon fill="#d3d3d3" stroke="#000000" points="2354,-302.262 2325,-302.262 2325,-284.262 2354,-284.262 2354,-302.262"/>
<text text-anchor="middle" x="2339.5" y="-291.062" font-family="Times,serif" font-size="9.00" fill="#000000">&#45;22</text>
</g>
<!-- &#45;22&#45;&gt;A XOR B -->
<g id="edge44" class="edge">
<title>&#45;22&#45;&gt;A XOR B</title>
<path fill="none" stroke="#ff0000" stroke-width=".1122" d="M2333.1472,-283.9471C2308.5465,-248.8002 2215.2908,-123.9229 2102.5,-78.4264 2037.5112,-52.2118 1539.9884,-28.4364 1409.0138,-22.5849"/>
<polygon fill="#ff0000" stroke="#ff0000" stroke-width=".1122" points="1408.9999,-19.0809 1398.8546,-22.1342 1408.6896,-26.074 1408.9999,-19.0809"/>
</g>
<!-- &#45;22&#45;&gt;1 -->
<g id="edge69" class="edge">
<title>&#45;22&#45;&gt;1</title>
<path fill="none" stroke="#00ff00" stroke-width=".4375" d="M2346.4582,-284.1216C2358.0692,-268.7429 2380.6959,-238.195 2386.5,-226.1493 2415.5429,-165.8736 2456.5696,-131.2462 2415.5,-78.4264 2391.8507,-48.0109 2278.0415,-31.1158 2221.923,-24.5099"/>
<polygon fill="#00ff00" stroke="#00ff00" stroke-width=".4375" points="2222.1631,-21.0147 2211.8311,-23.36 2221.3705,-27.9697 2222.1631,-21.0147"/>
</g>
<!-- &#45;22&#45;&gt;959 -->
<g id="edge61" class="edge">
<title>&#45;22&#45;&gt;959</title>
<path fill="none" stroke="#ff0000" stroke-width=".3154" d="M2327.8706,-284.141C2317.8041,-276.7986 2302.5356,-266.9403 2287.5,-262.1493 2091.2658,-199.62 2029.2862,-255.9648 1825.5,-226.1493 1786.056,-220.3783 1741.2647,-210.1019 1712.258,-202.9452"/>
<polygon fill="#ff0000" stroke="#ff0000" stroke-width=".3154" points="1712.8747,-199.4917 1702.3246,-200.4638 1711.1782,-206.2831 1712.8747,-199.4917"/>
</g>
<!-- &#45;23 -->
<g id="node23" class="node">
<title>&#45;23</title>
<polygon fill="#d3d3d3" stroke="#000000" points="1358,-302.262 1329,-302.262 1329,-284.262 1358,-284.262 1358,-302.262"/>
<text text-anchor="middle" x="1343.5" y="-291.062" font-family="Times,serif" font-size="9.00" fill="#000000">&#45;23</text>
</g>
<!-- &#45;23&#45;&gt;A XOR B -->
<g id="edge99" class="edge">
<title>&#45;23&#45;&gt;A XOR B</title>
<path fill="none" stroke="#00ff00" stroke-width=".119" d="M1328.7933,-285.6607C1310.2575,-275.1461 1279.2772,-254.2351 1266.5,-226.1493 1239.3127,-166.3883 1232.3266,-134.4863 1266.5,-78.4264 1283.7345,-50.154 1319.912,-35.2524 1346.2962,-27.8305"/>
<polygon fill="#00ff00" stroke="#00ff00" stroke-width=".119" points="1347.4175,-31.1555 1356.2182,-25.2565 1345.6597,-24.3798 1347.4175,-31.1555"/>
</g>
<!-- &#45;23&#45;&gt;1 -->
<g id="edge38" class="edge">
<title>&#45;23&#45;&gt;1</title>
<path fill="none" stroke="#ff0000" stroke-width=".2005" d="M1358.1786,-284.1913C1368.3419,-277.9393 1382.201,-269.4703 1394.5,-262.1493 1421.8802,-245.8511 1433.7204,-248.4293 1456.5,-226.1493 1479.6663,-203.491 1474.3473,-189.2999 1494.5,-163.9239 1528.2152,-121.4702 1532.3402,-101.2811 1581.5,-78.4264 1634.2022,-53.9249 2042.1087,-29.4899 2159.1816,-22.9247"/>
<polygon fill="#ff0000" stroke="#ff0000" stroke-width=".2005" points="2159.4862,-26.4132 2169.2762,-22.3626 2159.097,-19.4241 2159.4862,-26.4132"/>
</g>
<!-- &#45;23&#45;&gt;958 -->
<g id="edge94" class="edge">
<title>&#45;23&#45;&gt;958</title>
<path fill="none" stroke="#00ff00" stroke-width=".1526" d="M1328.8636,-287.6099C1311.0309,-280.8751 1279.8887,-269.5998 1252.5,-262.1493 1175.4578,-241.1917 1150.5809,-255.9275 1076.5,-226.1493 1010.4269,-199.59 942.0045,-150.5477 906.414,-123.1031"/>
<polygon fill="#00ff00" stroke="#00ff00" stroke-width=".1526" points="908.1331,-120.0054 898.0944,-116.6179 903.8295,-125.5262 908.1331,-120.0054"/>
</g>
<!-- &#45;23&#45;&gt;959 -->
<g id="edge67" class="edge">
<title>&#45;23&#45;&gt;959</title>
<path fill="none" stroke="#ff0000" stroke-width=".2051" stroke-dasharray="1,5" d="M1355.8949,-284.1445C1365.8696,-277.2013 1380.4872,-267.8888 1394.5,-262.1493 1483.5078,-225.6925 1596.5367,-206.5904 1650.325,-199.0124"/>
<polygon fill="#ff0000" stroke="#ff0000" stroke-width=".2051" points="1650.8365,-202.4751 1660.2681,-197.6487 1649.8853,-195.54 1650.8365,-202.4751"/>
</g>
<!-- &#45;24 -->
<g id="node24" class="node">
<title>&#45;24</title>
<polygon fill="#d3d3d3" stroke="#000000" points="2585,-302.262 2556,-302.262 2556,-284.262 2585,-284.262 2585,-302.262"/>
<text text-anchor="middle" x="2570.5" y="-291.062" font-family="Times,serif" font-size="9.00" fill="#000000">&#45;24</text>
</g>
<!-- &#45;24&#45;&gt;A XOR B -->
<g id="edge9" class="edge">
<title>&#45;24&#45;&gt;A XOR B</title>
<path fill="none" stroke="#ff0000" stroke-width=".3367" d="M2561.7194,-284.051C2527.8958,-249.2795 2401.2883,-125.5812 2268.5,-78.4264 2186.2044,-49.2022 1558.318,-27.0934 1409.1983,-22.2198"/>
<polygon fill="#ff0000" stroke="#ff0000" stroke-width=".3367" points="1409.0269,-18.7125 1398.9187,-21.8865 1408.8,-25.7088 1409.0269,-18.7125"/>
</g>
<!-- &#45;24&#45;&gt;1 -->
<g id="edge45" class="edge">
<title>&#45;24&#45;&gt;1</title>
<path fill="none" stroke="#00ff00" stroke-width=".2621" stroke-dasharray="1,5" d="M2569.7926,-284.1549C2566.6837,-250.7821 2551.1881,-134.2271 2483.5,-78.4264 2443.7362,-45.6459 2288.9471,-29.2697 2221.8308,-23.5924"/>
<polygon fill="#00ff00" stroke="#00ff00" stroke-width=".2621" points="2222.0958,-20.1025 2211.8429,-22.7722 2221.5229,-27.079 2222.0958,-20.1025"/>
</g>
<!-- 2608 -->
<g id="node39" class="node">
<title>2608</title>
<ellipse fill="#ffffff" stroke="#000000" cx="2699.5" cy="-103.1751" rx="25" ry="25"/>
<text text-anchor="middle" x="2699.5" y="-105.9751" font-family="Times,serif" font-size="9.00" fill="#000000">2608</text>
<text text-anchor="middle" x="2699.5" y="-95.9751" font-family="Times,serif" font-size="9.00" fill="#000000">relu</text>
</g>
<!-- &#45;24&#45;&gt;2608 -->
<g id="edge100" class="edge">
<title>&#45;24&#45;&gt;2608</title>
<path fill="none" stroke="#00ff00" stroke-width=".266" d="M2585.2071,-286.0628C2605.1292,-275.579 2640.4947,-254.2557 2660.5,-226.1493 2679.3041,-199.7305 2689.3129,-163.861 2694.4603,-137.6805"/>
<polygon fill="#00ff00" stroke="#00ff00" stroke-width=".266" points="2697.9091,-138.2776 2696.2624,-127.8116 2691.023,-137.0202 2697.9091,-138.2776"/>
</g>
<!-- &#45;24&#45;&gt;958 -->
<g id="edge62" class="edge">
<title>&#45;24&#45;&gt;958</title>
<path fill="none" stroke="#00ff00" stroke-width=".4974" d="M2555.8881,-287.5988C2537.7439,-280.7478 2505.7337,-269.2519 2477.5,-262.1493 2227.3507,-199.2201 2161.7496,-193.4348 1905.5,-163.9239 1515.6929,-119.0318 1038.3575,-106.4146 912.9001,-103.7701"/>
<polygon fill="#00ff00" stroke="#00ff00" stroke-width=".4974" points="912.9078,-100.2696 902.8381,-103.5637 912.7642,-107.2681 912.9078,-100.2696"/>
</g>
<!-- &#45;24&#45;&gt;959 -->
<g id="edge68" class="edge">
<title>&#45;24&#45;&gt;959</title>
<path fill="none" stroke="#00ff00" stroke-width=".2736" d="M2555.6899,-286.9285C2537.611,-279.5228 2505.9278,-267.587 2477.5,-262.1493 2192.4489,-207.6239 2113.1185,-264.9149 1825.5,-226.1493 1785.9933,-220.8245 1741.2157,-210.4509 1712.2292,-203.15"/>
<polygon fill="#00ff00" stroke="#00ff00" stroke-width=".2736" points="1712.8586,-199.6984 1702.3034,-200.6142 1711.1259,-206.4806 1712.8586,-199.6984"/>
</g>
<!-- &#45;25 -->
<g id="node25" class="node">
<title>&#45;25</title>
<polygon fill="#d3d3d3" stroke="#000000" points="910,-302.262 881,-302.262 881,-284.262 910,-284.262 910,-302.262"/>
<text text-anchor="middle" x="895.5" y="-291.062" font-family="Times,serif" font-size="9.00" fill="#000000">&#45;25</text>
</g>
<!-- &#45;25&#45;&gt;1 -->
<g id="edge29" class="edge">
<title>&#45;25&#45;&gt;1</title>
<path fill="none" stroke="#00ff00" stroke-width=".4266" d="M909.8631,-284.2344C920.572,-277.6905 935.6745,-268.8507 949.5,-262.1493 1147.6022,-166.1258 1194.978,-127.8767 1409.5,-78.4264 1555.9276,-44.6728 2031.8182,-26.5515 2159.004,-22.2334"/>
<polygon fill="#00ff00" stroke="#00ff00" stroke-width=".4266" points="2159.3422,-25.7242 2169.2193,-21.891 2159.1077,-18.7281 2159.3422,-25.7242"/>
</g>
<!-- &#45;25&#45;&gt;387394 -->
<g id="edge121" class="edge">
<title>&#45;25&#45;&gt;387394</title>
<path fill="none" stroke="#ff0000" stroke-width=".1165" d="M880.685,-286.1978C848.7511,-270.9711 772.6096,-234.6651 726.6325,-212.7422"/>
<polygon fill="#ff0000" stroke="#ff0000" stroke-width=".1165" points="728.1166,-209.5723 717.5837,-208.4275 725.1037,-215.8908 728.1166,-209.5723"/>
</g>
<!-- &#45;25&#45;&gt;958 -->
<g id="edge15" class="edge">
<title>&#45;25&#45;&gt;958</title>
<path fill="none" stroke="#00ff00" stroke-width=".3202" d="M886.0165,-283.8633C874.5452,-271.7577 855.858,-249.4829 848.5,-226.1493 840.1828,-199.7738 841.6897,-190.728 848.5,-163.9239 851.5861,-151.7777 857.6445,-139.4337 863.7372,-129.0738"/>
<polygon fill="#00ff00" stroke="#00ff00" stroke-width=".3202" points="866.7357,-130.8795 869.0264,-120.5352 860.7849,-127.1933 866.7357,-130.8795"/>
</g>
<!-- &#45;25&#45;&gt;959 -->
<g id="edge110" class="edge">
<title>&#45;25&#45;&gt;959</title>
<path fill="none" stroke="#00ff00" stroke-width=".2767" d="M907.6391,-284.1639C918.1308,-276.8355 934.0075,-266.9849 949.5,-262.1493 1135.1062,-204.2168 1191.9131,-244.3131 1385.5,-226.1493 1482.2025,-217.0759 1596.4785,-204.5531 1650.3863,-198.5381"/>
<polygon fill="#00ff00" stroke="#00ff00" stroke-width=".2767" points="1650.7908,-202.0148 1660.3398,-197.4248 1650.0127,-195.0582 1650.7908,-202.0148"/>
</g>
<!-- &#45;26 -->
<g id="node26" class="node">
<title>&#45;26</title>
<polygon fill="#d3d3d3" stroke="#000000" points="1432,-302.262 1403,-302.262 1403,-284.262 1432,-284.262 1432,-302.262"/>
<text text-anchor="middle" x="1417.5" y="-291.062" font-family="Times,serif" font-size="9.00" fill="#000000">&#45;26</text>
</g>
<!-- &#45;26&#45;&gt;A XOR B -->
<g id="edge53" class="edge">
<title>&#45;26&#45;&gt;A XOR B</title>
<path fill="none" stroke="#ff0000" stroke-width=".2295" d="M1416.1691,-284.2104C1410.8749,-248.203 1391.1576,-114.1017 1382.1014,-52.5086"/>
<polygon fill="#ff0000" stroke="#ff0000" stroke-width=".2295" points="1385.5085,-51.6198 1380.5909,-42.2353 1378.5829,-52.6381 1385.5085,-51.6198"/>
</g>
<!-- &#45;26&#45;&gt;1 -->
<g id="edge32" class="edge">
<title>&#45;26&#45;&gt;1</title>
<path fill="none" stroke="#00ff00" stroke-width=".2869" d="M1428.1783,-284.2453C1447.9818,-267.4809 1488.9059,-232.6234 1494.5,-226.1493 1515.9952,-201.2727 1509.5924,-185.3831 1534.5,-163.9239 1604.6542,-103.4824 1635.3168,-103.3491 1724.5,-78.4264 1883.4983,-33.9935 2082.5992,-24.056 2158.8223,-21.8432"/>
<polygon fill="#00ff00" stroke="#00ff00" stroke-width=".2869" points="2159.2535,-25.3331 2169.1574,-21.5696 2159.0682,-18.3355 2159.2535,-25.3331"/>
</g>
<!-- &#45;26&#45;&gt;958 -->
<g id="edge89" class="edge">
<title>&#45;26&#45;&gt;958</title>
<path fill="none" stroke="#00ff00" stroke-width=".1413" d="M1405.6414,-284.0926C1395.7349,-276.9263 1380.9465,-267.3383 1366.5,-262.1493 1260.0233,-223.904 1218.3667,-271.0013 1114.5,-226.1493 1073.7872,-208.5685 1074.9085,-186.0915 1036.5,-163.9239 995.6157,-140.3274 943.8097,-122.113 911.6586,-112.0178"/>
<polygon fill="#00ff00" stroke="#00ff00" stroke-width=".1413" points="912.5366,-108.626 901.9494,-109.0288 910.477,-115.3162 912.5366,-108.626"/>
</g>
<!-- &#45;26&#45;&gt;959 -->
<g id="edge47" class="edge">
<title>&#45;26&#45;&gt;959</title>
<path fill="none" stroke="#ff0000" stroke-width=".1476" d="M1426.1455,-284.1795C1433.1908,-277.2555 1443.7075,-267.9519 1454.5,-262.1493 1519.5085,-227.1968 1605.0302,-208.2547 1650.2852,-200.0617"/>
<polygon fill="#ff0000" stroke="#ff0000" stroke-width=".1476" points="1651.1159,-203.4696 1660.3616,-198.2958 1649.9075,-196.5747 1651.1159,-203.4696"/>
</g>
<!-- &#45;27 -->
<g id="node27" class="node">
<title>&#45;27</title>
<polygon fill="#d3d3d3" stroke="#000000" points="1535,-302.262 1506,-302.262 1506,-284.262 1535,-284.262 1535,-302.262"/>
<text text-anchor="middle" x="1520.5" y="-291.062" font-family="Times,serif" font-size="9.00" fill="#000000">&#45;27</text>
</g>
<!-- &#45;27&#45;&gt;A XOR B -->
<g id="edge59" class="edge">
<title>&#45;27&#45;&gt;A XOR B</title>
<path fill="none" stroke="#00ff00" stroke-width=".4925" stroke-dasharray="1,5" d="M1515.8333,-284.2229C1511.7017,-277.1321 1505.0099,-267.5823 1496.5,-262.1493 1435.4296,-223.1597 1382.7244,-282.7579 1337.5,-226.1493 1295.6567,-173.7729 1335.141,-90.1244 1360.2887,-47.717"/>
<polygon fill="#00ff00" stroke="#00ff00" stroke-width=".4925" points="1363.339,-49.4373 1365.555,-39.0767 1357.3618,-45.794 1363.339,-49.4373"/>
</g>
<!-- &#45;27&#45;&gt;1 -->
<g id="edge81" class="edge">
<title>&#45;27&#45;&gt;1</title>
<path fill="none" stroke="#00ff00" stroke-width=".8627" d="M1526.9302,-284.0049C1544.1142,-260.0199 1593.7454,-195.5316 1651.5,-163.9239 1828.0061,-67.3264 2073.228,-33.5096 2159.213,-24.2072"/>
<polygon fill="#00ff00" stroke="#00ff00" stroke-width=".8627" points="2159.773,-27.6678 2169.3541,-23.1451 2159.0439,-20.7058 2159.773,-27.6678"/>
</g>
<!-- &#45;27&#45;&gt;168811 -->
<g id="edge113" class="edge">
<title>&#45;27&#45;&gt;168811</title>
<path fill="none" stroke="#00ff00" stroke-width=".277" d="M1525.1428,-284.1851C1529.2606,-277.0725 1535.9454,-267.5117 1544.5,-262.1493 1547.495,-260.2719 1739.1745,-220.8876 1824.8701,-203.343"/>
<polygon fill="#00ff00" stroke="#00ff00" stroke-width=".277" points="1825.6805,-206.7498 1834.7756,-201.3157 1824.2768,-199.8919 1825.6805,-206.7498"/>
</g>
<!-- &#45;27&#45;&gt;958 -->
<g id="edge37" class="edge">
<title>&#45;27&#45;&gt;958</title>
<path fill="none" stroke="#00ff00" stroke-width=".1067" d="M1515.9285,-284.0681C1511.8521,-276.8876 1505.1881,-267.2925 1496.5,-262.1493 1407.4646,-209.4418 1365.3653,-256.6622 1266.5,-226.1493 1204.9099,-207.1407 1196.2861,-185.3649 1135.5,-163.9239 1057.2225,-136.3131 961.0085,-117.1261 912.5405,-108.4346"/>
<polygon fill="#00ff00" stroke="#00ff00" stroke-width=".1067" points="913.1248,-104.9837 902.6686,-106.6917 911.9077,-111.8771 913.1248,-104.9837"/>
</g>
<!-- &#45;27&#45;&gt;959 -->
<g id="edge1" class="edge">
<title>&#45;27&#45;&gt;959</title>
<path fill="none" stroke="#00ff00" stroke-width=".1208" d="M1525.5165,-284.2C1529.7602,-277.2874 1536.4318,-267.989 1544.5,-262.1493 1583.4435,-233.9621 1605.094,-250.5758 1646.5,-226.1493 1650.824,-223.5984 1655.0984,-220.4679 1659.0956,-217.1859"/>
<polygon fill="#00ff00" stroke="#00ff00" stroke-width=".1208" points="1661.6426,-219.6068 1666.8379,-210.3732 1657.0184,-214.3516 1661.6426,-219.6068"/>
</g>
<!-- &#45;28 -->
<g id="node28" class="node">
<title>&#45;28</title>
<polygon fill="#d3d3d3" stroke="#000000" points="801,-302.262 772,-302.262 772,-284.262 801,-284.262 801,-302.262"/>
<text text-anchor="middle" x="786.5" y="-291.062" font-family="Times,serif" font-size="9.00" fill="#000000">&#45;28</text>
</g>
<!-- &#45;28&#45;&gt;A XOR B -->
<g id="edge31" class="edge">
<title>&#45;28&#45;&gt;A XOR B</title>
<path fill="none" stroke="#00ff00" stroke-width=".2149" d="M771.9778,-291.189C742.6838,-286.1365 676.9707,-270.1962 649.5,-226.1493 634.865,-202.6832 634.2239,-186.9777 649.5,-163.9239 728.3842,-44.8767 1216.909,-24.99 1346.1572,-21.8002"/>
<polygon fill="#00ff00" stroke="#00ff00" stroke-width=".2149" points="1346.2721,-25.2985 1356.1888,-21.5689 1346.1107,-18.3004 1346.2721,-25.2985"/>
</g>
<!-- &#45;28&#45;&gt;958 -->
<g id="edge71" class="edge">
<title>&#45;28&#45;&gt;958</title>
<path fill="none" stroke="#00ff00" stroke-width=".2035" d="M789.4606,-284.1771C796.6429,-262.6311 816.1322,-207.0142 839.5,-163.9239 846.0899,-151.7721 854.5783,-139.0812 862.1975,-128.4604"/>
<polygon fill="#00ff00" stroke="#00ff00" stroke-width=".2035" points="865.2477,-130.219 868.3323,-120.0831 859.6002,-126.0832 865.2477,-130.219"/>
</g>
<!-- &#45;28&#45;&gt;959 -->
<g id="edge57" class="edge">
<title>&#45;28&#45;&gt;959</title>
<path fill="none" stroke="#ff0000" stroke-width=".2256" d="M801.1712,-286.4497C817.8227,-279.062 845.9893,-267.5975 871.5,-262.1493 1095.4537,-214.3204 1157.3685,-246.1217 1385.5,-226.1493 1482.2571,-217.6784 1596.5075,-204.8733 1650.3978,-198.6658"/>
<polygon fill="#ff0000" stroke="#ff0000" stroke-width=".2256" points="1650.8162,-202.1408 1660.348,-197.5155 1650.0122,-195.1871 1650.8162,-202.1408"/>
</g>
<!-- &#45;29 -->
<g id="node29" class="node">
<title>&#45;29</title>
<polygon fill="#d3d3d3" stroke="#000000" points="1067,-302.262 1038,-302.262 1038,-284.262 1067,-284.262 1067,-302.262"/>
<text text-anchor="middle" x="1052.5" y="-291.062" font-family="Times,serif" font-size="9.00" fill="#000000">&#45;29</text>
</g>
<!-- &#45;29&#45;&gt;A XOR B -->
<g id="edge8" class="edge">
<title>&#45;29&#45;&gt;A XOR B</title>
<path fill="none" stroke="#ff0000" stroke-width=".4225" d="M1057.0309,-284.0005C1073.5961,-251.0711 1134.2308,-138.4248 1216.5,-78.4264 1256.248,-49.4385 1312.0648,-33.9976 1346.4494,-26.7172"/>
<polygon fill="#ff0000" stroke="#ff0000" stroke-width=".4225" points="1347.2794,-30.1204 1356.3909,-24.7138 1345.8965,-23.2583 1347.2794,-30.1204"/>
</g>
<!-- &#45;29&#45;&gt;958 -->
<g id="edge87" class="edge">
<title>&#45;29&#45;&gt;958</title>
<path fill="none" stroke="#ff0000" stroke-width=".4988" d="M1037.8569,-284.8978C1026.6138,-278.5316 1010.6657,-269.6213 996.5,-262.1493 964.8553,-245.4576 948.1383,-253.0051 924.5,-226.1493 901.6774,-200.2202 890.7818,-161.4605 885.705,-134.4079"/>
<polygon fill="#ff0000" stroke="#ff0000" stroke-width=".4988" points="889.1138,-133.5771 883.9767,-124.311 882.2142,-134.7582 889.1138,-133.5771"/>
</g>
<!-- &#45;29&#45;&gt;959 -->
<g id="edge21" class="edge">
<title>&#45;29&#45;&gt;959</title>
<path fill="none" stroke="#00ff00" stroke-width=".2634" d="M1067.2645,-290.0834C1095.1638,-284.1375 1157.5775,-271.1239 1210.5,-262.1493 1375.436,-234.1793 1574.2088,-208.4582 1650.0361,-198.9353"/>
<polygon fill="#00ff00" stroke="#00ff00" stroke-width=".2634" points="1650.8249,-202.364 1660.3129,-197.6494 1649.9557,-195.4181 1650.8249,-202.364"/>
</g>
<!-- &#45;30 -->
<g id="node30" class="node">
<title>&#45;30</title>
<polygon fill="#d3d3d3" stroke="#000000" points="1658,-378.3747 1629,-378.3747 1629,-360.3747 1658,-360.3747 1658,-378.3747"/>
<text text-anchor="middle" x="1643.5" y="-367.1747" font-family="Times,serif" font-size="9.00" fill="#000000">&#45;30</text>
</g>
<!-- &#45;30&#45;&gt;A XOR B -->
<g id="edge91" class="edge">
<title>&#45;30&#45;&gt;A XOR B</title>
<path fill="none" stroke="#ff0000" stroke-width=".3579" d="M1658.0038,-368.2663C1727.8232,-362.8632 2026.4819,-338.9558 2039.5,-324.3747 2057.9185,-303.7446 2045.9508,-289.0421 2039.5,-262.1493 2016.2275,-165.1288 1999.6385,-123.2474 1910.5,-78.4264 1821.6522,-33.7516 1509.6904,-23.7944 1409.0524,-21.7238"/>
<polygon fill="#ff0000" stroke="#ff0000" stroke-width=".3579" points="1408.9802,-18.2219 1398.9143,-21.5276 1408.8446,-25.2206 1408.9802,-18.2219"/>
</g>
<!-- &#45;30&#45;&gt;1 -->
<g id="edge26" class="edge">
<title>&#45;30&#45;&gt;1</title>
<path fill="none" stroke="#00ff00" stroke-width=".352" d="M1658.4174,-368.5159C1687.8672,-366.8347 1755.5616,-363.0409 1812.5,-360.3747 1861.9862,-358.0574 2662.1278,-351.6251 2703.5,-324.3747 2796.8829,-262.8666 2831.487,-161.3755 2756.5,-78.4264 2720.4086,-38.5028 2335.4544,-25.0876 2221.8737,-21.9828"/>
<polygon fill="#00ff00" stroke="#00ff00" stroke-width=".352" points="2221.8394,-18.4807 2211.75,-21.714 2221.6535,-25.4783 2221.8394,-18.4807"/>
</g>
<!-- 136519 -->
<g id="node35" class="node">
<title>136519</title>
<ellipse fill="#ffffff" stroke="#000000" cx="1584.5" cy="-293.262" rx="31.2258" ry="31.2258"/>
<text text-anchor="middle" x="1584.5" y="-296.062" font-family="Times,serif" font-size="9.00" fill="#000000">136519</text>
<text text-anchor="middle" x="1584.5" y="-286.062" font-family="Times,serif" font-size="9.00" fill="#000000">relu</text>
</g>
<!-- &#45;30&#45;&gt;136519 -->
<g id="edge108" class="edge">
<title>&#45;30&#45;&gt;136519</title>
<path fill="none" stroke="#00ff00" stroke-width=".2071" d="M1636.5002,-360.3447C1629.8898,-351.8169 1619.5683,-338.5016 1609.8577,-325.9745"/>
<polygon fill="#00ff00" stroke="#00ff00" stroke-width=".2071" points="1612.5026,-323.6737 1603.6098,-317.9145 1606.9701,-327.9623 1612.5026,-323.6737"/>
</g>
<!-- &#45;30&#45;&gt;958 -->
<g id="edge6" class="edge">
<title>&#45;30&#45;&gt;958</title>
<path fill="none" stroke="#ff0000" stroke-width=".1616" d="M1628.6555,-369.1495C1485.8396,-366.9493 360.1391,-348.8416 336.5,-324.3747 315.1942,-302.3227 341.6529,-173.4093 351.5,-163.9239 387.5733,-129.1757 741.1185,-109.7757 849.8487,-104.5966"/>
<polygon fill="#ff0000" stroke="#ff0000" stroke-width=".1616" points="850.337,-108.0777 860.1622,-104.1133 850.0093,-101.0854 850.337,-108.0777"/>
</g>
<!-- &#45;30&#45;&gt;959 -->
<g id="edge55" class="edge">
<title>&#45;30&#45;&gt;959</title>
<path fill="none" stroke="#00ff00" stroke-width=".302" d="M1645.543,-360.0015C1650.9746,-335.0825 1665.9579,-266.3413 1674.7749,-225.8901"/>
<polygon fill="#00ff00" stroke="#00ff00" stroke-width=".302" points="1678.2169,-226.5331 1676.9269,-216.0171 1671.3775,-225.0423 1678.2169,-226.5331"/>
</g>
<!-- 387394&#45;&gt;958 -->
<g id="edge116" class="edge">
<title>387394&#45;&gt;958</title>
<path fill="none" stroke="#00ff00" stroke-width=".3559" d="M714.5995,-176.2903C720.9287,-171.9565 727.826,-167.5561 734.5,-163.9239 773.5067,-142.6952 821.5172,-124.1645 851.8255,-113.3197"/>
<polygon fill="#00ff00" stroke="#00ff00" stroke-width=".3559" points="853.1225,-116.5736 861.3867,-109.9438 850.7919,-109.9729 853.1225,-116.5736"/>
</g>
<!-- 151334&#45;&gt;958 -->
<g id="edge112" class="edge">
<title>151334&#45;&gt;958</title>
<path fill="none" stroke="#00ff00" stroke-width=".375" d="M449.6827,-186.601C474.0705,-179.9485 509.3425,-170.6949 540.5,-163.9239 653.8618,-139.2886 790.0178,-117.2844 850.2369,-107.9358"/>
<polygon fill="#00ff00" stroke="#00ff00" stroke-width=".375" points="850.8925,-111.3761 860.2412,-106.3909 849.8242,-104.4581 850.8925,-111.3761"/>
</g>
<!-- 136519&#45;&gt;959 -->
<g id="edge109" class="edge">
<title>136519&#45;&gt;959</title>
<path fill="none" stroke="#ff0000" stroke-width=".2242" d="M1606.5108,-270.9731C1622.2667,-255.0182 1643.4027,-233.6152 1659.2195,-217.5986"/>
<polygon fill="#ff0000" stroke="#ff0000" stroke-width=".2242" points="1661.9737,-219.7907 1666.5099,-210.216 1656.993,-214.8721 1661.9737,-219.7907"/>
</g>
<!-- 57160&#45;&gt;1 -->
<g id="edge106" class="edge">
<title>57160&#45;&gt;1</title>
<path fill="none" stroke="#00ff00" stroke-width=".274" d="M2835.7456,-167.2945C2835.3082,-140.2513 2829.9526,-100.1251 2804.5,-78.4264 2759.8622,-40.3721 2341.661,-25.5427 2222.2161,-22.0625"/>
<polygon fill="#00ff00" stroke="#00ff00" stroke-width=".274" points="2222.0189,-18.5556 2211.9233,-21.7694 2221.8196,-25.5528 2222.0189,-18.5556"/>
</g>
<!-- 57160&#45;&gt;2608 -->
<g id="edge120" class="edge">
<title>57160&#45;&gt;2608</title>
<path fill="none" stroke="#00ff00" stroke-width=".5379" d="M2811.5991,-179.4535C2788.7196,-163.8851 2753.4662,-139.8967 2728.6131,-122.9853"/>
<polygon fill="#00ff00" stroke="#00ff00" stroke-width=".5379" points="2730.5298,-120.0561 2720.2933,-117.324 2726.5918,-125.8434 2730.5298,-120.0561"/>
</g>
<!-- 31050&#45;&gt;959 -->
<g id="edge104" class="edge">
<title>31050&#45;&gt;959</title>
<path fill="none" stroke="#00ff00" stroke-width=".3252" d="M1723.8009,-269.2333C1715.7791,-255.163 1705.6168,-237.338 1697.2634,-222.6859"/>
<polygon fill="#00ff00" stroke="#00ff00" stroke-width=".3252" points="1700.0693,-220.5407 1692.0758,-213.5869 1693.9881,-224.0077 1700.0693,-220.5407"/>
</g>
<!-- 168811&#45;&gt;A XOR B -->
<g id="edge114" class="edge">
<title>168811&#45;&gt;A XOR B</title>
<path fill="none" stroke="#00ff00" stroke-width=".4484" d="M1840.3739,-176.339C1834.0455,-172.0037 1827.1552,-167.5904 1820.5,-163.9239 1735.4709,-117.0794 1711.7371,-108.703 1619.5,-78.4264 1545.2936,-54.0684 1455.115,-35.5652 1408.5961,-26.806"/>
<polygon fill="#00ff00" stroke="#00ff00" stroke-width=".4484" points="1409.0195,-23.3248 1398.5483,-24.9383 1407.7402,-30.2069 1409.0195,-23.3248"/>
</g>
<!-- 2608&#45;&gt;1 -->
<g id="edge101" class="edge">
<title>2608&#45;&gt;1</title>
<path fill="none" stroke="#00ff00" stroke-width=".1256" d="M2679.7422,-88.2579C2673.83,-84.4684 2667.145,-80.8017 2660.5,-78.4264 2578.9715,-49.2839 2313.363,-29.3619 2221.8353,-23.2191"/>
<polygon fill="#00ff00" stroke="#00ff00" stroke-width=".1256" points="2222.0139,-19.7234 2211.8044,-22.5546 2221.5511,-26.7081 2222.0139,-19.7234"/>
</g>
<!-- 710070&#45;&gt;958 -->
<g id="edge119" class="edge">
<title>710070&#45;&gt;958</title>
<path fill="none" stroke="#ff0000" stroke-width=".295" d="M211.4639,-175.1478C217.9344,-170.7377 225.1815,-166.5881 232.5,-163.9239 348.2641,-121.7809 736.5629,-107.3806 850.081,-104.0168"/>
<polygon fill="#ff0000" stroke="#ff0000" stroke-width=".295" points="850.2956,-107.5121 860.1905,-103.7251 850.0937,-100.515 850.2956,-107.5121"/>
</g>
<!-- 958&#45;&gt;A XOR B -->
<g id="edge97" class="edge">
<title>958&#45;&gt;A XOR B</title>
<path fill="none" stroke="#00ff00" stroke-width=".224" d="M902.4957,-99.7057C980.5265,-86.8114 1254.0765,-41.6084 1346.6266,-26.3149"/>
<polygon fill="#00ff00" stroke="#00ff00" stroke-width=".224" points="1347.2035,-29.7671 1356.4991,-24.6835 1346.0622,-22.8608 1347.2035,-29.7671"/>
</g>
<!-- 959&#45;&gt;A XOR B -->
<g id="edge39" class="edge">
<title>959&#45;&gt;A XOR B</title>
<path fill="none" stroke="#00ff00" stroke-width=".1465" d="M1662.9411,-184.4248C1611.3191,-154.9081 1465.8401,-71.7249 1404.8956,-36.8776"/>
<polygon fill="#00ff00" stroke="#00ff00" stroke-width=".1465" points="1406.6207,-33.8324 1396.2023,-31.907 1403.1461,-39.9091 1406.6207,-33.8324"/>
</g>
<!-- 959&#45;&gt;2608 -->
<g id="edge107" class="edge">
<title>959&#45;&gt;2608</title>
<path fill="none" stroke="#ff0000" stroke-width=".6241" d="M1702.3166,-189.5537C1730.1658,-182.446 1781.1853,-170.2182 1825.5,-163.9239 2149.3256,-117.929 2545.8086,-106.3413 2664.4016,-103.8106"/>
<polygon fill="#ff0000" stroke="#ff0000" stroke-width=".6241" points="2664.7594,-107.3041 2674.6853,-103.5993 2664.6155,-100.3056 2664.7594,-107.3041"/>
</g>
<!-- 959&#45;&gt;958 -->
<g id="edge102" class="edge">
<title>959&#45;&gt;958</title>
<path fill="none" stroke="#ff0000" stroke-width=".2023" d="M1660.1019,-192.5795C1549.6509,-179.8968 1044.1313,-121.8496 912.7672,-106.7655"/>
<polygon fill="#ff0000" stroke="#ff0000" stroke-width=".2023" points="912.9265,-103.2608 902.5925,-105.5971 912.1279,-110.2151 912.9265,-103.2608"/>
</g>
</g>
</svg>
