<?xml version="1.0" encoding="UTF-8" standalone="no"?>
<!DOCTYPE svg PUBLIC "-//W3C//DTD SVG 1.1//EN"
 "http://www.w3.org/Graphics/SVG/1.1/DTD/svg11.dtd">
<!-- Generated by graphviz version 2.40.1 (20161225.0304)
 -->
<!-- Title: %3 Pages: 1 -->
<svg width="2033pt" height="809pt"
 viewBox="0.00 0.00 2032.84 808.97" xmlns="http://www.w3.org/2000/svg" xmlns:xlink="http://www.w3.org/1999/xlink">
<g id="graph0" class="graph" transform="scale(1 1) rotate(0) translate(4 804.9747)">
<title>%3</title>
<polygon fill="#ffffff" stroke="transparent" points="-4,4 -4,-804.9747 2028.8413,-804.9747 2028.8413,4 -4,4"/>
<!-- A -->
<g id="node1" class="node">
<title>A</title>
<polygon fill="#d3d3d3" stroke="#000000" points="1787.139,-522.7544 1763.139,-522.7544 1763.139,-504.7544 1787.139,-504.7544 1787.139,-522.7544"/>
<text text-anchor="middle" x="1775.139" y="-511.5544" font-family="Times,serif" font-size="9.00" fill="#000000">&#45;1</text>
</g>
<!-- A XOR B -->
<g id="node25" class="node">
<title>A XOR B</title>
<ellipse fill="#add8e6" stroke="#000000" cx="691.139" cy="-317.3036" rx="21.4286" ry="21.4286"/>
<text text-anchor="middle" x="691.139" y="-320.1036" font-family="Times,serif" font-size="9.00" fill="#000000">0</text>
<text text-anchor="middle" x="691.139" y="-310.1036" font-family="Times,serif" font-size="9.00" fill="#000000">relu</text>
</g>
<!-- A&#45;&gt;A XOR B -->
<g id="edge36" class="edge">
<title>A&#45;&gt;A XOR B</title>
<path fill="none" stroke="#00ff00" stroke-width=".6661" d="M1762.9501,-512.3012C1722.4021,-507.5057 1588.3264,-491.9594 1477.139,-482.6417 1414.0116,-477.3515 962.9342,-478.4306 908.139,-446.6417 879.4915,-430.0221 892.9696,-405.1447 867.139,-384.4163 823.5435,-349.4321 759.7014,-331.2455 722.0853,-323.0217"/>
<polygon fill="#00ff00" stroke="#00ff00" stroke-width=".6661" points="722.7139,-319.5775 712.2097,-320.9607 721.2838,-326.4299 722.7139,-319.5775"/>
</g>
<!-- 1 -->
<g id="node26" class="node">
<title>1</title>
<ellipse fill="#add8e6" stroke="#000000" cx="1120.139" cy="-21.2132" rx="21.4286" ry="21.4286"/>
<text text-anchor="middle" x="1120.139" y="-24.0132" font-family="Times,serif" font-size="9.00" fill="#000000">1</text>
<text text-anchor="middle" x="1120.139" y="-14.0132" font-family="Times,serif" font-size="9.00" fill="#000000">relu</text>
</g>
<!-- A&#45;&gt;1 -->
<g id="edge20" class="edge">
<title>A&#45;&gt;1</title>
<path fill="none" stroke="#ff0000" stroke-width=".3834" d="M1787.2741,-505.0923C1802.369,-493.5915 1827.6693,-471.7803 1840.139,-446.6417 1892.4285,-341.2276 1903.8243,-289.435 1855.139,-182.3087 1826.0917,-118.3935 1800.6616,-106.0982 1736.139,-78.4264 1629.1467,-32.5407 1261.6398,-23.3411 1151.5481,-21.5993"/>
<polygon fill="#ff0000" stroke="#ff0000" stroke-width=".3834" points="1151.4764,-18.098 1141.4255,-21.4491 1151.3724,-25.0972 1151.4764,-18.098"/>
</g>
<!-- 633921 -->
<g id="node29" class="node">
<title>633921</title>
<ellipse fill="#ffffff" stroke="#000000" cx="1612.139" cy="-415.529" rx="31.2258" ry="31.2258"/>
<text text-anchor="middle" x="1612.139" y="-418.329" font-family="Times,serif" font-size="9.00" fill="#000000">633921</text>
<text text-anchor="middle" x="1612.139" y="-408.329" font-family="Times,serif" font-size="9.00" fill="#000000">relu</text>
</g>
<!-- A&#45;&gt;633921 -->
<g id="edge79" class="edge">
<title>A&#45;&gt;633921</title>
<path fill="none" stroke="#ff0000" stroke-width=".3596" d="M1762.872,-507.2396C1741.1974,-495.6272 1694.854,-470.3411 1657.139,-446.6417 1653.5201,-444.3677 1649.783,-441.9317 1646.0811,-439.4611"/>
<polygon fill="#ff0000" stroke="#ff0000" stroke-width=".3596" points="1647.8196,-436.4111 1637.5793,-433.6931 1643.8896,-442.2038 1647.8196,-436.4111"/>
</g>
<!-- 133 -->
<g id="node30" class="node">
<title>133</title>
<ellipse fill="#ffffff" stroke="#000000" cx="1456.139" cy="-317.3036" rx="21.4286" ry="21.4286"/>
<text text-anchor="middle" x="1456.139" y="-320.1036" font-family="Times,serif" font-size="9.00" fill="#000000">133</text>
<text text-anchor="middle" x="1456.139" y="-310.1036" font-family="Times,serif" font-size="9.00" fill="#000000">relu</text>
</g>
<!-- A&#45;&gt;133 -->
<g id="edge34" class="edge">
<title>A&#45;&gt;133</title>
<path fill="none" stroke="#ff0000" stroke-width=".5788" stroke-dasharray="1,5" d="M1763.0491,-506.2174C1745.4926,-494.8576 1712.591,-471.9662 1690.139,-446.6417 1668.6418,-422.3941 1677.4128,-404.6971 1652.139,-384.4163 1626.135,-363.5496 1534.9988,-337.7076 1486.7069,-325.0407"/>
<polygon fill="#ff0000" stroke="#ff0000" stroke-width=".5788" points="1487.3699,-321.5968 1476.8113,-322.4723 1485.6113,-328.3723 1487.3699,-321.5968"/>
</g>
<!-- 1146970 -->
<g id="node34" class="node">
<title>1146970</title>
<ellipse fill="#ffffff" stroke="#000000" cx="1955.139" cy="-112.3675" rx="33.8824" ry="33.8824"/>
<text text-anchor="middle" x="1955.139" y="-115.1675" font-family="Times,serif" font-size="9.00" fill="#000000">1146970</text>
<text text-anchor="middle" x="1955.139" y="-105.1675" font-family="Times,serif" font-size="9.00" fill="#000000">relu</text>
</g>
<!-- A&#45;&gt;1146970 -->
<g id="edge87" class="edge">
<title>A&#45;&gt;1146970</title>
<path fill="none" stroke="#ff0000" stroke-width=".261" d="M1787.5196,-512.6396C1817.9182,-509.1724 1896.2853,-495.6596 1931.139,-446.6417 1993.3548,-359.1422 1978.3487,-224.1059 1965.12,-155.5246"/>
<polygon fill="#ff0000" stroke="#ff0000" stroke-width=".261" points="1968.508,-154.6187 1963.1075,-145.5037 1961.6451,-155.9971 1968.508,-154.6187"/>
</g>
<!-- 1305 -->
<g id="node43" class="node">
<title>1305</title>
<ellipse fill="#ffffff" stroke="#000000" cx="1348.139" cy="-112.3675" rx="25" ry="25"/>
<text text-anchor="middle" x="1348.139" y="-115.1675" font-family="Times,serif" font-size="9.00" fill="#000000">1305</text>
<text text-anchor="middle" x="1348.139" y="-105.1675" font-family="Times,serif" font-size="9.00" fill="#000000">relu</text>
</g>
<!-- A&#45;&gt;1305 -->
<g id="edge53" class="edge">
<title>A&#45;&gt;1305</title>
<path fill="none" stroke="#ff0000" stroke-width=".2166" d="M1784.6225,-504.3558C1796.0938,-492.2502 1814.781,-469.9753 1822.139,-446.6417 1830.4562,-420.2663 1836.1108,-408.2832 1822.139,-384.4163 1729.4392,-226.0642 1625.9644,-264.9517 1462.139,-182.3087 1427.3278,-164.7479 1414.2371,-168.4426 1382.139,-146.3087 1378.6629,-143.9117 1375.232,-141.1354 1371.9644,-138.2235"/>
<polygon fill="#ff0000" stroke="#ff0000" stroke-width=".2166" points="1374.3472,-135.6595 1364.6918,-131.298 1369.5199,-140.7288 1374.3472,-135.6595"/>
</g>
<!-- B -->
<g id="node2" class="node">
<title>B</title>
<polygon fill="#d3d3d3" stroke="#000000" points="1723.139,-424.529 1699.139,-424.529 1699.139,-406.529 1723.139,-406.529 1723.139,-424.529"/>
<text text-anchor="middle" x="1711.139" y="-413.329" font-family="Times,serif" font-size="9.00" fill="#000000">&#45;2</text>
</g>
<!-- B&#45;&gt;1 -->
<g id="edge6" class="edge">
<title>B&#45;&gt;1</title>
<path fill="none" stroke="#ff0000" stroke-width=".5144" d="M1707.4296,-406.2687C1688.8921,-361.3049 1601.5703,-164.4209 1461.139,-78.4264 1409.296,-46.6798 1226.0381,-29.3546 1151.7589,-23.5029"/>
<polygon fill="#ff0000" stroke="#ff0000" stroke-width=".5144" points="1151.8581,-20.0003 1141.619,-22.7225 1151.3209,-26.9797 1151.8581,-20.0003"/>
</g>
<!-- B&#45;&gt;133 -->
<g id="edge52" class="edge">
<title>B&#45;&gt;133</title>
<path fill="none" stroke="#00ff00" stroke-width=".2143" d="M1705.6251,-406.3515C1700.984,-399.3752 1693.7363,-390.0475 1685.139,-384.4163 1668.3018,-373.3879 1545.0665,-340.4295 1486.6712,-325.1908"/>
<polygon fill="#00ff00" stroke="#00ff00" stroke-width=".2143" points="1487.4502,-321.777 1476.8911,-322.6461 1485.6875,-328.5514 1487.4502,-321.777"/>
</g>
<!-- &#45;3 -->
<g id="node3" class="node">
<title>&#45;3</title>
<polygon fill="#d3d3d3" stroke="#000000" points="1765.139,-424.529 1741.139,-424.529 1741.139,-406.529 1765.139,-406.529 1765.139,-424.529"/>
<text text-anchor="middle" x="1753.139" y="-413.329" font-family="Times,serif" font-size="9.00" fill="#000000">&#45;3</text>
</g>
<!-- &#45;3&#45;&gt;1 -->
<g id="edge35" class="edge">
<title>&#45;3&#45;&gt;1</title>
<path fill="none" stroke="#ff0000" stroke-width=".3602" d="M1750.2524,-406.4129C1735.1374,-360.4381 1660.2599,-153.2753 1516.139,-78.4264 1452.4959,-45.3735 1233.903,-28.4195 1151.7155,-23.0971"/>
<polygon fill="#ff0000" stroke="#ff0000" stroke-width=".3602" points="1151.6978,-19.5891 1141.4966,-22.4502 1151.2555,-26.5751 1151.6978,-19.5891"/>
</g>
<!-- &#45;3&#45;&gt;133 -->
<g id="edge19" class="edge">
<title>&#45;3&#45;&gt;133</title>
<path fill="none" stroke="#00ff00" stroke-width=".1266" d="M1749.1654,-406.242C1745.6815,-399.2052 1739.9495,-389.8497 1732.139,-384.4163 1692.3409,-356.7307 1550.8584,-331.9823 1487.3702,-321.9917"/>
<polygon fill="#00ff00" stroke="#00ff00" stroke-width=".1266" points="1487.588,-318.4836 1477.1694,-320.4082 1486.5142,-325.4008 1487.588,-318.4836"/>
</g>
<!-- &#45;4 -->
<g id="node4" class="node">
<title>&#45;4</title>
<polygon fill="#d3d3d3" stroke="#000000" points="1468.139,-522.7544 1444.139,-522.7544 1444.139,-504.7544 1468.139,-504.7544 1468.139,-522.7544"/>
<text text-anchor="middle" x="1456.139" y="-511.5544" font-family="Times,serif" font-size="9.00" fill="#000000">&#45;4</text>
</g>
<!-- &#45;4&#45;&gt;A XOR B -->
<g id="edge68" class="edge">
<title>&#45;4&#45;&gt;A XOR B</title>
<path fill="none" stroke="#00ff00" stroke-width=".3087" d="M1443.7657,-504.6022C1433.074,-497.2407 1416.9002,-487.372 1401.139,-482.6417 1288.9217,-448.9626 976.976,-504.5748 875.139,-446.6417 845.9196,-430.0194 857.7379,-406.2055 832.139,-384.4163 798.9382,-356.1565 751.8068,-336.9171 721.3498,-326.5174"/>
<polygon fill="#00ff00" stroke="#00ff00" stroke-width=".3087" points="722.2975,-323.1444 711.7043,-323.3291 720.1006,-329.7908 722.2975,-323.1444"/>
</g>
<!-- &#45;4&#45;&gt;1 -->
<g id="edge8" class="edge">
<title>&#45;4&#45;&gt;1</title>
<path fill="none" stroke="#00ff00" stroke-width=".3442" stroke-dasharray="1,5" d="M1468.3327,-513.3553C1526.102,-511.2036 1771.5571,-499.0517 1822.139,-446.6417 1862.4867,-404.8358 1841.139,-375.4041 1841.139,-317.3036 1841.139,-317.3036 1841.139,-317.3036 1841.139,-216.2498 1841.139,-103.8666 1734.9307,-116.3487 1629.139,-78.4264 1540.1846,-46.5397 1248.107,-28.1643 1151.4855,-22.8436"/>
<polygon fill="#00ff00" stroke="#00ff00" stroke-width=".3442" points="1151.6391,-19.3468 1141.4643,-22.3002 1151.2601,-26.3366 1151.6391,-19.3468"/>
</g>
<!-- &#45;4&#45;&gt;133 -->
<g id="edge14" class="edge">
<title>&#45;4&#45;&gt;133</title>
<path fill="none" stroke="#00ff00" stroke-width=".2941" stroke-dasharray="1,5" d="M1463.893,-504.5121C1473.6455,-492.223 1489.8724,-469.396 1496.139,-446.6417 1503.4821,-419.9786 1503.4821,-411.0794 1496.139,-384.4163 1491.9948,-369.3684 1483.4944,-354.2886 1475.3913,-342.2459"/>
<polygon fill="#00ff00" stroke="#00ff00" stroke-width=".2941" points="1478.2464,-340.2215 1469.6291,-334.0577 1472.5218,-344.25 1478.2464,-340.2215"/>
</g>
<!-- 50540 -->
<g id="node36" class="node">
<title>50540</title>
<ellipse fill="#ffffff" stroke="#000000" cx="1261.139" cy="-415.529" rx="27.6545" ry="27.6545"/>
<text text-anchor="middle" x="1261.139" y="-418.329" font-family="Times,serif" font-size="9.00" fill="#000000">50540</text>
<text text-anchor="middle" x="1261.139" y="-408.329" font-family="Times,serif" font-size="9.00" fill="#000000">relu</text>
</g>
<!-- &#45;4&#45;&gt;50540 -->
<g id="edge58" class="edge">
<title>&#45;4&#45;&gt;50540</title>
<path fill="none" stroke="#ff0000" stroke-width=".1421" d="M1443.8026,-505.9301C1432.869,-499.203 1416.3271,-489.5252 1401.139,-482.6417 1356.9702,-462.6237 1340.2775,-470.6407 1298.139,-446.6417 1295.1307,-444.9284 1292.1311,-442.9594 1289.2157,-440.8616"/>
<polygon fill="#ff0000" stroke="#ff0000" stroke-width=".1421" points="1291.3324,-438.074 1281.2845,-434.714 1287.044,-443.6066 1291.3324,-438.074"/>
</g>
<!-- 606138 -->
<g id="node44" class="node">
<title>606138</title>
<ellipse fill="#ffffff" stroke="#000000" cx="1456.139" cy="-415.529" rx="31.2258" ry="31.2258"/>
<text text-anchor="middle" x="1456.139" y="-418.329" font-family="Times,serif" font-size="9.00" fill="#000000">606138</text>
<text text-anchor="middle" x="1456.139" y="-408.329" font-family="Times,serif" font-size="9.00" fill="#000000">relu</text>
</g>
<!-- &#45;4&#45;&gt;606138 -->
<g id="edge74" class="edge">
<title>&#45;4&#45;&gt;606138</title>
<path fill="none" stroke="#ff0000" stroke-width=".2629" d="M1456.139,-504.6897C1456.139,-493.8115 1456.139,-474.8226 1456.139,-457.1568"/>
<polygon fill="#ff0000" stroke="#ff0000" stroke-width=".2629" points="1459.6391,-456.9796 1456.139,-446.9796 1452.6391,-456.9796 1459.6391,-456.9796"/>
</g>
<!-- &#45;5 -->
<g id="node5" class="node">
<title>&#45;5</title>
<polygon fill="#d3d3d3" stroke="#000000" points="1215.139,-424.529 1191.139,-424.529 1191.139,-406.529 1215.139,-406.529 1215.139,-424.529"/>
<text text-anchor="middle" x="1203.139" y="-413.329" font-family="Times,serif" font-size="9.00" fill="#000000">&#45;5</text>
</g>
<!-- &#45;5&#45;&gt;A XOR B -->
<g id="edge3" class="edge">
<title>&#45;5&#45;&gt;A XOR B</title>
<path fill="none" stroke="#00ff00" stroke-width=".2345" d="M1199.4527,-406.309C1196.0679,-399.1133 1190.3287,-389.5105 1182.139,-384.4163 1104.672,-336.2299 818.5892,-321.8225 722.7,-318.2971"/>
<polygon fill="#00ff00" stroke="#00ff00" stroke-width=".2345" points="722.601,-314.7915 712.4838,-317.9367 722.3541,-321.7872 722.601,-314.7915"/>
</g>
<!-- &#45;5&#45;&gt;1 -->
<g id="edge22" class="edge">
<title>&#45;5&#45;&gt;1</title>
<path fill="none" stroke="#ff0000" stroke-width=".228" d="M1209.2674,-406.4089C1217.3848,-393.8881 1231.5573,-370.4172 1239.139,-348.4163 1263.3173,-278.2542 1269.7007,-255.2702 1256.139,-182.3087 1247.0979,-133.6675 1248.0282,-116.2521 1216.139,-78.4264 1198.3256,-57.2968 1170.6143,-41.9679 1149.5347,-32.5261"/>
<polygon fill="#ff0000" stroke="#ff0000" stroke-width=".228" points="1150.6548,-29.1985 1140.0841,-28.4834 1147.9017,-35.6344 1150.6548,-29.1985"/>
</g>
<!-- &#45;5&#45;&gt;133 -->
<g id="edge38" class="edge">
<title>&#45;5&#45;&gt;133</title>
<path fill="none" stroke="#ff0000" stroke-width=".212" d="M1207.1784,-406.3344C1210.6985,-399.3486 1216.4473,-390.0166 1224.139,-384.4163 1225.1876,-383.6529 1363.3679,-343.9318 1425.9502,-325.9657"/>
<polygon fill="#ff0000" stroke="#ff0000" stroke-width=".212" points="1427.0163,-329.3011 1435.6625,-323.1779 1425.0849,-322.5728 1427.0163,-329.3011"/>
</g>
<!-- &#45;5&#45;&gt;1305 -->
<g id="edge86" class="edge">
<title>&#45;5&#45;&gt;1305</title>
<path fill="none" stroke="#ff0000" stroke-width=".1522" d="M1207.5206,-406.2995C1211.1556,-399.48 1216.8946,-390.3813 1224.139,-384.4163 1255.8105,-358.338 1283.7602,-380.651 1309.139,-348.4163 1333.2068,-317.8468 1342.9346,-205.6084 1346.4215,-147.6018"/>
<polygon fill="#ff0000" stroke="#ff0000" stroke-width=".1522" points="1349.9262,-147.617 1347.002,-137.4338 1342.9376,-147.218 1349.9262,-147.617"/>
</g>
<!-- &#45;6 -->
<g id="node6" class="node">
<title>&#45;6</title>
<polygon fill="#d3d3d3" stroke="#000000" points="1125.139,-424.529 1101.139,-424.529 1101.139,-406.529 1125.139,-406.529 1125.139,-424.529"/>
<text text-anchor="middle" x="1113.139" y="-413.329" font-family="Times,serif" font-size="9.00" fill="#000000">&#45;6</text>
</g>
<!-- &#45;6&#45;&gt;A XOR B -->
<g id="edge5" class="edge">
<title>&#45;6&#45;&gt;A XOR B</title>
<path fill="none" stroke="#ff0000" stroke-width=".2027" d="M1109.4114,-406.3742C1106.0027,-399.2164 1100.2515,-389.6327 1092.139,-384.4163 1030.6393,-344.8711 806.0653,-325.3786 722.63,-319.3811"/>
<polygon fill="#ff0000" stroke="#ff0000" stroke-width=".2027" points="722.7181,-315.8788 712.4975,-318.6697 722.2278,-322.8616 722.7181,-315.8788"/>
</g>
<!-- &#45;6&#45;&gt;1 -->
<g id="edge30" class="edge">
<title>&#45;6&#45;&gt;1</title>
<path fill="none" stroke="#ff0000" stroke-width=".5787" d="M1113.3051,-406.1707C1114.163,-357.8478 1118.1078,-135.63 1119.5816,-52.6141"/>
<polygon fill="#ff0000" stroke="#ff0000" stroke-width=".5787" points="1123.0825,-52.5869 1119.7606,-42.5264 1116.0836,-52.4626 1123.0825,-52.5869"/>
</g>
<!-- &#45;6&#45;&gt;133 -->
<g id="edge45" class="edge">
<title>&#45;6&#45;&gt;133</title>
<path fill="none" stroke="#ff0000" stroke-width=".2377" d="M1117.2111,-406.457C1120.8791,-399.3472 1126.9531,-389.7878 1135.139,-384.4163 1183.0193,-352.998 1353.8754,-329.5145 1424.8632,-320.8968"/>
<polygon fill="#ff0000" stroke="#ff0000" stroke-width=".2377" points="1425.462,-324.3502 1434.9759,-319.688 1424.6312,-317.3997 1425.462,-324.3502"/>
</g>
<!-- 19640 -->
<g id="node42" class="node">
<title>19640</title>
<ellipse fill="#ffffff" stroke="#000000" cx="1157.139" cy="-317.3036" rx="27.6545" ry="27.6545"/>
<text text-anchor="middle" x="1157.139" y="-320.1036" font-family="Times,serif" font-size="9.00" fill="#000000">19640</text>
<text text-anchor="middle" x="1157.139" y="-310.1036" font-family="Times,serif" font-size="9.00" fill="#000000">relu</text>
</g>
<!-- &#45;6&#45;&gt;19640 -->
<g id="edge55" class="edge">
<title>&#45;6&#45;&gt;19640</title>
<path fill="none" stroke="#00ff00" stroke-width=".2448" d="M1117.1996,-406.4643C1122.721,-394.1383 1132.907,-371.399 1141.61,-351.9704"/>
<polygon fill="#00ff00" stroke="#00ff00" stroke-width=".2448" points="1144.8424,-353.3159 1145.7364,-342.7588 1138.4541,-350.4542 1144.8424,-353.3159"/>
</g>
<!-- &#45;7 -->
<g id="node7" class="node">
<title>&#45;7</title>
<polygon fill="#d3d3d3" stroke="#000000" points="941.139,-424.529 917.139,-424.529 917.139,-406.529 941.139,-406.529 941.139,-424.529"/>
<text text-anchor="middle" x="929.139" y="-413.329" font-family="Times,serif" font-size="9.00" fill="#000000">&#45;7</text>
</g>
<!-- &#45;7&#45;&gt;A XOR B -->
<g id="edge33" class="edge">
<title>&#45;7&#45;&gt;A XOR B</title>
<path fill="none" stroke="#00ff00" stroke-width=".3811" d="M923.5913,-406.4026C918.9315,-399.4544 911.6752,-390.1396 903.139,-384.4163 872.9902,-364.2023 772.7454,-337.4731 721.6499,-324.7069"/>
<polygon fill="#00ff00" stroke="#00ff00" stroke-width=".3811" points="722.3765,-321.2812 711.8283,-322.2739 720.6933,-328.0758 722.3765,-321.2812"/>
</g>
<!-- &#45;7&#45;&gt;1 -->
<g id="edge28" class="edge">
<title>&#45;7&#45;&gt;1</title>
<path fill="none" stroke="#ff0000" stroke-width=".1866" d="M921.6838,-406.4438C897.3791,-375.7167 823.1795,-272.5611 844.139,-182.3087 855.7739,-132.2081 855.2009,-110.8361 895.139,-78.4264 924.8468,-54.3186 1034.2291,-34.5028 1088.7789,-25.871"/>
<polygon fill="#ff0000" stroke="#ff0000" stroke-width=".1866" points="1089.5738,-29.2896 1098.9179,-24.2958 1088.4991,-22.3726 1089.5738,-29.2896"/>
</g>
<!-- 1965189 -->
<g id="node35" class="node">
<title>1965189</title>
<ellipse fill="#ffffff" stroke="#000000" cx="887.139" cy="-216.2498" rx="33.8824" ry="33.8824"/>
<text text-anchor="middle" x="887.139" y="-219.0498" font-family="Times,serif" font-size="9.00" fill="#000000">1965189</text>
<text text-anchor="middle" x="887.139" y="-209.0498" font-family="Times,serif" font-size="9.00" fill="#000000">relu</text>
</g>
<!-- &#45;7&#45;&gt;1965189 -->
<g id="edge92" class="edge">
<title>&#45;7&#45;&gt;1965189</title>
<path fill="none" stroke="#ff0000" stroke-width=".2496" d="M927.2252,-406.4486C921.8579,-380.9821 906.3972,-307.6249 896.3202,-259.8124"/>
<polygon fill="#ff0000" stroke="#ff0000" stroke-width=".2496" points="899.6823,-258.7925 894.1951,-249.7293 892.8327,-260.2361 899.6823,-258.7925"/>
</g>
<!-- &#45;8 -->
<g id="node8" class="node">
<title>&#45;8</title>
<polygon fill="#d3d3d3" stroke="#000000" points="310.139,-620.9798 286.139,-620.9798 286.139,-602.9798 310.139,-602.9798 310.139,-620.9798"/>
<text text-anchor="middle" x="298.139" y="-609.7798" font-family="Times,serif" font-size="9.00" fill="#000000">&#45;8</text>
</g>
<!-- &#45;8&#45;&gt;A XOR B -->
<g id="edge12" class="edge">
<title>&#45;8&#45;&gt;A XOR B</title>
<path fill="none" stroke="#00ff00" stroke-width=".3264" d="M297.9086,-602.9123C297.5636,-568.5705 301.2069,-445.3622 368.139,-384.4163 379.0311,-374.4984 581.08,-337.1672 659.9621,-322.8971"/>
<polygon fill="#00ff00" stroke="#00ff00" stroke-width=".3264" points="660.5944,-326.3397 669.8137,-321.1191 659.351,-319.451 660.5944,-326.3397"/>
</g>
<!-- &#45;8&#45;&gt;1 -->
<g id="edge2" class="edge">
<title>&#45;8&#45;&gt;1</title>
<path fill="none" stroke="#ff0000" stroke-width=".2211" stroke-dasharray="1,5" d="M285.7971,-610.0779C229.7769,-600.6841 2.139,-553.9936 2.139,-415.529 2.139,-415.529 2.139,-415.529 2.139,-216.2498 2.139,-153.0507 -11.7058,-118.5302 37.139,-78.4264 78.8303,-44.196 913.9926,-25.398 1088.3902,-21.8375"/>
<polygon fill="#ff0000" stroke="#ff0000" stroke-width=".2211" points="1088.5349,-25.3354 1098.4621,-21.6339 1088.3933,-18.3368 1088.5349,-25.3354"/>
</g>
<!-- 81350 -->
<g id="node31" class="node">
<title>81350</title>
<ellipse fill="#ffffff" stroke="#000000" cx="1364.139" cy="-513.7544" rx="27.6545" ry="27.6545"/>
<text text-anchor="middle" x="1364.139" y="-516.5544" font-family="Times,serif" font-size="9.00" fill="#000000">81350</text>
<text text-anchor="middle" x="1364.139" y="-506.5544" font-family="Times,serif" font-size="9.00" fill="#000000">relu</text>
</g>
<!-- &#45;8&#45;&gt;81350 -->
<g id="edge63" class="edge">
<title>&#45;8&#45;&gt;81350</title>
<path fill="none" stroke="#ff0000" stroke-width=".1021" d="M310.3801,-610.8485C354.3138,-606.7885 508.1774,-592.5719 635.139,-580.8671 900.0071,-556.4484 1219.0137,-527.1022 1326.6272,-517.2043"/>
<polygon fill="#ff0000" stroke="#ff0000" stroke-width=".1021" points="1327.0273,-520.6824 1336.6647,-516.2811 1326.3861,-513.7118 1327.0273,-520.6824"/>
</g>
<!-- &#45;9 -->
<g id="node9" class="node">
<title>&#45;9</title>
<polygon fill="#d3d3d3" stroke="#000000" points="823.139,-424.529 799.139,-424.529 799.139,-406.529 823.139,-406.529 823.139,-424.529"/>
<text text-anchor="middle" x="811.139" y="-413.329" font-family="Times,serif" font-size="9.00" fill="#000000">&#45;9</text>
</g>
<!-- &#45;9&#45;&gt;A XOR B -->
<g id="edge42" class="edge">
<title>&#45;9&#45;&gt;A XOR B</title>
<path fill="none" stroke="#00ff00" stroke-width=".1654" d="M806.2436,-406.4114C802.4221,-399.8226 796.6758,-390.9663 790.139,-384.4163 768.9289,-363.1634 740.0934,-344.5072 719.014,-332.2951"/>
<polygon fill="#00ff00" stroke="#00ff00" stroke-width=".1654" points="720.6412,-329.1943 710.2154,-327.3094 717.1902,-335.2845 720.6412,-329.1943"/>
</g>
<!-- &#45;10 -->
<g id="node10" class="node">
<title>&#45;10</title>
<polygon fill="#d3d3d3" stroke="#000000" points="306.639,-424.529 277.639,-424.529 277.639,-406.529 306.639,-406.529 306.639,-424.529"/>
<text text-anchor="middle" x="292.139" y="-413.329" font-family="Times,serif" font-size="9.00" fill="#000000">&#45;10</text>
</g>
<!-- &#45;10&#45;&gt;A XOR B -->
<g id="edge9" class="edge">
<title>&#45;10&#45;&gt;A XOR B</title>
<path fill="none" stroke="#00ff00" stroke-width=".1974" d="M298.1474,-406.3864C303.3542,-399.2356 311.5483,-389.6555 321.139,-384.4163 323.0208,-383.3883 571.2764,-338.7993 660.0353,-322.8794"/>
<polygon fill="#00ff00" stroke="#00ff00" stroke-width=".1974" points="660.8165,-326.2953 670.0417,-321.085 659.5808,-319.4052 660.8165,-326.2953"/>
</g>
<!-- &#45;10&#45;&gt;1 -->
<g id="edge4" class="edge">
<title>&#45;10&#45;&gt;1</title>
<path fill="none" stroke="#ff0000" stroke-width=".2735" stroke-dasharray="1,5" d="M300.0075,-406.4511C305.9678,-399.8821 314.5684,-391.0331 323.139,-384.4163 536.9144,-219.373 596.1008,-175.4622 848.139,-78.4264 931.8041,-46.215 1037.2892,-30.624 1088.8595,-24.4947"/>
<polygon fill="#ff0000" stroke="#ff0000" stroke-width=".2735" points="1089.4831,-27.9462 1099.0184,-23.3278 1088.6843,-20.9919 1089.4831,-27.9462"/>
</g>
<!-- 482777 -->
<g id="node37" class="node">
<title>482777</title>
<ellipse fill="#ffffff" stroke="#000000" cx="304.139" cy="-317.3036" rx="31.2258" ry="31.2258"/>
<text text-anchor="middle" x="304.139" y="-320.1036" font-family="Times,serif" font-size="9.00" fill="#000000">482777</text>
<text text-anchor="middle" x="304.139" y="-310.1036" font-family="Times,serif" font-size="9.00" fill="#000000">relu</text>
</g>
<!-- &#45;10&#45;&gt;482777 -->
<g id="edge72" class="edge">
<title>&#45;10&#45;&gt;482777</title>
<path fill="none" stroke="#00ff00" stroke-width=".2852" d="M293.2464,-406.4643C294.5851,-395.5067 296.9291,-376.3195 299.1007,-358.5447"/>
<polygon fill="#00ff00" stroke="#00ff00" stroke-width=".2852" points="302.6118,-358.666 300.3504,-348.3153 295.6634,-357.817 302.6118,-358.666"/>
</g>
<!-- &#45;11 -->
<g id="node11" class="node">
<title>&#45;11</title>
<polygon fill="#d3d3d3" stroke="#000000" points="393.639,-522.7544 364.639,-522.7544 364.639,-504.7544 393.639,-504.7544 393.639,-522.7544"/>
<text text-anchor="middle" x="379.139" y="-511.5544" font-family="Times,serif" font-size="9.00" fill="#000000">&#45;11</text>
</g>
<!-- &#45;11&#45;&gt;A XOR B -->
<g id="edge7" class="edge">
<title>&#45;11&#45;&gt;A XOR B</title>
<path fill="none" stroke="#00ff00" stroke-width=".3982" d="M376.8281,-504.5228C371.5778,-481.1506 361.4569,-419.042 392.139,-384.4163 401.1138,-374.288 584.7445,-337.8562 659.6953,-323.3373"/>
<polygon fill="#00ff00" stroke="#00ff00" stroke-width=".3982" points="660.7768,-326.6932 669.9314,-321.3599 659.449,-319.8203 660.7768,-326.6932"/>
</g>
<!-- &#45;11&#45;&gt;1 -->
<g id="edge18" class="edge">
<title>&#45;11&#45;&gt;1</title>
<path fill="none" stroke="#00ff00" stroke-width=".2052" d="M373.176,-504.5271C367.9955,-497.3271 359.8147,-487.7222 350.139,-482.6417 253.0861,-431.6815 186.1928,-521.5255 106.139,-446.6417 63.1865,-406.4632 78.139,-376.1188 78.139,-317.3036 78.139,-317.3036 78.139,-317.3036 78.139,-216.2498 78.139,-149.963 81.1255,-116.8513 135.139,-78.4264 174.8784,-50.1561 923.6203,-26.9013 1088.2896,-22.1158"/>
<polygon fill="#00ff00" stroke="#00ff00" stroke-width=".2052" points="1088.8048,-25.6025 1098.6996,-21.8154 1088.6028,-18.6054 1088.8048,-25.6025"/>
</g>
<!-- 153474 -->
<g id="node27" class="node">
<title>153474</title>
<ellipse fill="#ffffff" stroke="#000000" cx="432.139" cy="-415.529" rx="31.2258" ry="31.2258"/>
<text text-anchor="middle" x="432.139" y="-418.329" font-family="Times,serif" font-size="9.00" fill="#000000">153474</text>
<text text-anchor="middle" x="432.139" y="-408.329" font-family="Times,serif" font-size="9.00" fill="#000000">relu</text>
</g>
<!-- &#45;11&#45;&gt;153474 -->
<g id="edge66" class="edge">
<title>&#45;11&#45;&gt;153474</title>
<path fill="none" stroke="#00ff00" stroke-width=".3349" d="M384.0301,-504.6897C390.4607,-492.7718 402.1441,-471.1189 412.3867,-452.1362"/>
<polygon fill="#00ff00" stroke="#00ff00" stroke-width=".3349" points="415.6014,-453.5489 417.2698,-443.0862 409.4409,-450.2248 415.6014,-453.5489"/>
</g>
<!-- &#45;12 -->
<g id="node12" class="node">
<title>&#45;12</title>
<polygon fill="#d3d3d3" stroke="#000000" points="1471.639,-800.9747 1442.639,-800.9747 1442.639,-782.9747 1471.639,-782.9747 1471.639,-800.9747"/>
<text text-anchor="middle" x="1457.139" y="-789.7747" font-family="Times,serif" font-size="9.00" fill="#000000">&#45;12</text>
</g>
<!-- &#45;12&#45;&gt;A XOR B -->
<g id="edge16" class="edge">
<title>&#45;12&#45;&gt;A XOR B</title>
<path fill="none" stroke="#00ff00" stroke-width=".8451" d="M1442.4679,-790.9076C1343.7396,-783.497 775.8992,-737.2029 635.139,-643.0925 621.4735,-633.9559 615.139,-628.4182 615.139,-611.9798 615.139,-611.9798 615.139,-611.9798 615.139,-513.7544 615.139,-449.1953 651.2813,-380.2535 673.718,-343.6751"/>
<polygon fill="#00ff00" stroke="#00ff00" stroke-width=".8451" points="676.7506,-345.427 679.0966,-335.0952 670.8196,-341.709 676.7506,-345.427"/>
</g>
<!-- &#45;12&#45;&gt;1 -->
<g id="edge44" class="edge">
<title>&#45;12&#45;&gt;1</title>
<path fill="none" stroke="#ff0000" stroke-width=".1665" stroke-dasharray="1,5" d="M1471.8298,-790.5638C1560.186,-781.6848 2017.139,-730.057 2017.139,-611.9798 2017.139,-611.9798 2017.139,-611.9798 2017.139,-216.2498 2017.139,-154.4156 2043.4061,-120.5495 1998.139,-78.4264 1966.5034,-48.9881 1304.5977,-26.8847 1151.535,-22.155"/>
<polygon fill="#ff0000" stroke="#ff0000" stroke-width=".1665" points="1151.5121,-18.6527 1141.4096,-21.8446 1151.2976,-25.6494 1151.5121,-18.6527"/>
</g>
<!-- &#45;12&#45;&gt;133 -->
<g id="edge48" class="edge">
<title>&#45;12&#45;&gt;133</title>
<path fill="none" stroke="#00ff00" stroke-width=".2017" stroke-dasharray="1,5" d="M1466.3439,-782.7736C1490.3719,-757.7291 1553.139,-685.2907 1553.139,-611.9798 1553.139,-611.9798 1553.139,-611.9798 1553.139,-513.7544 1553.139,-453.4517 1541.112,-437.3028 1512.139,-384.4163 1503.2275,-368.1495 1490.06,-352.1171 1478.732,-339.8033"/>
<polygon fill="#00ff00" stroke="#00ff00" stroke-width=".2017" points="1481.032,-337.1416 1471.6167,-332.2833 1475.9473,-341.9527 1481.032,-337.1416"/>
</g>
<!-- &#45;12&#45;&gt;81350 -->
<g id="edge61" class="edge">
<title>&#45;12&#45;&gt;81350</title>
<path fill="none" stroke="#ff0000" stroke-width=".175" stroke-dasharray="1,5" d="M1442.5477,-787.6231C1425.1226,-781.5836 1396.6409,-768.8562 1383.139,-746.9747 1345.8747,-686.5837 1350.6188,-600.0198 1357.3925,-551.1198"/>
<polygon fill="#ff0000" stroke="#ff0000" stroke-width=".175" points="1360.89,-551.3956 1358.9006,-540.9892 1353.9663,-550.3649 1360.89,-551.3956"/>
</g>
<!-- 633428 -->
<g id="node40" class="node">
<title>633428</title>
<ellipse fill="#ffffff" stroke="#000000" cx="1426.139" cy="-611.9798" rx="31.2258" ry="31.2258"/>
<text text-anchor="middle" x="1426.139" y="-614.7798" font-family="Times,serif" font-size="9.00" fill="#000000">633428</text>
<text text-anchor="middle" x="1426.139" y="-604.7798" font-family="Times,serif" font-size="9.00" fill="#000000">relu</text>
</g>
<!-- &#45;12&#45;&gt;633428 -->
<g id="edge76" class="edge">
<title>&#45;12&#45;&gt;633428</title>
<path fill="none" stroke="#ff0000" stroke-width=".172" stroke-dasharray="1,5" d="M1460.4963,-782.6882C1467.0629,-763.1133 1480.0515,-716.3522 1469.139,-679.0925 1465.5838,-666.9537 1459.0854,-654.9272 1452.1988,-644.4804"/>
<polygon fill="#ff0000" stroke="#ff0000" stroke-width=".172" points="1454.9609,-642.3218 1446.3789,-636.1089 1449.2133,-646.3176 1454.9609,-642.3218"/>
</g>
<!-- 2157460 -->
<g id="node41" class="node">
<title>2157460</title>
<ellipse fill="#ffffff" stroke="#000000" cx="1426.139" cy="-713.0336" rx="33.8824" ry="33.8824"/>
<text text-anchor="middle" x="1426.139" y="-715.8336" font-family="Times,serif" font-size="9.00" fill="#000000">2157460</text>
<text text-anchor="middle" x="1426.139" y="-705.8336" font-family="Times,serif" font-size="9.00" fill="#000000">relu</text>
</g>
<!-- &#45;12&#45;&gt;2157460 -->
<g id="edge94" class="edge">
<title>&#45;12&#45;&gt;2157460</title>
<path fill="none" stroke="#ff0000" stroke-width=".2679" d="M1453.5829,-782.9192C1450.7538,-775.7149 1446.5777,-765.0804 1442.332,-754.269"/>
<polygon fill="#ff0000" stroke="#ff0000" stroke-width=".2679" points="1445.5284,-752.833 1438.6153,-744.8043 1439.0128,-755.3917 1445.5284,-752.833"/>
</g>
<!-- &#45;13 -->
<g id="node13" class="node">
<title>&#45;13</title>
<polygon fill="#d3d3d3" stroke="#000000" points="988.639,-424.529 959.639,-424.529 959.639,-406.529 988.639,-406.529 988.639,-424.529"/>
<text text-anchor="middle" x="974.139" y="-413.329" font-family="Times,serif" font-size="9.00" fill="#000000">&#45;13</text>
</g>
<!-- &#45;13&#45;&gt;A XOR B -->
<g id="edge49" class="edge">
<title>&#45;13&#45;&gt;A XOR B</title>
<path fill="none" stroke="#00ff00" stroke-width=".2965" d="M969.257,-406.2725C965.0875,-399.2527 958.4501,-389.9049 950.139,-384.4163 878.127,-336.8602 774.2279,-322.9827 722.651,-318.9477"/>
<polygon fill="#00ff00" stroke="#00ff00" stroke-width=".2965" points="722.6916,-315.4419 712.4696,-318.2275 722.1976,-322.4245 722.6916,-315.4419"/>
</g>
<!-- &#45;13&#45;&gt;1 -->
<g id="edge46" class="edge">
<title>&#45;13&#45;&gt;1</title>
<path fill="none" stroke="#ff0000" stroke-width=".3944" d="M975.6996,-406.5036C982.8876,-366.3233 1015.133,-200.3359 1077.139,-78.4264 1083.1242,-66.659 1091.5483,-54.8041 1099.3558,-44.9613"/>
<polygon fill="#ff0000" stroke="#ff0000" stroke-width=".3944" points="1102.0735,-47.1668 1105.702,-37.2127 1096.658,-42.7314 1102.0735,-47.1668"/>
</g>
<!-- &#45;13&#45;&gt;1305 -->
<g id="edge69" class="edge">
<title>&#45;13&#45;&gt;1305</title>
<path fill="none" stroke="#00ff00" stroke-width=".3301" d="M978.8268,-406.4744C997.0431,-372.1395 1066.6718,-248.571 1158.139,-182.3087 1206.1903,-147.4985 1273.4847,-128.185 1313.7516,-119.067"/>
<polygon fill="#00ff00" stroke="#00ff00" stroke-width=".3301" points="1314.5978,-122.4648 1323.6222,-116.9141 1313.106,-115.6255 1314.5978,-122.4648"/>
</g>
<!-- &#45;14 -->
<g id="node14" class="node">
<title>&#45;14</title>
<polygon fill="#d3d3d3" stroke="#000000" points="446.639,-522.7544 417.639,-522.7544 417.639,-504.7544 446.639,-504.7544 446.639,-522.7544"/>
<text text-anchor="middle" x="432.139" y="-511.5544" font-family="Times,serif" font-size="9.00" fill="#000000">&#45;14</text>
</g>
<!-- &#45;14&#45;&gt;A XOR B -->
<g id="edge26" class="edge">
<title>&#45;14&#45;&gt;A XOR B</title>
<path fill="none" stroke="#ff0000" stroke-width=".7469" d="M437.7651,-504.4112C455.2308,-475.4549 507.6802,-388.8843 513.139,-384.4163 556.9402,-348.5649 621.8735,-330.6369 660.012,-322.7024"/>
<polygon fill="#ff0000" stroke="#ff0000" stroke-width=".7469" points="660.8881,-326.097 670.0187,-320.7229 659.5296,-319.2301 660.8881,-326.097"/>
</g>
<!-- &#45;14&#45;&gt;1 -->
<g id="edge10" class="edge">
<title>&#45;14&#45;&gt;1</title>
<path fill="none" stroke="#ff0000" stroke-width=".3249" stroke-dasharray="1,5" d="M425.9157,-504.4935C420.5249,-497.2741 412.046,-487.6594 402.139,-482.6417 295.3179,-428.5396 220.3079,-530.8085 135.139,-446.6417 93.8133,-405.8023 116.139,-375.4041 116.139,-317.3036 116.139,-317.3036 116.139,-317.3036 116.139,-216.2498 116.139,-130.1935 173.8787,-114.2177 252.139,-78.4264 329.4328,-43.0772 941.9919,-25.6558 1088.6638,-21.9669"/>
<polygon fill="#ff0000" stroke="#ff0000" stroke-width=".3249" points="1088.8742,-25.4629 1098.7842,-21.7157 1088.7004,-18.465 1088.8742,-25.4629"/>
</g>
<!-- &#45;14&#45;&gt;153474 -->
<g id="edge81" class="edge">
<title>&#45;14&#45;&gt;153474</title>
<path fill="none" stroke="#ff0000" stroke-width=".5304" d="M432.139,-504.6897C432.139,-493.8115 432.139,-474.8226 432.139,-457.1568"/>
<polygon fill="#ff0000" stroke="#ff0000" stroke-width=".5304" points="435.6391,-456.9796 432.139,-446.9796 428.6391,-456.9796 435.6391,-456.9796"/>
</g>
<!-- &#45;14&#45;&gt;50540 -->
<g id="edge60" class="edge">
<title>&#45;14&#45;&gt;50540</title>
<path fill="none" stroke="#00ff00" stroke-width=".3717" d="M442.7199,-504.519C451.9181,-497.1068 465.9607,-487.2103 480.139,-482.6417 637.6885,-431.8749 1070.0402,-507.0791 1224.139,-446.6417 1227.4426,-445.346 1230.6642,-443.6297 1233.7409,-441.6669"/>
<polygon fill="#00ff00" stroke="#00ff00" stroke-width=".3717" points="1235.9814,-444.3641 1241.9752,-435.6276 1231.8416,-438.7195 1235.9814,-444.3641"/>
</g>
<!-- &#45;14&#45;&gt;482777 -->
<g id="edge78" class="edge">
<title>&#45;14&#45;&gt;482777</title>
<path fill="none" stroke="#ff0000" stroke-width=".3144" d="M425.8297,-504.657C420.389,-497.5324 411.8849,-487.9655 402.139,-482.6417 330.1583,-443.3214 273.1726,-510.0437 221.139,-446.6417 203.5942,-425.2637 209.2239,-409.3737 221.139,-384.4163 230.7932,-364.1946 249.8457,-348.1025 267.2638,-336.7506"/>
<polygon fill="#ff0000" stroke="#ff0000" stroke-width=".3144" points="269.4984,-339.4841 276.165,-331.2495 265.8183,-333.5294 269.4984,-339.4841"/>
</g>
<!-- &#45;15 -->
<g id="node15" class="node">
<title>&#45;15</title>
<polygon fill="#d3d3d3" stroke="#000000" points="1035.639,-424.529 1006.639,-424.529 1006.639,-406.529 1035.639,-406.529 1035.639,-424.529"/>
<text text-anchor="middle" x="1021.139" y="-413.329" font-family="Times,serif" font-size="9.00" fill="#000000">&#45;15</text>
</g>
<!-- &#45;15&#45;&gt;A XOR B -->
<g id="edge29" class="edge">
<title>&#45;15&#45;&gt;A XOR B</title>
<path fill="none" stroke="#ff0000" stroke-width=".3744" d="M1016.7677,-406.4745C1012.8668,-399.3748 1006.4833,-389.8205 998.139,-384.4163 952.3899,-354.7872 791.033,-330.5249 722.4045,-321.3017"/>
<polygon fill="#ff0000" stroke="#ff0000" stroke-width=".3744" points="722.5912,-317.7959 712.2181,-319.952 721.6717,-324.7353 722.5912,-317.7959"/>
</g>
<!-- &#45;15&#45;&gt;1 -->
<g id="edge24" class="edge">
<title>&#45;15&#45;&gt;1</title>
<path fill="none" stroke="#00ff00" stroke-width=".1772" stroke-dasharray="1,5" d="M1022.9232,-406.3191C1030.6794,-366.6845 1062.7609,-206.8427 1100.139,-78.4264 1102.7884,-69.3243 1106.05,-59.5426 1109.1649,-50.6872"/>
<polygon fill="#00ff00" stroke="#00ff00" stroke-width=".1772" points="1112.4974,-51.7626 1112.5788,-41.1681 1105.9083,-49.3995 1112.4974,-51.7626"/>
</g>
<!-- &#45;15&#45;&gt;133 -->
<g id="edge50" class="edge">
<title>&#45;15&#45;&gt;133</title>
<path fill="none" stroke="#00ff00" stroke-width=".1858" d="M1025.7196,-406.3504C1029.8013,-399.1788 1036.4679,-389.5882 1045.139,-384.4163 1077.807,-364.9315 1334.5067,-332.129 1424.8306,-321.0718"/>
<polygon fill="#00ff00" stroke="#00ff00" stroke-width=".1858" points="1425.4914,-324.5172 1434.9947,-319.8335 1424.6448,-317.5686 1425.4914,-324.5172"/>
</g>
<!-- &#45;16 -->
<g id="node16" class="node">
<title>&#45;16</title>
<polygon fill="#d3d3d3" stroke="#000000" points="586.639,-424.529 557.639,-424.529 557.639,-406.529 586.639,-406.529 586.639,-424.529"/>
<text text-anchor="middle" x="572.139" y="-413.329" font-family="Times,serif" font-size="9.00" fill="#000000">&#45;16</text>
</g>
<!-- &#45;16&#45;&gt;A XOR B -->
<g id="edge43" class="edge">
<title>&#45;16&#45;&gt;A XOR B</title>
<path fill="none" stroke="#ff0000" stroke-width=".5504" d="M579.8636,-406.4033C585.4887,-399.9733 593.44,-391.3151 601.139,-384.4163 621.4397,-366.2256 646.4195,-347.8809 664.9076,-334.9792"/>
<polygon fill="#ff0000" stroke="#ff0000" stroke-width=".5504" points="666.9189,-337.8437 673.1587,-329.2813 662.9412,-332.0837 666.9189,-337.8437"/>
</g>
<!-- &#45;17 -->
<g id="node17" class="node">
<title>&#45;17</title>
<polygon fill="#d3d3d3" stroke="#000000" points="672.639,-620.9798 643.639,-620.9798 643.639,-602.9798 672.639,-602.9798 672.639,-620.9798"/>
<text text-anchor="middle" x="658.139" y="-609.7798" font-family="Times,serif" font-size="9.00" fill="#000000">&#45;17</text>
</g>
<!-- &#45;17&#45;&gt;A XOR B -->
<g id="edge21" class="edge">
<title>&#45;17&#45;&gt;A XOR B</title>
<path fill="none" stroke="#ff0000" stroke-width=".5712" d="M659.1029,-602.8827C661.3453,-581.7611 667.1049,-527.759 672.139,-482.6417 677.3575,-435.8723 683.6265,-381.689 687.497,-348.4568"/>
<polygon fill="#ff0000" stroke="#ff0000" stroke-width=".5712" points="690.9833,-348.7774 688.665,-338.4393 684.0304,-347.9666 690.9833,-348.7774"/>
</g>
<!-- &#45;17&#45;&gt;1 -->
<g id="edge25" class="edge">
<title>&#45;17&#45;&gt;1</title>
<path fill="none" stroke="#00ff00" stroke-width=".2772" d="M643.5002,-609.9506C560.9096,-598.2073 153.9861,-536.3457 72.139,-446.6417 32.2259,-402.8972 40.139,-376.5205 40.139,-317.3036 40.139,-317.3036 40.139,-317.3036 40.139,-216.2498 40.139,-152.4673 30.2101,-118.1165 80.139,-78.4264 120.6103,-46.2544 918.98,-25.8992 1088.6231,-21.9274"/>
<polygon fill="#00ff00" stroke="#00ff00" stroke-width=".2772" points="1088.9572,-25.4207 1098.8733,-21.6896 1088.7947,-18.4226 1088.9572,-25.4207"/>
</g>
<!-- 320709 -->
<g id="node32" class="node">
<title>320709</title>
<ellipse fill="#ffffff" stroke="#000000" cx="712.139" cy="-513.7544" rx="31.2258" ry="31.2258"/>
<text text-anchor="middle" x="712.139" y="-516.5544" font-family="Times,serif" font-size="9.00" fill="#000000">320709</text>
<text text-anchor="middle" x="712.139" y="-506.5544" font-family="Times,serif" font-size="9.00" fill="#000000">relu</text>
</g>
<!-- &#45;17&#45;&gt;320709 -->
<g id="edge70" class="edge">
<title>&#45;17&#45;&gt;320709</title>
<path fill="none" stroke="#00ff00" stroke-width=".3038" d="M663.1224,-602.9151C669.7041,-590.943 681.6865,-569.1472 692.1562,-550.1029"/>
<polygon fill="#00ff00" stroke="#00ff00" stroke-width=".3038" points="695.2387,-551.7609 696.9893,-541.3116 689.1046,-548.3885 695.2387,-551.7609"/>
</g>
<!-- &#45;18 -->
<g id="node18" class="node">
<title>&#45;18</title>
<polygon fill="#d3d3d3" stroke="#000000" points="1082.639,-424.529 1053.639,-424.529 1053.639,-406.529 1082.639,-406.529 1082.639,-424.529"/>
<text text-anchor="middle" x="1068.139" y="-413.329" font-family="Times,serif" font-size="9.00" fill="#000000">&#45;18</text>
</g>
<!-- &#45;18&#45;&gt;A XOR B -->
<g id="edge31" class="edge">
<title>&#45;18&#45;&gt;A XOR B</title>
<path fill="none" stroke="#ff0000" stroke-width=".3306" d="M1063.8075,-406.4121C1059.9296,-399.2763 1053.5578,-389.7037 1045.139,-384.4163 991.2418,-350.5664 799.3537,-328.1252 722.9054,-320.3435"/>
<polygon fill="#ff0000" stroke="#ff0000" stroke-width=".3306" points="722.7926,-316.8148 712.4939,-319.3021 722.0959,-323.78 722.7926,-316.8148"/>
</g>
<!-- &#45;18&#45;&gt;1 -->
<g id="edge13" class="edge">
<title>&#45;18&#45;&gt;1</title>
<path fill="none" stroke="#00ff00" stroke-width=".2073" stroke-dasharray="1,5" d="M1069.3731,-406.1707C1075.753,-357.7919 1105.1182,-135.1159 1116.0359,-52.3267"/>
<polygon fill="#00ff00" stroke="#00ff00" stroke-width=".2073" points="1119.5242,-52.6446 1117.3618,-42.2728 1112.5843,-51.7294 1119.5242,-52.6446"/>
</g>
<!-- &#45;18&#45;&gt;133 -->
<g id="edge37" class="edge">
<title>&#45;18&#45;&gt;133</title>
<path fill="none" stroke="#ff0000" stroke-width=".2962" d="M1072.7481,-406.3977C1076.8463,-399.2534 1083.5213,-389.6766 1092.139,-384.4163 1148.1907,-350.2019 1346.7614,-327.8411 1424.5524,-320.2154"/>
<polygon fill="#ff0000" stroke="#ff0000" stroke-width=".2962" points="1425.0819,-323.6807 1434.7001,-319.2374 1424.4104,-316.7129 1425.0819,-323.6807"/>
</g>
<!-- &#45;19 -->
<g id="node19" class="node">
<title>&#45;19</title>
<polygon fill="#d3d3d3" stroke="#000000" points="173.639,-424.529 144.639,-424.529 144.639,-406.529 173.639,-406.529 173.639,-424.529"/>
<text text-anchor="middle" x="159.139" y="-413.329" font-family="Times,serif" font-size="9.00" fill="#000000">&#45;19</text>
</g>
<!-- &#45;19&#45;&gt;A XOR B -->
<g id="edge11" class="edge">
<title>&#45;19&#45;&gt;A XOR B</title>
<path fill="none" stroke="#ff0000" stroke-width=".3892" d="M173.8506,-406.4329C186.0651,-399.3091 204.1296,-389.7426 221.139,-384.4163 380.7798,-334.4264 582.6996,-321.5181 659.5251,-318.315"/>
<polygon fill="#ff0000" stroke="#ff0000" stroke-width=".3892" points="659.6621,-321.8124 669.5178,-317.9246 659.3888,-314.8177 659.6621,-321.8124"/>
</g>
<!-- &#45;19&#45;&gt;1 -->
<g id="edge27" class="edge">
<title>&#45;19&#45;&gt;1</title>
<path fill="none" stroke="#00ff00" stroke-width=".5503" d="M160.2792,-406.4241C166.4569,-361.3623 200.2829,-161.0775 322.139,-78.4264 386.4872,-34.7811 948.7814,-23.7154 1088.711,-21.6273"/>
<polygon fill="#00ff00" stroke="#00ff00" stroke-width=".5503" points="1088.8228,-25.1261 1098.7711,-21.4819 1088.7216,-18.1269 1088.8228,-25.1261"/>
</g>
<!-- &#45;20 -->
<g id="node20" class="node">
<title>&#45;20</title>
<polygon fill="#d3d3d3" stroke="#000000" points="259.639,-424.529 230.639,-424.529 230.639,-406.529 259.639,-406.529 259.639,-424.529"/>
<text text-anchor="middle" x="245.139" y="-413.329" font-family="Times,serif" font-size="9.00" fill="#000000">&#45;20</text>
</g>
<!-- &#45;20&#45;&gt;A XOR B -->
<g id="edge17" class="edge">
<title>&#45;20&#45;&gt;A XOR B</title>
<path fill="none" stroke="#ff0000" stroke-width=".339" d="M249.4287,-406.3444C253.2822,-399.1692 259.6418,-389.5768 268.139,-384.4163 334.4102,-344.1689 573.4341,-324.9568 659.7615,-319.2177"/>
<polygon fill="#ff0000" stroke="#ff0000" stroke-width=".339" points="659.9908,-322.7103 669.7429,-318.5693 659.537,-315.725 659.9908,-322.7103"/>
</g>
<!-- &#45;20&#45;&gt;1 -->
<g id="edge40" class="edge">
<title>&#45;20&#45;&gt;1</title>
<path fill="none" stroke="#ff0000" stroke-width=".1545" stroke-dasharray="1,5" d="M245.109,-406.399C245.326,-384.7555 247.5862,-328.9433 264.139,-286.1909 304.4321,-182.1226 308.6028,-134.4131 405.139,-78.4264 464.9278,-43.7515 958.749,-26.1897 1088.8323,-22.1374"/>
<polygon fill="#ff0000" stroke="#ff0000" stroke-width=".1545" points="1089.0352,-25.6329 1098.923,-21.8276 1088.8203,-18.6362 1089.0352,-25.6329"/>
</g>
<!-- &#45;21 -->
<g id="node21" class="node">
<title>&#45;21</title>
<polygon fill="#d3d3d3" stroke="#000000" points="1172.639,-424.529 1143.639,-424.529 1143.639,-406.529 1172.639,-406.529 1172.639,-424.529"/>
<text text-anchor="middle" x="1158.139" y="-413.329" font-family="Times,serif" font-size="9.00" fill="#000000">&#45;21</text>
</g>
<!-- &#45;21&#45;&gt;A XOR B -->
<g id="edge15" class="edge">
<title>&#45;21&#45;&gt;A XOR B</title>
<path fill="none" stroke="#ff0000" stroke-width=".2702" stroke-dasharray="1,5" d="M1153.5742,-406.3237C1149.5017,-399.1366 1142.8397,-389.5382 1134.139,-384.4163 1063.8449,-343.036 811.4069,-324.4136 722.4407,-319.0333"/>
<polygon fill="#ff0000" stroke="#ff0000" stroke-width=".2702" points="722.6137,-315.5375 712.4248,-318.4421 722.2012,-322.5253 722.6137,-315.5375"/>
</g>
<!-- &#45;21&#45;&gt;1 -->
<g id="edge41" class="edge">
<title>&#45;21&#45;&gt;1</title>
<path fill="none" stroke="#00ff00" stroke-width=".6034" d="M1165.0208,-406.5042C1169.792,-400.2728 1176.3108,-391.8094 1182.139,-384.4163 1194.8586,-368.2814 1201.7758,-366.7044 1211.139,-348.4163 1245.2247,-281.8401 1257.2414,-254.6227 1238.139,-182.3087 1224.5782,-130.9728 1211.6367,-120.4164 1179.139,-78.4264 1168.8507,-65.1329 1155.5363,-51.9578 1144.16,-41.6075"/>
<polygon fill="#00ff00" stroke="#00ff00" stroke-width=".6034" points="1146.4513,-38.9612 1136.6548,-34.9264 1141.7969,-44.1898 1146.4513,-38.9612"/>
</g>
<!-- &#45;21&#45;&gt;133 -->
<g id="edge51" class="edge">
<title>&#45;21&#45;&gt;133</title>
<path fill="none" stroke="#00ff00" stroke-width=".3005" stroke-dasharray="1,5" d="M1163.0008,-406.2418C1167.1592,-399.2049 1173.7915,-389.8493 1182.139,-384.4163 1222.3965,-358.2144 1361.8254,-332.764 1424.8165,-322.2963"/>
<polygon fill="#00ff00" stroke="#00ff00" stroke-width=".3005" points="1425.6466,-325.707 1434.9474,-320.6328 1424.5124,-318.7995 1425.6466,-325.707"/>
</g>
<!-- 782898 -->
<g id="node39" class="node">
<title>782898</title>
<ellipse fill="#ffffff" stroke="#000000" cx="1198.139" cy="-216.2498" rx="31.2258" ry="31.2258"/>
<text text-anchor="middle" x="1198.139" y="-219.0498" font-family="Times,serif" font-size="9.00" fill="#000000">782898</text>
<text text-anchor="middle" x="1198.139" y="-209.0498" font-family="Times,serif" font-size="9.00" fill="#000000">relu</text>
</g>
<!-- &#45;21&#45;&gt;782898 -->
<g id="edge82" class="edge">
<title>&#45;21&#45;&gt;782898</title>
<path fill="none" stroke="#ff0000" stroke-width=".2348" d="M1165.0242,-406.1238C1173.7004,-393.6587 1188.1956,-370.6415 1194.139,-348.4163 1202.0969,-318.6578 1202.8113,-283.783 1201.6893,-257.3318"/>
<polygon fill="#ff0000" stroke="#ff0000" stroke-width=".2348" points="1205.1808,-257.0766 1201.158,-247.2751 1198.1905,-257.4459 1205.1808,-257.0766"/>
</g>
<!-- &#45;21&#45;&gt;19640 -->
<g id="edge57" class="edge">
<title>&#45;21&#45;&gt;19640</title>
<path fill="none" stroke="#00ff00" stroke-width=".2855" d="M1158.0467,-406.4643C1157.9284,-394.8433 1157.7159,-373.966 1157.5262,-355.3339"/>
<polygon fill="#00ff00" stroke="#00ff00" stroke-width=".2855" points="1161.0256,-355.2506 1157.4239,-345.2868 1154.026,-355.3219 1161.0256,-355.2506"/>
</g>
<!-- &#45;22 -->
<g id="node22" class="node">
<title>&#45;22</title>
<polygon fill="#d3d3d3" stroke="#000000" points="1419.639,-121.3675 1390.639,-121.3675 1390.639,-103.3675 1419.639,-103.3675 1419.639,-121.3675"/>
<text text-anchor="middle" x="1405.139" y="-110.1675" font-family="Times,serif" font-size="9.00" fill="#000000">&#45;22</text>
</g>
<!-- &#45;22&#45;&gt;1 -->
<g id="edge1" class="edge">
<title>&#45;22&#45;&gt;1</title>
<path fill="none" stroke="#00ff00" stroke-width=".4153" d="M1401.2714,-103.1171C1397.5269,-95.3201 1391.0984,-84.4918 1382.139,-78.4264 1344.5867,-53.004 1212.4749,-33.1429 1151.4586,-25.1001"/>
<polygon fill="#00ff00" stroke="#00ff00" stroke-width=".4153" points="1151.6396,-21.5944 1141.2728,-23.7805 1150.7403,-28.5364 1151.6396,-21.5944"/>
</g>
<!-- &#45;23 -->
<g id="node23" class="node">
<title>&#45;23</title>
<polygon fill="#d3d3d3" stroke="#000000" points="518.639,-522.7544 489.639,-522.7544 489.639,-504.7544 518.639,-504.7544 518.639,-522.7544"/>
<text text-anchor="middle" x="504.139" y="-511.5544" font-family="Times,serif" font-size="9.00" fill="#000000">&#45;23</text>
</g>
<!-- &#45;23&#45;&gt;A XOR B -->
<g id="edge47" class="edge">
<title>&#45;23&#45;&gt;A XOR B</title>
<path fill="none" stroke="#ff0000" stroke-width=".1348" d="M504.8216,-504.7143C507.0054,-481.7914 515.7158,-420.6501 548.139,-384.4163 578.0897,-350.9456 628.2452,-332.8328 660.4955,-324.1264"/>
<polygon fill="#ff0000" stroke="#ff0000" stroke-width=".1348" points="661.4674,-327.4905 670.2889,-321.6226 659.7335,-320.7086 661.4674,-327.4905"/>
</g>
<!-- &#45;23&#45;&gt;153474 -->
<g id="edge96" class="edge">
<title>&#45;23&#45;&gt;153474</title>
<path fill="none" stroke="#ff0000" stroke-width=".4227" d="M497.4945,-504.6897C488.2952,-492.1396 471.1827,-468.794 456.7757,-449.1394"/>
<polygon fill="#ff0000" stroke="#ff0000" stroke-width=".4227" points="459.5327,-446.9803 450.7979,-440.9842 453.887,-451.1187 459.5327,-446.9803"/>
</g>
<!-- &#45;24 -->
<g id="node24" class="node">
<title>&#45;24</title>
<polygon fill="#d3d3d3" stroke="#000000" points="1812.639,-424.529 1783.639,-424.529 1783.639,-406.529 1812.639,-406.529 1812.639,-424.529"/>
<text text-anchor="middle" x="1798.139" y="-413.329" font-family="Times,serif" font-size="9.00" fill="#000000">&#45;24</text>
</g>
<!-- &#45;24&#45;&gt;1 -->
<g id="edge32" class="edge">
<title>&#45;24&#45;&gt;1</title>
<path fill="none" stroke="#00ff00" stroke-width=".6908" d="M1795.6061,-406.3306C1782.2703,-359.9541 1715.3535,-151.1393 1573.139,-78.4264 1499.0422,-40.5414 1241.7628,-26.3145 1151.6284,-22.4229"/>
<polygon fill="#00ff00" stroke="#00ff00" stroke-width=".6908" points="1151.6261,-18.9198 1141.4885,-21.9986 1151.3334,-25.9137 1151.6261,-18.9198"/>
</g>
<!-- &#45;24&#45;&gt;133 -->
<g id="edge23" class="edge">
<title>&#45;24&#45;&gt;133</title>
<path fill="none" stroke="#00ff00" stroke-width=".1131" d="M1793.4935,-406.4565C1789.3741,-399.3464 1782.6885,-389.7868 1774.139,-384.4163 1726.1926,-354.2982 1557.9762,-330.1552 1487.5353,-321.1298"/>
<polygon fill="#00ff00" stroke="#00ff00" stroke-width=".1131" points="1487.8495,-317.6417 1477.4896,-319.8605 1486.972,-324.5865 1487.8495,-317.6417"/>
</g>
<!-- 153474&#45;&gt;A XOR B -->
<g id="edge67" class="edge">
<title>153474&#45;&gt;A XOR B</title>
<path fill="none" stroke="#00ff00" stroke-width=".4707" d="M457.0211,-396.3616C463.3569,-392.0405 470.3117,-387.7515 477.139,-384.4163 539.0635,-354.1657 617.6592,-333.6633 660.2703,-323.8902"/>
<polygon fill="#00ff00" stroke="#00ff00" stroke-width=".4707" points="661.307,-327.2446 670.2963,-321.6373 659.7722,-320.4149 661.307,-327.2446"/>
</g>
<!-- 147875 -->
<g id="node28" class="node">
<title>147875</title>
<ellipse fill="#ffffff" stroke="#000000" cx="1338.139" cy="-415.529" rx="31.2258" ry="31.2258"/>
<text text-anchor="middle" x="1338.139" y="-418.329" font-family="Times,serif" font-size="9.00" fill="#000000">147875</text>
<text text-anchor="middle" x="1338.139" y="-408.329" font-family="Times,serif" font-size="9.00" fill="#000000">relu</text>
</g>
<!-- 147875&#45;&gt;133 -->
<g id="edge65" class="edge">
<title>147875&#45;&gt;133</title>
<path fill="none" stroke="#ff0000" stroke-width=".4735" d="M1362.3028,-395.4146C1382.5703,-378.5436 1411.3825,-354.5597 1431.721,-337.6296"/>
<polygon fill="#ff0000" stroke="#ff0000" stroke-width=".4735" points="1434.1541,-340.1582 1439.6006,-331.0705 1429.6757,-334.7783 1434.1541,-340.1582"/>
</g>
<!-- 633921&#45;&gt;133 -->
<g id="edge80" class="edge">
<title>633921&#45;&gt;133</title>
<path fill="none" stroke="#ff0000" stroke-width=".2706" d="M1586.6214,-397.4861C1580.3048,-393.131 1573.5181,-388.5445 1567.139,-384.4163 1539.0572,-366.2432 1506.1942,-346.5653 1483.5521,-333.2467"/>
<polygon fill="#ff0000" stroke="#ff0000" stroke-width=".2706" points="1485.2116,-330.1625 1474.8146,-328.1244 1481.6713,-336.2013 1485.2116,-330.1625"/>
</g>
<!-- 133&#45;&gt;1 -->
<g id="edge39" class="edge">
<title>133&#45;&gt;1</title>
<path fill="none" stroke="#00ff00" stroke-width=".1932" d="M1461.6449,-296.6503C1472.8084,-249.5405 1492.0328,-133.9397 1429.139,-78.4264 1388.0931,-42.1972 1221.489,-27.6094 1151.4228,-22.9974"/>
<polygon fill="#00ff00" stroke="#00ff00" stroke-width=".1932" points="1151.6268,-19.5034 1141.4256,-22.3645 1151.1844,-26.4894 1151.6268,-19.5034"/>
</g>
<!-- 1209454 -->
<g id="node38" class="node">
<title>1209454</title>
<ellipse fill="#ffffff" stroke="#000000" cx="1395.139" cy="-216.2498" rx="33.8824" ry="33.8824"/>
<text text-anchor="middle" x="1395.139" y="-219.0498" font-family="Times,serif" font-size="9.00" fill="#000000">1209454</text>
<text text-anchor="middle" x="1395.139" y="-209.0498" font-family="Times,serif" font-size="9.00" fill="#000000">relu</text>
</g>
<!-- 133&#45;&gt;1209454 -->
<g id="edge90" class="edge">
<title>133&#45;&gt;1209454</title>
<path fill="none" stroke="#00ff00" stroke-width=".2891" d="M1444.9507,-298.7688C1437.4176,-286.2894 1427.2147,-269.387 1418.0044,-254.129"/>
<polygon fill="#00ff00" stroke="#00ff00" stroke-width=".2891" points="1420.8882,-252.1337 1412.7239,-245.3813 1414.8954,-255.7512 1420.8882,-252.1337"/>
</g>
<!-- 133&#45;&gt;1305 -->
<g id="edge89" class="edge">
<title>133&#45;&gt;1305</title>
<path fill="none" stroke="#00ff00" stroke-width=".4504" stroke-dasharray="1,5" d="M1458.5375,-295.8008C1460.592,-267.4924 1460.3281,-217.2329 1438.139,-182.3087 1422.2719,-157.3348 1405.1843,-164.8659 1382.139,-146.3087 1378.8503,-143.6604 1375.5327,-140.7323 1372.3262,-137.7385"/>
<polygon fill="#00ff00" stroke="#00ff00" stroke-width=".4504" points="1374.7249,-135.1891 1365.1119,-130.7346 1369.8489,-140.2115 1374.7249,-135.1891"/>
</g>
<!-- 81350&#45;&gt;147875 -->
<g id="edge64" class="edge">
<title>81350&#45;&gt;147875</title>
<path fill="none" stroke="#ff0000" stroke-width=".2294" d="M1357.0344,-486.9139C1354.4821,-477.2717 1351.5452,-466.1764 1348.7593,-455.6515"/>
<polygon fill="#ff0000" stroke="#ff0000" stroke-width=".2294" points="1352.0944,-454.5728 1346.152,-445.8013 1345.3275,-456.364 1352.0944,-454.5728"/>
</g>
<!-- 81350&#45;&gt;133 -->
<g id="edge62" class="edge">
<title>81350&#45;&gt;133</title>
<path fill="none" stroke="#00ff00" stroke-width=".2139" stroke-dasharray="1,5" d="M1373.3416,-487.4698C1382.9367,-460.9634 1398.9527,-419.1156 1416.139,-384.4163 1422.9513,-370.6624 1431.5564,-355.955 1439.0385,-343.8242"/>
<polygon fill="#00ff00" stroke="#00ff00" stroke-width=".2139" points="1442.1548,-345.4422 1444.4929,-335.1085 1436.221,-341.7287 1442.1548,-345.4422"/>
</g>
<!-- 320709&#45;&gt;A XOR B -->
<g id="edge71" class="edge">
<title>320709&#45;&gt;A XOR B</title>
<path fill="none" stroke="#ff0000" stroke-width=".3186" stroke-dasharray="1,5" d="M708.8115,-482.6262C704.8957,-445.9951 698.4307,-385.5159 694.5003,-348.7481"/>
<polygon fill="#ff0000" stroke="#ff0000" stroke-width=".3186" points="697.9586,-348.17 693.4154,-338.5987 690.9982,-348.9141 697.9586,-348.17"/>
</g>
<!-- 850854 -->
<g id="node33" class="node">
<title>850854</title>
<ellipse fill="#ffffff" stroke="#000000" cx="750.139" cy="-415.529" rx="31.2258" ry="31.2258"/>
<text text-anchor="middle" x="750.139" y="-418.329" font-family="Times,serif" font-size="9.00" fill="#000000">850854</text>
<text text-anchor="middle" x="750.139" y="-408.329" font-family="Times,serif" font-size="9.00" fill="#000000">relu</text>
</g>
<!-- 320709&#45;&gt;850854 -->
<g id="edge84" class="edge">
<title>320709&#45;&gt;850854</title>
<path fill="none" stroke="#ff0000" stroke-width=".1416" d="M723.4374,-484.5495C727.1179,-475.0356 731.2627,-464.3221 735.1691,-454.2243"/>
<polygon fill="#ff0000" stroke="#ff0000" stroke-width=".1416" points="738.4747,-455.3803 738.8186,-444.791 731.9462,-452.8546 738.4747,-455.3803"/>
</g>
<!-- 850854&#45;&gt;A XOR B -->
<g id="edge85" class="edge">
<title>850854&#45;&gt;A XOR B</title>
<path fill="none" stroke="#00ff00" stroke-width=".3148" d="M734.017,-388.6885C725.7325,-374.8962 715.6622,-358.1308 707.3632,-344.3142"/>
<polygon fill="#00ff00" stroke="#00ff00" stroke-width=".3148" points="710.3513,-342.4917 702.2018,-335.7214 704.3506,-346.0961 710.3513,-342.4917"/>
</g>
<!-- 1146970&#45;&gt;1 -->
<g id="edge88" class="edge">
<title>1146970&#45;&gt;1</title>
<path fill="none" stroke="#00ff00" stroke-width=".1834" d="M1929.1711,-90.2034C1922.3955,-85.5275 1914.8255,-81.1803 1907.139,-78.4264 1835.1746,-52.6436 1290.4219,-28.327 1152.0327,-22.52"/>
<polygon fill="#00ff00" stroke="#00ff00" stroke-width=".1834" points="1151.8381,-19.009 1141.701,-22.0893 1151.5465,-26.0029 1151.8381,-19.009"/>
</g>
<!-- 1965189&#45;&gt;1 -->
<g id="edge93" class="edge">
<title>1965189&#45;&gt;1</title>
<path fill="none" stroke="#ff0000" stroke-width=".2596" d="M890.327,-182.4547C895.0243,-151.3428 906.611,-105.9674 935.139,-78.4264 957.288,-57.0438 1042.4339,-36.9729 1089.1012,-27.2812"/>
<polygon fill="#ff0000" stroke="#ff0000" stroke-width=".2596" points="1089.8871,-30.693 1098.9854,-25.2643 1088.4875,-23.8344 1089.8871,-30.693"/>
</g>
<!-- 50540&#45;&gt;133 -->
<g id="edge59" class="edge">
<title>50540&#45;&gt;133</title>
<path fill="none" stroke="#00ff00" stroke-width=".237" stroke-dasharray="1,5" d="M1281.443,-396.6121C1286.6572,-392.2835 1292.4164,-387.9282 1298.139,-384.4163 1339.8539,-358.8163 1393.0703,-338.4424 1425.8644,-327.1247"/>
<polygon fill="#00ff00" stroke="#00ff00" stroke-width=".237" points="1427.4063,-330.2978 1435.7538,-323.7732 1425.1594,-323.6681 1427.4063,-330.2978"/>
</g>
<!-- 482777&#45;&gt;1 -->
<g id="edge73" class="edge">
<title>482777&#45;&gt;1</title>
<path fill="none" stroke="#ff0000" stroke-width=".1753" d="M316.6751,-288.643C341.224,-236.4132 401.0397,-126.684 489.139,-78.4264 542.1079,-49.412 968.6008,-28.0722 1088.7433,-22.5931"/>
<polygon fill="#ff0000" stroke="#ff0000" stroke-width=".1753" points="1088.9336,-26.0882 1098.7655,-22.1406 1088.6178,-19.0953 1088.9336,-26.0882"/>
</g>
<!-- 1209454&#45;&gt;1305 -->
<g id="edge91" class="edge">
<title>1209454&#45;&gt;1305</title>
<path fill="none" stroke="#00ff00" stroke-width=".2312" d="M1381.0375,-185.0817C1375.2198,-172.2231 1368.482,-157.3309 1362.6248,-144.385"/>
<polygon fill="#00ff00" stroke="#00ff00" stroke-width=".2312" points="1365.6582,-142.5986 1358.3473,-134.9304 1359.2806,-145.4841 1365.6582,-142.5986"/>
</g>
<!-- 782898&#45;&gt;1 -->
<g id="edge83" class="edge">
<title>782898&#45;&gt;1</title>
<path fill="none" stroke="#00ff00" stroke-width=".2116" d="M1190.2234,-186.0061C1182.3408,-157.6239 1169.1283,-114.29 1153.139,-78.4264 1148.5391,-68.1089 1142.5925,-57.2595 1137.0169,-47.8155"/>
<polygon fill="#00ff00" stroke="#00ff00" stroke-width=".2116" points="1140.0101,-46.0014 1131.841,-39.2548 1134.0199,-49.6232 1140.0101,-46.0014"/>
</g>
<!-- 633428&#45;&gt;81350 -->
<g id="edge77" class="edge">
<title>633428&#45;&gt;81350</title>
<path fill="none" stroke="#ff0000" stroke-width=".2468" d="M1409.5241,-585.6572C1401.7719,-573.3754 1392.4774,-558.6504 1384.3241,-545.7333"/>
<polygon fill="#ff0000" stroke="#ff0000" stroke-width=".2468" points="1387.1922,-543.7199 1378.8948,-537.1317 1381.2728,-547.4563 1387.1922,-543.7199"/>
</g>
<!-- 2157460&#45;&gt;633428 -->
<g id="edge95" class="edge">
<title>2157460&#45;&gt;633428</title>
<path fill="none" stroke="#ff0000" stroke-width=".1299" d="M1426.139,-678.8214C1426.139,-670.5985 1426.139,-661.7298 1426.139,-653.2245"/>
<polygon fill="#ff0000" stroke="#ff0000" stroke-width=".1299" points="1429.6391,-653.098 1426.139,-643.098 1422.6391,-653.098 1429.6391,-653.098"/>
</g>
<!-- 19640&#45;&gt;1 -->
<g id="edge56" class="edge">
<title>19640&#45;&gt;1</title>
<path fill="none" stroke="#ff0000" stroke-width=".1264" d="M1153.6914,-289.714C1146.7838,-234.4371 1131.2904,-110.452 1124.0312,-52.3599"/>
<polygon fill="#ff0000" stroke="#ff0000" stroke-width=".1264" points="1127.4885,-51.7999 1122.7754,-42.3111 1120.5425,-52.668 1127.4885,-51.7999"/>
</g>
<!-- 1305&#45;&gt;1 -->
<g id="edge54" class="edge">
<title>1305&#45;&gt;1</title>
<path fill="none" stroke="#ff0000" stroke-width=".2018" d="M1330.7062,-94.4037C1324.3567,-88.654 1316.8371,-82.6825 1309.139,-78.4264 1257.5812,-49.9212 1190.0785,-33.905 1151.2692,-26.4553"/>
<polygon fill="#ff0000" stroke="#ff0000" stroke-width=".2018" points="1151.5909,-22.9555 1141.121,-24.578 1150.3175,-29.8387 1151.5909,-22.9555"/>
</g>
<!-- 606138&#45;&gt;133 -->
<g id="edge75" class="edge">
<title>606138&#45;&gt;133</title>
<path fill="none" stroke="#ff0000" stroke-width=".1218" d="M1456.139,-384.1798C1456.139,-372.9473 1456.139,-360.282 1456.139,-349.0187"/>
<polygon fill="#ff0000" stroke="#ff0000" stroke-width=".1218" points="1459.6391,-348.742 1456.139,-338.742 1452.6391,-348.742 1459.6391,-348.742"/>
</g>
</g>
</svg>
