<?xml version="1.0" encoding="UTF-8" standalone="no"?>
<!DOCTYPE svg PUBLIC "-//W3C//DTD SVG 1.1//EN"
 "http://www.w3.org/Graphics/SVG/1.1/DTD/svg11.dtd">
<!-- Generated by graphviz version 2.40.1 (20161225.0304)
 -->
<!-- Title: %3 Pages: 1 -->
<svg width="1678pt" height="423pt"
 viewBox="0.00 0.00 1678.23 423.14" xmlns="http://www.w3.org/2000/svg" xmlns:xlink="http://www.w3.org/1999/xlink">
<g id="graph0" class="graph" transform="scale(1 1) rotate(0) translate(4 419.1442)">
<title>%3</title>
<polygon fill="#ffffff" stroke="transparent" points="-4,4 -4,-419.1442 1674.2316,-419.1442 1674.2316,4 -4,4"/>
<!-- A -->
<g id="node1" class="node">
<title>A</title>
<polygon fill="#d3d3d3" stroke="#000000" points="164.669,-240.099 140.669,-240.099 140.669,-222.099 164.669,-222.099 164.669,-240.099"/>
<text text-anchor="middle" x="152.669" y="-228.899" font-family="Times,serif" font-size="9.00" fill="#000000">&#45;1</text>
</g>
<!-- A XOR B -->
<g id="node23" class="node">
<title>A XOR B</title>
<ellipse fill="#add8e6" stroke="#000000" cx="1152.669" cy="-131.4594" rx="31.6406" ry="31.6406"/>
<text text-anchor="middle" x="1152.669" y="-134.2594" font-family="Times,serif" font-size="9.00" fill="#000000">0</text>
<text text-anchor="middle" x="1152.669" y="-124.2594" font-family="Times,serif" font-size="9.00" fill="#000000">softplus</text>
</g>
<!-- A&#45;&gt;A XOR B -->
<g id="edge8" class="edge">
<title>A&#45;&gt;A XOR B</title>
<path fill="none" stroke="#ff0000" stroke-width=".106" d="M155.9298,-222.0901C159.1753,-214.5646 164.9424,-204.2856 173.669,-199.2792 237.6615,-162.5676 763.1142,-168.9765 836.669,-163.2792 934.944,-155.6673 1050.0587,-143.1699 1110.5724,-136.322"/>
<polygon fill="#ff0000" stroke="#ff0000" stroke-width=".106" points="1111.3258,-139.759 1120.8665,-135.1519 1110.5351,-132.8038 1111.3258,-139.759"/>
</g>
<!-- 1 -->
<g id="node24" class="node">
<title>1</title>
<ellipse fill="#add8e6" stroke="#000000" cx="902.669" cy="-31.8198" rx="31.6406" ry="31.6406"/>
<text text-anchor="middle" x="902.669" y="-34.6198" font-family="Times,serif" font-size="9.00" fill="#000000">1</text>
<text text-anchor="middle" x="902.669" y="-24.6198" font-family="Times,serif" font-size="9.00" fill="#000000">softplus</text>
</g>
<!-- A&#45;&gt;1 -->
<g id="edge26" class="edge">
<title>A&#45;&gt;1</title>
<path fill="none" stroke="#ff0000" stroke-width=".3643" d="M157.3733,-221.7228C172.3858,-191.8194 218.2544,-100.6058 219.669,-99.6396 272.5946,-63.4926 718.9574,-40.2018 860.0794,-33.6885"/>
<polygon fill="#ff0000" stroke="#ff0000" stroke-width=".3643" points="860.6452,-37.1664 870.4751,-33.2137 860.3257,-30.1737 860.6452,-37.1664"/>
</g>
<!-- 258 -->
<g id="node25" class="node">
<title>258</title>
<ellipse fill="#ffffff" stroke="#000000" cx="804.669" cy="-131.4594" rx="22.7556" ry="22.7556"/>
<text text-anchor="middle" x="804.669" y="-134.2594" font-family="Times,serif" font-size="9.00" fill="#000000">258</text>
<text text-anchor="middle" x="804.669" y="-124.2594" font-family="Times,serif" font-size="9.00" fill="#000000">tanh</text>
</g>
<!-- A&#45;&gt;258 -->
<g id="edge74" class="edge">
<title>A&#45;&gt;258</title>
<path fill="none" stroke="#00ff00" stroke-width=".5184" d="M156.1279,-221.9077C159.4381,-214.4819 165.1907,-204.4454 173.669,-199.2792 199.4962,-183.5417 645.3286,-144.8993 771.5913,-134.2284"/>
<polygon fill="#00ff00" stroke="#00ff00" stroke-width=".5184" points="772.1281,-137.6957 781.7987,-133.368 771.54,-130.7204 772.1281,-137.6957"/>
</g>
<!-- 1817 -->
<g id="node35" class="node">
<title>1817</title>
<ellipse fill="#ffffff" stroke="#000000" cx="152.669" cy="-131.4594" rx="25" ry="25"/>
<text text-anchor="middle" x="152.669" y="-134.2594" font-family="Times,serif" font-size="9.00" fill="#000000">1817</text>
<text text-anchor="middle" x="152.669" y="-124.2594" font-family="Times,serif" font-size="9.00" fill="#000000">relu</text>
</g>
<!-- A&#45;&gt;1817 -->
<g id="edge69" class="edge">
<title>A&#45;&gt;1817</title>
<path fill="none" stroke="#00ff00" stroke-width=".1753" d="M152.669,-221.9038C152.669,-209.4075 152.669,-186.36 152.669,-166.6591"/>
<polygon fill="#00ff00" stroke="#00ff00" stroke-width=".1753" points="156.1691,-166.4419 152.669,-156.442 149.1691,-166.442 156.1691,-166.4419"/>
</g>
<!-- B -->
<g id="node2" class="node">
<title>B</title>
<polygon fill="#d3d3d3" stroke="#000000" points="1334.669,-339.0315 1310.669,-339.0315 1310.669,-321.0315 1334.669,-321.0315 1334.669,-339.0315"/>
<text text-anchor="middle" x="1322.669" y="-327.8315" font-family="Times,serif" font-size="9.00" fill="#000000">&#45;2</text>
</g>
<!-- B&#45;&gt;A XOR B -->
<g id="edge38" class="edge">
<title>B&#45;&gt;A XOR B</title>
<path fill="none" stroke="#ff0000" stroke-width=".1399" d="M1321.0534,-320.7078C1316.6376,-297.6323 1302.4397,-237.0002 1269.669,-199.2792 1248.779,-175.2336 1217.171,-157.6269 1192.072,-146.3876"/>
<polygon fill="#ff0000" stroke="#ff0000" stroke-width=".1399" points="1193.3757,-143.1383 1182.8072,-142.3917 1190.6034,-149.5659 1193.3757,-143.1383"/>
</g>
<!-- B&#45;&gt;1 -->
<g id="edge29" class="edge">
<title>B&#45;&gt;1</title>
<path fill="none" stroke="#ff0000" stroke-width=".4022" d="M1334.9197,-328.5823C1380.1611,-322.9559 1536.7065,-300.9646 1565.669,-262.9188 1609.6249,-205.1774 1614.3018,-153.501 1565.669,-99.6396 1523.9626,-53.4492 1084.0873,-36.9962 944.7504,-32.9211"/>
<polygon fill="#ff0000" stroke="#ff0000" stroke-width=".4022" points="944.5806,-29.4149 934.4846,-32.6275 944.3804,-36.4121 944.5806,-29.4149"/>
</g>
<!-- B&#45;&gt;258 -->
<g id="edge37" class="edge">
<title>B&#45;&gt;258</title>
<path fill="none" stroke="#ff0000" stroke-width=".2034" d="M1310.6184,-329.5771C1247.459,-326.994 954.7346,-312.4756 881.669,-262.9188 846.6626,-239.1757 825.3441,-193.7958 814.273,-163.0775"/>
<polygon fill="#ff0000" stroke="#ff0000" stroke-width=".2034" points="817.4647,-161.5954 810.9063,-153.2745 810.8442,-163.8691 817.4647,-161.5954"/>
</g>
<!-- 9931 -->
<g id="node30" class="node">
<title>9931</title>
<ellipse fill="#ffffff" stroke="#000000" cx="1351.669" cy="-231.099" rx="30.3115" ry="30.3115"/>
<text text-anchor="middle" x="1351.669" y="-233.899" font-family="Times,serif" font-size="9.00" fill="#000000">9931</text>
<text text-anchor="middle" x="1351.669" y="-223.899" font-family="Times,serif" font-size="9.00" fill="#000000">identity</text>
</g>
<!-- B&#45;&gt;9931 -->
<g id="edge72" class="edge">
<title>B&#45;&gt;9931</title>
<path fill="none" stroke="#00ff00" stroke-width=".1408" d="M1325.3453,-320.9015C1328.7209,-309.386 1334.7416,-288.8463 1340.1739,-270.3144"/>
<polygon fill="#00ff00" stroke="#00ff00" stroke-width=".1408" points="1343.5727,-271.1619 1343.027,-260.5811 1336.8553,-269.1928 1343.5727,-271.1619"/>
</g>
<!-- &#45;3 -->
<g id="node3" class="node">
<title>&#45;3</title>
<polygon fill="#d3d3d3" stroke="#000000" points="333.669,-339.0315 309.669,-339.0315 309.669,-321.0315 333.669,-321.0315 333.669,-339.0315"/>
<text text-anchor="middle" x="321.669" y="-327.8315" font-family="Times,serif" font-size="9.00" fill="#000000">&#45;3</text>
</g>
<!-- &#45;3&#45;&gt;258 -->
<g id="edge31" class="edge">
<title>&#45;3&#45;&gt;258</title>
<path fill="none" stroke="#00ff00" stroke-width=".2649" stroke-dasharray="1,5" d="M323.4739,-320.908C328.7856,-296.6576 346.7672,-230.3372 389.669,-199.2792 450.9069,-154.9473 684.6878,-137.957 771.7449,-133.0845"/>
<polygon fill="#00ff00" stroke="#00ff00" stroke-width=".2649" points="772.0533,-136.573 781.8492,-132.537 771.6744,-129.5833 772.0533,-136.573"/>
</g>
<!-- 60317 -->
<g id="node37" class="node">
<title>60317</title>
<ellipse fill="#ffffff" stroke="#000000" cx="292.669" cy="-231.099" rx="30.3115" ry="30.3115"/>
<text text-anchor="middle" x="292.669" y="-233.899" font-family="Times,serif" font-size="9.00" fill="#000000">60317</text>
<text text-anchor="middle" x="292.669" y="-223.899" font-family="Times,serif" font-size="9.00" fill="#000000">identity</text>
</g>
<!-- &#45;3&#45;&gt;60317 -->
<g id="edge81" class="edge">
<title>&#45;3&#45;&gt;60317</title>
<path fill="none" stroke="#00ff00" stroke-width=".2253" d="M318.9928,-320.9015C315.6172,-309.386 309.5965,-288.8463 304.1642,-270.3144"/>
<polygon fill="#00ff00" stroke="#00ff00" stroke-width=".2253" points="307.4828,-269.1928 301.3111,-260.5811 300.7654,-271.1619 307.4828,-269.1928"/>
</g>
<!-- &#45;4 -->
<g id="node4" class="node">
<title>&#45;4</title>
<polygon fill="#d3d3d3" stroke="#000000" points="206.669,-240.099 182.669,-240.099 182.669,-222.099 206.669,-222.099 206.669,-240.099"/>
<text text-anchor="middle" x="194.669" y="-228.899" font-family="Times,serif" font-size="9.00" fill="#000000">&#45;4</text>
</g>
<!-- &#45;4&#45;&gt;A XOR B -->
<g id="edge46" class="edge">
<title>&#45;4&#45;&gt;A XOR B</title>
<path fill="none" stroke="#00ff00" stroke-width=".1318" d="M207.0969,-222.3136C218.5854,-214.7154 236.4357,-204.2 253.669,-199.2792 378.4828,-163.6399 707.2925,-173.7836 836.669,-163.2792 934.9151,-155.3024 1050.0412,-142.9498 1110.5645,-136.2224"/>
<polygon fill="#00ff00" stroke="#00ff00" stroke-width=".1318" points="1111.3101,-139.661 1120.8603,-135.0736 1110.5338,-132.7042 1111.3101,-139.661"/>
</g>
<!-- &#45;4&#45;&gt;1 -->
<g id="edge19" class="edge">
<title>&#45;4&#45;&gt;1</title>
<path fill="none" stroke="#00ff00" stroke-width=".1405" d="M198.1591,-221.759C208.6057,-194.3221 240.2877,-114.9351 262.669,-99.6396 312.012,-65.9184 725.9186,-41.1909 860.5437,-33.9782"/>
<polygon fill="#00ff00" stroke="#00ff00" stroke-width=".1405" points="861.0535,-37.4561 870.8539,-33.4309 860.6824,-30.466 861.0535,-37.4561"/>
</g>
<!-- &#45;4&#45;&gt;258 -->
<g id="edge57" class="edge">
<title>&#45;4&#45;&gt;258</title>
<path fill="none" stroke="#ff0000" stroke-width=".2655" d="M206.7255,-222.85C218.2463,-215.4022 236.3714,-204.7922 253.669,-199.2792 351.5624,-168.0791 668.5765,-141.8075 771.8305,-133.8958"/>
<polygon fill="#ff0000" stroke="#ff0000" stroke-width=".2655" points="772.2643,-137.373 781.9704,-133.1254 771.7339,-130.3931 772.2643,-137.373"/>
</g>
<!-- 15171 -->
<g id="node28" class="node">
<title>15171</title>
<ellipse fill="#ffffff" stroke="#000000" cx="299.669" cy="-131.4594" rx="27.6545" ry="27.6545"/>
<text text-anchor="middle" x="299.669" y="-134.2594" font-family="Times,serif" font-size="9.00" fill="#000000">15171</text>
<text text-anchor="middle" x="299.669" y="-124.2594" font-family="Times,serif" font-size="9.00" fill="#000000">relu</text>
</g>
<!-- &#45;4&#45;&gt;15171 -->
<g id="edge77" class="edge">
<title>&#45;4&#45;&gt;15171</title>
<path fill="none" stroke="#00ff00" stroke-width=".1267" d="M201.5494,-221.8226C206.5713,-215.2731 213.6932,-206.4268 220.669,-199.2792 235.9023,-183.671 254.3251,-167.7103 269.5469,-155.1964"/>
<polygon fill="#00ff00" stroke="#00ff00" stroke-width=".1267" points="272.0815,-157.6467 277.6337,-148.6231 267.6662,-152.2148 272.0815,-157.6467"/>
</g>
<!-- 9660 -->
<g id="node36" class="node">
<title>9660</title>
<ellipse fill="#ffffff" stroke="#000000" cx="376.669" cy="-131.4594" rx="31.6406" ry="31.6406"/>
<text text-anchor="middle" x="376.669" y="-134.2594" font-family="Times,serif" font-size="9.00" fill="#000000">9660</text>
<text text-anchor="middle" x="376.669" y="-124.2594" font-family="Times,serif" font-size="9.00" fill="#000000">softplus</text>
</g>
<!-- &#45;4&#45;&gt;9660 -->
<g id="edge70" class="edge">
<title>&#45;4&#45;&gt;9660</title>
<path fill="none" stroke="#ff0000" stroke-width=".1906" d="M199.9731,-222.0396C204.5932,-214.8952 211.9153,-205.1825 220.669,-199.2792 265.4244,-169.0975 288.9498,-188.5151 336.669,-163.2792 339.243,-161.918 341.8142,-160.383 344.3412,-158.7411"/>
<polygon fill="#ff0000" stroke="#ff0000" stroke-width=".1906" points="346.5472,-161.4682 352.7017,-152.8441 342.5125,-155.7479 346.5472,-161.4682"/>
</g>
<!-- &#45;5 -->
<g id="node5" class="node">
<title>&#45;5</title>
<polygon fill="#d3d3d3" stroke="#000000" points="429.669,-339.0315 405.669,-339.0315 405.669,-321.0315 429.669,-321.0315 429.669,-339.0315"/>
<text text-anchor="middle" x="417.669" y="-327.8315" font-family="Times,serif" font-size="9.00" fill="#000000">&#45;5</text>
</g>
<!-- &#45;5&#45;&gt;A XOR B -->
<g id="edge30" class="edge">
<title>&#45;5&#45;&gt;A XOR B</title>
<path fill="none" stroke="#00ff00" stroke-width=".1317" d="M429.6872,-325.3509C448.531,-318.2453 486.3262,-304.9293 519.669,-298.9188 584.6322,-287.2084 1060.8481,-303.8081 1112.669,-262.9188 1126.9257,-251.6696 1138.3727,-207.3037 1145.3095,-173.1906"/>
<polygon fill="#00ff00" stroke="#00ff00" stroke-width=".1317" points="1148.8218,-173.4682 1147.3156,-162.981 1141.9531,-172.1185 1148.8218,-173.4682"/>
</g>
<!-- &#45;5&#45;&gt;1 -->
<g id="edge7" class="edge">
<title>&#45;5&#45;&gt;1</title>
<path fill="none" stroke="#00ff00" stroke-width=".1864" d="M405.4716,-324.9327C390.6419,-318.7425 364.8449,-308.0033 342.669,-298.9188 303.1847,-282.7438 277.5221,-298.2978 253.669,-262.9188 237.8574,-239.4669 235.9423,-221.3193 253.669,-199.2792 300.4387,-141.1295 346.8651,-186.8503 417.669,-163.2792 482.519,-141.6903 492.5857,-120.5145 557.669,-99.6396 664.1545,-65.4853 794.9129,-45.4826 860.671,-36.8681"/>
<polygon fill="#00ff00" stroke="#00ff00" stroke-width=".1864" points="861.1818,-40.3313 870.653,-35.5828 860.2878,-33.3886 861.1818,-40.3313"/>
</g>
<!-- &#45;5&#45;&gt;258 -->
<g id="edge47" class="edge">
<title>&#45;5&#45;&gt;258</title>
<path fill="none" stroke="#ff0000" stroke-width=".2492" stroke-dasharray="1,5" d="M413.0533,-320.7785C402.0906,-297.3372 377.5742,-234.9511 407.669,-199.2792 431.2518,-171.3262 681.4446,-143.7656 772.1019,-134.6259"/>
<polygon fill="#ff0000" stroke="#ff0000" stroke-width=".2492" points="772.4933,-138.1043 782.096,-133.628 771.7977,-131.1389 772.4933,-138.1043"/>
</g>
<!-- 2265 -->
<g id="node27" class="node">
<title>2265</title>
<ellipse fill="#ffffff" stroke="#000000" cx="446.669" cy="-231.099" rx="30.3115" ry="30.3115"/>
<text text-anchor="middle" x="446.669" y="-233.899" font-family="Times,serif" font-size="9.00" fill="#000000">2265</text>
<text text-anchor="middle" x="446.669" y="-223.899" font-family="Times,serif" font-size="9.00" fill="#000000">identity</text>
</g>
<!-- &#45;5&#45;&gt;2265 -->
<g id="edge54" class="edge">
<title>&#45;5&#45;&gt;2265</title>
<path fill="none" stroke="#00ff00" stroke-width=".3787" d="M420.3453,-320.9015C423.7209,-309.386 429.7416,-288.8463 435.1739,-270.3144"/>
<polygon fill="#00ff00" stroke="#00ff00" stroke-width=".3787" points="438.5727,-271.1619 438.027,-260.5811 431.8553,-269.1928 438.5727,-271.1619"/>
</g>
<!-- &#45;6 -->
<g id="node6" class="node">
<title>&#45;6</title>
<polygon fill="#d3d3d3" stroke="#000000" points="1634.669,-339.0315 1610.669,-339.0315 1610.669,-321.0315 1634.669,-321.0315 1634.669,-339.0315"/>
<text text-anchor="middle" x="1622.669" y="-327.8315" font-family="Times,serif" font-size="9.00" fill="#000000">&#45;6</text>
</g>
<!-- &#45;6&#45;&gt;1 -->
<g id="edge9" class="edge">
<title>&#45;6&#45;&gt;1</title>
<path fill="none" stroke="#ff0000" stroke-width=".3373" d="M1625.0854,-320.8553C1633.6269,-286.1007 1658.6262,-161.4053 1595.669,-99.6396 1549.1036,-53.9554 1088.3981,-37.0951 945.0274,-32.9301"/>
<polygon fill="#ff0000" stroke="#ff0000" stroke-width=".3373" points="944.9671,-29.427 934.8715,-32.641 944.7678,-36.4242 944.9671,-29.427"/>
</g>
<!-- 4299 -->
<g id="node29" class="node">
<title>4299</title>
<ellipse fill="#ffffff" stroke="#000000" cx="1531.669" cy="-131.4594" rx="25" ry="25"/>
<text text-anchor="middle" x="1531.669" y="-134.2594" font-family="Times,serif" font-size="9.00" fill="#000000">4299</text>
<text text-anchor="middle" x="1531.669" y="-124.2594" font-family="Times,serif" font-size="9.00" fill="#000000">relu</text>
</g>
<!-- &#45;6&#45;&gt;4299 -->
<g id="edge58" class="edge">
<title>&#45;6&#45;&gt;4299</title>
<path fill="none" stroke="#00ff00" stroke-width=".1802" stroke-dasharray="1,5" d="M1618.8292,-320.7611C1609.877,-299.2534 1586.7754,-244.3568 1565.669,-199.2792 1560.0403,-187.2578 1553.574,-174.1907 1547.802,-162.7643"/>
<polygon fill="#00ff00" stroke="#00ff00" stroke-width=".1802" points="1550.8011,-160.9402 1543.1504,-153.611 1544.5607,-164.1115 1550.8011,-160.9402"/>
</g>
<!-- 1042 -->
<g id="node34" class="node">
<title>1042</title>
<ellipse fill="#ffffff" stroke="#000000" cx="602.669" cy="-231.099" rx="31.6406" ry="31.6406"/>
<text text-anchor="middle" x="602.669" y="-233.899" font-family="Times,serif" font-size="9.00" fill="#000000">1042</text>
<text text-anchor="middle" x="602.669" y="-223.899" font-family="Times,serif" font-size="9.00" fill="#000000">softplus</text>
</g>
<!-- &#45;6&#45;&gt;1042 -->
<g id="edge53" class="edge">
<title>&#45;6&#45;&gt;1042</title>
<path fill="none" stroke="#ff0000" stroke-width=".2718" d="M1610.4553,-328.4188C1571.569,-323.3379 1447.1257,-307.4934 1343.669,-298.9188 1050.0189,-274.5809 969.3128,-326.8234 681.669,-262.9188 667.8664,-259.8524 653.3526,-254.637 640.5847,-249.306"/>
<polygon fill="#ff0000" stroke="#ff0000" stroke-width=".2718" points="641.7693,-246.0049 631.2021,-245.2404 638.9862,-252.4278 641.7693,-246.0049"/>
</g>
<!-- &#45;7 -->
<g id="node7" class="node">
<title>&#45;7</title>
<polygon fill="#d3d3d3" stroke="#000000" points="914.669,-240.099 890.669,-240.099 890.669,-222.099 914.669,-222.099 914.669,-240.099"/>
<text text-anchor="middle" x="902.669" y="-228.899" font-family="Times,serif" font-size="9.00" fill="#000000">&#45;7</text>
</g>
<!-- &#45;7&#45;&gt;A XOR B -->
<g id="edge48" class="edge">
<title>&#45;7&#45;&gt;A XOR B</title>
<path fill="none" stroke="#ff0000" stroke-width=".2202" stroke-dasharray="1,5" d="M906.8157,-222.0036C910.527,-214.8383 916.6228,-205.1151 924.669,-199.2792 980.8857,-158.5061 1061.6271,-142.0354 1110.4167,-135.5328"/>
<polygon fill="#ff0000" stroke="#ff0000" stroke-width=".2202" points="1111.1299,-138.971 1120.6181,-134.2568 1110.261,-132.0251 1111.1299,-138.971"/>
</g>
<!-- &#45;7&#45;&gt;1 -->
<g id="edge15" class="edge">
<title>&#45;7&#45;&gt;1</title>
<path fill="none" stroke="#00ff00" stroke-width=".1364" d="M902.669,-222.0186C902.669,-196.2684 902.669,-121.5543 902.669,-73.7939"/>
<polygon fill="#00ff00" stroke="#00ff00" stroke-width=".1364" points="906.1691,-73.7459 902.669,-63.7459 899.1691,-73.746 906.1691,-73.7459"/>
</g>
<!-- &#45;7&#45;&gt;258 -->
<g id="edge25" class="edge">
<title>&#45;7&#45;&gt;258</title>
<path fill="none" stroke="#00ff00" stroke-width=".3161" d="M895.6861,-221.9204C890.6158,-215.4171 883.4782,-206.5857 876.669,-199.2792 861.6541,-183.1678 843.6131,-166.178 829.3463,-153.2335"/>
<polygon fill="#00ff00" stroke="#00ff00" stroke-width=".3161" points="831.6266,-150.577 821.8519,-146.4896 826.9442,-155.7804 831.6266,-150.577"/>
</g>
<!-- &#45;8 -->
<g id="node8" class="node">
<title>&#45;8</title>
<polygon fill="#d3d3d3" stroke="#000000" points="796.669,-240.099 772.669,-240.099 772.669,-222.099 796.669,-222.099 796.669,-240.099"/>
<text text-anchor="middle" x="784.669" y="-228.899" font-family="Times,serif" font-size="9.00" fill="#000000">&#45;8</text>
</g>
<!-- &#45;8&#45;&gt;258 -->
<g id="edge33" class="edge">
<title>&#45;8&#45;&gt;258</title>
<path fill="none" stroke="#ff0000" stroke-width=".2111" d="M786.5147,-221.9038C789.1454,-208.7977 794.1057,-184.0857 798.1774,-163.8008"/>
<polygon fill="#ff0000" stroke="#ff0000" stroke-width=".2111" points="801.613,-164.4691 800.1495,-153.9758 794.7499,-163.0914 801.613,-164.4691"/>
</g>
<!-- &#45;9 -->
<g id="node9" class="node">
<title>&#45;9</title>
<polygon fill="#d3d3d3" stroke="#000000" points="1556.669,-240.099 1532.669,-240.099 1532.669,-222.099 1556.669,-222.099 1556.669,-240.099"/>
<text text-anchor="middle" x="1544.669" y="-228.899" font-family="Times,serif" font-size="9.00" fill="#000000">&#45;9</text>
</g>
<!-- &#45;9&#45;&gt;A XOR B -->
<g id="edge20" class="edge">
<title>&#45;9&#45;&gt;A XOR B</title>
<path fill="none" stroke="#00ff00" stroke-width=".4056" stroke-dasharray="1,5" d="M1541.1093,-222.0666C1537.7375,-214.7378 1531.9512,-204.7544 1523.669,-199.2792 1509.915,-190.1867 1288.0756,-153.4085 1194.1553,-138.1471"/>
<polygon fill="#00ff00" stroke="#00ff00" stroke-width=".4056" points="1194.5813,-134.6705 1184.1499,-136.5241 1193.4604,-141.5802 1194.5813,-134.6705"/>
</g>
<!-- &#45;9&#45;&gt;1 -->
<g id="edge11" class="edge">
<title>&#45;9&#45;&gt;1</title>
<path fill="none" stroke="#00ff00" stroke-width=".1375" stroke-dasharray="1,5" d="M1538.7055,-221.8403C1534.5566,-215.4543 1528.8598,-206.795 1523.669,-199.2792 1512.4531,-183.0393 1508.885,-179.5191 1497.669,-163.2792 1478.4107,-135.3945 1484.4757,-117.4895 1455.669,-99.6396 1370.1566,-46.6523 1058.5174,-34.9976 944.6737,-32.49"/>
<polygon fill="#00ff00" stroke="#00ff00" stroke-width=".1375" points="944.6733,-28.9893 934.6028,-32.2809 944.528,-35.9878 944.6733,-28.9893"/>
</g>
<!-- &#45;9&#45;&gt;258 -->
<g id="edge4" class="edge">
<title>&#45;9&#45;&gt;258</title>
<path fill="none" stroke="#ff0000" stroke-width=".3627" d="M1541.2364,-221.8642C1537.9422,-214.4118 1532.1984,-204.3607 1523.669,-199.2792 1444.7146,-152.2407 1203.1571,-172.017 1111.669,-163.2792 1011.6961,-153.7311 893.5574,-141.1085 837.4362,-135.0309"/>
<polygon fill="#ff0000" stroke="#ff0000" stroke-width=".3627" points="837.6987,-131.5389 827.3795,-133.9399 836.9437,-138.4981 837.6987,-131.5389"/>
</g>
<!-- &#45;9&#45;&gt;4299 -->
<g id="edge63" class="edge">
<title>&#45;9&#45;&gt;4299</title>
<path fill="none" stroke="#ff0000" stroke-width=".3245" d="M1543.4693,-221.9038C1541.8207,-209.2678 1538.7646,-185.8436 1536.1756,-166"/>
<polygon fill="#ff0000" stroke="#ff0000" stroke-width=".3245" points="1539.6386,-165.4886 1534.8742,-156.0255 1532.6974,-166.3943 1539.6386,-165.4886"/>
</g>
<!-- 6383 -->
<g id="node32" class="node">
<title>6383</title>
<ellipse fill="#ffffff" stroke="#000000" cx="1387.669" cy="-131.4594" rx="25" ry="25"/>
<text text-anchor="middle" x="1387.669" y="-134.2594" font-family="Times,serif" font-size="9.00" fill="#000000">6383</text>
<text text-anchor="middle" x="1387.669" y="-124.2594" font-family="Times,serif" font-size="9.00" fill="#000000">relu</text>
</g>
<!-- &#45;9&#45;&gt;6383 -->
<g id="edge65" class="edge">
<title>&#45;9&#45;&gt;6383</title>
<path fill="none" stroke="#00ff00" stroke-width=".132" stroke-dasharray="1,5" d="M1540.3756,-222.0726C1536.7153,-215.136 1530.9021,-205.6876 1523.669,-199.2792 1507.2426,-184.7257 1454.7334,-160.4472 1419.9743,-145.2291"/>
<polygon fill="#00ff00" stroke="#00ff00" stroke-width=".132" points="1421.2523,-141.9683 1410.6859,-141.1926 1418.4624,-148.3883 1421.2523,-141.9683"/>
</g>
<!-- &#45;10 -->
<g id="node10" class="node">
<title>&#45;10</title>
<polygon fill="#d3d3d3" stroke="#000000" points="1467.169,-240.099 1438.169,-240.099 1438.169,-222.099 1467.169,-222.099 1467.169,-240.099"/>
<text text-anchor="middle" x="1452.669" y="-228.899" font-family="Times,serif" font-size="9.00" fill="#000000">&#45;10</text>
</g>
<!-- &#45;10&#45;&gt;A XOR B -->
<g id="edge1" class="edge">
<title>&#45;10&#45;&gt;A XOR B</title>
<path fill="none" stroke="#ff0000" stroke-width=".1142" stroke-dasharray="1,5" d="M1446.6133,-221.9119C1441.379,-214.6934 1433.171,-204.9433 1423.669,-199.2792 1366.6326,-165.2802 1343.0813,-179.4084 1278.669,-163.2792 1250.2001,-156.1504 1218.1312,-148.0508 1193.4709,-141.8075"/>
<polygon fill="#ff0000" stroke="#ff0000" stroke-width=".1142" points="1194.282,-138.4025 1183.7287,-139.34 1192.5633,-145.1882 1194.282,-138.4025"/>
</g>
<!-- &#45;10&#45;&gt;1 -->
<g id="edge28" class="edge">
<title>&#45;10&#45;&gt;1</title>
<path fill="none" stroke="#ff0000" stroke-width=".2911" d="M1445.8232,-221.8579C1440.387,-214.9871 1432.2887,-205.7248 1423.669,-199.2792 1413.5279,-191.6959 1230.6408,-103.7659 1218.669,-99.6396 1123.1394,-66.7135 1005.6415,-46.5512 944.3538,-37.4884"/>
<polygon fill="#ff0000" stroke="#ff0000" stroke-width=".2911" points="944.696,-34.0015 934.2966,-36.0267 943.6892,-40.9287 944.696,-34.0015"/>
</g>
<!-- &#45;10&#45;&gt;258 -->
<g id="edge68" class="edge">
<title>&#45;10&#45;&gt;258</title>
<path fill="none" stroke="#ff0000" stroke-width=".3148" d="M1438.5145,-221.9616C1426.336,-214.5688 1408.0348,-204.5503 1390.669,-199.2792 1363.9437,-191.1672 957.181,-147.6266 837.533,-134.934"/>
<polygon fill="#ff0000" stroke="#ff0000" stroke-width=".3148" points="837.8159,-131.4445 827.5027,-133.8709 837.078,-138.4055 837.8159,-131.4445"/>
</g>
<!-- &#45;10&#45;&gt;6383 -->
<g id="edge83" class="edge">
<title>&#45;10&#45;&gt;6383</title>
<path fill="none" stroke="#00ff00" stroke-width=".3197" d="M1446.6705,-221.9038C1437.7056,-208.1613 1420.4163,-181.6582 1406.8607,-160.8787"/>
<polygon fill="#00ff00" stroke="#00ff00" stroke-width=".3197" points="1409.7101,-158.8406 1401.315,-152.3775 1403.8473,-162.6653 1409.7101,-158.8406"/>
</g>
<!-- &#45;11 -->
<g id="node11" class="node">
<title>&#45;11</title>
<polygon fill="#d3d3d3" stroke="#000000" points="1227.169,-240.099 1198.169,-240.099 1198.169,-222.099 1227.169,-222.099 1227.169,-240.099"/>
<text text-anchor="middle" x="1212.669" y="-228.899" font-family="Times,serif" font-size="9.00" fill="#000000">&#45;11</text>
</g>
<!-- &#45;11&#45;&gt;A XOR B -->
<g id="edge40" class="edge">
<title>&#45;11&#45;&gt;A XOR B</title>
<path fill="none" stroke="#00ff00" stroke-width=".1446" d="M1207.1319,-221.9038C1199.7355,-209.6209 1186.2007,-187.1441 1174.4748,-167.6713"/>
<polygon fill="#00ff00" stroke="#00ff00" stroke-width=".1446" points="1177.4,-165.7444 1169.243,-158.9832 1171.4033,-169.3554 1177.4,-165.7444"/>
</g>
<!-- &#45;11&#45;&gt;1 -->
<g id="edge22" class="edge">
<title>&#45;11&#45;&gt;1</title>
<path fill="none" stroke="#ff0000" stroke-width=".3008" d="M1214.4542,-222.0183C1218.5208,-198.4319 1225.794,-134.6334 1193.669,-99.6396 1160.4413,-63.4446 1017.0482,-43.6808 944.7231,-35.8499"/>
<polygon fill="#ff0000" stroke="#ff0000" stroke-width=".3008" points="944.9016,-32.3493 934.5895,-34.7805 944.1669,-39.3107 944.9016,-32.3493"/>
</g>
<!-- &#45;11&#45;&gt;258 -->
<g id="edge36" class="edge">
<title>&#45;11&#45;&gt;258</title>
<path fill="none" stroke="#00ff00" stroke-width=".2899" d="M1197.8853,-225.9274C1178.4797,-219.2472 1143.2847,-207.5024 1112.669,-199.2792 1013.3144,-172.5931 893.8888,-148.5463 837.3745,-137.6398"/>
<polygon fill="#00ff00" stroke="#00ff00" stroke-width=".2899" points="837.7343,-134.1451 827.2538,-135.6976 836.415,-141.0196 837.7343,-134.1451"/>
</g>
<!-- &#45;12 -->
<g id="node12" class="node">
<title>&#45;12</title>
<polygon fill="#d3d3d3" stroke="#000000" points="1056.169,-240.099 1027.169,-240.099 1027.169,-222.099 1056.169,-222.099 1056.169,-240.099"/>
<text text-anchor="middle" x="1041.669" y="-228.899" font-family="Times,serif" font-size="9.00" fill="#000000">&#45;12</text>
</g>
<!-- &#45;12&#45;&gt;A XOR B -->
<g id="edge5" class="edge">
<title>&#45;12&#45;&gt;A XOR B</title>
<path fill="none" stroke="#ff0000" stroke-width=".2275" d="M1047.6079,-221.955C1052.1464,-215.3064 1058.7768,-206.2821 1065.669,-199.2792 1081.4557,-183.2391 1101.0817,-167.6341 1117.6955,-155.4447"/>
<polygon fill="#ff0000" stroke="#ff0000" stroke-width=".2275" points="1120.013,-158.0885 1126.0726,-149.3976 1115.9158,-152.4128 1120.013,-158.0885"/>
</g>
<!-- &#45;12&#45;&gt;1 -->
<g id="edge41" class="edge">
<title>&#45;12&#45;&gt;1</title>
<path fill="none" stroke="#ff0000" stroke-width=".156" d="M1035.3353,-222.0186C1016.4359,-194.9232 959.7223,-113.6149 926.8873,-66.5407"/>
<polygon fill="#ff0000" stroke="#ff0000" stroke-width=".156" points="929.6404,-64.3696 921.0487,-58.1701 923.899,-68.3743 929.6404,-64.3696"/>
</g>
<!-- &#45;12&#45;&gt;258 -->
<g id="edge3" class="edge">
<title>&#45;12&#45;&gt;258</title>
<path fill="none" stroke="#00ff00" stroke-width=".143" d="M1037.2077,-222.0432C1033.2546,-214.9009 1026.8448,-205.1892 1018.669,-199.2792 962.8181,-158.9063 882.0238,-141.9497 837.39,-135.3229"/>
<polygon fill="#00ff00" stroke="#00ff00" stroke-width=".143" points="837.7728,-131.8424 827.384,-133.9215 836.8019,-138.7748 837.7728,-131.8424"/>
</g>
<!-- &#45;13 -->
<g id="node13" class="node">
<title>&#45;13</title>
<polygon fill="#d3d3d3" stroke="#000000" points="1514.169,-240.099 1485.169,-240.099 1485.169,-222.099 1514.169,-222.099 1514.169,-240.099"/>
<text text-anchor="middle" x="1499.669" y="-228.899" font-family="Times,serif" font-size="9.00" fill="#000000">&#45;13</text>
</g>
<!-- &#45;13&#45;&gt;A XOR B -->
<g id="edge32" class="edge">
<title>&#45;13&#45;&gt;A XOR B</title>
<path fill="none" stroke="#ff0000" stroke-width=".236" d="M1495.3608,-221.8198C1491.4965,-214.5479 1485.1315,-204.7708 1476.669,-199.2792 1453.0914,-183.9788 1276.3375,-152.4573 1194.2881,-138.442"/>
<polygon fill="#ff0000" stroke="#ff0000" stroke-width=".236" points="1194.7449,-134.9695 1184.2995,-136.7424 1193.5707,-141.8703 1194.7449,-134.9695"/>
</g>
<!-- &#45;13&#45;&gt;1 -->
<g id="edge34" class="edge">
<title>&#45;13&#45;&gt;1</title>
<path fill="none" stroke="#ff0000" stroke-width=".201" d="M1494.8051,-221.8763C1479.6307,-193.2578 1433.4692,-107.4148 1421.669,-99.6396 1343.3702,-48.0477 1054.0173,-35.5628 944.7845,-32.6611"/>
<polygon fill="#ff0000" stroke="#ff0000" stroke-width=".201" points="944.5707,-29.1547 934.4858,-32.402 944.3946,-36.1525 944.5707,-29.1547"/>
</g>
<!-- &#45;13&#45;&gt;258 -->
<g id="edge64" class="edge">
<title>&#45;13&#45;&gt;258</title>
<path fill="none" stroke="#00ff00" stroke-width=".3372" d="M1495.6642,-221.8709C1491.9066,-214.4227 1485.5338,-204.3739 1476.669,-199.2792 1406.0032,-158.667 1192.76,-171.4806 1111.669,-163.2792 1011.7509,-153.1737 893.5868,-140.8099 837.448,-134.9108"/>
<polygon fill="#00ff00" stroke="#00ff00" stroke-width=".3372" points="837.6992,-131.4181 827.3881,-133.8532 836.9672,-138.3797 837.6992,-131.4181"/>
</g>
<!-- &#45;13&#45;&gt;6383 -->
<g id="edge84" class="edge">
<title>&#45;13&#45;&gt;6383</title>
<path fill="none" stroke="#00ff00" stroke-width=".2672" d="M1494.1237,-221.8568C1489.8469,-215.1594 1483.5196,-206.1171 1476.669,-199.2792 1457.2884,-179.9345 1448.3986,-179.9422 1426.669,-163.2792 1422.7988,-160.3114 1418.7624,-157.1252 1414.8162,-153.9569"/>
<polygon fill="#00ff00" stroke="#00ff00" stroke-width=".2672" points="1416.8958,-151.137 1406.925,-147.5544 1412.4854,-156.5729 1416.8958,-151.137"/>
</g>
<!-- &#45;14 -->
<g id="node14" class="node">
<title>&#45;14</title>
<polygon fill="#d3d3d3" stroke="#000000" points="127.169,-339.0315 98.169,-339.0315 98.169,-321.0315 127.169,-321.0315 127.169,-339.0315"/>
<text text-anchor="middle" x="112.669" y="-327.8315" font-family="Times,serif" font-size="9.00" fill="#000000">&#45;14</text>
</g>
<!-- &#45;14&#45;&gt;1 -->
<g id="edge10" class="edge">
<title>&#45;14&#45;&gt;1</title>
<path fill="none" stroke="#00ff00" stroke-width=".5129" d="M99.8473,-320.9369C84.4629,-309.3047 59.0709,-287.6776 45.669,-262.9188 10.8395,-198.5744 -25.0352,-153.3313 24.669,-99.6396 53.4235,-68.5784 689.6465,-40.4983 860.6671,-33.4917"/>
<polygon fill="#00ff00" stroke="#00ff00" stroke-width=".5129" points="860.9383,-36.9836 870.7876,-33.0795 860.6534,-29.9894 860.9383,-36.9836"/>
</g>
<!-- &#45;14&#45;&gt;2265 -->
<g id="edge75" class="edge">
<title>&#45;14&#45;&gt;2265</title>
<path fill="none" stroke="#ff0000" stroke-width=".1281" d="M127.4516,-325.6529C176.2852,-311.1881 333.5272,-264.6122 407.5046,-242.6997"/>
<polygon fill="#ff0000" stroke="#ff0000" stroke-width=".1281" points="408.7764,-245.9734 417.3706,-239.7774 406.7883,-239.2617 408.7764,-245.9734"/>
</g>
<!-- &#45;14&#45;&gt;1817 -->
<g id="edge51" class="edge">
<title>&#45;14&#45;&gt;1817</title>
<path fill="none" stroke="#ff0000" stroke-width=".6426" d="M113.5156,-320.7465C115.5884,-299.208 121.5042,-244.2511 131.669,-199.2792 134.2489,-187.8653 137.8034,-175.5899 141.2548,-164.6617"/>
<polygon fill="#ff0000" stroke="#ff0000" stroke-width=".6426" points="144.6106,-165.6596 144.3646,-155.0676 137.9516,-163.5012 144.6106,-165.6596"/>
</g>
<!-- &#45;15 -->
<g id="node15" class="node">
<title>&#45;15</title>
<polygon fill="#d3d3d3" stroke="#000000" points="1009.169,-240.099 980.169,-240.099 980.169,-222.099 1009.169,-222.099 1009.169,-240.099"/>
<text text-anchor="middle" x="994.669" y="-228.899" font-family="Times,serif" font-size="9.00" fill="#000000">&#45;15</text>
</g>
<!-- &#45;15&#45;&gt;A XOR B -->
<g id="edge12" class="edge">
<title>&#45;15&#45;&gt;A XOR B</title>
<path fill="none" stroke="#ff0000" stroke-width=".1977" d="M1000.042,-221.8275C1004.3877,-214.9408 1011.0261,-205.6719 1018.669,-199.2792 1046.8469,-175.7108 1084.5956,-157.5426 1112.8461,-145.9691"/>
<polygon fill="#ff0000" stroke="#ff0000" stroke-width=".1977" points="1114.4205,-149.1093 1122.4113,-142.1524 1111.8263,-142.6078 1114.4205,-149.1093"/>
</g>
<!-- &#45;15&#45;&gt;258 -->
<g id="edge27" class="edge">
<title>&#45;15&#45;&gt;258</title>
<path fill="none" stroke="#00ff00" stroke-width=".2003" d="M989.9154,-221.9259C985.8781,-214.9084 979.4982,-205.4227 971.669,-199.2792 930.7774,-167.1917 872.6439,-148.1918 836.8582,-138.8046"/>
<polygon fill="#00ff00" stroke="#00ff00" stroke-width=".2003" points="837.5048,-135.3581 826.9521,-136.3024 835.7904,-142.1449 837.5048,-135.3581"/>
</g>
<!-- &#45;16 -->
<g id="node16" class="node">
<title>&#45;16</title>
<polygon fill="#d3d3d3" stroke="#000000" points="1054.169,-415.1442 1025.169,-415.1442 1025.169,-397.1442 1054.169,-397.1442 1054.169,-415.1442"/>
<text text-anchor="middle" x="1039.669" y="-403.9442" font-family="Times,serif" font-size="9.00" fill="#000000">&#45;16</text>
</g>
<!-- &#45;16&#45;&gt;A XOR B -->
<g id="edge39" class="edge">
<title>&#45;16&#45;&gt;A XOR B</title>
<path fill="none" stroke="#ff0000" stroke-width=".229" stroke-dasharray="1,5" d="M1054.3082,-405.7582C1108.468,-404.0657 1296.7683,-395.7537 1343.669,-361.1442 1382.6103,-332.4084 1379.9591,-310.1149 1390.669,-262.9188 1396.9283,-235.3358 1408.5532,-221.1917 1390.669,-199.2792 1340.1852,-137.4238 1289.9943,-189.7523 1214.669,-163.2792 1206.21,-160.3063 1197.4527,-156.388 1189.2787,-152.3208"/>
<polygon fill="#ff0000" stroke="#ff0000" stroke-width=".229" points="1190.8361,-149.186 1180.3449,-147.708 1187.6246,-155.4058 1190.8361,-149.186"/>
</g>
<!-- &#45;16&#45;&gt;1 -->
<g id="edge17" class="edge">
<title>&#45;16&#45;&gt;1</title>
<path fill="none" stroke="#ff0000" stroke-width=".1008" d="M1054.3256,-405.593C1144.6256,-402.1305 1622.2741,-382.8269 1643.669,-361.1442 1694.2321,-309.9012 1658.1572,-270.7665 1649.669,-199.2792 1644.2982,-154.0462 1660.0946,-129.4684 1625.669,-99.6396 1574.0795,-54.9387 1092.299,-37.3316 945.1491,-32.9691"/>
<polygon fill="#ff0000" stroke="#ff0000" stroke-width=".1008" points="944.8401,-29.4587 934.7425,-32.6662 944.6365,-36.4557 944.8401,-29.4587"/>
</g>
<!-- 103147 -->
<g id="node31" class="node">
<title>103147</title>
<ellipse fill="#ffffff" stroke="#000000" cx="608.669" cy="-330.0315" rx="31.2258" ry="31.2258"/>
<text text-anchor="middle" x="608.669" y="-332.8315" font-family="Times,serif" font-size="9.00" fill="#000000">103147</text>
<text text-anchor="middle" x="608.669" y="-322.8315" font-family="Times,serif" font-size="9.00" fill="#000000">relu</text>
</g>
<!-- &#45;16&#45;&gt;103147 -->
<g id="edge85" class="edge">
<title>&#45;16&#45;&gt;103147</title>
<path fill="none" stroke="#00ff00" stroke-width=".3197" d="M1024.8956,-405.3076C963.2604,-401.6799 726.5792,-386.3491 656.669,-361.1442 651.7732,-359.3791 646.8702,-357.0328 642.1683,-354.4173"/>
<polygon fill="#00ff00" stroke="#00ff00" stroke-width=".3197" points="643.798,-351.3127 633.4288,-349.1377 640.1784,-357.3043 643.798,-351.3127"/>
</g>
<!-- &#45;16&#45;&gt;1042 -->
<g id="edge67" class="edge">
<title>&#45;16&#45;&gt;1042</title>
<path fill="none" stroke="#ff0000" stroke-width=".1402" stroke-dasharray="1,5" d="M1024.801,-405.7984C965.9663,-404.1934 749.8643,-395.9901 692.669,-361.1442 690.203,-359.6418 652.0929,-303.9263 626.2632,-265.9173"/>
<polygon fill="#ff0000" stroke="#ff0000" stroke-width=".1402" points="629.1476,-263.9347 620.6341,-257.6284 623.3567,-267.8674 629.1476,-263.9347"/>
</g>
<!-- &#45;17 -->
<g id="node17" class="node">
<title>&#45;17</title>
<polygon fill="#d3d3d3" stroke="#000000" points="1103.169,-240.099 1074.169,-240.099 1074.169,-222.099 1103.169,-222.099 1103.169,-240.099"/>
<text text-anchor="middle" x="1088.669" y="-228.899" font-family="Times,serif" font-size="9.00" fill="#000000">&#45;17</text>
</g>
<!-- &#45;17&#45;&gt;A XOR B -->
<g id="edge13" class="edge">
<title>&#45;17&#45;&gt;A XOR B</title>
<path fill="none" stroke="#ff0000" stroke-width=".191" d="M1094.5753,-221.9038C1102.5542,-209.4816 1117.2301,-186.6331 1129.8343,-167.0102"/>
<polygon fill="#ff0000" stroke="#ff0000" stroke-width=".191" points="1132.8058,-168.8602 1135.2653,-158.5548 1126.9161,-165.0771 1132.8058,-168.8602"/>
</g>
<!-- &#45;17&#45;&gt;1 -->
<g id="edge18" class="edge">
<title>&#45;17&#45;&gt;1</title>
<path fill="none" stroke="#00ff00" stroke-width=".4705" d="M1082.3444,-222.0951C1077.7897,-215.6741 1071.4533,-206.8692 1065.669,-199.2792 1031.2457,-154.1092 1025.6541,-139.9693 985.669,-99.6396 970.635,-84.476 952.4023,-69.2799 936.8591,-57.1271"/>
<polygon fill="#00ff00" stroke="#00ff00" stroke-width=".4705" points="938.5938,-54.0449 928.5381,-50.7082 934.3183,-59.5875 938.5938,-54.0449"/>
</g>
<!-- &#45;17&#45;&gt;258 -->
<g id="edge45" class="edge">
<title>&#45;17&#45;&gt;258</title>
<path fill="none" stroke="#00ff00" stroke-width=".1556" d="M1084.2893,-221.9272C1080.3835,-214.7175 1073.9976,-204.9718 1065.669,-199.2792 994.2529,-150.4657 889.9627,-136.7856 837.4562,-132.9519"/>
<polygon fill="#00ff00" stroke="#00ff00" stroke-width=".1556" points="837.5765,-129.4524 827.3691,-132.2915 837.1191,-136.4374 837.5765,-129.4524"/>
</g>
<!-- &#45;18 -->
<g id="node18" class="node">
<title>&#45;18</title>
<polygon fill="#d3d3d3" stroke="#000000" points="839.169,-339.0315 810.169,-339.0315 810.169,-321.0315 839.169,-321.0315 839.169,-339.0315"/>
<text text-anchor="middle" x="824.669" y="-327.8315" font-family="Times,serif" font-size="9.00" fill="#000000">&#45;18</text>
</g>
<!-- &#45;18&#45;&gt;A XOR B -->
<g id="edge2" class="edge">
<title>&#45;18&#45;&gt;A XOR B</title>
<path fill="none" stroke="#ff0000" stroke-width=".1624" d="M839.2241,-328.7677C909.3571,-322.5347 1210.1453,-294.1127 1236.669,-262.9188 1254.9909,-241.371 1248.8643,-224.7993 1236.669,-199.2792 1226.9656,-178.9736 1207.8858,-162.7964 1190.3597,-151.3418"/>
<polygon fill="#ff0000" stroke="#ff0000" stroke-width=".1624" points="1191.738,-148.0783 1181.3943,-145.7854 1188.0505,-154.0283 1191.738,-148.0783"/>
</g>
<!-- &#45;18&#45;&gt;258 -->
<g id="edge14" class="edge">
<title>&#45;18&#45;&gt;258</title>
<path fill="none" stroke="#00ff00" stroke-width=".1783" d="M823.7577,-320.9833C821.007,-293.6723 812.6889,-211.0858 807.9914,-164.4458"/>
<polygon fill="#00ff00" stroke="#00ff00" stroke-width=".1783" points="811.4485,-163.8431 806.9639,-154.2442 804.4837,-164.5446 811.4485,-163.8431"/>
</g>
<!-- &#45;18&#45;&gt;1042 -->
<g id="edge49" class="edge">
<title>&#45;18&#45;&gt;1042</title>
<path fill="none" stroke="#ff0000" stroke-width=".4276" d="M810.103,-323.5403C776.2102,-308.4362 691.1484,-270.5292 641.1072,-248.2287"/>
<polygon fill="#ff0000" stroke="#ff0000" stroke-width=".4276" points="642.4501,-244.9954 631.8914,-244.1217 639.6007,-251.3892 642.4501,-244.9954"/>
</g>
<!-- &#45;19 -->
<g id="node19" class="node">
<title>&#45;19</title>
<polygon fill="#d3d3d3" stroke="#000000" points="84.169,-240.099 55.169,-240.099 55.169,-222.099 84.169,-222.099 84.169,-240.099"/>
<text text-anchor="middle" x="69.669" y="-228.899" font-family="Times,serif" font-size="9.00" fill="#000000">&#45;19</text>
</g>
<!-- &#45;19&#45;&gt;1 -->
<g id="edge21" class="edge">
<title>&#45;19&#45;&gt;1</title>
<path fill="none" stroke="#00ff00" stroke-width=".3368" d="M63.0423,-222.0595C46.6809,-198.5726 7.9875,-134.9935 40.669,-99.6396 68.8357,-69.1698 691.5217,-40.7359 860.6203,-33.5557"/>
<polygon fill="#00ff00" stroke="#00ff00" stroke-width=".3368" points="861.0203,-37.042 870.8637,-33.1233 860.7249,-30.0483 861.0203,-37.042"/>
</g>
<!-- &#45;19&#45;&gt;258 -->
<g id="edge42" class="edge">
<title>&#45;19&#45;&gt;258</title>
<path fill="none" stroke="#00ff00" stroke-width=".263" d="M83.8038,-221.8955C95.9702,-214.4623 114.2648,-204.4218 131.669,-199.2792 193.565,-180.9904 645.4698,-144.098 771.8892,-134.0415"/>
<polygon fill="#00ff00" stroke="#00ff00" stroke-width=".263" points="772.4039,-137.5117 782.0957,-133.2317 771.8502,-130.5337 772.4039,-137.5117"/>
</g>
<!-- 15505 -->
<g id="node33" class="node">
<title>15505</title>
<ellipse fill="#ffffff" stroke="#000000" cx="79.669" cy="-131.4594" rx="30.3115" ry="30.3115"/>
<text text-anchor="middle" x="79.669" y="-134.2594" font-family="Times,serif" font-size="9.00" fill="#000000">15505</text>
<text text-anchor="middle" x="79.669" y="-124.2594" font-family="Times,serif" font-size="9.00" fill="#000000">identity</text>
</g>
<!-- &#45;19&#45;&gt;15505 -->
<g id="edge79" class="edge">
<title>&#45;19&#45;&gt;15505</title>
<path fill="none" stroke="#00ff00" stroke-width=".3112" d="M70.5919,-221.9038C71.7342,-210.5219 73.755,-190.387 75.6003,-172.0001"/>
<polygon fill="#00ff00" stroke="#00ff00" stroke-width=".3112" points="79.0846,-172.3313 76.6008,-162.0317 72.1196,-171.6322 79.0846,-172.3313"/>
</g>
<!-- &#45;19&#45;&gt;1817 -->
<g id="edge56" class="edge">
<title>&#45;19&#45;&gt;1817</title>
<path fill="none" stroke="#ff0000" stroke-width=".3343" d="M77.3287,-221.9038C89.2142,-207.6355 112.5583,-179.6114 130.1278,-158.5197"/>
<polygon fill="#ff0000" stroke="#ff0000" stroke-width=".3343" points="132.8316,-160.7423 136.5428,-150.8187 127.4532,-156.262 132.8316,-160.7423"/>
</g>
<!-- &#45;20 -->
<g id="node20" class="node">
<title>&#45;20</title>
<polygon fill="#d3d3d3" stroke="#000000" points="557.169,-339.0315 528.169,-339.0315 528.169,-321.0315 557.169,-321.0315 557.169,-339.0315"/>
<text text-anchor="middle" x="542.669" y="-327.8315" font-family="Times,serif" font-size="9.00" fill="#000000">&#45;20</text>
</g>
<!-- &#45;20&#45;&gt;1 -->
<g id="edge35" class="edge">
<title>&#45;20&#45;&gt;1</title>
<path fill="none" stroke="#00ff00" stroke-width=".1036" d="M538.5939,-320.8685C529.1704,-298.1598 508.5274,-238.2985 533.669,-199.2792 607.4243,-84.8126 780.5962,-47.7082 860.6844,-36.4178"/>
<polygon fill="#00ff00" stroke="#00ff00" stroke-width=".1036" points="861.4456,-39.8471 870.8914,-35.0485 860.5148,-32.9093 861.4456,-39.8471"/>
</g>
<!-- &#45;20&#45;&gt;258 -->
<g id="edge44" class="edge">
<title>&#45;20&#45;&gt;258</title>
<path fill="none" stroke="#ff0000" stroke-width=".1141" d="M540.9328,-320.7351C537.1104,-297.192 530.6105,-234.5865 561.669,-199.2792 589.4372,-167.7125 712.2088,-145.3512 771.8829,-136.1405"/>
<polygon fill="#ff0000" stroke="#ff0000" stroke-width=".1141" points="772.5503,-139.5794 781.9151,-134.6245 771.5044,-132.658 772.5503,-139.5794"/>
</g>
<!-- &#45;20&#45;&gt;1042 -->
<g id="edge60" class="edge">
<title>&#45;20&#45;&gt;1042</title>
<path fill="none" stroke="#ff0000" stroke-width=".2925" d="M548.2062,-320.9015C555.6025,-308.7058 569.1374,-286.3886 580.8633,-267.054"/>
<polygon fill="#ff0000" stroke="#ff0000" stroke-width=".2925" points="583.9021,-268.7928 586.0951,-258.4274 577.9168,-265.1629 583.9021,-268.7928"/>
</g>
<!-- &#45;21 -->
<g id="node21" class="node">
<title>&#45;21</title>
<polygon fill="#d3d3d3" stroke="#000000" points="730.169,-339.0315 701.169,-339.0315 701.169,-321.0315 730.169,-321.0315 730.169,-339.0315"/>
<text text-anchor="middle" x="715.669" y="-327.8315" font-family="Times,serif" font-size="9.00" fill="#000000">&#45;21</text>
</g>
<!-- &#45;21&#45;&gt;A XOR B -->
<g id="edge24" class="edge">
<title>&#45;21&#45;&gt;A XOR B</title>
<path fill="none" stroke="#00ff00" stroke-width=".469" stroke-dasharray="1,5" d="M730.2543,-323.5165C747.1025,-316.2848 775.826,-304.8527 801.669,-298.9188 876.5816,-281.7181 1092.7249,-318.6384 1145.669,-262.9188 1168.131,-239.2794 1167.7296,-201.1559 1162.9728,-172.0362"/>
<polygon fill="#00ff00" stroke="#00ff00" stroke-width=".469" points="1166.4042,-171.3442 1161.139,-162.1503 1159.5216,-172.6209 1166.4042,-171.3442"/>
</g>
<!-- &#45;21&#45;&gt;258 -->
<g id="edge23" class="edge">
<title>&#45;21&#45;&gt;258</title>
<path fill="none" stroke="#00ff00" stroke-width=".6228" d="M708.7873,-320.8109C693.0231,-298.472 657.4573,-240.2773 681.669,-199.2792 701.1912,-166.222 743.2217,-148.1742 772.6922,-139.1772"/>
<polygon fill="#00ff00" stroke="#00ff00" stroke-width=".6228" points="773.8826,-142.4771 782.5349,-136.3625 771.958,-135.7469 773.8826,-142.4771"/>
</g>
<!-- 5186 -->
<g id="node26" class="node">
<title>5186</title>
<ellipse fill="#ffffff" stroke="#000000" cx="722.669" cy="-231.099" rx="31.6406" ry="31.6406"/>
<text text-anchor="middle" x="722.669" y="-233.899" font-family="Times,serif" font-size="9.00" fill="#000000">5186</text>
<text text-anchor="middle" x="722.669" y="-223.899" font-family="Times,serif" font-size="9.00" fill="#000000">softplus</text>
</g>
<!-- &#45;21&#45;&gt;5186 -->
<g id="edge61" class="edge">
<title>&#45;21&#45;&gt;5186</title>
<path fill="none" stroke="#00ff00" stroke-width=".2969" d="M716.315,-320.9015C717.0846,-310.025 718.4238,-291.0982 719.6749,-273.4163"/>
<polygon fill="#00ff00" stroke="#00ff00" stroke-width=".2969" points="723.1817,-273.4417 720.3963,-263.2196 716.1992,-272.9476 723.1817,-273.4417"/>
</g>
<!-- &#45;21&#45;&gt;2265 -->
<g id="edge76" class="edge">
<title>&#45;21&#45;&gt;2265</title>
<path fill="none" stroke="#ff0000" stroke-width=".2006" d="M700.9733,-322.6329C687.5346,-316.0057 667.0154,-306.2323 648.669,-298.9188 592.9548,-276.7093 526.7883,-255.4288 485.7562,-242.8089"/>
<polygon fill="#ff0000" stroke="#ff0000" stroke-width=".2006" points="486.7256,-239.4454 476.1392,-239.8683 484.6786,-246.1395 486.7256,-239.4454"/>
</g>
<!-- &#45;22 -->
<g id="node22" class="node">
<title>&#45;22</title>
<polygon fill="#d3d3d3" stroke="#000000" points="962.169,-240.099 933.169,-240.099 933.169,-222.099 962.169,-222.099 962.169,-240.099"/>
<text text-anchor="middle" x="947.669" y="-228.899" font-family="Times,serif" font-size="9.00" fill="#000000">&#45;22</text>
</g>
<!-- &#45;22&#45;&gt;A XOR B -->
<g id="edge6" class="edge">
<title>&#45;22&#45;&gt;A XOR B</title>
<path fill="none" stroke="#00ff00" stroke-width=".1918" d="M952.6714,-221.8716C956.9073,-214.8242 963.5753,-205.3248 971.669,-199.2792 1013.8712,-167.7565 1072.3717,-149.3926 1111.3158,-139.9021"/>
<polygon fill="#00ff00" stroke="#00ff00" stroke-width=".1918" points="1112.3265,-143.2601 1121.262,-137.5674 1110.7268,-136.4453 1112.3265,-143.2601"/>
</g>
<!-- &#45;22&#45;&gt;258 -->
<g id="edge16" class="edge">
<title>&#45;22&#45;&gt;258</title>
<path fill="none" stroke="#00ff00" stroke-width=".2394" d="M942.2039,-221.9349C937.81,-215.1045 931.1515,-205.859 923.669,-199.2792 896.7508,-175.6084 860.2727,-156.299 834.8265,-144.4221"/>
<polygon fill="#00ff00" stroke="#00ff00" stroke-width=".2394" points="836.2079,-141.2053 825.6571,-140.2404 833.3034,-147.5743 836.2079,-141.2053"/>
</g>
<!-- 258&#45;&gt;1 -->
<g id="edge43" class="edge">
<title>258&#45;&gt;1</title>
<path fill="none" stroke="#ff0000" stroke-width=".3233" d="M820.8518,-115.006C835.0274,-100.5932 855.9847,-79.2852 873.1397,-61.8432"/>
<polygon fill="#ff0000" stroke="#ff0000" stroke-width=".3233" points="875.7112,-64.22 880.2281,-54.6362 870.7206,-59.3114 875.7112,-64.22"/>
</g>
<!-- 5186&#45;&gt;258 -->
<g id="edge62" class="edge">
<title>5186&#45;&gt;258</title>
<path fill="none" stroke="#ff0000" stroke-width=".1378" d="M742.9387,-206.469C755.3438,-191.3954 771.1848,-172.1467 783.7136,-156.9227"/>
<polygon fill="#ff0000" stroke="#ff0000" stroke-width=".1378" points="786.6384,-158.8767 790.2904,-148.9311 781.2334,-154.4285 786.6384,-158.8767"/>
</g>
<!-- 2265&#45;&gt;258 -->
<g id="edge55" class="edge">
<title>2265&#45;&gt;258</title>
<path fill="none" stroke="#ff0000" stroke-width=".1291" d="M474.8098,-219.1407C490.4882,-212.7423 510.4652,-205.0213 528.669,-199.2792 615.3956,-171.9228 720.2992,-148.8047 772.2567,-138.0013"/>
<polygon fill="#ff0000" stroke="#ff0000" stroke-width=".1291" points="773.1315,-141.3946 782.2182,-135.9464 771.7173,-134.5389 773.1315,-141.3946"/>
</g>
<!-- 15171&#45;&gt;1 -->
<g id="edge78" class="edge">
<title>15171&#45;&gt;1</title>
<path fill="none" stroke="#00ff00" stroke-width=".4207" d="M318.685,-110.8905C323.7807,-106.5005 329.5798,-102.3695 335.669,-99.6396 429.8646,-57.4114 746.0138,-39.0073 860.678,-33.6107"/>
<polygon fill="#00ff00" stroke="#00ff00" stroke-width=".4207" points="860.9869,-37.1003 870.8149,-33.143 860.6642,-30.1077 860.9869,-37.1003"/>
</g>
<!-- 4299&#45;&gt;1 -->
<g id="edge59" class="edge">
<title>4299&#45;&gt;1</title>
<path fill="none" stroke="#ff0000" stroke-width=".2596" d="M1514.066,-113.5305C1507.8143,-108.192 1500.3978,-102.9018 1492.669,-99.6396 1393.3158,-57.7038 1062.384,-39.0185 944.6746,-33.587"/>
<polygon fill="#ff0000" stroke="#ff0000" stroke-width=".2596" points="944.7599,-30.0874 934.6117,-33.1312 944.443,-37.0802 944.7599,-30.0874"/>
</g>
<!-- 9931&#45;&gt;A XOR B -->
<g id="edge73" class="edge">
<title>9931&#45;&gt;A XOR B</title>
<path fill="none" stroke="#ff0000" stroke-width=".1134" d="M1327.6214,-212.2986C1321.3065,-207.7587 1314.3802,-203.1154 1307.669,-199.2792 1269.9995,-177.747 1224.1939,-158.4829 1192.1841,-146.0387"/>
<polygon fill="#ff0000" stroke="#ff0000" stroke-width=".1134" points="1193.3072,-142.7208 1182.7172,-142.4007 1190.7962,-149.2549 1193.3072,-142.7208"/>
</g>
<!-- 103147&#45;&gt;1042 -->
<g id="edge86" class="edge">
<title>103147&#45;&gt;1042</title>
<path fill="none" stroke="#ff0000" stroke-width=".1297" d="M606.7706,-298.7287C606.2776,-290.599 605.7384,-281.7092 605.2178,-273.1254"/>
<polygon fill="#ff0000" stroke="#ff0000" stroke-width=".1297" points="608.6954,-272.648 604.5964,-262.8783 601.7082,-273.0718 608.6954,-272.648"/>
</g>
<!-- 6383&#45;&gt;1 -->
<g id="edge66" class="edge">
<title>6383&#45;&gt;1</title>
<path fill="none" stroke="#00ff00" stroke-width=".1862" d="M1365.0589,-121.1096C1349.0482,-114.1467 1326.9074,-105.2477 1306.669,-99.6396 1177.3257,-63.7985 1019.1326,-43.9444 944.915,-35.984"/>
<polygon fill="#00ff00" stroke="#00ff00" stroke-width=".1862" points="944.8995,-32.4631 934.5876,-34.8954 944.1656,-39.4245 944.8995,-32.4631"/>
</g>
<!-- 15505&#45;&gt;1 -->
<g id="edge80" class="edge">
<title>15505&#45;&gt;1</title>
<path fill="none" stroke="#ff0000" stroke-width=".1729" d="M101.6906,-109.7642C106.8899,-105.7542 112.6767,-102.0701 118.669,-99.6396 255.1489,-44.2836 717.8392,-34.0646 860.4614,-32.2179"/>
<polygon fill="#ff0000" stroke="#ff0000" stroke-width=".1729" points="860.6009,-35.7165 870.5573,-32.0944 860.5152,-28.7171 860.6009,-35.7165"/>
</g>
<!-- 1042&#45;&gt;258 -->
<g id="edge50" class="edge">
<title>1042&#45;&gt;258</title>
<path fill="none" stroke="#ff0000" stroke-width=".1163" d="M628.3737,-212.014C634.8421,-207.579 641.8802,-203.0555 648.669,-199.2792 690.3541,-176.0921 741.5384,-155.1664 773.6412,-142.8789"/>
<polygon fill="#ff0000" stroke="#ff0000" stroke-width=".1163" points="775.2441,-146.0146 783.3575,-139.201 772.766,-139.4679 775.2441,-146.0146"/>
</g>
<!-- 1817&#45;&gt;1 -->
<g id="edge52" class="edge">
<title>1817&#45;&gt;1</title>
<path fill="none" stroke="#00ff00" stroke-width=".164" stroke-dasharray="1,5" d="M170.2356,-113.4427C176.4848,-108.0984 183.9091,-102.8269 191.669,-99.6396 314.093,-49.3556 726.7254,-35.7746 860.4532,-32.6499"/>
<polygon fill="#00ff00" stroke="#00ff00" stroke-width=".164" points="860.7744,-36.1436 870.6928,-32.4185 860.6162,-29.1454 860.7744,-36.1436"/>
</g>
<!-- 9660&#45;&gt;1 -->
<g id="edge71" class="edge">
<title>9660&#45;&gt;1</title>
<path fill="none" stroke="#ff0000" stroke-width=".2472" d="M401.7411,-111.0314C408.2288,-106.6371 415.4341,-102.4688 422.669,-99.6396 502.4403,-68.4457 758.8101,-43.9816 860.5193,-35.266"/>
<polygon fill="#ff0000" stroke="#ff0000" stroke-width=".2472" points="861.0536,-38.7333 870.7218,-34.4002 860.4617,-31.7584 861.0536,-38.7333"/>
</g>
<!-- 60317&#45;&gt;258 -->
<g id="edge82" class="edge">
<title>60317&#45;&gt;258</title>
<path fill="none" stroke="#ff0000" stroke-width=".3358" d="M316.0887,-211.0056C322.4156,-206.4905 329.5047,-202.1825 336.669,-199.2792 416.3554,-166.9874 678.9405,-142.1363 771.7873,-134.1674"/>
<polygon fill="#ff0000" stroke="#ff0000" stroke-width=".3358" points="772.3276,-137.6342 781.9957,-133.3008 771.7354,-130.6593 772.3276,-137.6342"/>
</g>
</g>
</svg>
