<?xml version="1.0" encoding="UTF-8" standalone="no"?>
<!DOCTYPE svg PUBLIC "-//W3C//DTD SVG 1.1//EN"
 "http://www.w3.org/Graphics/SVG/1.1/DTD/svg11.dtd">
<!-- Generated by graphviz version 2.38.0 (20140413.2041)
 -->
<!-- Title: %3 Pages: 1 -->
<svg width="183pt" height="222pt"
 viewBox="0.00 0.00 183.20 222.45" xmlns="http://www.w3.org/2000/svg" xmlns:xlink="http://www.w3.org/1999/xlink">
<g id="graph0" class="graph" transform="scale(1 1) rotate(0) translate(4 218.451)">
<title>%3</title>
<polygon fill="white" stroke="none" points="-4,4 -4,-218.451 179.205,-218.451 179.205,4 -4,4"/>
<!-- A -->
<g id="node1" class="node"><title>A</title>
<polygon fill="lightgray" stroke="black" points="24.0921,-214.451 0.0921304,-214.451 0.0921304,-196.451 24.0921,-196.451 24.0921,-214.451"/>
<text text-anchor="middle" x="12.0921" y="-203.251" font-family="Times New Roman,serif" font-size="9.00">&#45;1</text>
</g>
<!-- A XOR B -->
<g id="node3" class="node"><title>A XOR B</title>
<ellipse fill="lightblue" stroke="black" cx="60.0921" cy="-31.1127" rx="31.2258" ry="31.2258"/>
<text text-anchor="middle" x="60.0921" y="-33.9127" font-family="Times New Roman,serif" font-size="9.00">0</text>
<text text-anchor="middle" x="60.0921" y="-23.9127" font-family="Times New Roman,serif" font-size="9.00">sigmoid</text>
</g>
<!-- A&#45;&gt;A XOR B -->
<g id="edge6" class="edge"><title>A&#45;&gt;A XOR B</title>
<path fill="none" stroke="green" stroke-width="0.22868" d="M9.57561,-196.421C4.32703,-178.284 -6.31293,-133.023 6.09213,-98.2254 11.1378,-84.0718 20.6572,-70.7589 30.3152,-59.841"/>
<polygon fill="green" stroke="green" stroke-width="0.22868" points="33.052,-62.038 37.3102,-52.3366 27.9315,-57.2651 33.052,-62.038"/>
</g>
<!-- 118 -->
<g id="node5" class="node"><title>118</title>
<ellipse fill="white" stroke="black" cx="36.0921" cy="-129.338" rx="21.4286" ry="21.4286"/>
<text text-anchor="middle" x="36.0921" y="-132.138" font-family="Times New Roman,serif" font-size="9.00">118</text>
<text text-anchor="middle" x="36.0921" y="-122.138" font-family="Times New Roman,serif" font-size="9.00">relu</text>
</g>
<!-- A&#45;&gt;118 -->
<g id="edge2" class="edge"><title>A&#45;&gt;118</title>
<path fill="none" stroke="green" stroke-width="0.340999" d="M14.7522,-196.236C17.631,-187.347 22.3864,-172.662 26.6784,-159.408"/>
<polygon fill="green" stroke="green" stroke-width="0.340999" points="30.0804,-160.263 29.8315,-149.671 23.4208,-158.107 30.0804,-160.263"/>
</g>
<!-- B -->
<g id="node2" class="node"><title>B</title>
<polygon fill="lightgray" stroke="black" points="126.092,-214.451 102.092,-214.451 102.092,-196.451 126.092,-196.451 126.092,-214.451"/>
<text text-anchor="middle" x="114.092" y="-203.251" font-family="Times New Roman,serif" font-size="9.00">&#45;2</text>
</g>
<!-- B&#45;&gt;A XOR B -->
<g id="edge1" class="edge"><title>B&#45;&gt;A XOR B</title>
<path fill="none" stroke="green" stroke-width="0.392204" d="M111.488,-196.139C104.52,-173.901 85.1085,-111.951 72.237,-70.8723"/>
<polygon fill="green" stroke="green" stroke-width="0.392204" points="75.5271,-69.6669 69.1971,-61.1709 68.8474,-71.7599 75.5271,-69.6669"/>
</g>
<!-- 146 -->
<g id="node4" class="node"><title>146</title>
<ellipse fill="white" stroke="black" cx="144.092" cy="-129.338" rx="31.2258" ry="31.2258"/>
<text text-anchor="middle" x="144.092" y="-132.138" font-family="Times New Roman,serif" font-size="9.00">146</text>
<text text-anchor="middle" x="144.092" y="-122.138" font-family="Times New Roman,serif" font-size="9.00">sigmoid</text>
</g>
<!-- B&#45;&gt;146 -->
<g id="edge4" class="edge"><title>B&#45;&gt;146</title>
<path fill="none" stroke="green" stroke-width="0.308018" d="M117.417,-196.236C120.273,-189.182 124.605,-178.479 128.953,-167.737"/>
<polygon fill="green" stroke="green" stroke-width="0.308018" points="132.234,-168.961 132.742,-158.378 125.745,-166.335 132.234,-168.961"/>
</g>
<!-- 146&#45;&gt;A XOR B -->
<g id="edge5" class="edge"><title>146&#45;&gt;A XOR B</title>
<path fill="none" stroke="green" stroke-width="0.604172" d="M123.758,-105.045C112.718,-92.3977 98.9274,-76.6001 87.0067,-62.9444"/>
<polygon fill="green" stroke="green" stroke-width="0.604172" points="89.452,-60.4234 80.2389,-55.1917 84.1786,-65.0268 89.452,-60.4234"/>
</g>
<!-- 118&#45;&gt;A XOR B -->
<g id="edge3" class="edge"><title>118&#45;&gt;A XOR B</title>
<path fill="none" stroke="red" stroke-width="0.662923" d="M41.0649,-108.4C43.7301,-97.7146 47.1092,-84.1664 50.2779,-71.4618"/>
<polygon fill="red" stroke="red" stroke-width="0.662923" points="53.7322,-72.0746 52.7563,-61.5248 46.9403,-70.3805 53.7322,-72.0746"/>
</g>
</g>
</svg>
