<?xml version="1.0" encoding="UTF-8" standalone="no"?>
<!DOCTYPE svg PUBLIC "-//W3C//DTD SVG 1.1//EN"
 "http://www.w3.org/Graphics/SVG/1.1/DTD/svg11.dtd">
<!-- Generated by graphviz version 2.40.1 (20161225.0304)
 -->
<!-- Title: %3 Pages: 1 -->
<svg width="1717pt" height="301pt"
 viewBox="0.00 0.00 1716.50 300.88" xmlns="http://www.w3.org/2000/svg" xmlns:xlink="http://www.w3.org/1999/xlink">
<g id="graph0" class="graph" transform="scale(1 1) rotate(0) translate(4 296.8772)">
<title>%3</title>
<polygon fill="#ffffff" stroke="transparent" points="-4,4 -4,-296.8772 1712.5,-296.8772 1712.5,4 -4,4"/>
<!-- A -->
<g id="node1" class="node">
<title>A</title>
<polygon fill="#d3d3d3" stroke="#000000" points="1337,-216.7645 1313,-216.7645 1313,-198.7645 1337,-198.7645 1337,-216.7645"/>
<text text-anchor="middle" x="1325" y="-205.5645" font-family="Times,serif" font-size="9.00" fill="#000000">&#45;1</text>
</g>
<!-- A XOR B -->
<g id="node23" class="node">
<title>A XOR B</title>
<ellipse fill="#add8e6" stroke="#000000" cx="1177" cy="-21.2132" rx="21.4286" ry="21.4286"/>
<text text-anchor="middle" x="1177" y="-24.0132" font-family="Times,serif" font-size="9.00" fill="#000000">0</text>
<text text-anchor="middle" x="1177" y="-14.0132" font-family="Times,serif" font-size="9.00" fill="#000000">relu</text>
</g>
<!-- A&#45;&gt;A XOR B -->
<g id="edge4" class="edge">
<title>A&#45;&gt;A XOR B</title>
<path fill="none" stroke="#ff0000" stroke-width=".1076" d="M1337.2047,-199.762C1352.8843,-188.6636 1379.3473,-166.9628 1390,-140.6518 1400.3788,-115.0174 1406.829,-100.3723 1390,-78.4264 1367.9377,-49.656 1261.9576,-32.1427 1208.2885,-24.9756"/>
<polygon fill="#ff0000" stroke="#ff0000" stroke-width=".1076" points="1208.6595,-21.4945 1198.2925,-23.6799 1207.7596,-28.4364 1208.6595,-21.4945"/>
</g>
<!-- 1 -->
<g id="node24" class="node">
<title>1</title>
<ellipse fill="#add8e6" stroke="#000000" cx="530" cy="-21.2132" rx="21.4286" ry="21.4286"/>
<text text-anchor="middle" x="530" y="-24.0132" font-family="Times,serif" font-size="9.00" fill="#000000">1</text>
<text text-anchor="middle" x="530" y="-14.0132" font-family="Times,serif" font-size="9.00" fill="#000000">relu</text>
</g>
<!-- A&#45;&gt;1 -->
<g id="edge7" class="edge">
<title>A&#45;&gt;1</title>
<path fill="none" stroke="#ff0000" stroke-width=".1572" d="M1312.9233,-203.2476C1293.6051,-196.2375 1254.4212,-182.8969 1220,-176.6518 1108.864,-156.4883 811.1046,-196.6274 713,-140.6518 683.8019,-123.9922 696.2019,-99.4866 670,-78.4264 637.4135,-52.2345 591.2032,-36.4908 560.9228,-28.3308"/>
<polygon fill="#ff0000" stroke="#ff0000" stroke-width=".1572" points="561.482,-24.8607 550.9251,-25.7561 559.7362,-31.6395 561.482,-24.8607"/>
</g>
<!-- 621 -->
<g id="node27" class="node">
<title>621</title>
<ellipse fill="#ffffff" stroke="#000000" cx="1576" cy="-109.5391" rx="21.4286" ry="21.4286"/>
<text text-anchor="middle" x="1576" y="-112.3391" font-family="Times,serif" font-size="9.00" fill="#000000">621</text>
<text text-anchor="middle" x="1576" y="-102.3391" font-family="Times,serif" font-size="9.00" fill="#000000">relu</text>
</g>
<!-- A&#45;&gt;621 -->
<g id="edge32" class="edge">
<title>A&#45;&gt;621</title>
<path fill="none" stroke="#00ff00" stroke-width=".1321" d="M1337.1145,-203.6866C1366.6248,-193.6744 1444.4712,-166.7883 1508,-140.6518 1521.1684,-135.2342 1535.535,-128.7478 1547.6561,-123.1029"/>
<polygon fill="#00ff00" stroke="#00ff00" stroke-width=".1321" points="1549.2673,-126.213 1556.8297,-118.7927 1546.2905,-119.8775 1549.2673,-126.213"/>
</g>
<!-- 193587 -->
<g id="node30" class="node">
<title>193587</title>
<ellipse fill="#ffffff" stroke="#000000" cx="753" cy="-109.5391" rx="31.2258" ry="31.2258"/>
<text text-anchor="middle" x="753" y="-112.3391" font-family="Times,serif" font-size="9.00" fill="#000000">193587</text>
<text text-anchor="middle" x="753" y="-102.3391" font-family="Times,serif" font-size="9.00" fill="#000000">relu</text>
</g>
<!-- A&#45;&gt;193587 -->
<g id="edge45" class="edge">
<title>A&#45;&gt;193587</title>
<path fill="none" stroke="#00ff00" stroke-width=".1845" d="M1312.9133,-203.3016C1293.5815,-196.3655 1254.3792,-183.1243 1220,-176.6518 1032.837,-141.415 970.3838,-209.9813 793,-140.6518 790.1423,-139.5349 787.3208,-138.1449 784.5788,-136.5769"/>
<polygon fill="#00ff00" stroke="#00ff00" stroke-width=".1845" points="786.4328,-133.6075 776.144,-131.0793 782.6105,-139.4718 786.4328,-133.6075"/>
</g>
<!-- B -->
<g id="node2" class="node">
<title>B</title>
<polygon fill="#d3d3d3" stroke="#000000" points="418,-216.7645 394,-216.7645 394,-198.7645 418,-198.7645 418,-216.7645"/>
<text text-anchor="middle" x="406" y="-205.5645" font-family="Times,serif" font-size="9.00" fill="#000000">&#45;2</text>
</g>
<!-- B&#45;&gt;A XOR B -->
<g id="edge24" class="edge">
<title>B&#45;&gt;A XOR B</title>
<path fill="none" stroke="#ff0000" stroke-width=".2852" stroke-dasharray="1,5" d="M411.3766,-198.6152C416.2568,-191.2556 424.1824,-181.3879 434,-176.6518 552.3082,-119.5791 913.1176,-211.0735 1024,-140.6518 1050.603,-123.7561 1035.1447,-100.1248 1058,-78.4264 1083.2435,-54.4607 1120.4071,-38.7966 1146.4692,-30.0175"/>
<polygon fill="#ff0000" stroke="#ff0000" stroke-width=".2852" points="1147.7611,-33.2786 1156.2072,-26.8821 1145.6157,-26.6154 1147.7611,-33.2786"/>
</g>
<!-- B&#45;&gt;1 -->
<g id="edge9" class="edge">
<title>B&#45;&gt;1</title>
<path fill="none" stroke="#00ff00" stroke-width=".1107" d="M398.6393,-198.741C381.333,-176.3702 341.5235,-117.3503 369,-78.4264 384.3298,-56.7099 457.1051,-37.3588 499.3785,-27.7049"/>
<polygon fill="#00ff00" stroke="#00ff00" stroke-width=".1107" points="500.1675,-31.115 509.1638,-25.5188 498.6412,-24.2834 500.1675,-31.115"/>
</g>
<!-- 14195 -->
<g id="node29" class="node">
<title>14195</title>
<ellipse fill="#ffffff" stroke="#000000" cx="406" cy="-109.5391" rx="27.6545" ry="27.6545"/>
<text text-anchor="middle" x="406" y="-112.3391" font-family="Times,serif" font-size="9.00" fill="#000000">14195</text>
<text text-anchor="middle" x="406" y="-102.3391" font-family="Times,serif" font-size="9.00" fill="#000000">relu</text>
</g>
<!-- B&#45;&gt;14195 -->
<g id="edge40" class="edge">
<title>B&#45;&gt;14195</title>
<path fill="none" stroke="#00ff00" stroke-width=".336" stroke-dasharray="1,5" d="M406,-198.6998C406,-187.0788 406,-166.2015 406,-147.5694"/>
<polygon fill="#00ff00" stroke="#00ff00" stroke-width=".336" points="409.5001,-147.5222 406,-137.5223 402.5001,-147.5223 409.5001,-147.5222"/>
</g>
<!-- &#45;3 -->
<g id="node3" class="node">
<title>&#45;3</title>
<polygon fill="#d3d3d3" stroke="#000000" points="467,-216.7645 443,-216.7645 443,-198.7645 467,-198.7645 467,-216.7645"/>
<text text-anchor="middle" x="455" y="-205.5645" font-family="Times,serif" font-size="9.00" fill="#000000">&#45;3</text>
</g>
<!-- &#45;3&#45;&gt;A XOR B -->
<g id="edge22" class="edge">
<title>&#45;3&#45;&gt;A XOR B</title>
<path fill="none" stroke="#00ff00" stroke-width=".2346" stroke-dasharray="1,5" d="M467.0379,-201.9823C482.8932,-194.666 511.8335,-182.3352 538,-176.6518 651.1929,-152.066 958.9992,-200.7844 1058,-140.6518 1085.6962,-123.8293 1073.8634,-102.0917 1096,-78.4264 1111.5799,-61.7706 1132.7246,-47.0326 1149.5033,-36.6875"/>
<polygon fill="#00ff00" stroke="#00ff00" stroke-width=".2346" points="1151.5344,-39.5507 1158.3126,-31.4078 1147.9358,-33.5465 1151.5344,-39.5507"/>
</g>
<!-- &#45;3&#45;&gt;1 -->
<g id="edge18" class="edge">
<title>&#45;3&#45;&gt;1</title>
<path fill="none" stroke="#00ff00" stroke-width=".1459" stroke-dasharray="1,5" d="M458.7193,-198.5134C469.4685,-171.7763 500.9101,-93.57 518.2254,-50.5008"/>
<polygon fill="#00ff00" stroke="#00ff00" stroke-width=".1459" points="521.5153,-51.7005 521.9981,-41.1167 515.0205,-49.0893 521.5153,-51.7005"/>
</g>
<!-- &#45;3&#45;&gt;14195 -->
<g id="edge49" class="edge">
<title>&#45;3&#45;&gt;14195</title>
<path fill="none" stroke="#ff0000" stroke-width=".2312" d="M450.478,-198.6998C444.2603,-186.2357 432.7309,-163.1239 422.9686,-143.5544"/>
<polygon fill="#ff0000" stroke="#ff0000" stroke-width=".2312" points="426.0875,-141.9657 418.4916,-134.5797 419.8236,-145.0904 426.0875,-141.9657"/>
</g>
<!-- 1182 -->
<g id="node33" class="node">
<title>1182</title>
<ellipse fill="#ffffff" stroke="#000000" cx="117" cy="-109.5391" rx="25" ry="25"/>
<text text-anchor="middle" x="117" y="-112.3391" font-family="Times,serif" font-size="9.00" fill="#000000">1182</text>
<text text-anchor="middle" x="117" y="-102.3391" font-family="Times,serif" font-size="9.00" fill="#000000">relu</text>
</g>
<!-- &#45;3&#45;&gt;1182 -->
<g id="edge44" class="edge">
<title>&#45;3&#45;&gt;1182</title>
<path fill="none" stroke="#ff0000" stroke-width=".305" stroke-dasharray="1,5" d="M449.3102,-198.5476C444.3477,-191.3537 436.4687,-181.7519 427,-176.6518 332.8126,-125.9205 291.8441,-170.1142 189,-140.6518 175.3654,-136.7458 160.907,-130.8679 148.5521,-125.2693"/>
<polygon fill="#ff0000" stroke="#ff0000" stroke-width=".305" points="149.6927,-121.9393 139.1507,-120.8823 146.7326,-128.2827 149.6927,-121.9393"/>
</g>
<!-- &#45;4 -->
<g id="node4" class="node">
<title>&#45;4</title>
<polygon fill="#d3d3d3" stroke="#000000" points="1614,-292.8772 1590,-292.8772 1590,-274.8772 1614,-274.8772 1614,-292.8772"/>
<text text-anchor="middle" x="1602" y="-281.6772" font-family="Times,serif" font-size="9.00" fill="#000000">&#45;4</text>
</g>
<!-- &#45;5 -->
<g id="node5" class="node">
<title>&#45;5</title>
<polygon fill="#d3d3d3" stroke="#000000" points="921,-118.5391 897,-118.5391 897,-100.5391 921,-100.5391 921,-118.5391"/>
<text text-anchor="middle" x="909" y="-107.3391" font-family="Times,serif" font-size="9.00" fill="#000000">&#45;5</text>
</g>
<!-- &#45;5&#45;&gt;A XOR B -->
<g id="edge1" class="edge">
<title>&#45;5&#45;&gt;A XOR B</title>
<path fill="none" stroke="#00ff00" stroke-width=".3429" stroke-dasharray="1,5" d="M912.8157,-100.5168C916.2756,-93.4359 922.0526,-83.8909 930,-78.4264 964.9991,-54.3616 1087.6008,-34.0652 1145.8347,-25.5317"/>
<polygon fill="#00ff00" stroke="#00ff00" stroke-width=".3429" points="1146.5254,-28.9684 1155.9235,-24.0769 1145.5263,-22.04 1146.5254,-28.9684"/>
</g>
<!-- &#45;5&#45;&gt;1 -->
<g id="edge20" class="edge">
<title>&#45;5&#45;&gt;1</title>
<path fill="none" stroke="#00ff00" stroke-width=".2522" stroke-dasharray="1,5" d="M904.9943,-100.3632C901.3649,-93.1931 895.3104,-83.6032 887,-78.4264 832.6804,-44.5888 638.3974,-28.3573 561.5812,-23.1527"/>
<polygon fill="#00ff00" stroke="#00ff00" stroke-width=".2522" points="561.7572,-19.6568 551.5485,-22.4908 561.2963,-26.6416 561.7572,-19.6568"/>
</g>
<!-- &#45;6 -->
<g id="node6" class="node">
<title>&#45;6</title>
<polygon fill="#d3d3d3" stroke="#000000" points="571,-216.7645 547,-216.7645 547,-198.7645 571,-198.7645 571,-216.7645"/>
<text text-anchor="middle" x="559" y="-205.5645" font-family="Times,serif" font-size="9.00" fill="#000000">&#45;6</text>
</g>
<!-- &#45;6&#45;&gt;A XOR B -->
<g id="edge16" class="edge">
<title>&#45;6&#45;&gt;A XOR B</title>
<path fill="none" stroke="#00ff00" stroke-width=".1422" stroke-dasharray="1,5" d="M571.1951,-206.381C649.9947,-197.4244 1084.3453,-147.791 1096,-140.6518 1105.3006,-134.9547 1139.4243,-81.7484 1160.2991,-48.2994"/>
<polygon fill="#00ff00" stroke="#00ff00" stroke-width=".1422" points="1163.4965,-49.7854 1165.804,-39.4448 1157.5517,-46.0895 1163.4965,-49.7854"/>
</g>
<!-- &#45;6&#45;&gt;1 -->
<g id="edge21" class="edge">
<title>&#45;6&#45;&gt;1</title>
<path fill="none" stroke="#00ff00" stroke-width=".1383" stroke-dasharray="1,5" d="M551.246,-198.5222C541.4935,-186.2332 525.2666,-163.4061 519,-140.6518 510.8723,-111.1398 515.7058,-76.1384 521.2952,-51.6826"/>
<polygon fill="#00ff00" stroke="#00ff00" stroke-width=".1383" points="524.7131,-52.4404 523.7014,-41.894 517.9154,-50.7694 524.7131,-52.4404"/>
</g>
<!-- 331934 -->
<g id="node32" class="node">
<title>331934</title>
<ellipse fill="#ffffff" stroke="#000000" cx="559" cy="-109.5391" rx="31.2258" ry="31.2258"/>
<text text-anchor="middle" x="559" y="-112.3391" font-family="Times,serif" font-size="9.00" fill="#000000">331934</text>
<text text-anchor="middle" x="559" y="-102.3391" font-family="Times,serif" font-size="9.00" fill="#000000">relu</text>
</g>
<!-- &#45;6&#45;&gt;331934 -->
<g id="edge47" class="edge">
<title>&#45;6&#45;&gt;331934</title>
<path fill="none" stroke="#00ff00" stroke-width=".2658" d="M559,-198.6998C559,-187.8216 559,-168.8327 559,-151.1669"/>
<polygon fill="#00ff00" stroke="#00ff00" stroke-width=".2658" points="562.5001,-150.9897 559,-140.9897 555.5001,-150.9897 562.5001,-150.9897"/>
</g>
<!-- &#45;7 -->
<g id="node7" class="node">
<title>&#45;7</title>
<polygon fill="#d3d3d3" stroke="#000000" points="1481,-216.7645 1457,-216.7645 1457,-198.7645 1481,-198.7645 1481,-216.7645"/>
<text text-anchor="middle" x="1469" y="-205.5645" font-family="Times,serif" font-size="9.00" fill="#000000">&#45;7</text>
</g>
<!-- &#45;7&#45;&gt;A XOR B -->
<g id="edge19" class="edge">
<title>&#45;7&#45;&gt;A XOR B</title>
<path fill="none" stroke="#00ff00" stroke-width=".2022" d="M1476.563,-198.4872C1486.0747,-186.1604 1501.8993,-163.2925 1508,-140.6518 1515.1954,-113.9485 1525.8125,-99.5819 1508,-78.4264 1469.8726,-33.1434 1284.0529,-23.7008 1208.7678,-21.7319"/>
<polygon fill="#00ff00" stroke="#00ff00" stroke-width=".2022" points="1208.5719,-18.2264 1198.493,-21.4922 1208.4086,-25.2245 1208.5719,-18.2264"/>
</g>
<!-- 155392 -->
<g id="node25" class="node">
<title>155392</title>
<ellipse fill="#ffffff" stroke="#000000" cx="1468" cy="-109.5391" rx="31.2258" ry="31.2258"/>
<text text-anchor="middle" x="1468" y="-112.3391" font-family="Times,serif" font-size="9.00" fill="#000000">155392</text>
<text text-anchor="middle" x="1468" y="-102.3391" font-family="Times,serif" font-size="9.00" fill="#000000">relu</text>
</g>
<!-- &#45;7&#45;&gt;155392 -->
<g id="edge42" class="edge">
<title>&#45;7&#45;&gt;155392</title>
<path fill="none" stroke="#00ff00" stroke-width=".2795" d="M1468.9077,-198.6998C1468.797,-187.8216 1468.6036,-168.8327 1468.4238,-151.1669"/>
<polygon fill="#00ff00" stroke="#00ff00" stroke-width=".2795" points="1471.9219,-150.9535 1468.3202,-140.9897 1464.9223,-151.0249 1471.9219,-150.9535"/>
</g>
<!-- &#45;8 -->
<g id="node8" class="node">
<title>&#45;8</title>
<polygon fill="#d3d3d3" stroke="#000000" points="24,-216.7645 0,-216.7645 0,-198.7645 24,-198.7645 24,-216.7645"/>
<text text-anchor="middle" x="12" y="-205.5645" font-family="Times,serif" font-size="9.00" fill="#000000">&#45;8</text>
</g>
<!-- &#45;8&#45;&gt;1 -->
<g id="edge23" class="edge">
<title>&#45;8&#45;&gt;1</title>
<path fill="none" stroke="#ff0000" stroke-width=".3014" d="M13.9914,-198.6442C19.8032,-174.4189 39.1787,-108.2796 83,-78.4264 150.8804,-32.1829 408.1044,-23.3083 498.4199,-21.612"/>
<polygon fill="#ff0000" stroke="#ff0000" stroke-width=".3014" points="498.6438,-25.1088 508.5826,-21.4387 498.5243,-18.1098 498.6438,-25.1088"/>
</g>
<!-- &#45;8&#45;&gt;1182 -->
<g id="edge35" class="edge">
<title>&#45;8&#45;&gt;1182</title>
<path fill="none" stroke="#00ff00" stroke-width=".2028" d="M17.2169,-198.5196C21.1126,-192.0334 26.8131,-183.3571 33,-176.6518 49.3843,-158.8946 70.6746,-141.9369 87.7213,-129.5097"/>
<polygon fill="#00ff00" stroke="#00ff00" stroke-width=".2028" points="90.1036,-132.1089 96.2003,-123.4439 86.0308,-126.4157 90.1036,-132.1089"/>
</g>
<!-- &#45;9 -->
<g id="node9" class="node">
<title>&#45;9</title>
<polygon fill="#d3d3d3" stroke="#000000" points="163,-292.8772 139,-292.8772 139,-274.8772 163,-274.8772 163,-292.8772"/>
<text text-anchor="middle" x="151" y="-281.6772" font-family="Times,serif" font-size="9.00" fill="#000000">&#45;9</text>
</g>
<!-- &#45;9&#45;&gt;A XOR B -->
<g id="edge3" class="edge">
<title>&#45;9&#45;&gt;A XOR B</title>
<path fill="none" stroke="#00ff00" stroke-width=".1562" stroke-dasharray="1,5" d="M163.1659,-283.7878C264.9409,-282.8033 974.7939,-271.2719 1132,-140.6518 1158.296,-118.8028 1169.2409,-79.9057 1173.787,-52.4463"/>
<polygon fill="#00ff00" stroke="#00ff00" stroke-width=".1562" points="1177.2516,-52.9428 1175.2347,-42.5417 1170.3252,-51.9303 1177.2516,-52.9428"/>
</g>
<!-- &#45;9&#45;&gt;1 -->
<g id="edge27" class="edge">
<title>&#45;9&#45;&gt;1</title>
<path fill="none" stroke="#ff0000" stroke-width=".1535" d="M151.3553,-274.4911C152.935,-238.0259 160.5518,-106.4046 189,-78.4264 232.5462,-35.5997 422.325,-24.7078 498.3436,-22.0415"/>
<polygon fill="#ff0000" stroke="#ff0000" stroke-width=".1535" points="498.822,-25.5279 508.7031,-21.705 498.5947,-18.5316 498.822,-25.5279"/>
</g>
<!-- 371847 -->
<g id="node26" class="node">
<title>371847</title>
<ellipse fill="#ffffff" stroke="#000000" cx="73" cy="-207.7645" rx="31.2258" ry="31.2258"/>
<text text-anchor="middle" x="73" y="-210.5645" font-family="Times,serif" font-size="9.00" fill="#000000">371847</text>
<text text-anchor="middle" x="73" y="-200.5645" font-family="Times,serif" font-size="9.00" fill="#000000">relu</text>
</g>
<!-- &#45;9&#45;&gt;371847 -->
<g id="edge52" class="edge">
<title>&#45;9&#45;&gt;371847</title>
<path fill="none" stroke="#00ff00" stroke-width=".2746" d="M141.7461,-274.8472C132.2124,-265.5442 116.8399,-250.5436 103.0468,-237.0843"/>
<polygon fill="#00ff00" stroke="#00ff00" stroke-width=".2746" points="105.1951,-234.2904 95.5936,-229.8114 100.3063,-239.3004 105.1951,-234.2904"/>
</g>
<!-- &#45;9&#45;&gt;1182 -->
<g id="edge39" class="edge">
<title>&#45;9&#45;&gt;1182</title>
<path fill="none" stroke="#00ff00" stroke-width=".6226" stroke-dasharray="1,5" d="M149.172,-274.504C144.4518,-250.3007 131.6691,-184.7562 123.7102,-143.9463"/>
<polygon fill="#00ff00" stroke="#00ff00" stroke-width=".6226" points="127.0994,-143.0398 121.7499,-133.8947 120.2289,-144.3798 127.0994,-143.0398"/>
</g>
<!-- &#45;10 -->
<g id="node10" class="node">
<title>&#45;10</title>
<polygon fill="#d3d3d3" stroke="#000000" points="1571.5,-292.8772 1542.5,-292.8772 1542.5,-274.8772 1571.5,-274.8772 1571.5,-292.8772"/>
<text text-anchor="middle" x="1557" y="-281.6772" font-family="Times,serif" font-size="9.00" fill="#000000">&#45;10</text>
</g>
<!-- &#45;10&#45;&gt;A XOR B -->
<g id="edge30" class="edge">
<title>&#45;10&#45;&gt;A XOR B</title>
<path fill="none" stroke="#ff0000" stroke-width=".4013" stroke-dasharray="1,5" d="M1564.0363,-274.7617C1587.4204,-243.3126 1658.1734,-138.0198 1606,-78.4264 1579.7881,-48.4867 1303.2069,-28.9206 1208.5577,-23.0608"/>
<polygon fill="#ff0000" stroke="#ff0000" stroke-width=".4013" points="1208.6444,-19.5597 1198.4499,-22.4446 1208.2184,-26.5467 1208.6444,-19.5597"/>
</g>
<!-- &#45;10&#45;&gt;1 -->
<g id="edge10" class="edge">
<title>&#45;10&#45;&gt;1</title>
<path fill="none" stroke="#ff0000" stroke-width=".3868" stroke-dasharray="1,5" d="M1542.4593,-283.4192C1436.7535,-279.8341 786.1296,-253.3592 632,-140.6518 606.7311,-122.1739 618.7584,-102.7072 599,-78.4264 586.7178,-63.333 569.9712,-49.3339 556.0522,-38.9612"/>
<polygon fill="#ff0000" stroke="#ff0000" stroke-width=".3868" points="557.9676,-36.0269 547.8161,-32.9941 553.8606,-41.6955 557.9676,-36.0269"/>
</g>
<!-- &#45;10&#45;&gt;621 -->
<g id="edge34" class="edge">
<title>&#45;10&#45;&gt;621</title>
<path fill="none" stroke="#ff0000" stroke-width=".1345" d="M1559.1896,-274.6247C1561.2528,-265.5658 1564.2773,-251.347 1566,-238.8772 1570.5779,-205.7395 1573.21,-167.5142 1574.6131,-141.2608"/>
<polygon fill="#ff0000" stroke="#ff0000" stroke-width=".1345" points="1578.1155,-141.2998 1575.1249,-131.1358 1571.1244,-140.9464 1578.1155,-141.2998"/>
</g>
<!-- 13359 -->
<g id="node28" class="node">
<title>13359</title>
<ellipse fill="#ffffff" stroke="#000000" cx="1529" cy="-207.7645" rx="27.6545" ry="27.6545"/>
<text text-anchor="middle" x="1529" y="-210.5645" font-family="Times,serif" font-size="9.00" fill="#000000">13359</text>
<text text-anchor="middle" x="1529" y="-200.5645" font-family="Times,serif" font-size="9.00" fill="#000000">relu</text>
</g>
<!-- &#45;10&#45;&gt;13359 -->
<g id="edge37" class="edge">
<title>&#45;10&#45;&gt;13359</title>
<path fill="none" stroke="#00ff00" stroke-width=".2005" d="M1553.6781,-274.8472C1550.7808,-266.9716 1546.3815,-255.0128 1542.0957,-243.3626"/>
<polygon fill="#00ff00" stroke="#00ff00" stroke-width=".2005" points="1545.2951,-241.922 1538.5577,-233.7453 1538.7255,-244.3388 1545.2951,-241.922"/>
</g>
<!-- &#45;11 -->
<g id="node11" class="node">
<title>&#45;11</title>
<polygon fill="#d3d3d3" stroke="#000000" points="1333.5,-118.5391 1304.5,-118.5391 1304.5,-100.5391 1333.5,-100.5391 1333.5,-118.5391"/>
<text text-anchor="middle" x="1319" y="-107.3391" font-family="Times,serif" font-size="9.00" fill="#000000">&#45;11</text>
</g>
<!-- &#45;11&#45;&gt;A XOR B -->
<g id="edge28" class="edge">
<title>&#45;11&#45;&gt;A XOR B</title>
<path fill="none" stroke="#00ff00" stroke-width=".329" d="M1313.6152,-100.4427C1309.2633,-93.6928 1302.6223,-84.6232 1295,-78.4264 1268.3316,-56.7456 1232.0826,-40.7397 1206.8258,-31.255"/>
<polygon fill="#00ff00" stroke="#00ff00" stroke-width=".329" points="1207.991,-27.9545 1197.397,-27.8246 1205.5977,-34.5327 1207.991,-27.9545"/>
</g>
<!-- &#45;12 -->
<g id="node12" class="node">
<title>&#45;12</title>
<polygon fill="#d3d3d3" stroke="#000000" points="1661.5,-292.8772 1632.5,-292.8772 1632.5,-274.8772 1661.5,-274.8772 1661.5,-292.8772"/>
<text text-anchor="middle" x="1647" y="-281.6772" font-family="Times,serif" font-size="9.00" fill="#000000">&#45;12</text>
</g>
<!-- &#45;13 -->
<g id="node13" class="node">
<title>&#45;13</title>
<polygon fill="#d3d3d3" stroke="#000000" points="1380.5,-118.5391 1351.5,-118.5391 1351.5,-100.5391 1380.5,-100.5391 1380.5,-118.5391"/>
<text text-anchor="middle" x="1366" y="-107.3391" font-family="Times,serif" font-size="9.00" fill="#000000">&#45;13</text>
</g>
<!-- &#45;13&#45;&gt;A XOR B -->
<g id="edge8" class="edge">
<title>&#45;13&#45;&gt;A XOR B</title>
<path fill="none" stroke="#ff0000" stroke-width=".1863" d="M1361.2893,-100.4563C1357.2757,-93.5321 1350.9067,-84.2284 1343,-78.4264 1301.9079,-48.2725 1243.6797,-33.1014 1208.2293,-26.2048"/>
<polygon fill="#ff0000" stroke="#ff0000" stroke-width=".1863" points="1208.4713,-22.6906 1198.0029,-24.3226 1207.2042,-29.575 1208.4713,-22.6906"/>
</g>
<!-- &#45;14 -->
<g id="node14" class="node">
<title>&#45;14</title>
<polygon fill="#d3d3d3" stroke="#000000" points="878.5,-118.5391 849.5,-118.5391 849.5,-100.5391 878.5,-100.5391 878.5,-118.5391"/>
<text text-anchor="middle" x="864" y="-107.3391" font-family="Times,serif" font-size="9.00" fill="#000000">&#45;14</text>
</g>
<!-- &#45;14&#45;&gt;A XOR B -->
<g id="edge11" class="edge">
<title>&#45;14&#45;&gt;A XOR B</title>
<path fill="none" stroke="#ff0000" stroke-width=".3461" d="M868.6276,-100.4379C872.7366,-93.3111 879.417,-83.7431 888,-78.4264 930.9386,-51.8283 1079.6405,-32.217 1145.3544,-24.6434"/>
<polygon fill="#ff0000" stroke="#ff0000" stroke-width=".3461" points="1145.9827,-28.0947 1155.5252,-23.4913 1145.1948,-21.1392 1145.9827,-28.0947"/>
</g>
<!-- &#45;14&#45;&gt;1 -->
<g id="edge17" class="edge">
<title>&#45;14&#45;&gt;1</title>
<path fill="none" stroke="#ff0000" stroke-width=".3396" stroke-dasharray="1,5" d="M859.3907,-100.4082C855.2923,-93.2642 848.6172,-83.6875 840,-78.4264 793.3334,-49.9351 630.6636,-31.0653 561.503,-24.1544"/>
<polygon fill="#ff0000" stroke="#ff0000" stroke-width=".3396" points="561.5319,-20.6405 551.2381,-23.1482 560.849,-27.6071 561.5319,-20.6405"/>
</g>
<!-- &#45;15 -->
<g id="node15" class="node">
<title>&#45;15</title>
<polygon fill="#d3d3d3" stroke="#000000" points="1210.5,-216.7645 1181.5,-216.7645 1181.5,-198.7645 1210.5,-198.7645 1210.5,-216.7645"/>
<text text-anchor="middle" x="1196" y="-205.5645" font-family="Times,serif" font-size="9.00" fill="#000000">&#45;15</text>
</g>
<!-- &#45;15&#45;&gt;A XOR B -->
<g id="edge12" class="edge">
<title>&#45;15&#45;&gt;A XOR B</title>
<path fill="none" stroke="#00ff00" stroke-width=".1824" stroke-dasharray="1,5" d="M1195.0578,-198.5134C1192.3738,-172.1605 1184.5973,-95.8073 1180.1742,-52.3792"/>
<polygon fill="#00ff00" stroke="#00ff00" stroke-width=".1824" points="1183.6486,-51.9488 1179.1533,-42.3549 1176.6846,-52.6581 1183.6486,-51.9488"/>
</g>
<!-- &#45;15&#45;&gt;1 -->
<g id="edge29" class="edge">
<title>&#45;15&#45;&gt;1</title>
<path fill="none" stroke="#00ff00" stroke-width=".1109" stroke-dasharray="1,5" d="M1181.2795,-206.171C1099.3531,-197.2623 702.4702,-153.5634 680,-140.6518 649.7158,-123.2502 658.4317,-101.2587 632,-78.4264 610.0148,-59.4351 580.741,-43.7999 559.1944,-33.702"/>
<polygon fill="#00ff00" stroke="#00ff00" stroke-width=".1109" points="560.4431,-30.4248 549.8922,-29.46 557.5386,-36.7938 560.4431,-30.4248"/>
</g>
<!-- 370100 -->
<g id="node31" class="node">
<title>370100</title>
<ellipse fill="#ffffff" stroke="#000000" cx="1255" cy="-109.5391" rx="31.2258" ry="31.2258"/>
<text text-anchor="middle" x="1255" y="-112.3391" font-family="Times,serif" font-size="9.00" fill="#000000">370100</text>
<text text-anchor="middle" x="1255" y="-102.3391" font-family="Times,serif" font-size="9.00" fill="#000000">relu</text>
</g>
<!-- &#45;15&#45;&gt;370100 -->
<g id="edge50" class="edge">
<title>&#45;15&#45;&gt;370100</title>
<path fill="none" stroke="#00ff00" stroke-width=".3746" d="M1201.4448,-198.6998C1208.7674,-186.5088 1222.2086,-164.1315 1233.7928,-144.8457"/>
<polygon fill="#00ff00" stroke="#00ff00" stroke-width=".3746" points="1236.8071,-146.6245 1238.9559,-136.2499 1230.8064,-143.0201 1236.8071,-146.6245"/>
</g>
<!-- &#45;16 -->
<g id="node16" class="node">
<title>&#45;16</title>
<polygon fill="#d3d3d3" stroke="#000000" points="968.5,-118.5391 939.5,-118.5391 939.5,-100.5391 968.5,-100.5391 968.5,-118.5391"/>
<text text-anchor="middle" x="954" y="-107.3391" font-family="Times,serif" font-size="9.00" fill="#000000">&#45;16</text>
</g>
<!-- &#45;16&#45;&gt;A XOR B -->
<g id="edge13" class="edge">
<title>&#45;16&#45;&gt;A XOR B</title>
<path fill="none" stroke="#ff0000" stroke-width=".1702" d="M958.6267,-100.3385C962.5939,-93.3494 968.9415,-84.0158 977,-78.4264 1029.1414,-42.2611 1103.9232,-28.7881 1145.7046,-23.8943"/>
<polygon fill="#ff0000" stroke="#ff0000" stroke-width=".1702" points="1146.2619,-27.3546 1155.8288,-22.8021 1145.511,-20.395 1146.2619,-27.3546"/>
</g>
<!-- &#45;16&#45;&gt;1 -->
<g id="edge2" class="edge">
<title>&#45;16&#45;&gt;1</title>
<path fill="none" stroke="#00ff00" stroke-width=".2368" d="M949.4465,-100.3146C945.3805,-93.1163 938.7218,-83.5122 930,-78.4264 867.2267,-41.8227 644.0953,-26.9939 561.2567,-22.6686"/>
<polygon fill="#00ff00" stroke="#00ff00" stroke-width=".2368" points="561.3617,-19.1696 551.1975,-22.1595 561.0078,-26.1606 561.3617,-19.1696"/>
</g>
<!-- &#45;17 -->
<g id="node17" class="node">
<title>&#45;17</title>
<polygon fill="#d3d3d3" stroke="#000000" points="227.5,-118.5391 198.5,-118.5391 198.5,-100.5391 227.5,-100.5391 227.5,-118.5391"/>
<text text-anchor="middle" x="213" y="-107.3391" font-family="Times,serif" font-size="9.00" fill="#000000">&#45;17</text>
</g>
<!-- &#45;17&#45;&gt;1 -->
<g id="edge14" class="edge">
<title>&#45;17&#45;&gt;1</title>
<path fill="none" stroke="#00ff00" stroke-width=".1281" stroke-dasharray="1,5" d="M217.3384,-100.4331C221.2202,-93.3036 227.594,-83.7342 236,-78.4264 279.5234,-50.9447 431.5631,-31.7513 498.2459,-24.4628"/>
<polygon fill="#00ff00" stroke="#00ff00" stroke-width=".1281" points="498.9859,-27.9036 508.5556,-23.3568 498.2393,-20.9435 498.9859,-27.9036"/>
</g>
<!-- &#45;18 -->
<g id="node18" class="node">
<title>&#45;18</title>
<polygon fill="#d3d3d3" stroke="#000000" points="1708.5,-292.8772 1679.5,-292.8772 1679.5,-274.8772 1708.5,-274.8772 1708.5,-292.8772"/>
<text text-anchor="middle" x="1694" y="-281.6772" font-family="Times,serif" font-size="9.00" fill="#000000">&#45;18</text>
</g>
<!-- &#45;19 -->
<g id="node19" class="node">
<title>&#45;19</title>
<polygon fill="#d3d3d3" stroke="#000000" points="274.5,-118.5391 245.5,-118.5391 245.5,-100.5391 274.5,-100.5391 274.5,-118.5391"/>
<text text-anchor="middle" x="260" y="-107.3391" font-family="Times,serif" font-size="9.00" fill="#000000">&#45;19</text>
</g>
<!-- &#45;19&#45;&gt;1 -->
<g id="edge5" class="edge">
<title>&#45;19&#45;&gt;1</title>
<path fill="none" stroke="#00ff00" stroke-width=".1383" stroke-dasharray="1,5" d="M264.3893,-100.5121C268.3006,-93.4285 274.6893,-83.8822 283,-78.4264 318.5067,-55.1171 440.8507,-34.4371 498.9269,-25.669"/>
<polygon fill="#00ff00" stroke="#00ff00" stroke-width=".1383" points="499.6115,-29.1058 508.9877,-24.1725 498.5815,-22.182 499.6115,-29.1058"/>
</g>
<!-- &#45;20 -->
<g id="node20" class="node">
<title>&#45;20</title>
<polygon fill="#d3d3d3" stroke="#000000" points="1015.5,-118.5391 986.5,-118.5391 986.5,-100.5391 1015.5,-100.5391 1015.5,-118.5391"/>
<text text-anchor="middle" x="1001" y="-107.3391" font-family="Times,serif" font-size="9.00" fill="#000000">&#45;20</text>
</g>
<!-- &#45;20&#45;&gt;A XOR B -->
<g id="edge6" class="edge">
<title>&#45;20&#45;&gt;A XOR B</title>
<path fill="none" stroke="#00ff00" stroke-width=".2579" stroke-dasharray="1,5" d="M1007.7419,-100.311C1013.1236,-93.4921 1021.1993,-84.3938 1030,-78.4264 1066.4521,-53.7097 1115.1177,-37.4686 1146.2661,-28.8085"/>
<polygon fill="#00ff00" stroke="#00ff00" stroke-width=".2579" points="1147.3665,-32.1371 1156.115,-26.161 1145.5492,-25.3771 1147.3665,-32.1371"/>
</g>
<!-- &#45;20&#45;&gt;1 -->
<g id="edge26" class="edge">
<title>&#45;20&#45;&gt;1</title>
<path fill="none" stroke="#00ff00" stroke-width=".2288" stroke-dasharray="1,5" d="M996.4664,-100.2801C992.412,-93.0618 985.7591,-83.4477 977,-78.4264 905.8243,-37.6244 651.2645,-25.2768 561.5602,-22.1461"/>
<polygon fill="#00ff00" stroke="#00ff00" stroke-width=".2288" points="561.5726,-18.6446 551.4612,-21.8087 561.3388,-25.6407 561.5726,-18.6446"/>
</g>
<!-- &#45;21 -->
<g id="node21" class="node">
<title>&#45;21</title>
<polygon fill="#d3d3d3" stroke="#000000" points="321.5,-118.5391 292.5,-118.5391 292.5,-100.5391 321.5,-100.5391 321.5,-118.5391"/>
<text text-anchor="middle" x="307" y="-107.3391" font-family="Times,serif" font-size="9.00" fill="#000000">&#45;21</text>
</g>
<!-- &#45;21&#45;&gt;1 -->
<g id="edge25" class="edge">
<title>&#45;21&#45;&gt;1</title>
<path fill="none" stroke="#ff0000" stroke-width=".1146" stroke-dasharray="1,5" d="M313.3822,-100.3823C318.6869,-93.4174 326.8298,-84.0949 336,-78.4264 387.8212,-46.3932 458.5068,-31.5008 498.6856,-25.2289"/>
<polygon fill="#ff0000" stroke="#ff0000" stroke-width=".1146" points="499.3112,-28.6745 508.6909,-23.7479 498.2862,-21.75 499.3112,-28.6745"/>
</g>
<!-- &#45;22 -->
<g id="node22" class="node">
<title>&#45;22</title>
<polygon fill="#d3d3d3" stroke="#000000" points="831.5,-118.5391 802.5,-118.5391 802.5,-100.5391 831.5,-100.5391 831.5,-118.5391"/>
<text text-anchor="middle" x="817" y="-107.3391" font-family="Times,serif" font-size="9.00" fill="#000000">&#45;22</text>
</g>
<!-- &#45;22&#45;&gt;A XOR B -->
<g id="edge31" class="edge">
<title>&#45;22&#45;&gt;A XOR B</title>
<path fill="none" stroke="#ff0000" stroke-width=".1326" d="M821.3046,-100.379C825.1669,-93.218 831.5309,-83.6328 840,-78.4264 891.1972,-46.9532 1072.3274,-29.4688 1145.7461,-23.5387"/>
<polygon fill="#ff0000" stroke="#ff0000" stroke-width=".1326" points="1146.0751,-27.0237 1155.7686,-22.7473 1145.5241,-20.0454 1146.0751,-27.0237"/>
</g>
<!-- &#45;22&#45;&gt;1 -->
<g id="edge15" class="edge">
<title>&#45;22&#45;&gt;1</title>
<path fill="none" stroke="#00ff00" stroke-width=".3064" d="M812.3456,-100.4807C808.221,-93.3789 801.5328,-83.8234 793,-78.4264 754.5348,-54.0971 622.3203,-33.6655 561.3072,-25.2875"/>
<polygon fill="#00ff00" stroke="#00ff00" stroke-width=".3064" points="561.5018,-21.782 551.123,-23.9105 560.5638,-28.7189 561.5018,-21.782"/>
</g>
<!-- 155392&#45;&gt;A XOR B -->
<g id="edge43" class="edge">
<title>155392&#45;&gt;A XOR B</title>
<path fill="none" stroke="#00ff00" stroke-width=".199" stroke-dasharray="1,5" d="M1443.2892,-90.0035C1436.9482,-85.6936 1429.9481,-81.5019 1423,-78.4264 1349.938,-46.086 1256.2506,-30.798 1208.3164,-24.672"/>
<polygon fill="#00ff00" stroke="#00ff00" stroke-width=".199" points="1208.6066,-21.1814 1198.2544,-23.4359 1207.753,-28.1292 1208.6066,-21.1814"/>
</g>
<!-- 371847&#45;&gt;1182 -->
<g id="edge53" class="edge">
<title>371847&#45;&gt;1182</title>
<path fill="none" stroke="#00ff00" stroke-width=".525" d="M85.7266,-179.3536C91.0137,-167.5508 97.1754,-153.7953 102.6249,-141.63"/>
<polygon fill="#00ff00" stroke="#00ff00" stroke-width=".525" points="105.9183,-142.8393 106.8122,-132.2822 99.5299,-139.9776 105.9183,-142.8393"/>
</g>
<!-- 621&#45;&gt;A XOR B -->
<g id="edge33" class="edge">
<title>621&#45;&gt;A XOR B</title>
<path fill="none" stroke="#ff0000" stroke-width=".4214" stroke-dasharray="1,5" d="M1561.7216,-93.4782C1555.8552,-87.8496 1548.6453,-82.0377 1541,-78.4264 1481.8892,-50.5053 1285.1441,-30.699 1208.2136,-23.8475"/>
<polygon fill="#ff0000" stroke="#ff0000" stroke-width=".4214" points="1208.448,-20.3547 1198.1803,-22.9672 1207.8361,-27.3279 1208.448,-20.3547"/>
</g>
<!-- 13359&#45;&gt;621 -->
<g id="edge38" class="edge">
<title>13359&#45;&gt;621</title>
<path fill="none" stroke="#00ff00" stroke-width=".3402" d="M1540.9817,-182.7239C1547.4784,-169.1464 1555.5355,-152.3079 1562.2828,-138.2067"/>
<polygon fill="#00ff00" stroke="#00ff00" stroke-width=".3402" points="1565.5504,-139.4866 1566.7095,-128.9554 1559.236,-136.4652 1565.5504,-139.4866"/>
</g>
<!-- 14195&#45;&gt;1 -->
<g id="edge41" class="edge">
<title>14195&#45;&gt;1</title>
<path fill="none" stroke="#00ff00" stroke-width=".1798" d="M428.1467,-92.9511C434.5276,-88.2214 441.5165,-83.0882 448,-78.4264 466.5509,-65.0877 487.7031,-50.3406 503.8775,-39.1595"/>
<polygon fill="#00ff00" stroke="#00ff00" stroke-width=".1798" points="506.0597,-41.9062 512.303,-33.3463 502.0844,-36.1445 506.0597,-41.9062"/>
</g>
<!-- 193587&#45;&gt;1 -->
<g id="edge46" class="edge">
<title>193587&#45;&gt;1</title>
<path fill="none" stroke="#00ff00" stroke-width=".1051" stroke-dasharray="1,5" d="M728.1011,-90.406C721.7657,-86.0839 714.8154,-81.7858 708,-78.4264 658.8438,-54.1968 597.1042,-37.0415 560.7594,-28.1681"/>
<polygon fill="#00ff00" stroke="#00ff00" stroke-width=".1051" points="561.3148,-24.7024 550.7753,-25.7836 559.6887,-31.5109 561.3148,-24.7024"/>
</g>
<!-- 370100&#45;&gt;A XOR B -->
<g id="edge51" class="edge">
<title>370100&#45;&gt;A XOR B</title>
<path fill="none" stroke="#00ff00" stroke-width=".1131" d="M1234.0974,-85.8694C1222.9182,-73.2102 1209.1897,-57.6643 1197.9963,-44.989"/>
<polygon fill="#00ff00" stroke="#00ff00" stroke-width=".1131" points="1200.3017,-42.3121 1191.0589,-37.1333 1195.0548,-46.9457 1200.3017,-42.3121"/>
</g>
<!-- 331934&#45;&gt;1 -->
<g id="edge48" class="edge">
<title>331934&#45;&gt;1</title>
<path fill="none" stroke="#ff0000" stroke-width=".1002" d="M549.1819,-79.636C546.1651,-70.4477 542.8454,-60.3368 539.828,-51.1465"/>
<polygon fill="#ff0000" stroke="#ff0000" stroke-width=".1002" points="543.1459,-50.0317 536.701,-41.6225 536.4952,-52.2154 543.1459,-50.0317"/>
</g>
<!-- 1182&#45;&gt;1 -->
<g id="edge36" class="edge">
<title>1182&#45;&gt;1</title>
<path fill="none" stroke="#ff0000" stroke-width=".1421" stroke-dasharray="1,5" d="M134.7337,-92.1779C140.9941,-86.9693 148.3828,-81.7606 156,-78.4264 217.6375,-51.447 420.1343,-31.0088 498.572,-23.9202"/>
<polygon fill="#ff0000" stroke="#ff0000" stroke-width=".1421" points="499.1394,-27.3836 508.789,-23.0093 498.5177,-20.4112 499.1394,-27.3836"/>
</g>
</g>
</svg>
