<?xml version="1.0" encoding="UTF-8" standalone="no"?>
<!DOCTYPE svg PUBLIC "-//W3C//DTD SVG 1.1//EN"
 "http://www.w3.org/Graphics/SVG/1.1/DTD/svg11.dtd">
<!-- Generated by graphviz version 2.40.1 (20161225.0304)
 -->
<!-- Title: %3 Pages: 1 -->
<svg width="1628pt" height="307pt"
 viewBox="0.00 0.00 1627.93 306.53" xmlns="http://www.w3.org/2000/svg" xmlns:xlink="http://www.w3.org/1999/xlink">
<g id="graph0" class="graph" transform="scale(1 1) rotate(0) translate(4 302.5341)">
<title>%3</title>
<polygon fill="#ffffff" stroke="transparent" points="-4,4 -4,-302.5341 1623.9274,-302.5341 1623.9274,4 -4,4"/>
<!-- A -->
<g id="node1" class="node">
<title>A</title>
<polygon fill="#d3d3d3" stroke="#000000" points="1559.5,-121.3675 1535.5,-121.3675 1535.5,-103.3675 1559.5,-103.3675 1559.5,-121.3675"/>
<text text-anchor="middle" x="1547.5" y="-110.1675" font-family="Times,serif" font-size="9.00" fill="#000000">&#45;1</text>
</g>
<!-- 1 -->
<g id="node26" class="node">
<title>1</title>
<ellipse fill="#add8e6" stroke="#000000" cx="1225.5" cy="-21.2132" rx="21.4286" ry="21.4286"/>
<text text-anchor="middle" x="1225.5" y="-24.0132" font-family="Times,serif" font-size="9.00" fill="#000000">1</text>
<text text-anchor="middle" x="1225.5" y="-14.0132" font-family="Times,serif" font-size="9.00" fill="#000000">relu</text>
</g>
<!-- A&#45;&gt;1 -->
<g id="edge15" class="edge">
<title>A&#45;&gt;1</title>
<path fill="none" stroke="#ff0000" stroke-width=".4382" d="M1544.2157,-103.0683C1540.9552,-95.2401 1535.1792,-84.3933 1526.5,-78.4264 1482.8125,-48.3916 1324.6622,-30.4417 1256.7914,-23.967"/>
<polygon fill="#ff0000" stroke="#ff0000" stroke-width=".4382" points="1256.9868,-20.4701 1246.705,-23.0263 1256.3367,-27.4399 1256.9868,-20.4701"/>
</g>
<!-- B -->
<g id="node2" class="node">
<title>B</title>
<polygon fill="#d3d3d3" stroke="#000000" points="1531.5,-222.4214 1507.5,-222.4214 1507.5,-204.4214 1531.5,-204.4214 1531.5,-222.4214"/>
<text text-anchor="middle" x="1519.5" y="-211.2214" font-family="Times,serif" font-size="9.00" fill="#000000">&#45;2</text>
</g>
<!-- B&#45;&gt;1 -->
<g id="edge22" class="edge">
<title>B&#45;&gt;1</title>
<path fill="none" stroke="#ff0000" stroke-width=".7601" d="M1531.7603,-206.2037C1548.4922,-195.552 1577.7409,-173.8731 1589.5,-146.3087 1601.3383,-118.5584 1609.1073,-101.3562 1589.5,-78.4264 1567.8712,-53.1324 1340.8789,-31.155 1256.6907,-23.8161"/>
<polygon fill="#ff0000" stroke="#ff0000" stroke-width=".7601" points="1256.963,-20.3267 1246.6995,-22.9557 1256.3623,-27.3009 1256.963,-20.3267"/>
</g>
<!-- 649 -->
<g id="node29" class="node">
<title>649</title>
<ellipse fill="#ffffff" stroke="#000000" cx="488.5" cy="-112.3675" rx="21.4286" ry="21.4286"/>
<text text-anchor="middle" x="488.5" y="-115.1675" font-family="Times,serif" font-size="9.00" fill="#000000">649</text>
<text text-anchor="middle" x="488.5" y="-105.1675" font-family="Times,serif" font-size="9.00" fill="#000000">relu</text>
</g>
<!-- B&#45;&gt;649 -->
<g id="edge20" class="edge">
<title>B&#45;&gt;649</title>
<path fill="none" stroke="#00ff00" stroke-width=".1156" d="M1507.2672,-212.1945C1463.3615,-207.812 1309.5806,-192.6413 1182.5,-182.3087 955.133,-163.822 896.772,-175.2661 670.5,-146.3087 616.9626,-139.4571 555.3514,-126.9902 519.2942,-119.2228"/>
<polygon fill="#00ff00" stroke="#00ff00" stroke-width=".1156" points="519.911,-115.7752 509.3956,-117.0698 518.4233,-122.6152 519.911,-115.7752"/>
</g>
<!-- &#45;3 -->
<g id="node3" class="node">
<title>&#45;3</title>
<polygon fill="#d3d3d3" stroke="#000000" points="635.5,-222.4214 611.5,-222.4214 611.5,-204.4214 635.5,-204.4214 635.5,-222.4214"/>
<text text-anchor="middle" x="623.5" y="-211.2214" font-family="Times,serif" font-size="9.00" fill="#000000">&#45;3</text>
</g>
<!-- &#45;3&#45;&gt;649 -->
<g id="edge61" class="edge">
<title>&#45;3&#45;&gt;649</title>
<path fill="none" stroke="#00ff00" stroke-width=".1167" d="M617.5097,-204.3525C612.7131,-197.617 605.4846,-188.5534 597.5,-182.3087 568.6904,-159.7768 553.4485,-167.3031 523.5,-146.3087 518.9083,-143.0898 514.3491,-139.2638 510.1132,-135.3606"/>
<polygon fill="#00ff00" stroke="#00ff00" stroke-width=".1167" points="512.5157,-132.8149 502.9003,-128.3657 507.6424,-137.84 512.5157,-132.8149"/>
</g>
<!-- &#45;4 -->
<g id="node4" class="node">
<title>&#45;4</title>
<polygon fill="#d3d3d3" stroke="#000000" points="1427.5,-121.3675 1403.5,-121.3675 1403.5,-103.3675 1427.5,-103.3675 1427.5,-121.3675"/>
<text text-anchor="middle" x="1415.5" y="-110.1675" font-family="Times,serif" font-size="9.00" fill="#000000">&#45;4</text>
</g>
<!-- &#45;4&#45;&gt;1 -->
<g id="edge13" class="edge">
<title>&#45;4&#45;&gt;1</title>
<path fill="none" stroke="#ff0000" stroke-width=".3643" d="M1410.4581,-103.0863C1405.8964,-95.4844 1398.5203,-84.9535 1389.5,-78.4264 1348.7627,-48.9491 1291.5135,-33.5985 1256.547,-26.4779"/>
<polygon fill="#ff0000" stroke="#ff0000" stroke-width=".3643" points="1256.9363,-22.9884 1246.4536,-24.5258 1255.6071,-29.8611 1256.9363,-22.9884"/>
</g>
<!-- &#45;5 -->
<g id="node5" class="node">
<title>&#45;5</title>
<polygon fill="#d3d3d3" stroke="#000000" points="1469.5,-121.3675 1445.5,-121.3675 1445.5,-103.3675 1469.5,-103.3675 1469.5,-121.3675"/>
<text text-anchor="middle" x="1457.5" y="-110.1675" font-family="Times,serif" font-size="9.00" fill="#000000">&#45;5</text>
</g>
<!-- &#45;5&#45;&gt;1 -->
<g id="edge16" class="edge">
<title>&#45;5&#45;&gt;1</title>
<path fill="none" stroke="#ff0000" stroke-width=".4177" d="M1454.0989,-103.2314C1450.7635,-95.5077 1444.9433,-84.7227 1436.5,-78.4264 1407.9637,-57.1463 1307.9635,-36.3343 1256.5465,-26.7293"/>
<polygon fill="#ff0000" stroke="#ff0000" stroke-width=".4177" points="1257.1191,-23.2759 1246.6506,-24.9072 1255.8515,-30.1602 1257.1191,-23.2759"/>
</g>
<!-- &#45;6 -->
<g id="node6" class="node">
<title>&#45;6</title>
<polygon fill="#d3d3d3" stroke="#000000" points="857.5,-222.4214 833.5,-222.4214 833.5,-204.4214 857.5,-204.4214 857.5,-222.4214"/>
<text text-anchor="middle" x="845.5" y="-211.2214" font-family="Times,serif" font-size="9.00" fill="#000000">&#45;6</text>
</g>
<!-- &#45;6&#45;&gt;1 -->
<g id="edge27" class="edge">
<title>&#45;6&#45;&gt;1</title>
<path fill="none" stroke="#00ff00" stroke-width=".1469" d="M849.1476,-204.1381C852.51,-196.9057 858.2378,-187.2845 866.5,-182.3087 930.6398,-143.6814 1146.4185,-197.0236 1201.5,-146.3087 1226.8891,-122.9323 1230.2421,-81.5674 1228.9907,-52.8337"/>
<polygon fill="#00ff00" stroke="#00ff00" stroke-width=".1469" points="1232.4608,-52.2566 1228.322,-42.5036 1225.4754,-52.7088 1232.4608,-52.2566"/>
</g>
<!-- &#45;6&#45;&gt;649 -->
<g id="edge48" class="edge">
<title>&#45;6&#45;&gt;649</title>
<path fill="none" stroke="#00ff00" stroke-width=".1762" d="M841.4492,-204.3167C837.7935,-197.1879 831.7257,-187.6189 823.5,-182.3087 752.7593,-136.641 719.8933,-163.6616 637.5,-146.3087 596.3951,-137.6515 549.1398,-126.7197 519.0655,-119.6385"/>
<polygon fill="#00ff00" stroke="#00ff00" stroke-width=".1762" points="519.7193,-116.1967 509.1826,-117.3044 518.1103,-123.0093 519.7193,-116.1967"/>
</g>
<!-- &#45;7 -->
<g id="node7" class="node">
<title>&#45;7</title>
<polygon fill="#d3d3d3" stroke="#000000" points="303.5,-222.4214 279.5,-222.4214 279.5,-204.4214 303.5,-204.4214 303.5,-222.4214"/>
<text text-anchor="middle" x="291.5" y="-211.2214" font-family="Times,serif" font-size="9.00" fill="#000000">&#45;7</text>
</g>
<!-- A XOR B -->
<g id="node25" class="node">
<title>A XOR B</title>
<ellipse fill="#add8e6" stroke="#000000" cx="513.5" cy="-21.2132" rx="21.4286" ry="21.4286"/>
<text text-anchor="middle" x="513.5" y="-24.0132" font-family="Times,serif" font-size="9.00" fill="#000000">0</text>
<text text-anchor="middle" x="513.5" y="-14.0132" font-family="Times,serif" font-size="9.00" fill="#000000">relu</text>
</g>
<!-- &#45;7&#45;&gt;A XOR B -->
<g id="edge30" class="edge">
<title>&#45;7&#45;&gt;A XOR B</title>
<path fill="none" stroke="#00ff00" stroke-width=".472" d="M289.554,-204.2001C285.0739,-180.2294 276.7093,-115.2669 308.5,-78.4264 331.1407,-52.1894 430.6638,-33.6845 482.2468,-25.6669"/>
<polygon fill="#00ff00" stroke="#00ff00" stroke-width=".472" points="482.8223,-29.1198 492.1845,-24.1601 481.7728,-22.1989 482.8223,-29.1198"/>
</g>
<!-- &#45;7&#45;&gt;649 -->
<g id="edge17" class="edge">
<title>&#45;7&#45;&gt;649</title>
<path fill="none" stroke="#ff0000" stroke-width=".2171" d="M295.8436,-204.1451C299.4587,-197.3011 305.1894,-188.1923 312.5,-182.3087 335.7884,-163.5661 414.7892,-136.1623 458.6082,-121.8574"/>
<polygon fill="#ff0000" stroke="#ff0000" stroke-width=".2171" points="459.7291,-125.1735 468.1647,-118.7633 457.5728,-118.5138 459.7291,-125.1735"/>
</g>
<!-- &#45;8 -->
<g id="node8" class="node">
<title>&#45;8</title>
<polygon fill="#d3d3d3" stroke="#000000" points="1173.5,-222.4214 1149.5,-222.4214 1149.5,-204.4214 1173.5,-204.4214 1173.5,-222.4214"/>
<text text-anchor="middle" x="1161.5" y="-211.2214" font-family="Times,serif" font-size="9.00" fill="#000000">&#45;8</text>
</g>
<!-- &#45;8&#45;&gt;A XOR B -->
<g id="edge49" class="edge">
<title>&#45;8&#45;&gt;A XOR B</title>
<path fill="none" stroke="#00ff00" stroke-width=".3955" d="M1149.1724,-211.1969C1090.9626,-200.6565 845.8756,-155.853 832.5,-146.3087 803.9948,-125.9684 820.9947,-98.7814 792.5,-78.4264 752.8629,-50.1119 608.9693,-31.4909 544.7816,-24.4147"/>
<polygon fill="#00ff00" stroke="#00ff00" stroke-width=".3955" points="545.1524,-20.9345 534.8344,-23.3406 544.4008,-27.8941 545.1524,-20.9345"/>
</g>
<!-- &#45;8&#45;&gt;1 -->
<g id="edge32" class="edge">
<title>&#45;8&#45;&gt;1</title>
<path fill="none" stroke="#ff0000" stroke-width=".2744" d="M1173.6643,-212.3442C1238.558,-206.4784 1542.0303,-177.5006 1568.5,-146.3087 1588.0209,-123.3052 1587.9995,-101.4479 1568.5,-78.4264 1548.3582,-54.6466 1337.5724,-32.007 1256.7775,-24.1381"/>
<polygon fill="#ff0000" stroke="#ff0000" stroke-width=".2744" points="1256.9995,-20.6433 1246.71,-23.1687 1256.3285,-27.6111 1256.9995,-20.6433"/>
</g>
<!-- &#45;8&#45;&gt;649 -->
<g id="edge51" class="edge">
<title>&#45;8&#45;&gt;649</title>
<path fill="none" stroke="#ff0000" stroke-width=".1506" stroke-dasharray="1,5" d="M1149.3153,-211.0727C1120.3207,-205.5369 1044.9053,-191.4509 981.5,-182.3087 843.779,-162.4511 808.0867,-167.0757 670.5,-146.3087 617.1305,-138.2532 555.4669,-126.1617 519.3538,-118.7952"/>
<polygon fill="#ff0000" stroke="#ff0000" stroke-width=".1506" points="519.9383,-115.3423 509.4388,-116.7603 518.5309,-122.1994 519.9383,-115.3423"/>
</g>
<!-- 83406 -->
<g id="node30" class="node">
<title>83406</title>
<ellipse fill="#ffffff" stroke="#000000" cx="1319.5" cy="-112.3675" rx="27.6545" ry="27.6545"/>
<text text-anchor="middle" x="1319.5" y="-115.1675" font-family="Times,serif" font-size="9.00" fill="#000000">83406</text>
<text text-anchor="middle" x="1319.5" y="-105.1675" font-family="Times,serif" font-size="9.00" fill="#000000">relu</text>
</g>
<!-- &#45;8&#45;&gt;83406 -->
<g id="edge55" class="edge">
<title>&#45;8&#45;&gt;83406</title>
<path fill="none" stroke="#ff0000" stroke-width=".1294" d="M1173.7306,-207.1544C1195.3031,-195.9254 1241.2588,-171.2139 1277.5,-146.3087 1281.7375,-143.3966 1286.087,-140.1746 1290.306,-136.9089"/>
<polygon fill="#ff0000" stroke="#ff0000" stroke-width=".1294" points="1292.5395,-139.6046 1298.1948,-130.6454 1288.1868,-134.1225 1292.5395,-139.6046"/>
</g>
<!-- &#45;9 -->
<g id="node9" class="node">
<title>&#45;9</title>
<polygon fill="#d3d3d3" stroke="#000000" points="865.5,-121.3675 841.5,-121.3675 841.5,-103.3675 865.5,-103.3675 865.5,-121.3675"/>
<text text-anchor="middle" x="853.5" y="-110.1675" font-family="Times,serif" font-size="9.00" fill="#000000">&#45;9</text>
</g>
<!-- &#45;9&#45;&gt;A XOR B -->
<g id="edge6" class="edge">
<title>&#45;9&#45;&gt;A XOR B</title>
<path fill="none" stroke="#00ff00" stroke-width=".2464" stroke-dasharray="1,5" d="M849.0515,-103.336C844.6809,-95.4598 837.2532,-84.3883 827.5,-78.4264 780.1696,-49.4943 614.7994,-30.8211 544.9833,-24.0574"/>
<polygon fill="#00ff00" stroke="#00ff00" stroke-width=".2464" points="545.302,-20.572 535.0157,-23.1102 544.6397,-27.5406 545.302,-20.572"/>
</g>
<!-- &#45;9&#45;&gt;1 -->
<g id="edge5" class="edge">
<title>&#45;9&#45;&gt;1</title>
<path fill="none" stroke="#00ff00" stroke-width=".1769" stroke-dasharray="1,5" d="M856.6194,-103.3205C859.8307,-95.434 865.628,-84.3558 874.5,-78.4264 926.7291,-43.5201 1117.7054,-27.957 1193.85,-23.0412"/>
<polygon fill="#00ff00" stroke="#00ff00" stroke-width=".1769" points="1194.4592,-26.51 1204.221,-22.3921 1194.0219,-19.5236 1194.4592,-26.51"/>
</g>
<!-- &#45;10 -->
<g id="node10" class="node">
<title>&#45;10</title>
<polygon fill="#d3d3d3" stroke="#000000" points="598,-298.5341 569,-298.5341 569,-280.5341 598,-280.5341 598,-298.5341"/>
<text text-anchor="middle" x="583.5" y="-287.3341" font-family="Times,serif" font-size="9.00" fill="#000000">&#45;10</text>
</g>
<!-- &#45;10&#45;&gt;A XOR B -->
<g id="edge18" class="edge">
<title>&#45;10&#45;&gt;A XOR B</title>
<path fill="none" stroke="#00ff00" stroke-width=".4293" d="M568.7264,-288.1572C504.0606,-282.0619 248.6682,-257.2489 237.5,-244.5341 188.7799,-189.0672 190.8956,-135.6824 237.5,-78.4264 268.0795,-40.8578 416.4304,-27.179 482.1059,-22.9083"/>
<polygon fill="#00ff00" stroke="#00ff00" stroke-width=".4293" points="482.5062,-26.3904 492.2712,-22.2801 482.0743,-19.4037 482.5062,-26.3904"/>
</g>
<!-- &#45;10&#45;&gt;649 -->
<g id="edge41" class="edge">
<title>&#45;10&#45;&gt;649</title>
<path fill="none" stroke="#00ff00" stroke-width=".2298" d="M583.7109,-280.2577C583.7558,-260.8023 581.7503,-214.8447 563.5,-182.3087 551.7991,-161.4487 540.9769,-162.6368 523.5,-146.3087 519.4024,-142.4804 515.0817,-138.3605 510.9276,-134.3563"/>
<polygon fill="#00ff00" stroke="#00ff00" stroke-width=".2298" points="513.3301,-131.8106 503.7147,-127.3615 508.457,-136.8358 513.3301,-131.8106"/>
</g>
<!-- 9522 -->
<g id="node32" class="node">
<title>9522</title>
<ellipse fill="#ffffff" stroke="#000000" cx="947.5" cy="-213.4214" rx="25" ry="25"/>
<text text-anchor="middle" x="947.5" y="-216.2214" font-family="Times,serif" font-size="9.00" fill="#000000">9522</text>
<text text-anchor="middle" x="947.5" y="-206.2214" font-family="Times,serif" font-size="9.00" fill="#000000">relu</text>
</g>
<!-- &#45;10&#45;&gt;9522 -->
<g id="edge57" class="edge">
<title>&#45;10&#45;&gt;9522</title>
<path fill="none" stroke="#00ff00" stroke-width=".1064" stroke-dasharray="1,5" d="M598.208,-288.6931C654.5078,-285.2968 856.0392,-271.4667 913.5,-244.5341 916.887,-242.9465 920.1708,-240.9013 923.2761,-238.6184"/>
<polygon fill="#00ff00" stroke="#00ff00" stroke-width=".1064" points="925.5772,-241.2569 931.0277,-232.1716 921.1012,-235.8749 925.5772,-241.2569"/>
</g>
<!-- &#45;11 -->
<g id="node11" class="node">
<title>&#45;11</title>
<polygon fill="#d3d3d3" stroke="#000000" points="960,-121.3675 931,-121.3675 931,-103.3675 960,-103.3675 960,-121.3675"/>
<text text-anchor="middle" x="945.5" y="-110.1675" font-family="Times,serif" font-size="9.00" fill="#000000">&#45;11</text>
</g>
<!-- &#45;11&#45;&gt;A XOR B -->
<g id="edge3" class="edge">
<title>&#45;11&#45;&gt;A XOR B</title>
<path fill="none" stroke="#00ff00" stroke-width=".5654" d="M941.6259,-103.2511C937.7478,-95.3178 930.9905,-84.2101 921.5,-78.4264 858.0949,-39.786 629.1741,-26.1897 544.9139,-22.4308"/>
<polygon fill="#00ff00" stroke="#00ff00" stroke-width=".5654" points="545.0618,-18.9341 534.9207,-22.0013 544.7611,-25.9276 545.0618,-18.9341"/>
</g>
<!-- &#45;11&#45;&gt;1 -->
<g id="edge31" class="edge">
<title>&#45;11&#45;&gt;1</title>
<path fill="none" stroke="#00ff00" stroke-width=".2289" d="M949.3737,-103.1261C953.1221,-95.3349 959.5529,-84.51 968.5,-78.4264 1005.2288,-53.4528 1134.2908,-33.4257 1194.3391,-25.2261"/>
<polygon fill="#00ff00" stroke="#00ff00" stroke-width=".2289" points="1194.9287,-28.6784 1204.3739,-23.8786 1193.997,-21.7407 1194.9287,-28.6784"/>
</g>
<!-- &#45;12 -->
<g id="node12" class="node">
<title>&#45;12</title>
<polygon fill="#d3d3d3" stroke="#000000" points="461,-298.5341 432,-298.5341 432,-280.5341 461,-280.5341 461,-298.5341"/>
<text text-anchor="middle" x="446.5" y="-287.3341" font-family="Times,serif" font-size="9.00" fill="#000000">&#45;12</text>
</g>
<!-- &#45;12&#45;&gt;A XOR B -->
<g id="edge25" class="edge">
<title>&#45;12&#45;&gt;A XOR B</title>
<path fill="none" stroke="#00ff00" stroke-width=".6739" d="M431.6108,-288.6501C369.8102,-284.8325 135.7387,-268.8456 114.5,-244.5341 96.3051,-223.7066 108.8867,-209.3887 114.5,-182.3087 124.7126,-133.0404 119.7858,-109.3204 159.5,-78.4264 209.7165,-39.3626 405.3953,-26.2059 482.2574,-22.4887"/>
<polygon fill="#00ff00" stroke="#00ff00" stroke-width=".6739" points="482.4592,-25.9832 492.2869,-22.0251 482.1359,-18.9906 482.4592,-25.9832"/>
</g>
<!-- &#45;12&#45;&gt;649 -->
<g id="edge36" class="edge">
<title>&#45;12&#45;&gt;649</title>
<path fill="none" stroke="#ff0000" stroke-width=".4058" d="M443.2119,-280.3578C436.964,-261.4693 424.9847,-217.0971 436.5,-182.3087 442.4457,-164.3465 454.9899,-147.2443 466.2678,-134.4477"/>
<polygon fill="#ff0000" stroke="#ff0000" stroke-width=".4058" points="468.8624,-136.7968 473.0559,-127.0672 463.7102,-132.0582 468.8624,-136.7968"/>
</g>
<!-- &#45;12&#45;&gt;9522 -->
<g id="edge53" class="edge">
<title>&#45;12&#45;&gt;9522</title>
<path fill="none" stroke="#00ff00" stroke-width=".2648" d="M461.2767,-288.3754C538.4299,-282.2926 892.2903,-253.9695 913.5,-244.5341 916.9176,-243.0137 920.2209,-241.011 923.3376,-238.7529"/>
<polygon fill="#00ff00" stroke="#00ff00" stroke-width=".2648" points="925.6244,-241.4036 931.1023,-232.3348 921.1646,-236.0082 925.6244,-241.4036"/>
</g>
<!-- 599542 -->
<g id="node33" class="node">
<title>599542</title>
<ellipse fill="#ffffff" stroke="#000000" cx="476.5" cy="-213.4214" rx="31.2258" ry="31.2258"/>
<text text-anchor="middle" x="476.5" y="-216.2214" font-family="Times,serif" font-size="9.00" fill="#000000">599542</text>
<text text-anchor="middle" x="476.5" y="-206.2214" font-family="Times,serif" font-size="9.00" fill="#000000">relu</text>
</g>
<!-- &#45;12&#45;&gt;599542 -->
<g id="edge66" class="edge">
<title>&#45;12&#45;&gt;599542</title>
<path fill="none" stroke="#00ff00" stroke-width=".3149" d="M450.0592,-280.504C452.9163,-273.2554 457.1367,-262.5479 461.3708,-251.8055"/>
<polygon fill="#00ff00" stroke="#00ff00" stroke-width=".3149" points="464.6505,-253.0292 465.0613,-242.4423 458.1381,-250.4622 464.6505,-253.0292"/>
</g>
<!-- &#45;13 -->
<g id="node13" class="node">
<title>&#45;13</title>
<polygon fill="#d3d3d3" stroke="#000000" points="820,-298.5341 791,-298.5341 791,-280.5341 820,-280.5341 820,-298.5341"/>
<text text-anchor="middle" x="805.5" y="-287.3341" font-family="Times,serif" font-size="9.00" fill="#000000">&#45;13</text>
</g>
<!-- &#45;13&#45;&gt;A XOR B -->
<g id="edge14" class="edge">
<title>&#45;13&#45;&gt;A XOR B</title>
<path fill="none" stroke="#ff0000" stroke-width=".2651" d="M790.9014,-288.8592C706.9386,-284.9095 288.6572,-264.2826 270.5,-244.5341 251.4715,-223.8378 267.1341,-94.8969 281.5,-78.4264 307.6298,-48.4686 424.6592,-31.3006 481.8442,-24.5624"/>
<polygon fill="#ff0000" stroke="#ff0000" stroke-width=".2651" points="482.5767,-28.0015 492.1147,-23.3889 481.782,-21.0468 482.5767,-28.0015"/>
</g>
<!-- &#45;13&#45;&gt;1 -->
<g id="edge8" class="edge">
<title>&#45;13&#45;&gt;1</title>
<path fill="none" stroke="#00ff00" stroke-width=".3367" d="M820.0284,-289.4014C917.5932,-288.4122 1475.4857,-281.1747 1540.5,-244.5341 1586.756,-218.4652 1592.6688,-196.9898 1608.5,-146.3087 1617.4955,-117.511 1628.1945,-101.2814 1608.5,-78.4264 1585.5391,-51.7808 1344.1773,-30.4662 1256.8292,-23.5727"/>
<polygon fill="#00ff00" stroke="#00ff00" stroke-width=".3367" points="1256.972,-20.0733 1246.7304,-22.786 1256.4283,-27.0522 1256.972,-20.0733"/>
</g>
<!-- &#45;13&#45;&gt;649 -->
<g id="edge26" class="edge">
<title>&#45;13&#45;&gt;649</title>
<path fill="none" stroke="#00ff00" stroke-width=".2557" d="M790.677,-287.3638C765.8578,-283.0763 715.3847,-271.4899 682.5,-244.5341 657.4388,-223.9912 670.2253,-202.0135 644.5,-182.3087 599.281,-147.6722 570.2937,-175.6961 521.5,-146.3087 517.0382,-143.6214 512.7631,-140.1846 508.8557,-136.534"/>
<polygon fill="#00ff00" stroke="#00ff00" stroke-width=".2557" points="511.346,-134.0746 501.8424,-129.3912 506.3511,-138.9788 511.346,-134.0746"/>
</g>
<!-- &#45;13&#45;&gt;9522 -->
<g id="edge60" class="edge">
<title>&#45;13&#45;&gt;9522</title>
<path fill="none" stroke="#ff0000" stroke-width=".2093" d="M820.2544,-285.1907C841.8055,-278.4585 882.6774,-264.2008 913.5,-244.5341 916.491,-242.6256 919.466,-240.4448 922.3408,-238.1432"/>
<polygon fill="#ff0000" stroke="#ff0000" stroke-width=".2093" points="924.8082,-240.6375 930.1072,-231.463 920.2435,-235.3306 924.8082,-240.6375"/>
</g>
<!-- &#45;14 -->
<g id="node14" class="node">
<title>&#45;14</title>
<polygon fill="#d3d3d3" stroke="#000000" points="913,-121.3675 884,-121.3675 884,-103.3675 913,-103.3675 913,-121.3675"/>
<text text-anchor="middle" x="898.5" y="-110.1675" font-family="Times,serif" font-size="9.00" fill="#000000">&#45;14</text>
</g>
<!-- &#45;14&#45;&gt;A XOR B -->
<g id="edge4" class="edge">
<title>&#45;14&#45;&gt;A XOR B</title>
<path fill="none" stroke="#ff0000" stroke-width=".8825" d="M894.6011,-103.2914C890.7063,-95.3852 883.9385,-84.2946 874.5,-78.4264 819.4286,-44.1867 622.1852,-28.1511 544.8895,-23.0769"/>
<polygon fill="#ff0000" stroke="#ff0000" stroke-width=".8825" points="545.0089,-19.5775 534.8061,-22.4329 544.5626,-26.5633 545.0089,-19.5775"/>
</g>
<!-- &#45;14&#45;&gt;1 -->
<g id="edge21" class="edge">
<title>&#45;14&#45;&gt;1</title>
<path fill="none" stroke="#ff0000" stroke-width=".1197" d="M902.1792,-103.3604C905.8732,-95.5006 912.3346,-84.4395 921.5,-78.4264 966.2541,-49.0647 1125.6289,-30.7397 1193.9895,-24.0659"/>
<polygon fill="#ff0000" stroke="#ff0000" stroke-width=".1197" points="1194.5265,-27.5306 1204.148,-23.095 1193.8604,-20.5624 1194.5265,-27.5306"/>
</g>
<!-- &#45;15 -->
<g id="node15" class="node">
<title>&#45;15</title>
<polygon fill="#d3d3d3" stroke="#000000" points="768,-222.4214 739,-222.4214 739,-204.4214 768,-204.4214 768,-222.4214"/>
<text text-anchor="middle" x="753.5" y="-211.2214" font-family="Times,serif" font-size="9.00" fill="#000000">&#45;15</text>
</g>
<!-- &#45;15&#45;&gt;A XOR B -->
<g id="edge43" class="edge">
<title>&#45;15&#45;&gt;A XOR B</title>
<path fill="none" stroke="#ff0000" stroke-width=".4786" d="M748.5926,-204.203C744.4091,-197.2042 737.7652,-187.8661 729.5,-182.3087 679.7484,-148.8565 647.464,-182.2771 599.5,-146.3087 571.1165,-125.0238 577.6733,-107.6104 557.5,-78.4264 549.9296,-67.4746 541.0639,-55.7582 533.2821,-45.7985"/>
<polygon fill="#ff0000" stroke="#ff0000" stroke-width=".4786" points="535.9938,-43.5847 527.0526,-37.9008 530.4977,-47.9199 535.9938,-43.5847"/>
</g>
<!-- &#45;15&#45;&gt;1 -->
<g id="edge33" class="edge">
<title>&#45;15&#45;&gt;1</title>
<path fill="none" stroke="#ff0000" stroke-width=".1642" d="M757.5631,-204.4044C761.3563,-197.1255 767.7485,-187.302 776.5,-182.3087 911.9387,-105.0311 995.2061,-231.9764 1125.5,-146.3087 1154.3901,-127.3135 1142.0853,-105.5717 1163.5,-78.4264 1174.3348,-64.6921 1188.5553,-51.3197 1200.6437,-40.9611"/>
<polygon fill="#ff0000" stroke="#ff0000" stroke-width=".1642" points="1203.1785,-43.4039 1208.6042,-34.3037 1198.6878,-38.0341 1203.1785,-43.4039"/>
</g>
<!-- &#45;15&#45;&gt;649 -->
<g id="edge11" class="edge">
<title>&#45;15&#45;&gt;649</title>
<path fill="none" stroke="#00ff00" stroke-width=".2071" d="M748.85,-204.3559C744.7281,-197.2499 738.0412,-187.6924 729.5,-182.3087 664.9005,-141.5899 633.9091,-170.558 561.5,-146.3087 546.143,-141.1657 529.7321,-133.7247 516.3676,-127.1196"/>
<polygon fill="#00ff00" stroke="#00ff00" stroke-width=".2071" points="517.7369,-123.8901 507.2333,-122.5027 514.5792,-130.1374 517.7369,-123.8901"/>
</g>
<!-- &#45;16 -->
<g id="node16" class="node">
<title>&#45;16</title>
<polygon fill="#d3d3d3" stroke="#000000" points="1517,-121.3675 1488,-121.3675 1488,-103.3675 1517,-103.3675 1517,-121.3675"/>
<text text-anchor="middle" x="1502.5" y="-110.1675" font-family="Times,serif" font-size="9.00" fill="#000000">&#45;16</text>
</g>
<!-- &#45;16&#45;&gt;1 -->
<g id="edge37" class="edge">
<title>&#45;16&#45;&gt;1</title>
<path fill="none" stroke="#00ff00" stroke-width=".2132" d="M1498.352,-103.1306C1494.3726,-95.3423 1487.6221,-84.5191 1478.5,-78.4264 1442.2015,-54.1825 1315.7946,-33.8477 1256.5671,-25.4043"/>
<polygon fill="#00ff00" stroke="#00ff00" stroke-width=".2132" points="1257.0488,-21.9377 1246.6593,-24.0138 1256.0758,-28.8698 1257.0488,-21.9377"/>
</g>
<!-- &#45;17 -->
<g id="node17" class="node">
<title>&#45;17</title>
<polygon fill="#d3d3d3" stroke="#000000" points="905,-222.4214 876,-222.4214 876,-204.4214 905,-204.4214 905,-222.4214"/>
<text text-anchor="middle" x="890.5" y="-211.2214" font-family="Times,serif" font-size="9.00" fill="#000000">&#45;17</text>
</g>
<!-- &#45;17&#45;&gt;A XOR B -->
<g id="edge46" class="edge">
<title>&#45;17&#45;&gt;A XOR B</title>
<path fill="none" stroke="#ff0000" stroke-width=".5512" stroke-dasharray="1,5" d="M885.8919,-204.2885C881.7942,-197.1433 875.1195,-187.566 866.5,-182.3087 790.887,-136.1891 743.3703,-196.6501 670.5,-146.3087 641.5012,-126.2752 655.4606,-102.2658 629.5,-78.4264 604.6422,-55.5997 568.9904,-39.8559 543.7861,-30.7461"/>
<polygon fill="#ff0000" stroke="#ff0000" stroke-width=".5512" points="544.6136,-27.3286 534.0188,-27.3573 542.3191,-33.9419 544.6136,-27.3286"/>
</g>
<!-- &#45;17&#45;&gt;1 -->
<g id="edge10" class="edge">
<title>&#45;17&#45;&gt;1</title>
<path fill="none" stroke="#00ff00" stroke-width=".1527" d="M894.5724,-204.4206C898.3712,-197.1515 904.7665,-187.3335 913.5,-182.3087 976.6747,-145.961 1190.8733,-200.6008 1239.5,-146.3087 1262.9762,-120.0973 1251.3825,-77.3704 1239.5473,-49.2726"/>
<polygon fill="#00ff00" stroke="#00ff00" stroke-width=".1527" points="1242.6789,-47.7014 1235.4081,-39.9952 1236.2863,-50.5536 1242.6789,-47.7014"/>
</g>
<!-- 1808704 -->
<g id="node27" class="node">
<title>1808704</title>
<ellipse fill="#ffffff" stroke="#000000" cx="713.5" cy="-112.3675" rx="33.8824" ry="33.8824"/>
<text text-anchor="middle" x="713.5" y="-115.1675" font-family="Times,serif" font-size="9.00" fill="#000000">1808704</text>
<text text-anchor="middle" x="713.5" y="-105.1675" font-family="Times,serif" font-size="9.00" fill="#000000">relu</text>
</g>
<!-- &#45;17&#45;&gt;1808704 -->
<g id="edge69" class="edge">
<title>&#45;17&#45;&gt;1808704</title>
<path fill="none" stroke="#00ff00" stroke-width=".2841" d="M885.498,-204.3393C881.2623,-197.4156 874.5944,-188.1121 866.5,-182.3087 826.4067,-153.5631 805.4193,-168.778 761.5,-146.3087 757.238,-144.1282 752.9264,-141.6073 748.7264,-138.9439"/>
<polygon fill="#00ff00" stroke="#00ff00" stroke-width=".2841" points="750.5768,-135.9711 740.3138,-133.3403 746.6962,-141.797 750.5768,-135.9711"/>
</g>
<!-- &#45;17&#45;&gt;649 -->
<g id="edge39" class="edge">
<title>&#45;17&#45;&gt;649</title>
<path fill="none" stroke="#00ff00" stroke-width=".1444" d="M885.9276,-204.229C881.8506,-197.0494 875.1864,-187.4548 866.5,-182.3087 777.8599,-129.7953 738.6747,-165.7613 637.5,-146.3087 596.2489,-138.3774 549.0282,-127.2736 519.0016,-119.9555"/>
<polygon fill="#00ff00" stroke="#00ff00" stroke-width=".1444" points="519.6817,-116.5186 509.1359,-117.5363 518.0146,-123.3172 519.6817,-116.5186"/>
</g>
<!-- &#45;17&#45;&gt;83406 -->
<g id="edge64" class="edge">
<title>&#45;17&#45;&gt;83406</title>
<path fill="none" stroke="#00ff00" stroke-width=".153" d="M894.5577,-204.395C898.3476,-197.1102 904.738,-187.2836 913.5,-182.3087 1054.869,-102.0412 1127.0864,-207.9835 1277.5,-146.3087 1282.3629,-144.3147 1287.1102,-141.5663 1291.5593,-138.4895"/>
<polygon fill="#00ff00" stroke="#00ff00" stroke-width=".153" points="1293.8714,-141.1279 1299.6995,-132.2801 1289.6258,-135.5623 1293.8714,-141.1279"/>
</g>
<!-- &#45;18 -->
<g id="node18" class="node">
<title>&#45;18</title>
<polygon fill="#d3d3d3" stroke="#000000" points="351,-222.4214 322,-222.4214 322,-204.4214 351,-204.4214 351,-222.4214"/>
<text text-anchor="middle" x="336.5" y="-211.2214" font-family="Times,serif" font-size="9.00" fill="#000000">&#45;18</text>
</g>
<!-- &#45;18&#45;&gt;A XOR B -->
<g id="edge44" class="edge">
<title>&#45;18&#45;&gt;A XOR B</title>
<path fill="none" stroke="#ff0000" stroke-width=".5787" d="M342.8411,-204.407C358.8108,-181.9793 402.4892,-122.3151 445.5,-78.4264 458.7875,-64.8677 475.0114,-51.1253 488.2793,-40.5082"/>
<polygon fill="#ff0000" stroke="#ff0000" stroke-width=".5787" points="490.8265,-42.9568 496.5107,-34.0159 486.4915,-37.4606 490.8265,-42.9568"/>
</g>
<!-- &#45;18&#45;&gt;1 -->
<g id="edge7" class="edge">
<title>&#45;18&#45;&gt;1</title>
<path fill="none" stroke="#00ff00" stroke-width=".3929" d="M351.13,-207.6511C370.3695,-200.3476 405.3851,-188.0306 436.5,-182.3087 499.8945,-170.6506 961.7352,-181.8632 1015.5,-146.3087 1043.6452,-127.6964 1023.9191,-100.4307 1049.5,-78.4264 1091.2461,-42.517 1155.9796,-29.0457 1194.2106,-24.0635"/>
<polygon fill="#00ff00" stroke="#00ff00" stroke-width=".3929" points="1194.7321,-27.5263 1204.2497,-22.8718 1193.9068,-20.5751 1194.7321,-27.5263"/>
</g>
<!-- 99876 -->
<g id="node28" class="node">
<title>99876</title>
<ellipse fill="#ffffff" stroke="#000000" cx="345.5" cy="-112.3675" rx="27.6545" ry="27.6545"/>
<text text-anchor="middle" x="345.5" y="-115.1675" font-family="Times,serif" font-size="9.00" fill="#000000">99876</text>
<text text-anchor="middle" x="345.5" y="-105.1675" font-family="Times,serif" font-size="9.00" fill="#000000">relu</text>
</g>
<!-- &#45;18&#45;&gt;99876 -->
<g id="edge58" class="edge">
<title>&#45;18&#45;&gt;99876</title>
<path fill="none" stroke="#ff0000" stroke-width=".1509" d="M337.3306,-204.0956C338.4224,-191.8361 340.406,-169.5637 342.1452,-150.0361"/>
<polygon fill="#ff0000" stroke="#ff0000" stroke-width=".1509" points="345.6516,-150.1185 343.0526,-139.8475 338.6792,-149.4975 345.6516,-150.1185"/>
</g>
<!-- &#45;18&#45;&gt;649 -->
<g id="edge24" class="edge">
<title>&#45;18&#45;&gt;649</title>
<path fill="none" stroke="#00ff00" stroke-width=".3233" d="M343.7365,-204.2747C349.2505,-197.6715 357.2734,-188.8099 365.5,-182.3087 395.2365,-158.8088 433.8073,-138.2301 459.7623,-125.5874"/>
<polygon fill="#00ff00" stroke="#00ff00" stroke-width=".3233" points="461.5398,-128.6168 469.0473,-121.141 458.5164,-122.3034 461.5398,-128.6168"/>
</g>
<!-- &#45;19 -->
<g id="node19" class="node">
<title>&#45;19</title>
<polygon fill="#d3d3d3" stroke="#000000" points="29,-121.3675 0,-121.3675 0,-103.3675 29,-103.3675 29,-121.3675"/>
<text text-anchor="middle" x="14.5" y="-110.1675" font-family="Times,serif" font-size="9.00" fill="#000000">&#45;19</text>
</g>
<!-- &#45;19&#45;&gt;A XOR B -->
<g id="edge29" class="edge">
<title>&#45;19&#45;&gt;A XOR B</title>
<path fill="none" stroke="#ff0000" stroke-width=".2647" d="M19.6337,-103.1841C24.6243,-95.2057 32.9824,-84.0694 43.5,-78.4264 119.8803,-37.4466 389.3969,-25.1572 481.9895,-22.099"/>
<polygon fill="#ff0000" stroke="#ff0000" stroke-width=".2647" points="482.2485,-25.5927 492.1328,-21.778 482.027,-18.5962 482.2485,-25.5927"/>
</g>
<!-- &#45;20 -->
<g id="node20" class="node">
<title>&#45;20</title>
<polygon fill="#d3d3d3" stroke="#000000" points="815,-222.4214 786,-222.4214 786,-204.4214 815,-204.4214 815,-222.4214"/>
<text text-anchor="middle" x="800.5" y="-211.2214" font-family="Times,serif" font-size="9.00" fill="#000000">&#45;20</text>
</g>
<!-- &#45;20&#45;&gt;A XOR B -->
<g id="edge23" class="edge">
<title>&#45;20&#45;&gt;A XOR B</title>
<path fill="none" stroke="#00ff00" stroke-width=".1786" d="M795.6182,-204.1646C791.4488,-197.1446 784.8114,-187.7967 776.5,-182.3087 723.2459,-147.1448 689.4604,-183.3574 637.5,-146.3087 608.0277,-125.2943 617.5599,-104.5458 592.5,-78.4264 577.0683,-62.3423 556.6209,-47.6729 540.395,-37.2154"/>
<polygon fill="#00ff00" stroke="#00ff00" stroke-width=".1786" points="542.2021,-34.2174 531.8736,-31.8568 538.4757,-40.1431 542.2021,-34.2174"/>
</g>
<!-- &#45;20&#45;&gt;1 -->
<g id="edge38" class="edge">
<title>&#45;20&#45;&gt;1</title>
<path fill="none" stroke="#00ff00" stroke-width=".3228" d="M804.8427,-204.4044C808.8637,-197.1255 815.5683,-187.302 824.5,-182.3087 956.7497,-108.3732 1039.1584,-232.8858 1163.5,-146.3087 1172.114,-140.3109 1197.4557,-85.1589 1212.9449,-50.1161"/>
<polygon fill="#00ff00" stroke="#00ff00" stroke-width=".3228" points="1216.2099,-51.3861 1217.0303,-40.8231 1209.8017,-48.5689 1216.2099,-51.3861"/>
</g>
<!-- &#45;20&#45;&gt;649 -->
<g id="edge42" class="edge">
<title>&#45;20&#45;&gt;649</title>
<path fill="none" stroke="#00ff00" stroke-width=".1366" d="M795.865,-204.3321C791.7517,-197.2122 785.0691,-187.6477 776.5,-182.3087 708.3655,-139.8571 677.3074,-166.0685 599.5,-146.3087 571.7224,-139.2543 540.5505,-129.5628 518.3285,-122.3414"/>
<polygon fill="#00ff00" stroke="#00ff00" stroke-width=".1366" points="519.3853,-119.0046 508.7925,-119.2156 517.2048,-125.6564 519.3853,-119.0046"/>
</g>
<!-- &#45;21 -->
<g id="node21" class="node">
<title>&#45;21</title>
<polygon fill="#d3d3d3" stroke="#000000" points="555,-222.4214 526,-222.4214 526,-204.4214 555,-204.4214 555,-222.4214"/>
<text text-anchor="middle" x="540.5" y="-211.2214" font-family="Times,serif" font-size="9.00" fill="#000000">&#45;21</text>
</g>
<!-- &#45;21&#45;&gt;A XOR B -->
<g id="edge34" class="edge">
<title>&#45;21&#45;&gt;A XOR B</title>
<path fill="none" stroke="#00ff00" stroke-width=".1676" d="M534.7375,-204.2699C530.2866,-197.6644 523.6886,-188.8019 516.5,-182.3087 493.9854,-161.9718 473.2489,-172.8221 458.5,-146.3087 443.8336,-119.9435 447.2299,-106.4122 458.5,-78.4264 464.5468,-63.4111 476.6272,-50.1278 487.9297,-40.1492"/>
<polygon fill="#00ff00" stroke="#00ff00" stroke-width=".1676" points="490.4811,-42.5792 495.9248,-33.4898 486.001,-37.2006 490.4811,-42.5792"/>
</g>
<!-- &#45;21&#45;&gt;1 -->
<g id="edge9" class="edge">
<title>&#45;21&#45;&gt;1</title>
<path fill="none" stroke="#00ff00" stroke-width=".3461" d="M554.6385,-204.3389C566.8071,-197.02 585.103,-187.1746 602.5,-182.3087 698.4716,-155.4652 965.6227,-200.1204 1049.5,-146.3087 1078.6013,-127.6386 1061.6603,-101.3996 1087.5,-78.4264 1118.3627,-50.9873 1164.2199,-35.548 1194.4795,-27.7962"/>
<polygon fill="#00ff00" stroke="#00ff00" stroke-width=".3461" points="1195.5902,-31.1283 1204.4821,-25.3678 1193.9387,-24.3259 1195.5902,-31.1283"/>
</g>
<!-- &#45;21&#45;&gt;649 -->
<g id="edge1" class="edge">
<title>&#45;21&#45;&gt;649</title>
<path fill="none" stroke="#00ff00" stroke-width=".1451" d="M535.7012,-204.0956C528.3422,-189.7946 513.972,-161.8683 503.0114,-140.5681"/>
<polygon fill="#00ff00" stroke="#00ff00" stroke-width=".1451" points="506.0909,-138.9032 498.4032,-131.6128 499.8666,-142.1061 506.0909,-138.9032"/>
</g>
<!-- &#45;22 -->
<g id="node22" class="node">
<title>&#45;22</title>
<polygon fill="#d3d3d3" stroke="#000000" points="306,-298.5341 277,-298.5341 277,-280.5341 306,-280.5341 306,-298.5341"/>
<text text-anchor="middle" x="291.5" y="-287.3341" font-family="Times,serif" font-size="9.00" fill="#000000">&#45;22</text>
</g>
<!-- &#45;22&#45;&gt;A XOR B -->
<g id="edge45" class="edge">
<title>&#45;22&#45;&gt;A XOR B</title>
<path fill="none" stroke="#ff0000" stroke-width=".1249" stroke-dasharray="1,5" d="M276.8607,-288.3503C236.207,-284.7299 123.4734,-272.3196 101.5,-244.5341 80.8896,-218.4721 108.2295,-87.6108 117.5,-78.4264 143.4029,-52.7642 393.2001,-30.7104 482.202,-23.6086"/>
<polygon fill="#ff0000" stroke="#ff0000" stroke-width=".1249" points="482.5391,-27.093 492.2329,-22.8174 481.9887,-20.1147 482.5391,-27.093"/>
</g>
<!-- &#45;22&#45;&gt;1 -->
<g id="edge2" class="edge">
<title>&#45;22&#45;&gt;1</title>
<path fill="none" stroke="#00ff00" stroke-width=".3339" d="M306.0325,-288.4343C330.1965,-286.6284 380.1694,-282.9904 422.5,-280.5341 591.2943,-270.7391 1020.0357,-291.3614 1182.5,-244.5341 1267.8308,-219.939 1311.7259,-222.9999 1356.5,-146.3087 1371.7112,-120.2541 1373.0215,-103.6705 1356.5,-78.4264 1334.5217,-44.8446 1288.0342,-30.8594 1256.7739,-25.113"/>
<polygon fill="#00ff00" stroke="#00ff00" stroke-width=".3339" points="1257.2511,-21.6445 1246.8137,-23.4637 1256.1075,-28.5505 1257.2511,-21.6445"/>
</g>
<!-- &#45;22&#45;&gt;649 -->
<g id="edge12" class="edge">
<title>&#45;22&#45;&gt;649</title>
<path fill="none" stroke="#ff0000" stroke-width=".3636" d="M306.1884,-281.0668C320.4015,-272.5901 342.2645,-258.79 359.5,-244.5341 400.8769,-210.3103 443.3232,-164.3032 467.7327,-136.5754"/>
<polygon fill="#ff0000" stroke="#ff0000" stroke-width=".3636" points="470.4712,-138.7606 474.4157,-128.9274 465.2001,-134.1546 470.4712,-138.7606"/>
</g>
<!-- 259055 -->
<g id="node31" class="node">
<title>259055</title>
<ellipse fill="#ffffff" stroke="#000000" cx="154.5" cy="-213.4214" rx="31.2258" ry="31.2258"/>
<text text-anchor="middle" x="154.5" y="-216.2214" font-family="Times,serif" font-size="9.00" fill="#000000">259055</text>
<text text-anchor="middle" x="154.5" y="-206.2214" font-family="Times,serif" font-size="9.00" fill="#000000">relu</text>
</g>
<!-- &#45;22&#45;&gt;259055 -->
<g id="edge62" class="edge">
<title>&#45;22&#45;&gt;259055</title>
<path fill="none" stroke="#00ff00" stroke-width=".1126" d="M276.8078,-283.1717C258.3474,-274.9923 225.888,-259.9924 199.5,-244.5341 195.8121,-242.3737 192.0303,-240.0114 188.3015,-237.5851"/>
<polygon fill="#00ff00" stroke="#00ff00" stroke-width=".1126" points="190.0235,-234.526 179.7664,-231.872 186.1297,-240.3431 190.0235,-234.526"/>
</g>
<!-- &#45;23 -->
<g id="node23" class="node">
<title>&#45;23</title>
<polygon fill="#d3d3d3" stroke="#000000" points="721,-222.4214 692,-222.4214 692,-204.4214 721,-204.4214 721,-222.4214"/>
<text text-anchor="middle" x="706.5" y="-211.2214" font-family="Times,serif" font-size="9.00" fill="#000000">&#45;23</text>
</g>
<!-- &#45;23&#45;&gt;A XOR B -->
<g id="edge19" class="edge">
<title>&#45;23&#45;&gt;A XOR B</title>
<path fill="none" stroke="#00ff00" stroke-width=".3344" d="M700.0954,-204.3004C694.7784,-197.3552 686.6299,-188.0419 677.5,-182.3087 631.7849,-153.6014 600.8992,-183.2096 561.5,-146.3087 535.1541,-121.6333 523.1113,-80.9091 517.7118,-52.6585"/>
<polygon fill="#00ff00" stroke="#00ff00" stroke-width=".3344" points="521.1079,-51.7569 515.9518,-42.5014 514.2106,-52.9521 521.1079,-51.7569"/>
</g>
<!-- &#45;23&#45;&gt;1 -->
<g id="edge40" class="edge">
<title>&#45;23&#45;&gt;1</title>
<path fill="none" stroke="#00ff00" stroke-width=".3849" stroke-dasharray="1,5" d="M710.5598,-204.3987C714.351,-197.1162 720.7421,-187.2908 729.5,-182.3087 868.4967,-103.2373 953.7684,-233.9911 1087.5,-146.3087 1116.4145,-127.3506 1101.166,-102.9889 1125.5,-78.4264 1145.6424,-58.0949 1174.5086,-42.6176 1196.0542,-32.9198"/>
<polygon fill="#00ff00" stroke="#00ff00" stroke-width=".3849" points="1197.5995,-36.0647 1205.3807,-28.8741 1194.8138,-29.6428 1197.5995,-36.0647"/>
</g>
<!-- &#45;23&#45;&gt;649 -->
<g id="edge47" class="edge">
<title>&#45;23&#45;&gt;649</title>
<path fill="none" stroke="#00ff00" stroke-width=".1558" d="M700.4198,-204.4064C695.1713,-197.3297 686.9562,-187.787 677.5,-182.3087 616.6797,-147.0733 585.1904,-179.9975 523.5,-146.3087 518.4856,-143.5703 513.6822,-139.9163 509.3271,-136.0199"/>
<polygon fill="#00ff00" stroke="#00ff00" stroke-width=".1558" points="511.6242,-133.3711 502.0236,-128.8901 506.7343,-138.38 511.6242,-133.3711"/>
</g>
<!-- &#45;24 -->
<g id="node24" class="node">
<title>&#45;24</title>
<polygon fill="#d3d3d3" stroke="#000000" points="1007,-121.3675 978,-121.3675 978,-103.3675 1007,-103.3675 1007,-121.3675"/>
<text text-anchor="middle" x="992.5" y="-110.1675" font-family="Times,serif" font-size="9.00" fill="#000000">&#45;24</text>
</g>
<!-- &#45;24&#45;&gt;A XOR B -->
<g id="edge35" class="edge">
<title>&#45;24&#45;&gt;A XOR B</title>
<path fill="none" stroke="#ff0000" stroke-width=".121" d="M988.6454,-103.2189C984.7804,-95.2639 978.0314,-84.1424 968.5,-78.4264 896.7378,-35.3903 636.0519,-24.4545 545.082,-21.9192"/>
<polygon fill="#ff0000" stroke="#ff0000" stroke-width=".121" points="544.9422,-18.4144 534.8535,-21.6501 544.758,-25.412 544.9422,-18.4144"/>
</g>
<!-- &#45;24&#45;&gt;1 -->
<g id="edge50" class="edge">
<title>&#45;24&#45;&gt;1</title>
<path fill="none" stroke="#00ff00" stroke-width=".6288" d="M998.0545,-103.2547C1003.2105,-95.5459 1011.5728,-84.7697 1021.5,-78.4264 1076.0768,-43.5531 1152.0847,-29.5857 1194.2239,-24.2635"/>
<polygon fill="#00ff00" stroke="#00ff00" stroke-width=".6288" points="1194.653,-27.7373 1204.1738,-23.0892 1193.8325,-20.7855 1194.653,-27.7373"/>
</g>
<!-- 1808704&#45;&gt;A XOR B -->
<g id="edge70" class="edge">
<title>1808704&#45;&gt;A XOR B</title>
<path fill="none" stroke="#ff0000" stroke-width=".5307" d="M686.6068,-91.5471C679.9204,-86.8836 672.6227,-82.2049 665.5,-78.4264 625.3302,-57.1168 575.4501,-39.9506 544.0352,-30.1641"/>
<polygon fill="#ff0000" stroke="#ff0000" stroke-width=".5307" points="544.7165,-26.7124 534.13,-27.1328 542.668,-33.406 544.7165,-26.7124"/>
</g>
<!-- 99876&#45;&gt;A XOR B -->
<g id="edge59" class="edge">
<title>99876&#45;&gt;A XOR B</title>
<path fill="none" stroke="#ff0000" stroke-width=".1235" d="M366.0892,-94.0035C372.6717,-88.6138 380.1603,-82.9563 387.5,-78.4264 418.862,-59.0705 457.8814,-42.368 484.1198,-32.0891"/>
<polygon fill="#ff0000" stroke="#ff0000" stroke-width=".1235" points="485.4346,-35.3334 493.5075,-28.472 482.9178,-28.8015 485.4346,-35.3334"/>
</g>
<!-- 649&#45;&gt;A XOR B -->
<g id="edge52" class="edge">
<title>649&#45;&gt;A XOR B</title>
<path fill="none" stroke="#00ff00" stroke-width=".129" stroke-dasharray="1,5" d="M494.1729,-91.6832C497.4013,-79.912 501.5061,-64.9452 505.1016,-51.8351"/>
<polygon fill="#00ff00" stroke="#00ff00" stroke-width=".129" points="508.5799,-52.3853 507.8496,-41.8157 501.8292,-50.5338 508.5799,-52.3853"/>
</g>
<!-- 649&#45;&gt;1 -->
<g id="edge28" class="edge">
<title>649&#45;&gt;1</title>
<path fill="none" stroke="#00ff00" stroke-width=".3277" d="M509.4261,-107.8889C543.1818,-100.7947 611.808,-86.9099 670.5,-78.4264 869.0826,-49.7229 1109.6672,-30.0117 1194.268,-23.5332"/>
<polygon fill="#00ff00" stroke="#00ff00" stroke-width=".3277" points="1194.5454,-27.0223 1204.2516,-22.7749 1194.0152,-20.0424 1194.5454,-27.0223"/>
</g>
<!-- 83406&#45;&gt;1 -->
<g id="edge56" class="edge">
<title>83406&#45;&gt;1</title>
<path fill="none" stroke="#00ff00" stroke-width=".288" stroke-dasharray="1,5" d="M1299.565,-93.036C1284.4668,-78.3949 1263.7159,-58.2722 1248.019,-43.0504"/>
<polygon fill="#00ff00" stroke="#00ff00" stroke-width=".288" points="1250.3816,-40.4661 1240.7661,-36.0171 1245.5084,-45.4914 1250.3816,-40.4661"/>
</g>
<!-- 259055&#45;&gt;A XOR B -->
<g id="edge63" class="edge">
<title>259055&#45;&gt;A XOR B</title>
<path fill="none" stroke="#ff0000" stroke-width=".1982" d="M156.08,-182.2166C159.4041,-151.1656 169.4572,-104.492 199.5,-78.4264 241.5001,-41.9865 410.6353,-27.5184 481.7505,-22.9679"/>
<polygon fill="#ff0000" stroke="#ff0000" stroke-width=".1982" points="482.1309,-26.4512 491.8972,-22.3439 481.7012,-19.4644 482.1309,-26.4512"/>
</g>
<!-- 259055&#45;&gt;649 -->
<g id="edge65" class="edge">
<title>259055&#45;&gt;649</title>
<path fill="none" stroke="#ff0000" stroke-width=".1918" d="M184.4447,-204.8512C228.0914,-192.3043 311.6998,-168.0606 382.5,-146.3087 408.2152,-138.4082 437.3102,-129.0628 458.5038,-122.1805"/>
<polygon fill="#ff0000" stroke="#ff0000" stroke-width=".1918" points="459.7981,-125.4401 468.2238,-119.0169 457.6316,-118.7837 459.7981,-125.4401"/>
</g>
<!-- 9522&#45;&gt;A XOR B -->
<g id="edge54" class="edge">
<title>9522&#45;&gt;A XOR B</title>
<path fill="none" stroke="#00ff00" stroke-width=".1254" d="M930.3172,-195.0338C925.2521,-190.3884 919.4595,-185.7485 913.5,-182.3087 867.4824,-155.7476 841.6042,-178.7177 799.5,-146.3087 771.1995,-124.5248 785.5937,-99.1391 756.5,-78.4264 722.5136,-54.2304 602.2188,-34.0701 544.6477,-25.5593"/>
<polygon fill="#00ff00" stroke="#00ff00" stroke-width=".1254" points="545.0624,-22.0829 534.6628,-24.1074 544.0551,-29.01 545.0624,-22.0829"/>
</g>
<!-- 9522&#45;&gt;83406 -->
<g id="edge68" class="edge">
<title>9522&#45;&gt;83406</title>
<path fill="none" stroke="#ff0000" stroke-width=".1269" d="M972.1525,-209.9602C1039.0206,-200.3286 1222.4924,-172.2156 1277.5,-146.3087 1282.2549,-144.0692 1286.9415,-141.1829 1291.3616,-138.0404"/>
<polygon fill="#ff0000" stroke="#ff0000" stroke-width=".1269" points="1293.696,-140.6602 1299.4812,-131.7842 1289.4236,-135.1152 1293.696,-140.6602"/>
</g>
<!-- 599542&#45;&gt;649 -->
<g id="edge67" class="edge">
<title>599542&#45;&gt;649</title>
<path fill="none" stroke="#ff0000" stroke-width=".4434" d="M480.1983,-182.2773C481.6471,-170.0772 483.3068,-156.1 484.7596,-143.8659"/>
<polygon fill="#ff0000" stroke="#ff0000" stroke-width=".4434" points="488.2688,-143.9948 485.9725,-133.6518 481.3177,-143.1693 488.2688,-143.9948"/>
</g>
</g>
</svg>
